<?xml version="1.0" encoding="UTF-8"?>
<svg xmlns="http://www.w3.org/2000/svg" id="Capa_2" viewBox="0 0 893.21 501.76"><defs><style>.cls-1{fill:#fff;}.cls-2{fill:#223c6a;}</style></defs><g id="Capa_1-2"><rect class="cls-1" width="893.21" height="501.76"/><polygon class="cls-2" points="453.28 188.52 439.28 188.52 437.82 191.71 454.74 191.71 453.28 188.52"/><polygon class="cls-2" points="454.46 194.89 438.11 194.89 436.65 198.08 455.92 198.08 454.46 194.89"/><polygon class="cls-2" points="451.36 210.82 453.36 201.26 439.2 201.26 441.2 210.82 451.36 210.82"/><path class="cls-2" d="M446.29,223.55c-2.8,0-4.97,2.43-4.66,5.21l3.74,33.31c-.86.36-1.47,1.21-1.47,2.2,0,1.07.71,1.94,1.68,2.25.22.09.45.14.7.14,0,0,0,0,0,0s0,0,0,0c1.32,0,2.39-1.07,2.39-2.39,0-.99-.61-1.84-1.47-2.2l3.75-33.31c.31-2.78-1.86-5.21-4.66-5.21Z"/><path class="cls-2" d="M436.14,219.57c.7,0,1.32-.32,1.75-.8h16.78c.44.48,1.05.8,1.75.8,1.32,0,2.39-1.07,2.39-2.39s-1.07-2.39-2.39-2.39c-.7,0-1.32.31-1.75.8h-16.78c-.44-.48-1.05-.8-1.75-.8-1.32,0-2.39,1.07-2.39,2.39s1.07,2.39,2.39,2.39Z"/><path class="cls-2" d="M437.57,183.74h17.44c6.48-6.04.03-11.97,1.66-14.63-1.94.46-2.07,3.75-3.51,5.29-2.49-5.2,3.18-10.01-1.76-16.14.17,4.93-4.54,6.7-5.1,14.01-2.18-4.29.96-8.27-2.13-12.74-.59,4-5.12,5.96-4.48,12.78-2.24-.95-2.18-3.64-4.28-4.12,1.77,3.78-4.06,9.93,2.17,15.55Z"/><path class="cls-2" d="M523.31,231.7v-114.72h-154.05v114.72c0,42.54,34.48,77.02,77.02,77.02,0,0,0,0,0-.01h0c42.54.01,77.02-34.47,77.02-77.01ZM481.44,290.41c-.67.06-1.34.1-2,.11-.17-.14-.34-.27-.52-.41-.6-.47-1.23-.9-1.89-1.31-1.03-.63-2.1-1.2-3.15-1.69-.69-.32-1.35-.6-1.99-.86-.31-.12-.62-.25-.91-.36.22-.61.4-1.25.59-1.88.26-.84.47-1.67.66-2.52.29-.06.6-.11.92-.15.18-.02.37-.03.56-.05.4-.03.77-.1,1.2-.1.1,0,.21.02.31.02.53,0,1.08.04,1.65.09,1.71.17,3.53.53,5.31,1.06.48.14.95.29,1.42.46.48.17.95.35,1.41.54.41.17.84.33,1.24.51.76.35,1.47.73,2.13,1.13.61.37,1.17.76,1.67,1.16.47.38.9.77,1.25,1.18-2.18,1.68-5.99,2.72-9.88,3.06ZM473.72,278.28c.09-.37.19-.74.3-1.11,1.28-4.42,3.65-8.88,6.27-10.86.84,1.26,1.45,3.03,1.86,5,.06.28.12.55.16.84.08.49.14.99.2,1.49.06.49.09.99.13,1.5.06,1.03.08,2.06.04,3.09-.01.38-.04.75-.07,1.12-1.98-.55-3.95-.9-5.78-1.05-.53-.04-1.05-.07-1.55-.08-.11,0-.24-.02-.34-.02-.45,0-.8.06-1.2.09ZM490.62,282.89c-.85-.56-1.75-1.09-2.73-1.56-.77-.37-1.56-.71-2.38-1.01.04-.4.1-.78.13-1.18.04-.59.02-1.19.03-1.79,0-.82-.01-1.64-.07-2.46.3-.01.6-.03.91-.03.66,0,1.33.03,2,.07.76.05,1.52.14,2.28.24,1.86.26,3.64.68,5.2,1.26.63.23,1.22.49,1.76.77.54.28,1.04.58,1.46.9.02.01.04.02.06.04-1.74,1.98-5.07,3.67-8.64,4.76ZM503.8,271.06c-.32.31-.67.62-1.02.92-1.07.93-2.24,1.81-3.51,2.61-.17-.09-.34-.17-.52-.25-.98-.48-2.03-.89-3.13-1.22-.54-.16-1.09-.31-1.65-.44-.42-.1-.84-.18-1.26-.25-.59-.11-1.17-.2-1.75-.28-.05,0-.09-.01-.14-.02-.62-.08-1.23-.14-1.83-.18-.86-.06-1.7-.11-2.49-.11h0c-.36,0-.76,0-1.18.02.21-.25.45-.5.73-.74.35-.31.76-.6,1.2-.89.8-.52,1.74-1,2.77-1.43.46-.19.94-.37,1.44-.54.3-.1.6-.2.91-.29.18-.06.37-.11.56-.16.29-.08.58-.16.87-.23.39-.1.77-.19,1.17-.27.09-.02.17-.03.26-.05.42-.08.84-.17,1.26-.23.51-.08,1.01-.15,1.52-.21,1.03-.11,2.05-.17,3.03-.17.35,0,.65.06.99.07.51.02,1.02.05,1.5.11.44.06.84.15,1.25.23.08.02.15.04.23.06.51.12,1.05.22,1.49.4.01,0,.03,0,.04.01-.57,1.17-1.54,2.37-2.73,3.54ZM507.25,264.62c-.57-.21-1.2-.37-1.85-.51.12-1.47.15-2.96.07-4.45-.03-.5-.08-.99-.13-1.49-.05-.51-.09-1.03-.16-1.53-.04-.26-.1-.5-.15-.75.99-.51,2-.96,2.98-1.32.84-.31,1.66-.55,2.45-.72.71-.16,1.38-.26,2.02-.29.15,0,.31-.03.45-.03.08,0,.17,0,.25,0-.3,3.28-2.84,7.67-5.92,11.1ZM510.62,250.76c-2.01.35-4.17,1.07-6.31,2.11-.26-.85-.56-1.65-.9-2.38-.28-.6-.56-1.2-.9-1.7l-.72-1.06-.99-1.46-.08-.12-1.19.91-1.34,1.03c-1,.77-1.93,1.87-2.82,3.1-1.03-5.47-.31-12.87,2.14-16.44.35.27.67.67,1.01,1.02.44.46.86.95,1.27,1.53.48.66.93,1.36,1.36,2.15.9,1.64,1.7,3.48,2.3,5.37,1.96-2.71,4.51-5.26,7.01-6.93.48-.32.95-.6,1.42-.85.5-.27,1-.49,1.48-.66.17-.06.35-.14.52-.19.85,3.8-.75,9.96-3.26,14.58ZM501.7,234.79c.8-4.12,2.41-8.16,4.49-10.26,1.91,2.13,3.3,6.04,3.93,10.06-2.04,1.14-4.02,2.73-5.74,4.49-.71-1.44-1.62-2.94-2.69-4.28ZM502.5,130.51l2.59-7.96,2.59,7.96h8.37l-6.77,4.92,2.59,7.96-6.77-4.92-6.77,4.92,2.59-7.96-6.77-4.92h8.37ZM502.5,163.83l2.59-7.96,2.59,7.96h8.37s-6.77,4.92-6.77,4.92l2.59,7.96-6.77-4.92-6.77,4.92,2.59-7.96-6.77-4.92h8.37ZM494.62,259.01c.11-.29.22-.57.34-.85.2-.49.41-.97.63-1.45.03-.07.07-.14.1-.21.26-.54.53-1.07.82-1.58.03-.05.06-.1.09-.15,1.03-1.8,2.2-3.34,3.44-4.29.69,1.01,1.22,2.34,1.63,3.84.13.49.25,1,.35,1.53.1.52.19,1.05.26,1.6,0,.02,0,.03,0,.05.06.49.12.99.16,1.49.04.5.07.99.09,1.49.03,1.09,0,2.18-.07,3.24-.47-.03-.89-.11-1.4-.11-.94,0-1.92.06-2.92.16-.49.05-.99.12-1.49.19-.34.05-.68.08-1.02.14-.15.02-.29.06-.44.09-.43.08-.86.17-1.29.27-.25.05-.49.09-.74.15.17-1.12.43-2.29.77-3.47.21-.72.45-1.43.71-2.14ZM492.72,252.99c.23.49.44,1,.64,1.54-.04.08-.09.15-.13.23-1.69,3.39-2.86,7.3-3.19,10.81-1.35.49-2.6,1.06-3.73,1.73-.95-5.55.86-14.31,4.15-17.87.85.89,1.61,2.13,2.27,3.56ZM473.1,130.51l2.59-7.96,2.59,7.96h8.37l-6.77,4.92,2.59,7.96-6.77-4.92-6.77,4.92,2.59-7.96-6.77-4.92h8.37ZM443.7,130.51l2.59-7.96,2.59,7.96h8.37l-6.77,4.92,2.59,7.96-6.77-4.92-6.77,4.92,2.59-7.96-6.77-4.92h8.37ZM414.3,130.51l2.59-7.96,2.59,7.96h8.37l-6.77,4.92,2.59,7.96-6.77-4.92-6.77,4.92,2.59-7.96-6.77-4.92h8.37ZM405.71,150.46h81.14v84.22c0,22.41-18.16,40.57-40.57,40.57h0s0,0,0,0c-22.41,0-40.57-18.17-40.57-40.57v-84.22ZM418.87,276.88c-1.87-.37-3.72-.47-5.07-.47-.6,0-1.25.02-1.91.06-.51.03-1.04.08-1.57.13-.22.02-.45.05-.68.08-.09-1.38-.09-2.77,0-4.13.04-.69.11-1.36.2-2.02.31-2.24.88-4.27,1.76-5.71,3.02,2.09,5.88,7.21,7.28,12.07ZM402.57,251.97c2.75,3.6,4.31,10.79,3.87,16.12-.84-.45-1.73-.86-2.68-1.23-.15-3.76-1.65-8.35-3.8-12.28,0-.01-.01-.02-.02-.04.63-1.28,1.34-2.4,2.13-3.22.17.19.33.42.49.64ZM400.67,265.85c-.55-.15-1.11-.26-1.67-.38-.49-.1-.98-.22-1.47-.31-.1-.02-.2-.02-.3-.04-.4-.06-.8-.11-1.2-.16-.09-.01-.18-.02-.26-.03-.5-.06-1-.11-1.49-.14-.68-.05-1.35-.09-2-.09-.47,0-.86.08-1.3.1-.44-2.12-.65-4.45-.62-6.71,0-.54.03-1.06.07-1.59,0-.07,0-.14.01-.2.01-.14.01-.28.02-.41.03-.36.09-.7.14-1.05.01-.09.02-.18.03-.27.03-.18.05-.36.08-.53.07-.39.15-.75.24-1.12.29-1.23.67-2.34,1.18-3.23.26.17.51.39.77.6.42.35.84.74,1.26,1.19.53.57,1.05,1.21,1.55,1.91.29.4.57.82.84,1.25.02.03.03.05.05.08.25.4.48.82.71,1.24.08.15.18.3.26.46.33.62.63,1.25.92,1.89,1.13,2.54,1.92,5.22,2.19,7.55ZM399.89,249.26c-.63.66-1.22,1.47-1.77,2.37-.8-1.13-1.64-2.11-2.52-2.96-.4-.39-.81-.71-1.23-1.02-.2-.15-.39-.36-.6-.49l-.69-.45-1.98-1.3-1.59,2.77c-.48.84-.86,1.87-1.18,2.96-.11-.07-.21-.14-.32-.2-1.63-3.21-2.7-6.59-2.54-9.13,1.82.22,3.96,1.14,6.09,2.46.45-1.48,1.02-2.89,1.66-4.23.36-.76.74-1.47,1.14-2.14.38-.62.76-1.22,1.17-1.74.48-.61.98-1.16,1.49-1.59,2.31,3.14,3.31,9.45,2.85,14.7ZM387.78,253.63s-.01,0-.02,0c0-.01,0-.02,0-.04,0,.01.01.02.02.03ZM383.84,248.84c-.82-.33-1.63-.62-2.42-.82-2.4-4.9-3.72-11.77-2.49-15.73,1.76.67,3.68,2.12,5.48,3.97.55-3.69,1.71-7.2,3.4-9.23,1.89,1.76,3.47,5,4.48,8.51-.98,1.47-1.78,3.05-2.37,4.47-1.44-.62-2.8-1.02-4.07-1.17l-3.17-.39-.2,3.18c-.13,2.06.39,4.57,1.36,7.21ZM384.9,130.51l2.59-7.96,2.59,7.96h8.37l-6.77,4.92,2.59,7.96-6.77-4.92-6.77,4.92,2.59-7.96-6.77-4.92h8.37ZM384.9,163.83l2.59-7.96,2.59,7.96h8.37s-6.77,4.92-6.77,4.92l2.59,7.96-6.77-4.92-6.77,4.92,2.59-7.96-6.77-4.92h8.37ZM378.46,250.56c.31.01.64.07.96.12.67.1,1.35.24,2.08.47.92.29,1.89.7,2.85,1.18.47.23.94.48,1.42.75.34.19.68.38,1.02.59.3.19.6.38.9.58-.05.32-.08.65-.12.98-.02.22-.06.42-.08.64-.03.3-.05.59-.07.88-.16,2.79.05,5.71.59,8.42-.47.1-.91.23-1.34.37-4.16-3.8-8.11-10.52-8.2-14.97ZM387.95,270.16c-.39-.54-.77-1.08-1.02-1.61.27-.11.61-.15.91-.24.3-.09.6-.18.92-.24.4-.08.81-.16,1.24-.21.08-.01.17-.01.25-.02.5-.05,1.01-.1,1.55-.11.17,0,.31-.03.48-.03.57,0,1.15.03,1.74.07.06,0,.12.01.18.02.5.04,1.01.09,1.52.15.11.01.22.03.34.05.39.05.77.11,1.16.18.18.03.36.07.53.1.98.19,1.95.42,2.88.69.5.15.98.3,1.45.47.48.17.95.35,1.4.54.87.37,1.68.78,2.39,1.22.28.17.55.35.8.53-.04.51-.05,1.04-.07,1.55-.03.82-.04,1.64,0,2.47.02.48.04.96.08,1.43-1.91.41-3.78,1-5.44,1.8-4.79-1.37-10.56-5.09-13.29-8.81ZM412.79,288.5c-.95-.17-1.9-.38-2.84-.64-3.88-1.06-7.57-2.84-9.47-4.95.32-.26.69-.5,1.08-.73.74-.44,1.61-.82,2.55-1.16.92-.33,1.91-.62,2.94-.85.46-.1.92-.2,1.39-.28.03,0,.05,0,.08-.01.49-.08.98-.16,1.48-.22.2-.02.41-.03.61-.06,1.07-.11,2.14-.18,3.19-.18,2.12,0,4.12.24,5.78.71.48.14.94.29,1.35.47.11.52.2,1.03.34,1.56.26.96.58,1.92.92,2.89-.46.13-.93.3-1.39.45-.65.21-1.29.42-1.94.67-1.16.45-2.25.97-3.29,1.54-.56.31-1.13.61-1.62.96-.39-.05-.78-.1-1.17-.17ZM445.5,298.51c-1.96,1.32-3.75,2.77-5.12,4.3-1.92-.76-4.92-1.66-4.92-1.66,0,0,2.19-2.72,6.2-5.4-3.15-1.92-4.97-2.46-7.22-2.9-1.91,1.31-5.7,2.11-9.66,2.11s-7.94-.78-10.53-2.63c.17-.18.38-.36.59-.53.47-.41.99-.81,1.6-1.18.13-.08.28-.15.41-.22,1.12-.63,2.41-1.2,3.78-1.7,1.22-.44,2.5-.81,3.76-1.1.63-.15,1.25-.28,1.86-.38,0-.01,0-.02.01-.04-.37-.89-.73-1.79-1.06-2.7-.42-1.14-.8-2.28-1.09-3.39-.22-.83-.38-1.64-.48-2.42-.17-1.28-.18-2.47.09-3.5,5.33,1.75,11.44,9.57,11.69,14.82,4.51.64,7.21,1.82,10.15,3.54,3.46-1.69,7.03-3.51,12-3.52-.24-4.93,6.93-13.5,12.02-15.41.39,1.25.36,2.85.1,4.58-.1.62-.23,1.26-.39,1.92-.48,2-1.2,4.07-1.96,5.96-.09.23-.18.47-.28.69.22.06.45.14.68.21,1.38.43,2.82.96,4.23,1.58,1.43.63,2.79,1.35,3.98,2.13.13.09.26.18.39.27.74.52,1.4,1.05,1.93,1.6.27.28.52.56.72.85-1.99,1.19-5.16,1.75-8.43,1.75-4.51,0-9.2-1.07-11.23-3.04-2.99.25-6.53,1.41-9.88,3.11,2.51,2.03,3.82,3.71,3.82,3.71,0,0-.82.42-3.81,2.37-1.32-1.46-2.63-2.7-3.92-3.78Z"/><path class="cls-2" d="M181.73,356.07c0,2.91-.28,5.04-.83,6.38-.86,2.38-2.72,3.57-5.58,3.57s-4.74-1.19-5.6-3.57c-.55-1.34-.83-3.47-.83-6.38v-26.06h-7.2v26.08c0,4.51.56,8.02,1.68,10.54,2.1,4.61,6.08,6.91,11.95,6.91s9.84-2.3,11.93-6.91c1.12-2.51,1.68-6.03,1.68-10.54v-26.08h-7.2v26.06Z"/><path class="cls-2" d="M207.23,340.32c-2.06,0-3.77.63-5.11,1.9-.75.71-1.55,1.87-2.38,3.48v-4.58h-6.36v31.32h6.56v-16.98c0-1.94.21-3.53.64-4.78.82-2.36,2.34-3.54,4.55-3.54,1.8,0,3.02.81,3.66,2.42.35.88.53,2.15.53,3.8v19.08h6.72v-21.13c0-3.93-.82-6.75-2.46-8.45s-3.76-2.55-6.34-2.55Z"/><rect class="cls-2" x="220.34" y="341.06" width="6.66" height="31.38"/><rect class="cls-2" x="220.34" y="329.75" width="6.66" height="7.57"/><polygon class="cls-2" points="246.93 341.06 241.59 364.21 236.37 341.06 229 341.06 238 372.44 244.92 372.44 253.98 341.06 246.93 341.06"/><path class="cls-2" d="M276.51,346.34c-1.14-2.12-2.59-3.66-4.34-4.64-1.75-.98-3.72-1.47-5.9-1.47-3.68,0-6.67,1.45-8.98,4.35-2.31,2.9-3.46,7.07-3.46,12.5,0,5.8,1.28,9.99,3.83,12.56,2.55,2.57,5.5,3.86,8.84,3.86,4.05,0,7.19-1.53,9.44-4.58,1.45-1.92,2.26-3.81,2.43-5.67h-6.7c-.39.92-.84,1.64-1.35,2.16-.93.96-2.15,1.44-3.64,1.44-1.41,0-2.62-.39-3.62-1.18-1.65-1.27-2.52-3.47-2.63-6.62h18.28c.03-2.71-.04-4.79-.21-6.23-.31-2.46-.97-4.62-2-6.48ZM260.61,353.64c.24-2.04.82-3.66,1.75-4.86.93-1.19,2.23-1.79,3.91-1.79,1.55,0,2.85.56,3.89,1.69,1.04,1.13,1.63,2.78,1.75,4.96h-11.3Z"/><path class="cls-2" d="M293.79,340.32c-1.97,0-3.56.64-4.79,1.93-.75.77-1.63,2.2-2.65,4.29v-5.47h-6.26v31.38h6.61v-15c0-2.51.26-4.38.76-5.58.9-2.15,2.68-3.22,5.32-3.22.2,0,.46.01.78.03.32.02.69.06,1.11.12v-8.41c-.29-.02-.48-.03-.56-.04-.09-.01-.19-.01-.31-.01Z"/><path class="cls-2" d="M310.2,353.56c-3.92-1.08-6.21-1.83-6.85-2.27-.65-.42-.97-1.1-.97-2.04,0-.75.3-1.4.91-1.96.6-.56,1.62-.83,3.06-.83,1.74,0,2.97.56,3.69,1.67.39.61.63,1.45.72,2.5h6.56c-.29-3.84-1.43-6.54-3.41-8.1-1.97-1.56-4.53-2.35-7.67-2.35-3.31,0-5.87,1.04-7.69,3.12-1.83,2.08-2.73,4.57-2.73,7.47,0,2.46.58,4.34,1.75,5.64,1.17,1.32,3.18,2.43,6.03,3.31,3.96,1.17,6.25,2,6.87,2.48.62.48.92,1.18.92,2.1s-.38,1.68-1.14,2.16-1.79.72-3.09.72c-2.21,0-3.72-.55-4.54-1.64-.46-.61-.76-1.65-.9-3.11h-6.65c0,3.22.94,5.88,2.83,7.96,1.89,2.08,4.8,3.12,8.76,3.12s6.74-.98,8.59-2.95c1.85-1.97,2.78-4.5,2.78-7.61,0-2.36-.65-4.33-1.93-5.9-1.31-1.55-3.27-2.72-5.88-3.48Z"/><rect class="cls-2" x="321.06" y="329.75" width="6.66" height="7.57"/><rect class="cls-2" x="321.06" y="341.06" width="6.66" height="31.38"/><path class="cls-2" d="M348.37,345.04c-.74-1.48-1.7-2.63-2.88-3.47-1.18-.83-2.53-1.25-4.05-1.25-3.3,0-5.94,1.54-7.91,4.61-1.97,3.07-2.96,7.28-2.96,12.64,0,4.64,1,8.45,3.01,11.41,2,2.96,4.47,4.45,7.4,4.45,1.78,0,3.27-.42,4.47-1.27,1.2-.84,2.27-2.2,3.2-4.06v4.35h6.38v-42.37h-6.65v14.97ZM347.11,363.92c-.97,1.73-2.38,2.59-4.24,2.59s-3.24-.87-4.16-2.61c-.91-1.74-1.37-4.05-1.37-6.95,0-2.69.45-4.94,1.35-6.75.9-1.81,2.31-2.72,4.22-2.72,1.26,0,2.36.5,3.32,1.5,1.55,1.65,2.32,4.39,2.32,8.23,0,2.74-.48,4.98-1.45,6.71Z"/><path class="cls-2" d="M379.65,368.09c-.03-1.42-.05-2.63-.05-3.63v-14.39c0-3.78-1.07-6.35-3.22-7.71-2.14-1.36-4.59-2.04-7.35-2.04-4.24,0-7.23,1.38-8.98,4.15-1.09,1.77-1.71,4.02-1.85,6.76h6.33c.16-1.21.47-2.17.93-2.88.65-.96,1.77-1.44,3.34-1.44,1.4,0,2.46.24,3.19.73.72.49,1.09,1.38,1.09,2.66,0,1.05-.47,1.83-1.41,2.33-.53.29-1.4.53-2.62.72l-2.25.35c-2.55.4-4.48,1.08-5.8,2.02-2.4,1.73-3.6,4.52-3.6,8.38,0,2.98.75,5.27,2.24,6.89,1.49,1.62,3.38,2.43,5.66,2.43,1.79,0,3.4-.51,4.82-1.53,1.19-.86,2.24-1.91,3.15-3.14.05.71.11,1.34.18,1.9.07.56.21,1.15.41,1.78h7.14v-1.21c-.43-.25-.75-.57-.97-.95-.21-.38-.35-1.11-.39-2.19ZM373.06,360.23c-.05,2.74-.67,4.63-1.88,5.67-1.21,1.04-2.53,1.55-3.96,1.55-.9,0-1.67-.31-2.3-.94-.63-.62-.95-1.64-.95-3.04,0-1.57.52-2.73,1.55-3.48.61-.44,1.62-.82,3.02-1.12l1.49-.35c.75-.17,1.34-.36,1.76-.56.43-.2.85-.46,1.27-.79v3.05Z"/><path class="cls-2" d="M399.64,345.04c-.74-1.48-1.7-2.63-2.88-3.47-1.18-.83-2.53-1.25-4.05-1.25-3.3,0-5.94,1.54-7.91,4.61-1.97,3.07-2.96,7.28-2.96,12.64,0,4.64,1,8.45,3.01,11.41,2,2.96,4.47,4.45,7.4,4.45,1.78,0,3.27-.42,4.47-1.27,1.2-.84,2.27-2.2,3.2-4.06v4.35h6.38v-42.37h-6.65v14.97ZM398.37,363.92c-.97,1.73-2.38,2.59-4.24,2.59s-3.24-.87-4.16-2.61c-.91-1.74-1.37-4.05-1.37-6.95,0-2.69.45-4.94,1.35-6.75.9-1.81,2.31-2.72,4.22-2.72,1.26,0,2.36.5,3.32,1.5,1.55,1.65,2.32,4.39,2.32,8.23,0,2.74-.48,4.98-1.45,6.71Z"/><path class="cls-2" d="M437.78,345.04c-.74-1.48-1.7-2.63-2.88-3.47-1.18-.83-2.53-1.25-4.05-1.25-3.3,0-5.94,1.54-7.91,4.61-1.97,3.07-2.96,7.28-2.96,12.64,0,4.64,1,8.45,3.01,11.41,2,2.96,4.47,4.45,7.4,4.45,1.78,0,3.27-.42,4.47-1.27,1.2-.84,2.27-2.2,3.2-4.06v4.35h6.38v-42.37h-6.65v14.97ZM436.51,363.92c-.97,1.73-2.38,2.59-4.24,2.59s-3.24-.87-4.16-2.61c-.91-1.74-1.37-4.05-1.37-6.95,0-2.69.45-4.94,1.35-6.75.9-1.81,2.31-2.72,4.22-2.72,1.26,0,2.36.5,3.32,1.5,1.55,1.65,2.32,4.39,2.32,8.23,0,2.74-.48,4.98-1.45,6.71Z"/><path class="cls-2" d="M469.2,346.34c-1.14-2.12-2.59-3.66-4.34-4.64-1.75-.98-3.72-1.47-5.9-1.47-3.68,0-6.67,1.45-8.98,4.35-2.31,2.9-3.46,7.07-3.46,12.5,0,5.8,1.28,9.99,3.83,12.56,2.55,2.57,5.5,3.86,8.84,3.86,4.05,0,7.19-1.53,9.44-4.58,1.45-1.92,2.26-3.81,2.43-5.67h-6.7c-.39.92-.84,1.64-1.35,2.16-.93.96-2.15,1.44-3.64,1.44-1.41,0-2.62-.39-3.62-1.18-1.65-1.27-2.53-3.47-2.63-6.62h18.28c.03-2.71-.04-4.79-.21-6.23-.31-2.46-.97-4.62-2-6.48ZM453.3,353.64c.24-2.04.82-3.66,1.75-4.86.93-1.19,2.23-1.79,3.91-1.79,1.55,0,2.85.56,3.89,1.69,1.04,1.13,1.63,2.78,1.75,4.96h-11.3Z"/><path class="cls-2" d="M498.54,336.77c2.48,0,4.35.92,5.62,2.76.71,1.04,1.29,2.57,1.74,4.61h7.09c-.11-2.65-.88-5.29-2.32-7.92-2.61-4.68-6.74-7.02-12.39-7.02-4.22,0-7.7,1.75-10.43,5.24-3.15,4.01-4.72,9.72-4.72,17.13,0,6.85,1.38,12.24,4.15,16.18,2.77,3.91,6.56,5.87,11.4,5.87,3.9,0,7.1-1.45,9.6-4.35,2.5-2.9,4.05-6.66,4.66-11.28h-7.05c-.46,2.19-1.05,3.83-1.76,4.92-1.28,2.03-3.13,3.05-5.56,3.05s-4.33-1.18-5.87-3.56c-1.54-2.37-2.31-5.93-2.31-10.69s.73-8.44,2.19-11.04c1.46-2.6,3.45-3.9,5.98-3.9Z"/><path class="cls-2" d="M527.53,340.06c-4.31,0-7.53,1.66-9.65,4.98-2.12,3.32-3.17,7.24-3.17,11.76s1.06,8.54,3.17,11.81c2.12,3.27,5.34,4.9,9.65,4.9s7.53-1.63,9.65-4.9c2.12-3.27,3.18-7.2,3.18-11.81s-1.06-8.45-3.18-11.76c-2.12-3.32-5.33-4.98-9.65-4.98ZM531.92,364.07c-1.03,1.7-2.5,2.56-4.42,2.56s-3.4-.85-4.43-2.56c-1.04-1.71-1.55-4.13-1.55-7.27s.52-5.56,1.55-7.26c1.04-1.69,2.51-2.54,4.43-2.54s3.39.85,4.42,2.54c1.03,1.7,1.55,4.12,1.55,7.26s-.52,5.57-1.55,7.27Z"/><path class="cls-2" d="M557.06,340.32c-2.06,0-3.77.63-5.11,1.9-.75.71-1.55,1.87-2.38,3.48v-4.58h-6.36v31.32h6.56v-16.98c0-1.94.21-3.53.64-4.78.82-2.36,2.34-3.54,4.55-3.54,1.8,0,3.02.81,3.66,2.42.35.88.53,2.15.53,3.8v19.08h6.72v-21.13c0-3.93-.82-6.75-2.46-8.45s-3.76-2.55-6.34-2.55Z"/><path class="cls-2" d="M580.71,347.25c1.55,0,2.7.63,3.44,1.9.51.94.82,2,.95,3.17h6.72c-.37-4.47-1.55-7.59-3.56-9.36-2.01-1.77-4.58-2.65-7.74-2.65-3.7,0-6.61,1.5-8.71,4.49-2.11,2.99-3.16,7.18-3.16,12.57,0,4.77.95,8.65,2.86,11.64,1.9,2.99,4.88,4.49,8.92,4.49s7.09-1.8,9.15-5.38c1.29-2.23,2.01-4.59,2.17-7.08h-6.7c-.14,1.65-.53,2.99-1.18,4.03-.65,1.04-1.74,1.55-3.28,1.55-2.17,0-3.65-1.31-4.43-3.92-.43-1.4-.65-3.24-.65-5.54,0-2.41.22-4.34.65-5.8.81-2.74,2.33-4.12,4.54-4.12Z"/><path class="cls-2" d="M615.12,346.34c-1.14-2.12-2.59-3.66-4.34-4.64-1.75-.98-3.72-1.47-5.9-1.47-3.68,0-6.67,1.45-8.98,4.35-2.31,2.9-3.46,7.07-3.46,12.5,0,5.8,1.28,9.99,3.83,12.56,2.55,2.57,5.5,3.86,8.84,3.86,4.05,0,7.19-1.53,9.44-4.58,1.45-1.92,2.26-3.81,2.43-5.67h-6.7c-.39.92-.84,1.64-1.35,2.16-.93.96-2.15,1.44-3.64,1.44-1.41,0-2.62-.39-3.62-1.18-1.65-1.27-2.52-3.47-2.63-6.62h18.28c.03-2.71-.04-4.79-.21-6.23-.31-2.46-.97-4.62-2-6.48ZM599.22,353.64c.24-2.04.82-3.66,1.75-4.86.93-1.19,2.23-1.79,3.92-1.79,1.55,0,2.85.56,3.89,1.69,1.04,1.13,1.63,2.78,1.75,4.96h-11.3Z"/><path class="cls-2" d="M632.38,340.37c-2.02,0-3.77.7-5.24,2.1-.8.79-1.56,1.86-2.27,3.22v-4.63h-6.29v43.73h6.49v-16.35c.69,1.32,1.41,2.33,2.13,3.02,1.33,1.25,3,1.87,5,1.87,3.15,0,5.73-1.45,7.73-4.35,2-2.9,3-7.11,3-12.64,0-5.24-1.02-9.21-3.07-11.92-2.05-2.71-4.55-4.06-7.5-4.06ZM634.73,363.8c-.97,1.77-2.38,2.65-4.22,2.65-1.27,0-2.38-.43-3.31-1.3-1.56-1.48-2.35-4.04-2.35-7.69,0-2.3.23-4.2.7-5.7.9-2.82,2.55-4.23,4.96-4.23,2,0,3.45.93,4.34,2.79s1.34,4,1.34,6.42c0,2.94-.49,5.29-1.45,7.05Z"/><path class="cls-2" d="M656.32,347.25c1.55,0,2.7.63,3.44,1.9.51.94.82,2,.95,3.17h6.72c-.37-4.47-1.55-7.59-3.56-9.36s-4.58-2.65-7.74-2.65c-3.7,0-6.61,1.5-8.71,4.49-2.11,2.99-3.16,7.18-3.16,12.57,0,4.77.95,8.65,2.86,11.64,1.9,2.99,4.88,4.49,8.92,4.49s7.09-1.8,9.15-5.38c1.29-2.23,2.02-4.59,2.17-7.08h-6.7c-.14,1.65-.53,2.99-1.18,4.03-.65,1.04-1.74,1.55-3.28,1.55-2.17,0-3.65-1.31-4.43-3.92-.43-1.4-.65-3.24-.65-5.54,0-2.41.22-4.34.65-5.8.81-2.74,2.33-4.12,4.54-4.12Z"/><rect class="cls-2" x="670.13" y="329.75" width="6.66" height="7.57"/><rect class="cls-2" x="670.13" y="341.06" width="6.66" height="31.38"/><path class="cls-2" d="M692.54,340.06c-4.31,0-7.53,1.66-9.65,4.98-2.12,3.32-3.17,7.24-3.17,11.76s1.06,8.54,3.17,11.81c2.12,3.27,5.34,4.9,9.65,4.9s7.53-1.63,9.65-4.9c2.12-3.27,3.18-7.2,3.18-11.81s-1.06-8.45-3.18-11.76c-2.12-3.32-5.33-4.98-9.65-4.98ZM696.93,364.07c-1.03,1.7-2.5,2.56-4.42,2.56s-3.4-.85-4.43-2.56c-1.04-1.71-1.55-4.13-1.55-7.27s.52-5.56,1.55-7.26c1.04-1.69,2.51-2.54,4.43-2.54s3.39.85,4.42,2.54c1.03,1.7,1.55,4.12,1.55,7.26s-.52,5.57-1.55,7.27Z"/><polygon class="cls-2" points="700.39 328.23 693.07 328.23 688.64 336.83 693.39 336.83 700.39 328.23"/><path class="cls-2" d="M728.42,342.86c-1.65-1.7-3.76-2.55-6.34-2.55-2.06,0-3.77.63-5.11,1.9-.75.71-1.55,1.87-2.39,3.48v-4.58h-6.36v31.32h6.56v-16.98c0-1.94.21-3.53.64-4.78.82-2.36,2.34-3.54,4.55-3.54,1.8,0,3.02.81,3.66,2.42.35.88.53,2.15.53,3.8v19.08h6.72v-21.13c0-3.93-.82-6.75-2.46-8.45Z"/></g></svg>