<?xml version="1.0" encoding="UTF-8" standalone="no"?>
<svg
   version="1.1"
   viewBox="0 0 53 53"
   stroke="none"
   id="svg1"
   sodipodi:docname="dpp-qr.svg"
   xml:space="preserve"
   inkscape:version="1.4.2 (ebf0e940d0, 2025-05-08)"
   inkscape:export-filename="dpp-qr.png"
   inkscape:export-xdpi="1086.7925"
   inkscape:export-ydpi="1086.7925"
   xmlns:inkscape="http://www.inkscape.org/namespaces/inkscape"
   xmlns:sodipodi="http://sodipodi.sourceforge.net/DTD/sodipodi-0.dtd"
   xmlns="http://www.w3.org/2000/svg"
   xmlns:svg="http://www.w3.org/2000/svg"><defs
     id="defs1"><style
       id="style1">.cls-1{fill:#1d1d1b;}.cls-2{fill:#fff;}</style></defs><sodipodi:namedview
     id="namedview1"
     pagecolor="#ffffff"
     bordercolor="#000000"
     borderopacity="0.25"
     inkscape:showpageshadow="2"
     inkscape:pageopacity="0.0"
     inkscape:pagecheckerboard="0"
     inkscape:deskcolor="#d1d1d1"
     inkscape:zoom="16.754717"
     inkscape:cx="21.307432"
     inkscape:cy="28.738176"
     inkscape:window-width="1276"
     inkscape:window-height="1371"
     inkscape:window-x="0"
     inkscape:window-y="0"
     inkscape:window-maximized="0"
     inkscape:current-layer="svg1" /><rect
     width="100%"
     height="100%"
     fill="#ffffff"
     id="rect1"
     x="0"
     y="0"
     style="display:inline" /><path
     d="M 0,0 H 1 V 1 H 0 Z M 1,0 H 2 V 1 H 1 Z M 2,0 H 3 V 1 H 2 Z M 3,0 H 4 V 1 H 3 Z M 4,0 H 5 V 1 H 4 Z M 5,0 H 6 V 1 H 5 Z M 6,0 H 7 V 1 H 6 Z M 8,0 H 9 V 1 H 8 Z m 1,0 h 1 V 1 H 9 Z m 3,0 h 1 v 1 h -1 z m 1,0 h 1 v 1 h -1 z m 2,0 h 1 v 1 h -1 z m 1,0 h 1 v 1 h -1 z m 2,0 h 1 v 1 h -1 z m 3,0 h 1 v 1 h -1 z m 3,0 h 1 v 1 h -1 z m 1,0 h 1 v 1 h -1 z m 1,0 h 1 v 1 h -1 z m 1,0 h 1 v 1 h -1 z m 1,0 h 1 v 1 h -1 z m 2,0 h 1 v 1 h -1 z m 1,0 h 1 v 1 h -1 z m 2,0 h 1 v 1 h -1 z m 1,0 h 1 v 1 h -1 z m 2,0 h 1 v 1 h -1 z m 1,0 h 1 v 1 h -1 z m 1,0 h 1 v 1 h -1 z m 1,0 h 1 v 1 h -1 z m 1,0 h 1 v 1 h -1 z m 2,0 h 1 v 1 h -1 z m 4,0 h 1 v 1 h -1 z m 1,0 h 1 v 1 h -1 z m 1,0 h 1 v 1 h -1 z m 1,0 h 1 v 1 h -1 z m 1,0 h 1 v 1 h -1 z m 1,0 h 1 v 1 h -1 z m 1,0 h 1 V 1 H 52 Z M 0,1 H 1 V 2 H 0 Z M 6,1 H 7 V 2 H 6 Z m 3,0 h 1 V 2 H 9 Z m 2,0 h 1 v 1 h -1 z m 5,0 h 1 v 1 h -1 z m 1,0 h 1 v 1 h -1 z m 1,0 h 1 v 1 h -1 z m 2,0 h 1 v 1 h -1 z m 1,0 h 1 v 1 h -1 z m 1,0 h 1 v 1 h -1 z m 1,0 h 1 v 1 h -1 z m 1,0 h 1 v 1 h -1 z m 1,0 h 1 v 1 h -1 z m 3,0 h 1 v 1 h -1 z m 2,0 h 1 v 1 h -1 z m 2,0 h 1 v 1 h -1 z m 1,0 h 1 v 1 h -1 z m 1,0 h 1 v 1 h -1 z m 5,0 h 1 v 1 h -1 z m 2,0 h 1 v 1 h -1 z m 1,0 h 1 v 1 h -1 z m 1,0 h 1 v 1 h -1 z m 3,0 h 1 v 1 h -1 z m 6,0 h 1 V 2 H 52 Z M 0,2 H 1 V 3 H 0 Z M 2,2 H 3 V 3 H 2 Z M 3,2 H 4 V 3 H 3 Z M 4,2 H 5 V 3 H 4 Z M 6,2 H 7 V 3 H 6 Z M 8,2 H 9 V 3 H 8 Z m 1,0 h 1 V 3 H 9 Z m 3,0 h 1 v 1 h -1 z m 1,0 h 1 v 1 h -1 z m 1,0 h 1 v 1 h -1 z m 2,0 h 1 v 1 h -1 z m 2,0 h 1 v 1 h -1 z m 1,0 h 1 v 1 h -1 z m 5,0 h 1 v 1 h -1 z m 1,0 h 1 v 1 h -1 z m 1,0 h 1 v 1 h -1 z m 1,0 h 1 v 1 h -1 z m 2,0 h 1 v 1 h -1 z m 1,0 h 1 v 1 h -1 z m 4,0 h 1 v 1 h -1 z m 4,0 h 1 v 1 h -1 z m 1,0 h 1 v 1 h -1 z m 2,0 h 1 v 1 h -1 z m 2,0 h 1 v 1 h -1 z m 3,0 h 1 v 1 h -1 z m 2,0 h 1 v 1 h -1 z m 1,0 h 1 v 1 h -1 z m 1,0 h 1 v 1 h -1 z m 2,0 h 1 V 3 H 52 Z M 0,3 H 1 V 4 H 0 Z M 2,3 H 3 V 4 H 2 Z M 3,3 H 4 V 4 H 3 Z M 4,3 H 5 V 4 H 4 Z M 6,3 H 7 V 4 H 6 Z M 8,3 H 9 V 4 H 8 Z m 3,0 h 1 v 1 h -1 z m 1,0 h 1 v 1 h -1 z m 2,0 h 1 v 1 h -1 z m 1,0 h 1 v 1 h -1 z m 1,0 h 1 v 1 h -1 z m 1,0 h 1 v 1 h -1 z m 1,0 h 1 v 1 h -1 z m 4,0 h 1 v 1 h -1 z m 2,0 h 1 v 1 h -1 z m 1,0 h 1 v 1 h -1 z m 1,0 h 1 v 1 h -1 z m 1,0 h 1 v 1 h -1 z m 1,0 h 1 v 1 h -1 z m 7,0 h 1 v 1 h -1 z m 2,0 h 1 v 1 h -1 z m 1,0 h 1 v 1 h -1 z m 1,0 h 1 v 1 h -1 z m 2,0 h 1 v 1 h -1 z m 1,0 h 1 v 1 h -1 z m 2,0 h 1 v 1 h -1 z m 2,0 h 1 v 1 h -1 z m 2,0 h 1 v 1 h -1 z m 1,0 h 1 v 1 h -1 z m 1,0 h 1 v 1 h -1 z m 2,0 h 1 V 4 H 52 Z M 0,4 H 1 V 5 H 0 Z M 2,4 H 3 V 5 H 2 Z M 3,4 H 4 V 5 H 3 Z M 4,4 H 5 V 5 H 4 Z M 6,4 H 7 V 5 H 6 Z m 3,0 h 1 V 5 H 9 Z m 2,0 h 1 v 1 h -1 z m 1,0 h 1 v 1 h -1 z m 1,0 h 1 v 1 h -1 z m 1,0 h 1 v 1 h -1 z m 1,0 h 1 v 1 h -1 z m 9,0 h 1 v 1 h -1 z m 1,0 h 1 v 1 h -1 z m 1,0 h 1 v 1 h -1 z m 1,0 h 1 v 1 h -1 z m 1,0 h 1 v 1 h -1 z m 2,0 h 1 v 1 h -1 z m 2,0 h 1 v 1 h -1 z m 1,0 h 1 v 1 h -1 z m 5,0 h 1 v 1 h -1 z m 2,0 h 1 v 1 h -1 z m 1,0 h 1 v 1 h -1 z m 1,0 h 1 v 1 h -1 z m 4,0 h 1 v 1 h -1 z m 2,0 h 1 v 1 h -1 z m 1,0 h 1 v 1 h -1 z m 1,0 h 1 v 1 h -1 z m 2,0 h 1 V 5 H 52 Z M 0,5 H 1 V 6 H 0 Z M 6,5 H 7 V 6 H 6 Z M 8,5 H 9 V 6 H 8 Z m 2,0 h 1 v 1 h -1 z m 2,0 h 1 v 1 h -1 z m 1,0 h 1 v 1 h -1 z m 4,0 h 1 v 1 h -1 z m 2,0 h 1 v 1 h -1 z m 1,0 h 1 v 1 h -1 z m 3,0 h 1 v 1 h -1 z m 1,0 h 1 v 1 h -1 z m 4,0 h 1 v 1 h -1 z m 1,0 h 1 v 1 h -1 z m 3,0 h 1 v 1 h -1 z m 2,0 h 1 v 1 h -1 z m 2,0 h 1 v 1 h -1 z m 1,0 h 1 v 1 h -1 z m 1,0 h 1 v 1 h -1 z m 1,0 h 1 v 1 h -1 z m 2,0 h 1 v 1 h -1 z m 1,0 h 1 v 1 h -1 z m 4,0 h 1 v 1 h -1 z m 6,0 h 1 V 6 H 52 Z M 0,6 H 1 V 7 H 0 Z M 1,6 H 2 V 7 H 1 Z M 2,6 H 3 V 7 H 2 Z M 3,6 H 4 V 7 H 3 Z M 4,6 H 5 V 7 H 4 Z M 5,6 H 6 V 7 H 5 Z M 6,6 H 7 V 7 H 6 Z M 8,6 H 9 V 7 H 8 Z m 2,0 h 1 v 1 h -1 z m 2,0 h 1 v 1 h -1 z m 2,0 h 1 v 1 h -1 z m 2,0 h 1 v 1 h -1 z m 2,0 h 1 v 1 h -1 z m 2,0 h 1 v 1 h -1 z m 2,0 h 1 v 1 h -1 z m 2,0 h 1 v 1 h -1 z m 2,0 h 1 v 1 h -1 z m 2,0 h 1 v 1 h -1 z m 2,0 h 1 v 1 h -1 z m 2,0 h 1 v 1 h -1 z m 2,0 h 1 v 1 h -1 z m 2,0 h 1 v 1 h -1 z m 2,0 h 1 v 1 h -1 z m 2,0 h 1 v 1 h -1 z m 2,0 h 1 v 1 h -1 z m 2,0 h 1 v 1 h -1 z m 2,0 h 1 v 1 h -1 z m 1,0 h 1 v 1 h -1 z m 1,0 h 1 v 1 h -1 z m 1,0 h 1 v 1 h -1 z m 1,0 h 1 v 1 h -1 z m 1,0 h 1 v 1 h -1 z m 1,0 h 1 V 7 H 52 Z M 8,7 H 9 V 8 H 8 Z m 1,0 h 1 V 8 H 9 Z m 3,0 h 1 v 1 h -1 z m 3,0 h 1 v 1 h -1 z m 1,0 h 1 v 1 h -1 z m 1,0 h 1 v 1 h -1 z m 3,0 h 1 v 1 h -1 z m 1,0 h 1 v 1 h -1 z m 1,0 h 1 v 1 h -1 z m 2,0 h 1 v 1 h -1 z m 4,0 h 1 v 1 h -1 z m 4,0 h 1 v 1 h -1 z m 6,0 h 1 v 1 h -1 z m 1,0 h 1 v 1 h -1 z m 5,0 h 1 V 8 H 44 Z M 1,8 H 2 V 9 H 1 Z M 3,8 H 4 V 9 H 3 Z M 5,8 H 6 V 9 H 5 Z M 6,8 H 7 V 9 H 6 Z M 7,8 H 8 V 9 H 7 Z M 8,8 H 9 V 9 H 8 Z m 1,0 h 1 V 9 H 9 Z m 1,0 h 1 v 1 h -1 z m 6,0 h 1 v 1 h -1 z m 2,0 h 1 v 1 h -1 z m 2,0 h 1 v 1 h -1 z m 2,0 h 1 v 1 h -1 z m 1,0 h 1 v 1 h -1 z m 1,0 h 1 v 1 h -1 z m 1,0 h 1 v 1 h -1 z m 1,0 h 1 v 1 h -1 z m 1,0 h 1 v 1 h -1 z m 1,0 h 1 v 1 h -1 z m 2,0 h 1 v 1 h -1 z m 1,0 h 1 v 1 h -1 z m 2,0 h 1 v 1 h -1 z m 3,0 h 1 v 1 h -1 z m 1,0 h 1 v 1 h -1 z m 3,0 h 1 v 1 h -1 z m 3,0 h 1 v 1 h -1 z m 1,0 h 1 v 1 h -1 z m 1,0 h 1 v 1 h -1 z m 1,0 h 1 v 1 h -1 z m 1,0 h 1 v 1 h -1 z m 2,0 h 1 v 1 h -1 z m 1,0 h 1 v 1 h -1 z m 2,0 h 1 V 9 H 52 Z M 2,9 h 1 v 1 H 2 Z m 1,0 h 1 v 1 H 3 Z m 1,0 h 1 v 1 H 4 Z m 1,0 h 1 v 1 H 5 Z m 2,0 h 1 v 1 H 7 Z m 1,0 h 1 v 1 H 8 Z m 4,0 h 1 v 1 h -1 z m 1,0 h 1 v 1 h -1 z m 1,0 h 1 v 1 h -1 z m 1,0 h 1 v 1 h -1 z m 9,0 h 1 v 1 h -1 z m 1,0 h 1 v 1 h -1 z m 6,0 h 1 v 1 h -1 z m 5,0 h 1 v 1 h -1 z m 7,0 h 1 v 1 h -1 z m 2,0 h 1 v 1 h -1 z m 2,0 h 1 v 1 h -1 z m 1,0 h 1 v 1 h -1 z m 1,0 h 1 v 1 h -1 z m 3,0 h 1 v 1 H 52 Z M 1,10 h 1 v 1 H 1 Z m 1,0 h 1 v 1 H 2 Z m 1,0 h 1 v 1 H 3 Z m 1,0 h 1 v 1 H 4 Z m 1,0 h 1 v 1 H 5 Z m 1,0 h 1 v 1 H 6 Z m 3,0 h 1 v 1 H 9 Z m 11,0 h 1 v 1 h -1 z m 1,0 h 1 v 1 h -1 z m 2,0 h 1 v 1 h -1 z m 3,0 h 1 v 1 h -1 z m 1,0 h 1 v 1 h -1 z m 2,0 h 1 v 1 h -1 z m 1,0 h 1 v 1 h -1 z m 2,0 h 1 v 1 h -1 z m 2,0 h 1 v 1 h -1 z m 1,0 h 1 v 1 h -1 z m 3,0 h 1 v 1 h -1 z m 4,0 h 1 v 1 h -1 z m 3,0 h 1 v 1 h -1 z m 1,0 h 1 v 1 h -1 z m 3,0 h 1 v 1 h -1 z m 1,0 h 1 v 1 H 50 Z M 4,11 h 1 v 1 H 4 Z m 1,0 h 1 v 1 H 5 Z m 2,0 h 1 v 1 H 7 Z m 2,0 h 1 v 1 H 9 Z m 4,0 h 1 v 1 h -1 z m 4,0 h 1 v 1 h -1 z m 1,0 h 1 v 1 h -1 z m 2,0 h 1 v 1 h -1 z m 1,0 h 1 v 1 h -1 z m 1,0 h 1 v 1 h -1 z m 3,0 h 1 v 1 h -1 z m 1,0 h 1 v 1 h -1 z m 1,0 h 1 v 1 h -1 z m 2,0 h 1 v 1 h -1 z m 3,0 h 1 v 1 h -1 z m 2,0 h 1 v 1 h -1 z m 1,0 h 1 v 1 h -1 z m 1,0 h 1 v 1 h -1 z m 3,0 h 1 v 1 h -1 z m 3,0 h 1 v 1 h -1 z m 1,0 h 1 v 1 h -1 z m 1,0 h 1 v 1 h -1 z m 1,0 h 1 v 1 h -1 z m 2,0 h 1 v 1 h -1 z m 1,0 h 1 v 1 h -1 z m 2,0 h 1 v 1 h -1 z m 2,0 h 1 v 1 H 52 Z M 1,12 h 1 v 1 H 1 Z m 2,0 h 1 v 1 H 3 Z m 1,0 h 1 v 1 H 4 Z m 1,0 h 1 v 1 H 5 Z m 1,0 h 1 v 1 H 6 Z m 1,0 h 1 v 1 H 7 Z m 2,0 h 1 v 1 H 9 Z m 1,0 h 1 v 1 h -1 z m 4,0 h 1 v 1 h -1 z m 1,0 h 1 v 1 h -1 z m 1,0 h 1 v 1 h -1 z m 1,0 h 1 v 1 h -1 z m 1,0 h 1 v 1 h -1 z m 1,0 h 1 v 1 h -1 z m 4,0 h 1 v 1 h -1 z m 3,0 h 1 v 1 h -1 z m 1,0 h 1 v 1 h -1 z m 2,0 h 1 v 1 h -1 z m 2,0 h 1 v 1 h -1 z m 1,0 h 1 v 1 h -1 z m 4,0 h 1 v 1 h -1 z m 3,0 h 1 v 1 h -1 z m 2,0 h 1 v 1 h -1 z m 1,0 h 1 v 1 h -1 z m 1,0 h 1 v 1 h -1 z m 1,0 h 1 v 1 h -1 z m 1,0 h 1 v 1 h -1 z m 1,0 h 1 v 1 h -1 z m 2,0 h 1 v 1 h -1 z m 2,0 h 1 v 1 H 50 Z M 2,13 h 1 v 1 H 2 Z m 2,0 h 1 v 1 H 4 Z m 1,0 h 1 v 1 H 5 Z m 3,0 h 1 v 1 H 8 Z m 6,0 h 1 v 1 h -1 z m 2,0 h 1 v 1 h -1 z m 1,0 h 1 v 1 h -1 z m 1,0 h 1 v 1 h -1 z m 1,0 h 1 v 1 h -1 z m 1,0 h 1 v 1 h -1 z m 2,0 h 1 v 1 h -1 z m 2,0 h 1 v 1 h -1 z m 1,0 h 1 v 1 h -1 z m 2,0 h 1 v 1 h -1 z m 1,0 h 1 v 1 h -1 z m 1,0 h 1 v 1 h -1 z m 2,0 h 1 v 1 h -1 z m 5,0 h 1 v 1 h -1 z m 1,0 h 1 v 1 h -1 z m 2,0 h 1 v 1 h -1 z m 6,0 h 1 v 1 h -1 z m 1,0 h 1 v 1 h -1 z m 2,0 h 1 v 1 h -1 z m 3,0 h 1 v 1 H 51 Z M 4,14 h 1 v 1 H 4 Z m 2,0 h 1 v 1 H 6 Z m 5,0 h 1 v 1 h -1 z m 5,0 h 1 v 1 h -1 z m 1,0 h 1 v 1 h -1 z m 1,0 h 1 v 1 h -1 z m 1,0 h 1 v 1 h -1 z m 4,0 h 1 v 1 h -1 z m 2,0 h 1 v 1 h -1 z m 3,0 h 1 v 1 h -1 z m 6,0 h 1 v 1 h -1 z m 2,0 h 1 v 1 h -1 z m 3,0 h 1 v 1 h -1 z m 2,0 h 1 v 1 h -1 z m 1,0 h 1 v 1 h -1 z m 1,0 h 1 v 1 h -1 z m 2,0 h 1 v 1 h -1 z m 1,0 h 1 v 1 h -1 z m 1,0 h 1 v 1 h -1 z m 1,0 h 1 v 1 h -1 z m 1,0 h 1 v 1 h -1 z m 1,0 h 1 v 1 h -1 z m 1,0 h 1 v 1 h -1 z m 1,0 h 1 v 1 H 52 Z M 0,15 h 1 v 1 H 0 Z m 1,0 h 1 v 1 H 1 Z m 3,0 h 1 v 1 H 4 Z m 5,0 h 1 v 1 H 9 Z m 1,0 h 1 v 1 h -1 z m 2,0 h 1 v 1 h -1 z m 1,0 h 1 v 1 h -1 z m 2,0 h 1 v 1 h -1 z m 1,0 h 1 v 1 h -1 z m 2,0 h 1 v 1 h -1 z m 1,0 h 1 v 1 h -1 z m 3,0 h 1 v 1 h -1 z m 1,0 h 1 v 1 h -1 z m 1,0 h 1 v 1 h -1 z m 2,0 h 1 v 1 h -1 z m 1,0 h 1 v 1 h -1 z m 1,0 h 1 v 1 h -1 z m 2,0 h 1 v 1 h -1 z m 1,0 h 1 v 1 h -1 z m 1,0 h 1 v 1 h -1 z m 2,0 h 1 v 1 h -1 z m 1,0 h 1 v 1 h -1 z m 5,0 h 1 v 1 h -1 z m 1,0 h 1 v 1 h -1 z m 2,0 h 1 v 1 h -1 z m 2,0 h 1 v 1 h -1 z m 2,0 h 1 v 1 h -1 z m 1,0 h 1 v 1 h -1 z m 3,0 h 1 v 1 h -1 z m 1,0 h 1 v 1 H 52 Z M 1,16 h 1 v 1 H 1 Z m 2,0 h 1 v 1 H 3 Z m 1,0 h 1 v 1 H 4 Z m 1,0 h 1 v 1 H 5 Z m 1,0 h 1 v 1 H 6 Z m 2,0 h 1 v 1 H 8 Z m 1,0 h 1 v 1 H 9 Z m 3,0 h 1 v 1 h -1 z m 2,0 h 1 v 1 h -1 z m 2,0 h 1 v 1 h -1 z m 2,0 h 1 v 1 h -1 z m 4,0 h 1 v 1 h -1 z m 2,0 h 1 v 1 h -1 z m 1,0 h 1 v 1 h -1 z m 1,0 h 1 v 1 h -1 z m 2,0 h 1 v 1 h -1 z m 1,0 h 1 v 1 h -1 z m 1,0 h 1 v 1 h -1 z m 2,0 h 1 v 1 h -1 z m 1,0 h 1 v 1 h -1 z m 2,0 h 1 v 1 h -1 z m 1,0 h 1 v 1 h -1 z m 1,0 h 1 v 1 h -1 z m 1,0 h 1 v 1 h -1 z m 1,0 h 1 v 1 h -1 z m 2,0 h 1 v 1 h -1 z m 2,0 h 1 v 1 h -1 z m 4,0 h 1 v 1 h -1 z m 1,0 h 1 v 1 h -1 z m 1,0 h 1 v 1 h -1 z m 1,0 h 1 v 1 h -1 z m 2,0 h 1 v 1 H 52 Z M 0,17 h 1 v 1 H 0 Z m 1,0 h 1 v 1 H 1 Z m 1,0 h 1 v 1 H 2 Z m 1,0 h 1 v 1 H 3 Z m 1,0 h 1 v 1 H 4 Z m 3,0 h 1 v 1 H 7 Z m 1,0 h 1 v 1 H 8 Z m 3,0 h 1 v 1 h -1 z m 6,0 h 1 v 1 h -1 z m 1,0 h 1 v 1 h -1 z m 1,0 h 1 v 1 h -1 z m 1,0 h 1 v 1 h -1 z m 1,0 h 1 v 1 h -1 z m 1,0 h 1 v 1 h -1 z m 1,0 h 1 v 1 h -1 z m 4,0 h 1 v 1 h -1 z m 4,0 h 1 v 1 h -1 z m 2,0 h 1 v 1 h -1 z m 2,0 h 1 v 1 h -1 z m 1,0 h 1 v 1 h -1 z m 2,0 h 1 v 1 h -1 z m 3,0 h 1 v 1 h -1 z m 3,0 h 1 v 1 h -1 z m 1,0 h 1 v 1 h -1 z m 2,0 h 1 v 1 h -1 z m 2,0 h 1 v 1 h -1 z m 1,0 h 1 v 1 h -1 z m 1,0 h 1 v 1 H 51 Z M 1,18 h 1 v 1 H 1 Z m 3,0 h 1 v 1 H 4 Z m 1,0 h 1 v 1 H 5 Z m 1,0 h 1 v 1 H 6 Z m 2,0 h 1 v 1 H 8 Z m 2,0 h 1 v 1 h -1 z m 2,0 h 1 v 1 h -1 z m 2,0 h 1 v 1 h -1 z m 1,0 h 1 v 1 h -1 z m 1,0 h 1 v 1 h -1 z m 1,0 h 1 v 1 h -1 z m 4,0 h 1 v 1 h -1 z m 2,0 h 1 v 1 h -1 z m 2,0 h 1 v 1 h -1 z m 3,0 h 1 v 1 h -1 z m 1,0 h 1 v 1 h -1 z m 4,0 h 1 v 1 h -1 z m 7,0 h 1 v 1 h -1 z m 2,0 h 1 v 1 h -1 z m 2,0 h 1 v 1 h -1 z m 1,0 h 1 v 1 h -1 z m 4,0 h 1 v 1 h -1 z m 1,0 h 1 v 1 h -1 z m 1,0 h 1 v 1 h -1 z m 1,0 h 1 v 1 H 52 Z M 3,19 h 1 v 1 H 3 Z m 2,0 h 1 v 1 H 5 Z m 5,0 h 1 v 1 h -1 z m 3,0 h 1 v 1 h -1 z m 1,0 h 1 v 1 h -1 z m 1,0 h 1 v 1 h -1 z m 2,0 h 1 v 1 h -1 z m 1,0 h 1 v 1 h -1 z m 1,0 h 1 v 1 h -1 z m 5,0 h 1 v 1 h -1 z m 1,0 h 1 v 1 h -1 z m 1,0 h 1 v 1 h -1 z m 4,0 h 1 v 1 h -1 z m 1,0 h 1 v 1 h -1 z m 1,0 h 1 v 1 h -1 z m 1,0 h 1 v 1 h -1 z m 6,0 h 1 v 1 h -1 z m 1,0 h 1 v 1 h -1 z m 2,0 h 1 v 1 h -1 z m 1,0 h 1 v 1 h -1 z m 2,0 h 1 v 1 h -1 z m 4,0 h 1 v 1 H 49 Z M 0,20 h 1 v 1 H 0 Z m 1,0 h 1 v 1 H 1 Z m 1,0 h 1 v 1 H 2 Z m 2,0 h 1 v 1 H 4 Z m 2,0 h 1 v 1 H 6 Z m 1,0 h 1 v 1 H 7 Z m 1,0 h 1 v 1 H 8 Z m 1,0 h 1 v 1 H 9 Z m 2,0 h 1 v 1 h -1 z m 1,0 h 1 v 1 h -1 z m 1,0 h 1 v 1 h -1 z m 2,0 h 1 v 1 h -1 z m 1,0 h 1 v 1 h -1 z m 1,0 h 1 v 1 h -1 z m 3,0 h 1 v 1 h -1 z m 3,0 h 1 v 1 h -1 z m 3,0 h 1 v 1 h -1 z m 2,0 h 1 v 1 h -1 z m 1,0 h 1 v 1 h -1 z m 6,0 h 1 v 1 h -1 z m 1,0 h 1 v 1 h -1 z m 1,0 h 1 v 1 h -1 z m 2,0 h 1 v 1 h -1 z m 1,0 h 1 v 1 h -1 z m 8,0 h 1 v 1 h -1 z m 4,0 h 1 v 1 H 52 Z M 0,21 h 1 v 1 H 0 Z m 3,0 h 1 v 1 H 3 Z m 1,0 h 1 v 1 H 4 Z m 3,0 h 1 v 1 H 7 Z m 1,0 h 1 v 1 H 8 Z m 2,0 h 1 v 1 h -1 z m 1,0 h 1 v 1 h -1 z m 1,0 h 1 v 1 h -1 z m 1,0 h 1 v 1 h -1 z m 4,0 h 1 v 1 h -1 z m 2,0 h 1 v 1 h -1 z m 4,0 h 1 v 1 h -1 z m 1,0 h 1 v 1 h -1 z m 1,0 h 1 v 1 h -1 z m 1,0 h 1 v 1 h -1 z m 1,0 h 1 v 1 h -1 z m 1,0 h 1 v 1 h -1 z m 2,0 h 1 v 1 h -1 z m 1,0 h 1 v 1 h -1 z m 6,0 h 1 v 1 h -1 z m 2,0 h 1 v 1 h -1 z m 1,0 h 1 v 1 h -1 z m 10,0 h 1 v 1 h -1 z m 2,0 h 1 v 1 H 52 Z M 1,22 h 1 v 1 H 1 Z m 2,0 h 1 v 1 H 3 Z m 2,0 h 1 v 1 H 5 Z m 1,0 h 1 v 1 H 6 Z m 3,0 h 1 v 1 H 9 Z m 1,0 h 1 v 1 h -1 z m 1,0 h 1 v 1 h -1 z m 1,0 h 1 v 1 h -1 z m 2,0 h 1 v 1 h -1 z m 1,0 h 1 v 1 h -1 z m 4,0 h 1 v 1 h -1 z m 1,0 h 1 v 1 h -1 z m 3,0 h 1 v 1 h -1 z m 1,0 h 1 v 1 h -1 z m 3,0 h 1 v 1 h -1 z m 3,0 h 1 v 1 h -1 z m 1,0 h 1 v 1 h -1 z m 1,0 h 1 v 1 h -1 z m 2,0 h 1 v 1 h -1 z m 2,0 h 1 v 1 h -1 z m 2,0 h 1 v 1 h -1 z m 1,0 h 1 v 1 h -1 z m 2,0 h 1 v 1 h -1 z m 1,0 h 1 v 1 h -1 z m 1,0 h 1 v 1 h -1 z m 3,0 h 1 v 1 h -1 z m 2,0 h 1 v 1 h -1 z m 2,0 h 1 v 1 H 50 Z M 1,23 h 1 v 1 H 1 Z m 1,0 h 1 v 1 H 2 Z m 5,0 h 1 v 1 H 7 Z m 4,0 h 1 v 1 h -1 z m 1,0 h 1 v 1 h -1 z m 1,0 h 1 v 1 h -1 z m 4,0 h 1 v 1 h -1 z m 5,0 h 1 v 1 h -1 z m 2,0 h 1 v 1 h -1 z m 1,0 h 1 v 1 h -1 z m 1,0 h 1 v 1 h -1 z m 1,0 h 1 v 1 h -1 z m 1,0 h 1 v 1 h -1 z m 2,0 h 1 v 1 h -1 z m 3,0 h 1 v 1 h -1 z m 1,0 h 1 v 1 h -1 z m 2,0 h 1 v 1 h -1 z m 3,0 h 1 v 1 h -1 z m 4,0 h 1 v 1 h -1 z m 1,0 h 1 v 1 h -1 z m 6,0 h 1 v 1 h -1 z m 2,0 h 1 v 1 H 52 Z M 0,24 h 1 v 1 H 0 Z m 4,0 h 1 v 1 H 4 Z m 1,0 h 1 v 1 H 5 Z m 1,0 h 1 v 1 H 6 Z m 1,0 h 1 v 1 H 7 Z m 1,0 h 1 v 1 H 8 Z m 1,0 h 1 v 1 H 9 Z m 2,0 h 1 v 1 h -1 z m 1,0 h 1 v 1 h -1 z m 1,0 h 1 v 1 h -1 z m 1,0 h 1 v 1 h -1 z m 2,0 h 1 v 1 h -1 z m 2,0 h 1 v 1 h -1 z m 5,0 h 1 v 1 h -1 z m 1,0 h 1 v 1 h -1 z m 1,0 h 1 v 1 h -1 z m 1,0 h 1 v 1 h -1 z m 1,0 h 1 v 1 h -1 z m 1,0 h 1 v 1 h -1 z m 2,0 h 1 v 1 h -1 z m 2,0 h 1 v 1 h -1 z m 3,0 h 1 v 1 h -1 z m 1,0 h 1 v 1 h -1 z m 1,0 h 1 v 1 h -1 z m 2,0 h 1 v 1 h -1 z m 1,0 h 1 v 1 h -1 z m 1,0 h 1 v 1 h -1 z m 3,0 h 1 v 1 h -1 z m 1,0 h 1 v 1 h -1 z m 1,0 h 1 v 1 h -1 z m 1,0 h 1 v 1 h -1 z m 1,0 h 1 v 1 h -1 z m 1,0 h 1 v 1 H 49 Z M 1,25 h 1 v 1 H 1 Z m 1,0 h 1 v 1 H 2 Z m 2,0 h 1 v 1 H 4 Z m 4,0 h 1 v 1 H 8 Z m 2,0 h 1 v 1 h -1 z m 1,0 h 1 v 1 h -1 z m 2,0 h 1 v 1 h -1 z m 3,0 h 1 v 1 h -1 z m 1,0 h 1 v 1 h -1 z m 3,0 h 1 v 1 h -1 z m 1,0 h 1 v 1 h -1 z m 1,0 h 1 v 1 h -1 z m 1,0 h 1 v 1 h -1 z m 1,0 h 1 v 1 h -1 z m 4,0 h 1 v 1 h -1 z m 1,0 h 1 v 1 h -1 z m 3,0 h 1 v 1 h -1 z m 2,0 h 1 v 1 h -1 z m 1,0 h 1 v 1 h -1 z m 1,0 h 1 v 1 h -1 z m 8,0 h 1 v 1 h -1 z m 4,0 h 1 v 1 h -1 z m 2,0 h 1 v 1 h -1 z m 1,0 h 1 v 1 h -1 z m 1,0 h 1 v 1 H 52 Z M 0,26 h 1 v 1 H 0 Z m 1,0 h 1 v 1 H 1 Z m 1,0 h 1 v 1 H 2 Z m 2,0 h 1 v 1 H 4 Z m 2,0 h 1 v 1 H 6 Z m 2,0 h 1 v 1 H 8 Z m 2,0 h 1 v 1 h -1 z m 1,0 h 1 v 1 h -1 z m 2,0 h 1 v 1 h -1 z m 1,0 h 1 v 1 h -1 z m 2,0 h 1 v 1 h -1 z m 5,0 h 1 v 1 h -1 z m 1,0 h 1 v 1 h -1 z m 2,0 h 1 v 1 h -1 z m 2,0 h 1 v 1 h -1 z m 2,0 h 1 v 1 h -1 z m 1,0 h 1 v 1 h -1 z m 1,0 h 1 v 1 h -1 z m 4,0 h 1 v 1 h -1 z m 1,0 h 1 v 1 h -1 z m 2,0 h 1 v 1 h -1 z m 1,0 h 1 v 1 h -1 z m 1,0 h 1 v 1 h -1 z m 1,0 h 1 v 1 h -1 z m 1,0 h 1 v 1 h -1 z m 2,0 h 1 v 1 h -1 z m 1,0 h 1 v 1 h -1 z m 2,0 h 1 v 1 h -1 z m 2,0 h 1 v 1 h -1 z m 1,0 h 1 v 1 h -1 z m 1,0 h 1 v 1 h -1 z m 1,0 h 1 v 1 h -1 z m 1,0 h 1 v 1 H 52 Z M 0,27 h 1 v 1 H 0 Z m 1,0 h 1 v 1 H 1 Z m 1,0 h 1 v 1 H 2 Z m 1,0 h 1 v 1 H 3 Z m 1,0 h 1 v 1 H 4 Z m 4,0 h 1 v 1 H 8 Z m 2,0 h 1 v 1 h -1 z m 2,0 h 1 v 1 h -1 z m 2,0 h 1 v 1 h -1 z m 10,0 h 1 v 1 h -1 z m 4,0 h 1 v 1 h -1 z m 3,0 h 1 v 1 h -1 z m 2,0 h 1 v 1 h -1 z m 3,0 h 1 v 1 h -1 z m 1,0 h 1 v 1 h -1 z m 1,0 h 1 v 1 h -1 z m 4,0 h 1 v 1 h -1 z m 1,0 h 1 v 1 h -1 z m 1,0 h 1 v 1 h -1 z m 4,0 h 1 v 1 h -1 z m 1,0 h 1 v 1 h -1 z m 2,0 h 1 v 1 H 51 Z M 0,28 h 1 v 1 H 0 Z m 1,0 h 1 v 1 H 1 Z m 2,0 h 1 v 1 H 3 Z m 1,0 h 1 v 1 H 4 Z m 1,0 h 1 v 1 H 5 Z m 1,0 h 1 v 1 H 6 Z m 1,0 h 1 v 1 H 7 Z m 1,0 h 1 v 1 H 8 Z m 1,0 h 1 v 1 H 9 Z m 1,0 h 1 v 1 h -1 z m 3,0 h 1 v 1 h -1 z m 3,0 h 1 v 1 h -1 z m 1,0 h 1 v 1 h -1 z m 3,0 h 1 v 1 h -1 z m 1,0 h 1 v 1 h -1 z m 1,0 h 1 v 1 h -1 z m 2,0 h 1 v 1 h -1 z m 1,0 h 1 v 1 h -1 z m 1,0 h 1 v 1 h -1 z m 1,0 h 1 v 1 h -1 z m 1,0 h 1 v 1 h -1 z m 7,0 h 1 v 1 h -1 z m 1,0 h 1 v 1 h -1 z m 1,0 h 1 v 1 h -1 z m 2,0 h 1 v 1 h -1 z m 5,0 h 1 v 1 h -1 z m 1,0 h 1 v 1 h -1 z m 1,0 h 1 v 1 h -1 z m 1,0 h 1 v 1 h -1 z m 1,0 h 1 v 1 h -1 z m 1,0 h 1 v 1 h -1 z m 1,0 h 1 v 1 H 50 Z M 0,29 h 1 v 1 H 0 Z m 4,0 h 1 v 1 H 4 Z m 3,0 h 1 v 1 H 7 Z m 1,0 h 1 v 1 H 8 Z m 4,0 h 1 v 1 h -1 z m 4,0 h 1 v 1 h -1 z m 1,0 h 1 v 1 h -1 z m 2,0 h 1 v 1 h -1 z m 1,0 h 1 v 1 h -1 z m 1,0 h 1 v 1 h -1 z m 2,0 h 1 v 1 h -1 z m 2,0 h 1 v 1 h -1 z m 2,0 h 1 v 1 h -1 z m 2,0 h 1 v 1 h -1 z m 1,0 h 1 v 1 h -1 z m 1,0 h 1 v 1 h -1 z m 4,0 h 1 v 1 h -1 z m 2,0 h 1 v 1 h -1 z m 1,0 h 1 v 1 h -1 z m 2,0 h 1 v 1 h -1 z m 1,0 h 1 v 1 h -1 z m 1,0 h 1 v 1 h -1 z m 1,0 h 1 v 1 h -1 z m 1,0 h 1 v 1 h -1 z m 1,0 h 1 v 1 h -1 z m 2,0 h 1 v 1 h -1 z m 3,0 h 1 v 1 h -1 z m 1,0 h 1 v 1 h -1 z m 1,0 h 1 v 1 H 52 Z M 1,30 h 1 v 1 H 1 Z m 1,0 h 1 v 1 H 2 Z m 2,0 h 1 v 1 H 4 Z m 2,0 h 1 v 1 H 6 Z m 3,0 h 1 v 1 H 9 Z m 1,0 h 1 v 1 h -1 z m 3,0 h 1 v 1 h -1 z m 1,0 h 1 v 1 h -1 z m 2,0 h 1 v 1 h -1 z m 1,0 h 1 v 1 h -1 z m 1,0 h 1 v 1 h -1 z m 2,0 h 1 v 1 h -1 z m 1,0 h 1 v 1 h -1 z m 1,0 h 1 v 1 h -1 z m 1,0 h 1 v 1 h -1 z m 1,0 h 1 v 1 h -1 z m 1,0 h 1 v 1 h -1 z m 1,0 h 1 v 1 h -1 z m 3,0 h 1 v 1 h -1 z m 1,0 h 1 v 1 h -1 z m 1,0 h 1 v 1 h -1 z m 3,0 h 1 v 1 h -1 z m 1,0 h 1 v 1 h -1 z m 1,0 h 1 v 1 h -1 z m 1,0 h 1 v 1 h -1 z m 2,0 h 1 v 1 h -1 z m 3,0 h 1 v 1 h -1 z m 2,0 h 1 v 1 h -1 z m 1,0 h 1 v 1 h -1 z m 1,0 h 1 v 1 h -1 z m 1,0 h 1 v 1 h -1 z m 1,0 h 1 v 1 h -1 z m 2,0 h 1 v 1 h -1 z m 1,0 h 1 v 1 h -1 z m 1,0 h 1 v 1 H 52 Z M 0,31 h 1 v 1 H 0 Z m 1,0 h 1 v 1 H 1 Z m 2,0 h 1 v 1 H 3 Z m 1,0 h 1 v 1 H 4 Z m 1,0 h 1 v 1 H 5 Z m 3,0 h 1 v 1 H 8 Z m 2,0 h 1 v 1 h -1 z m 1,0 h 1 v 1 h -1 z m 2,0 h 1 v 1 h -1 z m 2,0 h 1 v 1 h -1 z m 4,0 h 1 v 1 h -1 z m 1,0 h 1 v 1 h -1 z m 3,0 h 1 v 1 h -1 z m 1,0 h 1 v 1 h -1 z m 1,0 h 1 v 1 h -1 z m 1,0 h 1 v 1 h -1 z m 3,0 h 1 v 1 h -1 z m 1,0 h 1 v 1 h -1 z m 2,0 h 1 v 1 h -1 z m 2,0 h 1 v 1 h -1 z m 1,0 h 1 v 1 h -1 z m 3,0 h 1 v 1 h -1 z m 2,0 h 1 v 1 h -1 z m 1,0 h 1 v 1 h -1 z m 1,0 h 1 v 1 h -1 z m 2,0 h 1 v 1 h -1 z m 1,0 h 1 v 1 h -1 z m 3,0 h 1 v 1 h -1 z m 1,0 h 1 v 1 h -1 z m 3,0 h 1 v 1 H 52 Z M 1,32 h 1 v 1 H 1 Z m 2,0 h 1 v 1 H 3 Z m 1,0 h 1 v 1 H 4 Z m 2,0 h 1 v 1 H 6 Z m 1,0 h 1 v 1 H 7 Z m 3,0 h 1 v 1 h -1 z m 2,0 h 1 v 1 h -1 z m 1,0 h 1 v 1 h -1 z m 2,0 h 1 v 1 h -1 z m 1,0 h 1 v 1 h -1 z m 2,0 h 1 v 1 h -1 z m 2,0 h 1 v 1 h -1 z m 1,0 h 1 v 1 h -1 z m 1,0 h 1 v 1 h -1 z m 1,0 h 1 v 1 h -1 z m 2,0 h 1 v 1 h -1 z m 2,0 h 1 v 1 h -1 z m 4,0 h 1 v 1 h -1 z m 2,0 h 1 v 1 h -1 z m 3,0 h 1 v 1 h -1 z m 3,0 h 1 v 1 h -1 z m 1,0 h 1 v 1 h -1 z m 1,0 h 1 v 1 h -1 z m 3,0 h 1 v 1 h -1 z m 2,0 h 1 v 1 h -1 z m 3,0 h 1 v 1 h -1 z m 2,0 h 1 v 1 h -1 z m 1,0 h 1 v 1 H 52 Z M 2,33 h 1 v 1 H 2 Z m 1,0 h 1 v 1 H 3 Z m 2,0 h 1 v 1 H 5 Z m 7,0 h 1 v 1 h -1 z m 3,0 h 1 v 1 h -1 z m 4,0 h 1 v 1 h -1 z m 2,0 h 1 v 1 h -1 z m 1,0 h 1 v 1 h -1 z m 1,0 h 1 v 1 h -1 z m 1,0 h 1 v 1 h -1 z m 1,0 h 1 v 1 h -1 z m 1,0 h 1 v 1 h -1 z m 2,0 h 1 v 1 h -1 z m 2,0 h 1 v 1 h -1 z m 2,0 h 1 v 1 h -1 z m 3,0 h 1 v 1 h -1 z m 1,0 h 1 v 1 h -1 z m 4,0 h 1 v 1 h -1 z m 1,0 h 1 v 1 h -1 z m 2,0 h 1 v 1 h -1 z m 4,0 h 1 v 1 h -1 z m 4,0 h 1 v 1 h -1 z m 1,0 h 1 v 1 H 52 Z M 0,34 h 1 v 1 H 0 Z m 1,0 h 1 v 1 H 1 Z m 2,0 h 1 v 1 H 3 Z m 2,0 h 1 v 1 H 5 Z m 1,0 h 1 v 1 H 6 Z m 1,0 h 1 v 1 H 7 Z m 3,0 h 1 v 1 h -1 z m 5,0 h 1 v 1 h -1 z m 1,0 h 1 v 1 h -1 z m 3,0 h 1 v 1 h -1 z m 1,0 h 1 v 1 h -1 z m 2,0 h 1 v 1 h -1 z m 2,0 h 1 v 1 h -1 z m 3,0 h 1 v 1 h -1 z m 6,0 h 1 v 1 h -1 z m 1,0 h 1 v 1 h -1 z m 2,0 h 1 v 1 h -1 z m 1,0 h 1 v 1 h -1 z m 1,0 h 1 v 1 h -1 z m 1,0 h 1 v 1 h -1 z m 2,0 h 1 v 1 h -1 z m 4,0 h 1 v 1 h -1 z m 2,0 h 1 v 1 h -1 z m 3,0 h 1 v 1 h -1 z m 1,0 h 1 v 1 H 51 Z M 0,35 h 1 v 1 H 0 Z m 1,0 h 1 v 1 H 1 Z m 1,0 h 1 v 1 H 2 Z m 7,0 h 1 v 1 H 9 Z m 2,0 h 1 v 1 h -1 z m 1,0 h 1 v 1 h -1 z m 1,0 h 1 v 1 h -1 z m 3,0 h 1 v 1 h -1 z m 1,0 h 1 v 1 h -1 z m 3,0 h 1 v 1 h -1 z m 3,0 h 1 v 1 h -1 z m 1,0 h 1 v 1 h -1 z m 1,0 h 1 v 1 h -1 z m 1,0 h 1 v 1 h -1 z m 3,0 h 1 v 1 h -1 z m 1,0 h 1 v 1 h -1 z m 2,0 h 1 v 1 h -1 z m 4,0 h 1 v 1 h -1 z m 1,0 h 1 v 1 h -1 z m 2,0 h 1 v 1 h -1 z m 1,0 h 1 v 1 h -1 z m 2,0 h 1 v 1 h -1 z m 5,0 h 1 v 1 h -1 z m 2,0 h 1 v 1 h -1 z m 1,0 h 1 v 1 H 50 Z M 0,36 h 1 v 1 H 0 Z m 4,0 h 1 v 1 H 4 Z m 1,0 h 1 v 1 H 5 Z m 1,0 h 1 v 1 H 6 Z m 2,0 h 1 v 1 H 8 Z m 2,0 h 1 v 1 h -1 z m 1,0 h 1 v 1 h -1 z m 1,0 h 1 v 1 h -1 z m 1,0 h 1 v 1 h -1 z m 4,0 h 1 v 1 h -1 z m 1,0 h 1 v 1 h -1 z m 1,0 h 1 v 1 h -1 z m 2,0 h 1 v 1 h -1 z m 2,0 h 1 v 1 h -1 z m 1,0 h 1 v 1 h -1 z m 5,0 h 1 v 1 h -1 z m 2,0 h 1 v 1 h -1 z m 1,0 h 1 v 1 h -1 z m 2,0 h 1 v 1 h -1 z m 1,0 h 1 v 1 h -1 z m 1,0 h 1 v 1 h -1 z m 1,0 h 1 v 1 h -1 z m 1,0 h 1 v 1 h -1 z m 1,0 h 1 v 1 h -1 z m 1,0 h 1 v 1 h -1 z m 5,0 h 1 v 1 h -1 z m 1,0 h 1 v 1 h -1 z m 1,0 h 1 v 1 h -1 z m 1,0 h 1 v 1 h -1 z m 1,0 h 1 v 1 h -1 z m 3,0 h 1 v 1 H 52 Z M 0,37 h 1 v 1 H 0 Z m 1,0 h 1 v 1 H 1 Z m 1,0 h 1 v 1 H 2 Z m 1,0 h 1 v 1 H 3 Z m 2,0 h 1 v 1 H 5 Z m 2,0 h 1 v 1 H 7 Z m 1,0 h 1 v 1 H 8 Z m 1,0 h 1 v 1 H 9 Z m 1,0 h 1 v 1 h -1 z m 2,0 h 1 v 1 h -1 z m 3,0 h 1 v 1 h -1 z m 3,0 h 1 v 1 h -1 z m 5,0 h 1 v 1 h -1 z m 1,0 h 1 v 1 h -1 z m 3,0 h 1 v 1 h -1 z m 1,0 h 1 v 1 h -1 z m 1,0 h 1 v 1 h -1 z m 2,0 h 1 v 1 h -1 z m 3,0 h 1 v 1 h -1 z m 1,0 h 1 v 1 h -1 z m 1,0 h 1 v 1 h -1 z m 1,0 h 1 v 1 h -1 z m 3,0 h 1 v 1 h -1 z m 1,0 h 1 v 1 h -1 z m 2,0 h 1 v 1 h -1 z m 7,0 h 1 v 1 H 50 Z M 1,38 h 1 v 1 H 1 Z m 1,0 h 1 v 1 H 2 Z m 4,0 h 1 v 1 H 6 Z m 1,0 h 1 v 1 H 7 Z m 5,0 h 1 v 1 h -1 z m 6,0 h 1 v 1 h -1 z m 2,0 h 1 v 1 h -1 z m 1,0 h 1 v 1 h -1 z m 3,0 h 1 v 1 h -1 z m 1,0 h 1 v 1 h -1 z m 1,0 h 1 v 1 h -1 z m 1,0 h 1 v 1 h -1 z m 2,0 h 1 v 1 h -1 z m 1,0 h 1 v 1 h -1 z m 1,0 h 1 v 1 h -1 z m 4,0 h 1 v 1 h -1 z m 2,0 h 1 v 1 h -1 z m 1,0 h 1 v 1 h -1 z m 1,0 h 1 v 1 h -1 z m 1,0 h 1 v 1 h -1 z m 3,0 h 1 v 1 h -1 z m 1,0 h 1 v 1 h -1 z m 1,0 h 1 v 1 h -1 z m 1,0 h 1 v 1 h -1 z m 1,0 h 1 v 1 h -1 z m 1,0 h 1 v 1 h -1 z m 2,0 h 1 v 1 h -1 z m 2,0 h 1 v 1 H 52 Z M 1,39 h 1 v 1 H 1 Z m 2,0 h 1 v 1 H 3 Z m 4,0 h 1 v 1 H 7 Z m 5,0 h 1 v 1 h -1 z m 1,0 h 1 v 1 h -1 z m 1,0 h 1 v 1 h -1 z m 1,0 h 1 v 1 h -1 z m 3,0 h 1 v 1 h -1 z m 2,0 h 1 v 1 h -1 z m 1,0 h 1 v 1 h -1 z m 2,0 h 1 v 1 h -1 z m 1,0 h 1 v 1 h -1 z m 3,0 h 1 v 1 h -1 z m 1,0 h 1 v 1 h -1 z m 1,0 h 1 v 1 h -1 z m 2,0 h 1 v 1 h -1 z m 2,0 h 1 v 1 h -1 z m 2,0 h 1 v 1 h -1 z m 1,0 h 1 v 1 h -1 z m 4,0 h 1 v 1 h -1 z m 5,0 h 1 v 1 h -1 z m 2,0 h 1 v 1 h -1 z m 4,0 h 1 v 1 h -1 z m 1,0 h 1 v 1 H 52 Z M 0,40 h 1 v 1 H 0 Z m 1,0 h 1 v 1 H 1 Z m 1,0 h 1 v 1 H 2 Z m 1,0 h 1 v 1 H 3 Z m 1,0 h 1 v 1 H 4 Z m 1,0 h 1 v 1 H 5 Z m 1,0 h 1 v 1 H 6 Z m 2,0 h 1 v 1 H 8 Z m 6,0 h 1 v 1 h -1 z m 1,0 h 1 v 1 h -1 z m 1,0 h 1 v 1 h -1 z m 2,0 h 1 v 1 h -1 z m 3,0 h 1 v 1 h -1 z m 3,0 h 1 v 1 h -1 z m 1,0 h 1 v 1 h -1 z m 2,0 h 1 v 1 h -1 z m 1,0 h 1 v 1 h -1 z m 2,0 h 1 v 1 h -1 z m 2,0 h 1 v 1 h -1 z m 1,0 h 1 v 1 h -1 z m 1,0 h 1 v 1 h -1 z m 1,0 h 1 v 1 h -1 z m 1,0 h 1 v 1 h -1 z m 1,0 h 1 v 1 h -1 z m 1,0 h 1 v 1 h -1 z m 3,0 h 1 v 1 h -1 z m 1,0 h 1 v 1 h -1 z m 1,0 h 1 v 1 h -1 z m 2,0 h 1 v 1 h -1 z m 3,0 h 1 v 1 h -1 z m 1,0 h 1 v 1 h -1 z m 1,0 h 1 v 1 h -1 z m 2,0 h 1 v 1 H 52 Z M 0,41 h 1 v 1 H 0 Z m 2,0 h 1 v 1 H 2 Z m 2,0 h 1 v 1 H 4 Z m 1,0 h 1 v 1 H 5 Z m 4,0 h 1 v 1 H 9 Z m 1,0 h 1 v 1 h -1 z m 4,0 h 1 v 1 h -1 z m 2,0 h 1 v 1 h -1 z m 1,0 h 1 v 1 h -1 z m 2,0 h 1 v 1 h -1 z m 3,0 h 1 v 1 h -1 z m 2,0 h 1 v 1 h -1 z m 5,0 h 1 v 1 h -1 z m 2,0 h 1 v 1 h -1 z m 1,0 h 1 v 1 h -1 z m 3,0 h 1 v 1 h -1 z m 1,0 h 1 v 1 h -1 z m 2,0 h 1 v 1 h -1 z m 1,0 h 1 v 1 h -1 z m 2,0 h 1 v 1 h -1 z m 3,0 h 1 v 1 h -1 z m 1,0 h 1 v 1 h -1 z m 2,0 h 1 v 1 h -1 z m 1,0 h 1 v 1 h -1 z m 1,0 h 1 v 1 h -1 z m 1,0 h 1 v 1 h -1 z m 1,0 h 1 v 1 H 51 Z M 0,42 h 1 v 1 H 0 Z m 1,0 h 1 v 1 H 1 Z m 2,0 h 1 v 1 H 3 Z m 1,0 h 1 v 1 H 4 Z m 1,0 h 1 v 1 H 5 Z m 1,0 h 1 v 1 H 6 Z m 1,0 h 1 v 1 H 7 Z m 3,0 h 1 v 1 h -1 z m 1,0 h 1 v 1 h -1 z m 2,0 h 1 v 1 h -1 z m 2,0 h 1 v 1 h -1 z m 2,0 h 1 v 1 h -1 z m 2,0 h 1 v 1 h -1 z m 4,0 h 1 v 1 h -1 z m 1,0 h 1 v 1 h -1 z m 6,0 h 1 v 1 h -1 z m 2,0 h 1 v 1 h -1 z m 2,0 h 1 v 1 h -1 z m 7,0 h 1 v 1 h -1 z m 3,0 h 1 v 1 h -1 z m 1,0 h 1 v 1 h -1 z m 1,0 h 1 v 1 h -1 z m 3,0 h 1 v 1 h -1 z m 2,0 h 1 v 1 h -1 z m 1,0 h 1 v 1 H 52 Z M 1,43 h 1 v 1 H 1 Z m 1,0 h 1 v 1 H 2 Z m 5,0 h 1 v 1 H 7 Z m 3,0 h 1 v 1 h -1 z m 4,0 h 1 v 1 h -1 z m 2,0 h 1 v 1 h -1 z m 1,0 h 1 v 1 h -1 z m 4,0 h 1 v 1 h -1 z m 2,0 h 1 v 1 h -1 z m 1,0 h 1 v 1 h -1 z m 1,0 h 1 v 1 h -1 z m 2,0 h 1 v 1 h -1 z m 3,0 h 1 v 1 h -1 z m 3,0 h 1 v 1 h -1 z m 1,0 h 1 v 1 h -1 z m 2,0 h 1 v 1 h -1 z m 1,0 h 1 v 1 h -1 z m 1,0 h 1 v 1 h -1 z m 2,0 h 1 v 1 h -1 z m 1,0 h 1 v 1 h -1 z m 1,0 h 1 v 1 h -1 z m 2,0 h 1 v 1 h -1 z m 1,0 h 1 v 1 h -1 z m 1,0 h 1 v 1 h -1 z m 2,0 h 1 v 1 h -1 z m 1,0 h 1 v 1 H 49 Z M 3,44 h 1 v 1 H 3 Z m 3,0 h 1 v 1 H 6 Z m 1,0 h 1 v 1 H 7 Z m 5,0 h 1 v 1 h -1 z m 1,0 h 1 v 1 h -1 z m 1,0 h 1 v 1 h -1 z m 7,0 h 1 v 1 h -1 z m 1,0 h 1 v 1 h -1 z m 2,0 h 1 v 1 h -1 z m 1,0 h 1 v 1 h -1 z m 1,0 h 1 v 1 h -1 z m 1,0 h 1 v 1 h -1 z m 1,0 h 1 v 1 h -1 z m 1,0 h 1 v 1 h -1 z m 2,0 h 1 v 1 h -1 z m 2,0 h 1 v 1 h -1 z m 1,0 h 1 v 1 h -1 z m 1,0 h 1 v 1 h -1 z m 1,0 h 1 v 1 h -1 z m 4,0 h 1 v 1 h -1 z m 4,0 h 1 v 1 h -1 z m 1,0 h 1 v 1 h -1 z m 1,0 h 1 v 1 h -1 z m 1,0 h 1 v 1 h -1 z m 1,0 h 1 v 1 H 48 Z M 8,45 h 1 v 1 H 8 Z m 2,0 h 1 v 1 h -1 z m 1,0 h 1 v 1 h -1 z m 1,0 h 1 v 1 h -1 z m 1,0 h 1 v 1 h -1 z m 3,0 h 1 v 1 h -1 z m 3,0 h 1 v 1 h -1 z m 2,0 h 1 v 1 h -1 z m 1,0 h 1 v 1 h -1 z m 2,0 h 1 v 1 h -1 z m 4,0 h 1 v 1 h -1 z m 1,0 h 1 v 1 h -1 z m 1,0 h 1 v 1 h -1 z m 1,0 h 1 v 1 h -1 z m 2,0 h 1 v 1 h -1 z m 10,0 h 1 v 1 h -1 z m 1,0 h 1 v 1 h -1 z m 4,0 h 1 v 1 h -1 z m 4,0 h 1 v 1 H 52 Z M 0,46 h 1 v 1 H 0 Z m 1,0 h 1 v 1 H 1 Z m 1,0 h 1 v 1 H 2 Z m 1,0 h 1 v 1 H 3 Z m 1,0 h 1 v 1 H 4 Z m 1,0 h 1 v 1 H 5 Z m 1,0 h 1 v 1 H 6 Z m 2,0 h 1 v 1 H 8 Z m 1,0 h 1 v 1 H 9 Z m 2,0 h 1 v 1 h -1 z m 2,0 h 1 v 1 h -1 z m 1,0 h 1 v 1 h -1 z m 8,0 h 1 v 1 h -1 z m 1,0 h 1 v 1 h -1 z m 1,0 h 1 v 1 h -1 z m 2,0 h 1 v 1 h -1 z m 2,0 h 1 v 1 h -1 z m 2,0 h 1 v 1 h -1 z m 2,0 h 1 v 1 h -1 z m 1,0 h 1 v 1 h -1 z m 3,0 h 1 v 1 h -1 z m 1,0 h 1 v 1 h -1 z m 7,0 h 1 v 1 h -1 z m 2,0 h 1 v 1 h -1 z m 2,0 h 1 v 1 h -1 z m 1,0 h 1 v 1 h -1 z m 1,0 h 1 v 1 H 50 Z M 0,47 h 1 v 1 H 0 Z m 6,0 h 1 v 1 H 6 Z m 2,0 h 1 v 1 H 8 Z m 1,0 h 1 v 1 H 9 Z m 1,0 h 1 v 1 h -1 z m 1,0 h 1 v 1 h -1 z m 1,0 h 1 v 1 h -1 z m 1,0 h 1 v 1 h -1 z m 2,0 h 1 v 1 h -1 z m 1,0 h 1 v 1 h -1 z m 1,0 h 1 v 1 h -1 z m 2,0 h 1 v 1 h -1 z m 1,0 h 1 v 1 h -1 z m 2,0 h 1 v 1 h -1 z m 2,0 h 1 v 1 h -1 z m 4,0 h 1 v 1 h -1 z m 1,0 h 1 v 1 h -1 z m 4,0 h 1 v 1 h -1 z m 1,0 h 1 v 1 h -1 z m 1,0 h 1 v 1 h -1 z m 1,0 h 1 v 1 h -1 z m 3,0 h 1 v 1 h -1 z m 3,0 h 1 v 1 h -1 z m 1,0 h 1 v 1 h -1 z m 1,0 h 1 v 1 h -1 z m 4,0 h 1 v 1 h -1 z m 2,0 h 1 v 1 h -1 z m 1,0 h 1 v 1 H 51 Z M 0,48 h 1 v 1 H 0 Z m 2,0 h 1 v 1 H 2 Z m 1,0 h 1 v 1 H 3 Z m 1,0 h 1 v 1 H 4 Z m 2,0 h 1 v 1 H 6 Z m 3,0 h 1 v 1 H 9 Z m 1,0 h 1 v 1 h -1 z m 1,0 h 1 v 1 h -1 z m 2,0 h 1 v 1 h -1 z m 1,0 h 1 v 1 h -1 z m 1,0 h 1 v 1 h -1 z m 3,0 h 1 v 1 h -1 z m 1,0 h 1 v 1 h -1 z m 1,0 h 1 v 1 h -1 z m 3,0 h 1 v 1 h -1 z m 1,0 h 1 v 1 h -1 z m 1,0 h 1 v 1 h -1 z m 1,0 h 1 v 1 h -1 z m 1,0 h 1 v 1 h -1 z m 1,0 h 1 v 1 h -1 z m 1,0 h 1 v 1 h -1 z m 2,0 h 1 v 1 h -1 z m 1,0 h 1 v 1 h -1 z m 4,0 h 1 v 1 h -1 z m 1,0 h 1 v 1 h -1 z m 1,0 h 1 v 1 h -1 z m 1,0 h 1 v 1 h -1 z m 1,0 h 1 v 1 h -1 z m 2,0 h 1 v 1 h -1 z m 1,0 h 1 v 1 h -1 z m 1,0 h 1 v 1 h -1 z m 1,0 h 1 v 1 h -1 z m 1,0 h 1 v 1 h -1 z m 1,0 h 1 v 1 h -1 z m 1,0 h 1 v 1 h -1 z m 2,0 h 1 v 1 h -1 z m 2,0 h 1 v 1 H 52 Z M 0,49 h 1 v 1 H 0 Z m 2,0 h 1 v 1 H 2 Z m 1,0 h 1 v 1 H 3 Z m 1,0 h 1 v 1 H 4 Z m 2,0 h 1 v 1 H 6 Z m 2,0 h 1 v 1 H 8 Z m 3,0 h 1 v 1 h -1 z m 1,0 h 1 v 1 h -1 z m 1,0 h 1 v 1 h -1 z m 2,0 h 1 v 1 h -1 z m 1,0 h 1 v 1 h -1 z m 1,0 h 1 v 1 h -1 z m 3,0 h 1 v 1 h -1 z m 1,0 h 1 v 1 h -1 z m 1,0 h 1 v 1 h -1 z m 1,0 h 1 v 1 h -1 z m 2,0 h 1 v 1 h -1 z m 5,0 h 1 v 1 h -1 z m 1,0 h 1 v 1 h -1 z m 2,0 h 1 v 1 h -1 z m 1,0 h 1 v 1 h -1 z m 1,0 h 1 v 1 h -1 z m 1,0 h 1 v 1 h -1 z m 1,0 h 1 v 1 h -1 z m 9,0 h 1 v 1 h -1 z m 1,0 h 1 v 1 h -1 z m 1,0 h 1 v 1 h -1 z m 2,0 h 1 v 1 H 50 Z M 0,50 h 1 v 1 H 0 Z m 2,0 h 1 v 1 H 2 Z m 1,0 h 1 v 1 H 3 Z m 1,0 h 1 v 1 H 4 Z m 2,0 h 1 v 1 H 6 Z m 4,0 h 1 v 1 h -1 z m 1,0 h 1 v 1 h -1 z m 1,0 h 1 v 1 h -1 z m 3,0 h 1 v 1 h -1 z m 2,0 h 1 v 1 h -1 z m 1,0 h 1 v 1 h -1 z m 2,0 h 1 v 1 h -1 z m 1,0 h 1 v 1 h -1 z m 1,0 h 1 v 1 h -1 z m 7,0 h 1 v 1 h -1 z m 3,0 h 1 v 1 h -1 z m 1,0 h 1 v 1 h -1 z m 3,0 h 1 v 1 h -1 z m 1,0 h 1 v 1 h -1 z m 2,0 h 1 v 1 h -1 z m 1,0 h 1 v 1 h -1 z m 1,0 h 1 v 1 h -1 z m 2,0 h 1 v 1 h -1 z m 1,0 h 1 v 1 h -1 z m 2,0 h 1 v 1 h -1 z m 2,0 h 1 v 1 h -1 z m 3,0 h 1 v 1 h -1 z m 1,0 h 1 v 1 H 52 Z M 0,51 h 1 v 1 H 0 Z m 6,0 h 1 v 1 H 6 Z m 2,0 h 1 v 1 H 8 Z m 2,0 h 1 v 1 h -1 z m 1,0 h 1 v 1 h -1 z m 2,0 h 1 v 1 h -1 z m 1,0 h 1 v 1 h -1 z m 1,0 h 1 v 1 h -1 z m 1,0 h 1 v 1 h -1 z m 1,0 h 1 v 1 h -1 z m 2,0 h 1 v 1 h -1 z m 1,0 h 1 v 1 h -1 z m 2,0 h 1 v 1 h -1 z m 1,0 h 1 v 1 h -1 z m 1,0 h 1 v 1 h -1 z m 1,0 h 1 v 1 h -1 z m 1,0 h 1 v 1 h -1 z m 1,0 h 1 v 1 h -1 z m 1,0 h 1 v 1 h -1 z m 1,0 h 1 v 1 h -1 z m 1,0 h 1 v 1 h -1 z m 2,0 h 1 v 1 h -1 z m 3,0 h 1 v 1 h -1 z m 3,0 h 1 v 1 h -1 z m 1,0 h 1 v 1 h -1 z m 2,0 h 1 v 1 h -1 z m 1,0 h 1 v 1 h -1 z m 1,0 h 1 v 1 h -1 z m 1,0 h 1 v 1 h -1 z m 7,0 h 1 v 1 H 51 Z M 0,52 h 1 v 1 H 0 Z m 1,0 h 1 v 1 H 1 Z m 1,0 h 1 v 1 H 2 Z m 1,0 h 1 v 1 H 3 Z m 1,0 h 1 v 1 H 4 Z m 1,0 h 1 v 1 H 5 Z m 1,0 h 1 v 1 H 6 Z m 3,0 h 1 v 1 H 9 Z m 2,0 h 1 v 1 h -1 z m 1,0 h 1 v 1 h -1 z m 1,0 h 1 v 1 h -1 z m 1,0 h 1 v 1 h -1 z m 1,0 h 1 v 1 h -1 z m 3,0 h 1 v 1 h -1 z m 4,0 h 1 v 1 h -1 z m 4,0 h 1 v 1 h -1 z m 2,0 h 1 v 1 h -1 z m 2,0 h 1 v 1 h -1 z m 1,0 h 1 v 1 h -1 z m 1,0 h 1 v 1 h -1 z m 2,0 h 1 v 1 h -1 z m 1,0 h 1 v 1 h -1 z m 2,0 h 1 v 1 h -1 z m 2,0 h 1 v 1 h -1 z m 3,0 h 1 v 1 h -1 z m 7,0 h 1 v 1 h -1 z m 1,0 h 1 v 1 h -1 z m 1,0 h 1 v 1 h -1 z"
     fill="#000000"
     id="path1"
     style="display:inline;fill:#223c6a;fill-opacity:1" /><rect
     style="fill:#ffffff;fill-opacity:1;stroke-width:0.593704"
     id="rect2"
     width="20.900787"
     height="20.900583"
     x="16.049606"
     y="16.049709"
     transform="matrix(1.005425,0,0,1.005425,-0.14376209,-0.14376317)" /><g
     id="Capa_1-2"
     transform="matrix(0.10959616,0,0,0.10959616,-22.411123,3.1724564)"
     inkscape:label="Capa_1-2"
     style="fill:#a0a0a0;fill-opacity:1"><polygon
       class="cls-1"
       points="437.82,191.71 454.74,191.71 453.28,188.52 439.28,188.52 "
       id="polygon1"
       transform="matrix(0.89719671,0,0,0.89719671,45.884052,21.881681)"
       style="fill:#a0a0a0;fill-opacity:1" /><polygon
       class="cls-1"
       points="436.65,198.08 455.92,198.08 454.46,194.89 438.11,194.89 "
       id="polygon2"
       transform="matrix(0.89719671,0,0,0.89719671,45.879566,21.881681)"
       style="fill:#a0a0a0;fill-opacity:1" /><polygon
       class="cls-1"
       points="439.2,201.26 441.2,210.82 451.36,210.82 453.36,201.26 "
       id="polygon3"
       transform="matrix(0.89719671,0,0,0.89719671,45.884052,21.881681)"
       style="fill:#a0a0a0;fill-opacity:1" /><path
       class="cls-1"
       d="m 446.285,222.45 c -2.51215,0 -4.45907,2.18019 -4.18094,4.6744 l 3.35552,29.88562 c -0.77159,0.32299 -1.31888,1.08561 -1.31888,1.97383 0,0.96001 0.63701,1.74057 1.50729,2.0187 0.19738,0.0808 0.40373,0.1256 0.62803,0.1256 0,0 0,0 0,0 0,0 0,0 0,0 1.1843,0 2.1443,-0.96 2.1443,-2.1443 0,-0.88822 -0.54729,-1.65084 -1.31888,-1.97383 l 3.36449,-29.88562 c 0.27813,-2.49421 -1.66878,-4.6744 -4.18093,-4.6744 z"
       id="path3"
       style="stroke-width:0.897197;fill:#a0a0a0;fill-opacity:1" /><path
       class="cls-1"
       d="m 437.18742,218.87916 c 0.62804,0 1.1843,-0.2871 1.57009,-0.71776 h 15.05496 c 0.39477,0.43066 0.94206,0.71776 1.5701,0.71776 1.1843,0 2.1443,-0.96 2.1443,-2.1443 0,-1.1843 -0.96,-2.1443 -2.1443,-2.1443 -0.62804,0 -1.1843,0.27813 -1.5701,0.71776 h -15.05496 c -0.39476,-0.43066 -0.94205,-0.71776 -1.57009,-0.71776 -1.1843,0 -2.1443,0.96 -2.1443,2.1443 0,1.1843 0.96,2.1443 2.1443,2.1443 z"
       id="path4"
       style="stroke-width:0.897197;fill:#a0a0a0;fill-opacity:1" /><path
       class="cls-1"
       d="m 438.45923,186.7326 h 15.64711 c 5.81384,-5.41906 0.0269,-10.73944 1.48935,-13.12598 -1.74056,0.41271 -1.8572,3.36448 -3.14916,4.74617 -2.23402,-4.66543 2.85308,-8.98094 -1.57907,-14.48076 0.15252,4.42318 -4.07327,6.01122 -4.5757,12.56973 -1.95589,-3.84898 0.86131,-7.41982 -1.91103,-11.43029 -0.52935,3.58879 -4.59365,5.34729 -4.01944,11.46618 -2.00972,-0.85234 -1.95589,-3.2658 -3.84,-3.69646 1.58803,3.39141 -3.64262,8.90917 1.94691,13.95141 z"
       id="path5"
       inkscape:label="path5"
       style="stroke-width:0.897197;fill:#a0a0a0;fill-opacity:1" /><path
       class="cls-1"
       d="M 515.39158,229.76216 V 126.83575 H 377.17842 v 102.92641 c 0,38.16675 30.93535,69.10209 69.10209,69.10209 0,0 0,0 0,-0.009 v 0 c 38.16675,0.009 69.10209,-30.92637 69.10209,-69.09312 z m -37.56563,52.67442 c -0.60112,0.0538 -1.20224,0.0897 -1.79439,0.0987 -0.15253,-0.12561 -0.30505,-0.24224 -0.46655,-0.36785 -0.53831,-0.42168 -1.10355,-0.80748 -1.6957,-1.17533 -0.92411,-0.56523 -1.88411,-1.07664 -2.82617,-1.51626 -0.61906,-0.28711 -1.21121,-0.53832 -1.78542,-0.77159 -0.27813,-0.10767 -0.55626,-0.2243 -0.81645,-0.32299 0.19739,-0.54729 0.35888,-1.1215 0.52935,-1.68673 0.23327,-0.75365 0.42168,-1.49832 0.59215,-2.26094 0.26019,-0.0538 0.53832,-0.0987 0.82542,-0.13458 0.16149,-0.0179 0.33196,-0.0269 0.50243,-0.0449 0.35888,-0.0269 0.69084,-0.0897 1.07664,-0.0897 0.0897,0 0.18841,0.0179 0.27813,0.0179 0.47551,0 0.96897,0.0359 1.48037,0.0807 1.53421,0.15253 3.16711,0.47552 4.76412,0.95103 0.43065,0.12561 0.85233,0.26019 1.27402,0.41271 0.43065,0.15253 0.85233,0.31402 1.26504,0.48449 0.36785,0.15252 0.75365,0.29607 1.11253,0.45757 0.68187,0.31402 1.31888,0.65495 1.91103,1.01383 0.54729,0.33197 1.04972,0.68187 1.49831,1.04075 0.42169,0.34094 0.80748,0.69084 1.1215,1.05869 -1.95589,1.50729 -5.37421,2.44038 -8.8643,2.74542 z m -6.92636,-10.883 c 0.0808,-0.33196 0.17047,-0.66392 0.26916,-0.99589 1.14841,-3.96561 3.27477,-7.9671 5.62542,-9.74355 0.75365,1.13046 1.30094,2.7185 1.66879,4.48598 0.0538,0.25121 0.10766,0.49346 0.14355,0.75364 0.0718,0.43963 0.12561,0.88823 0.17944,1.33683 0.0538,0.43962 0.0807,0.88822 0.11664,1.34579 0.0538,0.92412 0.0718,1.84823 0.0359,2.77234 -0.009,0.34094 -0.0359,0.6729 -0.0628,1.00486 -1.77645,-0.49346 -3.54393,-0.80748 -5.1858,-0.94206 -0.47551,-0.0359 -0.94205,-0.0628 -1.39065,-0.0718 -0.0987,0 -0.21533,-0.0179 -0.30505,-0.0179 -0.40374,0 -0.71776,0.0538 -1.07663,0.0807 z m 15.16263,4.13608 c -0.76262,-0.50243 -1.5701,-0.97795 -2.44935,-1.39963 -0.69084,-0.33196 -1.39963,-0.63701 -2.13533,-0.90617 0.0359,-0.35888 0.0897,-0.69981 0.11664,-1.05869 0.0359,-0.52935 0.0179,-1.06766 0.0269,-1.60598 0,-0.7357 -0.009,-1.4714 -0.0628,-2.20711 0.26916,-0.009 0.53832,-0.0269 0.81645,-0.0269 0.59215,0 1.19327,0.0269 1.79439,0.0628 0.68187,0.0449 1.36374,0.12561 2.04561,0.21533 1.66879,0.23327 3.2658,0.61009 4.66542,1.13047 0.56524,0.20635 1.09458,0.43962 1.57907,0.69084 0.48448,0.25121 0.93308,0.52037 1.30991,0.80748 0.0179,0.009 0.0359,0.0179 0.0538,0.0359 -1.56112,1.77645 -4.54879,3.29272 -7.75178,4.27066 z m 11.82505,-10.61384 c -0.2871,0.27813 -0.60112,0.55626 -0.91514,0.82542 -0.96,0.83439 -2.00972,1.62393 -3.14916,2.34168 -0.15253,-0.0807 -0.30505,-0.15252 -0.46654,-0.22429 -0.87926,-0.43066 -1.82131,-0.79851 -2.80823,-1.09458 -0.48449,-0.14356 -0.97794,-0.27814 -1.48037,-0.39477 -0.37683,-0.0897 -0.75365,-0.1615 -1.13047,-0.2243 -0.52935,-0.0987 -1.04972,-0.17944 -1.5701,-0.25122 -0.0449,0 -0.0807,-0.009 -0.1256,-0.0179 -0.55627,-0.0718 -1.10356,-0.12561 -1.64187,-0.16149 -0.77159,-0.0538 -1.52524,-0.0987 -2.23402,-0.0987 v 0 c -0.323,0 -0.68187,0 -1.0587,0.018 0.18841,-0.2243 0.40374,-0.4486 0.65496,-0.66393 0.31402,-0.27813 0.68187,-0.53832 1.07663,-0.7985 0.71776,-0.46655 1.56113,-0.8972 2.48524,-1.28299 0.41271,-0.17047 0.84336,-0.33197 1.29196,-0.48449 0.26916,-0.0897 0.53832,-0.17944 0.81645,-0.26019 0.1615,-0.0538 0.33196,-0.0987 0.50243,-0.14355 0.26019,-0.0718 0.52037,-0.14355 0.78056,-0.20635 0.34991,-0.0897 0.69084,-0.17047 1.04972,-0.24225 0.0808,-0.0179 0.15253,-0.0269 0.23327,-0.0449 0.37683,-0.0718 0.75365,-0.15252 1.13047,-0.20635 0.45757,-0.0718 0.90617,-0.13458 1.36374,-0.18841 0.92411,-0.0987 1.83925,-0.15253 2.71851,-0.15253 0.31401,0 0.58317,0.0538 0.88822,0.0628 0.45757,0.0179 0.91514,0.0449 1.3458,0.0987 0.39476,0.0538 0.75364,0.13458 1.12149,0.20635 0.0718,0.0179 0.13458,0.0359 0.20636,0.0538 0.45757,0.10766 0.94205,0.19738 1.33682,0.35887 0.009,0 0.0269,0 0.0359,0.009 -0.5114,1.04972 -1.38169,2.12635 -2.44935,3.17607 z m 3.09533,-5.77795 c -0.5114,-0.18841 -1.07664,-0.33196 -1.65982,-0.45757 0.10767,-1.31888 0.13458,-2.6557 0.0628,-3.99252 -0.0269,-0.4486 -0.0718,-0.88823 -0.11664,-1.33683 -0.0449,-0.45757 -0.0808,-0.92411 -0.14355,-1.37271 -0.0359,-0.23327 -0.0897,-0.44859 -0.13458,-0.67289 0.88823,-0.45757 1.79439,-0.86131 2.67365,-1.1843 0.75364,-0.27813 1.48934,-0.49346 2.19813,-0.64598 0.63701,-0.14356 1.23813,-0.23328 1.81234,-0.26019 0.13458,0 0.27813,-0.0269 0.40373,-0.0269 0.0718,0 0.15253,0 0.2243,0 -0.26916,2.94281 -2.54803,6.8815 -5.3114,9.95889 z m 3.02355,-12.43514 c -1.80337,0.31402 -3.74131,0.96 -5.66131,1.89308 -0.23327,-0.76261 -0.50243,-1.48037 -0.80748,-2.13533 -0.25121,-0.53831 -0.50243,-1.07663 -0.80748,-1.52523 l -0.64598,-0.95103 -0.88822,-1.30991 -0.0718,-0.10766 -1.06766,0.81645 -1.20224,0.92411 c -0.8972,0.69084 -1.73159,1.67776 -2.5301,2.78131 -0.92411,-4.90766 -0.27813,-11.54692 1.92,-14.74991 0.31402,0.24224 0.60112,0.60112 0.90617,0.91514 0.39477,0.41271 0.77159,0.85234 1.13944,1.37271 0.43065,0.59215 0.83439,1.22019 1.22019,1.92897 0.80747,1.47141 1.52523,3.12225 2.06355,4.81795 1.75851,-2.4314 4.04636,-4.71926 6.28935,-6.21757 0.43065,-0.28711 0.85234,-0.53832 1.27402,-0.76262 0.4486,-0.24224 0.89719,-0.43963 1.32785,-0.59215 0.15252,-0.0538 0.31402,-0.12561 0.46654,-0.17047 0.76262,3.40935 -0.6729,8.93608 -2.92486,13.08113 z m -8.00299,-14.32823 c 0.71775,-3.69645 2.16224,-7.32113 4.02841,-9.20524 1.71364,1.91103 2.96075,5.41907 3.52598,9.0258 -1.83028,1.0228 -3.60673,2.44934 -5.14991,4.02841 -0.63701,-1.29196 -1.45346,-2.63776 -2.41346,-3.84 z m 0.71775,-93.55968 2.32374,-7.14168 2.32374,7.14168 h 7.50954 l -6.07402,4.41421 2.32374,7.14169 -6.07403,-4.41421 -6.07402,4.41421 2.32374,-7.14169 -6.07402,-4.41421 h 7.50954 z m 0,29.8946 2.32374,-7.14169 2.32374,7.14169 h 7.50954 c 0,0 -6.07402,4.41421 -6.07402,4.41421 l 2.32374,7.14168 -6.07403,-4.41421 -6.07402,4.41421 2.32374,-7.14168 -6.07402,-4.41421 h 7.50954 z M 489.651,254.2646 c 0.0987,-0.26019 0.19739,-0.5114 0.30505,-0.76262 0.17944,-0.43962 0.36785,-0.87028 0.56523,-1.30093 0.0269,-0.0628 0.0628,-0.12561 0.0897,-0.18841 0.23327,-0.48449 0.47552,-0.96 0.7357,-1.41757 0.0269,-0.0449 0.0538,-0.0897 0.0808,-0.13458 0.92412,-1.61496 1.97384,-2.99664 3.08636,-3.84898 0.61906,0.90617 1.09458,2.09944 1.46243,3.44524 0.11664,0.43962 0.2243,0.89719 0.31402,1.37271 0.0897,0.46654 0.17047,0.94206 0.23327,1.43551 0,0.018 0,0.0269 0,0.0449 0.0538,0.43963 0.10766,0.88823 0.14355,1.33683 0.0359,0.44859 0.0628,0.88822 0.0808,1.33682 0.0269,0.97794 0,1.95589 -0.0628,2.90692 -0.42169,-0.0269 -0.79851,-0.0987 -1.25608,-0.0987 -0.84337,0 -1.72262,0.0538 -2.61981,0.14356 -0.43963,0.0449 -0.88823,0.10766 -1.33683,0.17046 -0.30504,0.0449 -0.61009,0.0718 -0.91514,0.12561 -0.13458,0.018 -0.26019,0.0538 -0.39476,0.0808 -0.3858,0.0718 -0.77159,0.15252 -1.15739,0.24224 -0.2243,0.0449 -0.43963,0.0808 -0.66392,0.13458 0.15252,-1.00486 0.38579,-2.05458 0.69084,-3.11327 0.18841,-0.64598 0.40374,-1.28299 0.63701,-1.92 z m -1.70467,-5.40112 c 0.20635,0.43962 0.39477,0.89719 0.57421,1.38168 -0.0359,0.0718 -0.0807,0.13458 -0.11664,0.20635 -1.51626,3.0415 -2.56598,6.54954 -2.86206,9.6987 -1.21121,0.43963 -2.33271,0.95103 -3.34654,1.55215 -0.85234,-4.97944 0.77159,-12.83888 3.72336,-16.0329 0.76262,0.7985 1.44449,1.91102 2.03664,3.19402 z m -17.603,-109.88866 2.32374,-7.14168 2.32374,7.14168 h 7.50954 l -6.07403,4.41421 2.32374,7.14169 -6.07402,-4.41421 -6.07402,4.41421 2.32374,-7.14169 -6.07402,-4.41421 h 7.50953 z m -26.37758,0 2.32374,-7.14168 2.32374,7.14168 h 7.50953 l -6.07402,4.41421 2.32374,7.14169 -6.07402,-4.41421 -6.07402,4.41421 2.32374,-7.14169 -6.07403,-4.41421 h 7.50954 z m -26.37759,0 2.32374,-7.14168 2.32374,7.14168 h 7.50954 l -6.07402,4.41421 2.32374,7.14169 -6.07403,-4.41421 -6.07402,4.41421 2.32374,-7.14169 -6.07402,-4.41421 h 7.50954 z m -7.70692,17.89908 h 72.79854 v 75.5619 c 0,20.10618 -16.29309,36.39927 -36.39927,36.39927 v 0 c 0,0 0,0 0,0 -20.10617,0 -36.39927,-16.30206 -36.39927,-36.39927 z m 11.80711,113.42361 c -1.67776,-0.33197 -3.33757,-0.42169 -4.54879,-0.42169 -0.53831,0 -1.12149,0.018 -1.71364,0.0538 -0.45757,0.0269 -0.93309,0.0718 -1.4086,0.11664 -0.19738,0.0179 -0.40374,0.0449 -0.61009,0.0718 -0.0808,-1.23814 -0.0808,-2.48524 0,-3.70543 0.0359,-0.61906 0.0987,-1.22018 0.17944,-1.81233 0.27813,-2.00972 0.78953,-3.83103 1.57906,-5.123 2.70954,1.87514 5.27552,6.46879 6.53159,10.82917 z m -14.6243,-22.34917 c 2.46729,3.2299 3.86691,9.68075 3.47215,14.46281 -0.75365,-0.40374 -1.55215,-0.77159 -2.40449,-1.10356 -0.13458,-3.37346 -1.48037,-7.49159 -3.40935,-11.01757 0,-0.009 -0.009,-0.0179 -0.0179,-0.0359 0.56523,-1.14841 1.20224,-2.15327 1.91103,-2.88897 0.15252,0.17046 0.29607,0.37682 0.43962,0.5742 z m -1.70468,12.45309 c -0.49346,-0.13458 -0.99589,-0.23328 -1.49832,-0.34094 -0.43962,-0.0897 -0.87925,-0.19738 -1.31888,-0.27813 -0.0897,-0.0179 -0.17943,-0.0179 -0.26915,-0.0359 -0.35888,-0.0538 -0.71776,-0.0987 -1.07664,-0.14355 -0.0807,-0.009 -0.1615,-0.0179 -0.23327,-0.0269 -0.4486,-0.0538 -0.8972,-0.0987 -1.33682,-0.1256 -0.6101,-0.0449 -1.21122,-0.0808 -1.7944,-0.0808 -0.42168,0 -0.77159,0.0718 -1.16635,0.0897 -0.39477,-1.90206 -0.58318,-3.99253 -0.55627,-6.02019 0,-0.48449 0.0269,-0.95103 0.0628,-1.42654 0,-0.0628 0,-0.12561 0.009,-0.17944 0.009,-0.12561 0.009,-0.25122 0.0179,-0.36785 0.0269,-0.32299 0.0808,-0.62804 0.12561,-0.94206 0.009,-0.0807 0.018,-0.1615 0.0269,-0.24224 0.0269,-0.1615 0.0449,-0.32299 0.0718,-0.47552 0.0628,-0.3499 0.13458,-0.6729 0.21533,-1.00486 0.26019,-1.10355 0.60112,-2.09944 1.05869,-2.89794 0.23327,0.15252 0.45757,0.3499 0.69084,0.53831 0.37683,0.31402 0.75365,0.66393 1.13047,1.06767 0.47552,0.5114 0.94206,1.08561 1.39066,1.71364 0.26018,0.35888 0.5114,0.73571 0.75364,1.1215 0.018,0.0269 0.0269,0.0449 0.0449,0.0718 0.2243,0.35887 0.43066,0.7357 0.63701,1.11252 0.0718,0.13458 0.1615,0.26916 0.23327,0.41271 0.29608,0.55626 0.56524,1.1215 0.82542,1.6957 1.01384,2.27888 1.72262,4.68337 1.96486,6.77384 z m -0.69981,-14.8845 c -0.56524,0.59215 -1.09458,1.31888 -1.58804,2.12636 -0.71776,-1.01383 -1.4714,-1.89309 -2.26094,-2.6557 -0.35887,-0.34991 -0.72672,-0.63701 -1.10355,-0.91514 -0.17944,-0.13458 -0.3499,-0.323 -0.53832,-0.43963 l -0.61906,-0.40374 -1.77645,-1.16636 -1.42654,2.48524 c -0.43066,0.75364 -0.77159,1.67776 -1.0587,2.6557 -0.0987,-0.0628 -0.18841,-0.12561 -0.2871,-0.17944 -1.46243,-2.88 -2.42243,-5.91252 -2.27888,-8.1914 1.6329,0.19738 3.5529,1.0228 5.46393,2.2071 0.40374,-1.32785 0.91514,-2.5929 1.48935,-3.79514 0.32299,-0.68187 0.66392,-1.31888 1.0228,-1.92 0.34094,-0.55626 0.68187,-1.09458 1.04972,-1.56112 0.43066,-0.54729 0.87925,-1.04075 1.33682,-1.42655 2.07253,2.8172 2.96973,8.47851 2.55701,13.18879 z m -10.86505,3.92075 c 0,0 -0.009,0 -0.0179,0 0,-0.009 0,-0.0179 0,-0.0359 0,0.009 0.009,0.0179 0.0179,0.0269 z m -3.53496,-4.29757 c -0.7357,-0.29608 -1.46243,-0.55626 -2.17121,-0.7357 -2.15328,-4.39627 -3.33758,-10.56001 -2.23402,-14.11291 1.57906,0.60113 3.30168,1.90206 4.91663,3.56187 0.49346,-3.31065 1.53421,-6.45981 3.05047,-8.28112 1.6957,1.57907 3.11328,4.48598 4.01944,7.63514 -0.87925,1.31888 -1.59701,2.73645 -2.12635,4.01047 -1.29197,-0.55626 -2.51215,-0.91514 -3.65159,-1.04972 l -2.84412,-0.3499 -0.17944,2.85308 c -0.11663,1.84823 0.34991,4.10019 1.22019,6.46879 z m 0.95103,-106.16529 2.32374,-7.14168 2.32374,7.14168 h 7.50954 l -6.07403,4.41421 2.32374,7.14169 -6.07402,-4.41421 -6.07402,4.41421 2.32374,-7.14169 -6.07402,-4.41421 h 7.50953 z m 0,29.8946 2.32374,-7.14169 2.32374,7.14169 h 7.50954 c 0,0 -6.07403,4.41421 -6.07403,4.41421 l 2.32374,7.14168 -6.07402,-4.41421 -6.07402,4.41421 2.32374,-7.14168 -6.07402,-4.41421 h 7.50953 z m -5.77795,77.81387 c 0.27813,0.009 0.57421,0.0628 0.86131,0.10766 0.60112,0.0897 1.21122,0.21533 1.86617,0.42168 0.82542,0.26019 1.6957,0.62804 2.55701,1.0587 0.42168,0.20635 0.84337,0.43065 1.27402,0.67289 0.30505,0.17047 0.61009,0.34094 0.91514,0.52935 0.26916,0.17047 0.53832,0.34093 0.80748,0.52037 -0.0449,0.28711 -0.0718,0.58318 -0.10766,0.87926 -0.018,0.19738 -0.0538,0.37682 -0.0718,0.5742 -0.0269,0.26916 -0.0449,0.52935 -0.0628,0.78954 -0.14356,2.50317 0.0449,5.12299 0.52934,7.55439 -0.42168,0.0897 -0.81645,0.20636 -1.20224,0.33196 -3.73234,-3.40934 -7.27627,-9.4385 -7.35701,-13.43103 z m 8.5144,17.58505 c -0.34991,-0.48448 -0.69084,-0.96897 -0.91514,-1.44448 0.24224,-0.0987 0.54729,-0.13458 0.81645,-0.21533 0.26916,-0.0807 0.53832,-0.1615 0.82542,-0.21533 0.35888,-0.0718 0.72673,-0.14355 1.11252,-0.18841 0.0718,-0.009 0.15253,-0.009 0.2243,-0.0179 0.4486,-0.0449 0.90617,-0.0897 1.39066,-0.0987 0.15252,0 0.27813,-0.0269 0.43065,-0.0269 0.5114,0 1.03178,0.0269 1.56112,0.0628 0.0538,0 0.10767,0.009 0.1615,0.018 0.4486,0.0359 0.90617,0.0807 1.36374,0.13458 0.0987,0.009 0.19738,0.0269 0.30505,0.0449 0.3499,0.0449 0.69084,0.0987 1.04074,0.16149 0.1615,0.0269 0.32299,0.0628 0.47552,0.0897 0.87925,0.17047 1.74953,0.37682 2.58392,0.61907 0.4486,0.13458 0.87926,0.26916 1.30094,0.42168 0.43065,0.15252 0.85234,0.31402 1.25607,0.48449 0.78057,0.33196 1.5073,0.69981 2.14431,1.09458 0.25121,0.15252 0.49345,0.31401 0.71775,0.47551 -0.0359,0.45757 -0.0449,0.93308 -0.0628,1.39066 -0.0269,0.7357 -0.0359,1.4714 0,2.21607 0.0179,0.43066 0.0359,0.86131 0.0718,1.28299 -1.71364,0.36785 -3.3914,0.8972 -4.88075,1.61496 -4.29757,-1.22916 -9.47439,-4.56673 -11.92374,-7.90431 z m 22.28637,16.45459 c -0.85234,-0.15252 -1.70468,-0.34093 -2.54804,-0.5742 -3.48113,-0.95103 -6.79178,-2.54804 -8.49646,-4.44113 0.28711,-0.23327 0.61907,-0.4486 0.96898,-0.65495 0.66392,-0.39477 1.44448,-0.7357 2.28785,-1.04075 0.82542,-0.29608 1.71364,-0.55626 2.63776,-0.76262 0.41271,-0.0897 0.82542,-0.17944 1.2471,-0.25121 0.0269,0 0.0449,0 0.0718,-0.009 0.43962,-0.0718 0.87925,-0.14356 1.32785,-0.19739 0.17944,-0.0179 0.36785,-0.0269 0.54729,-0.0538 0.96,-0.0987 1.92,-0.1615 2.86205,-0.1615 1.90206,0 3.69646,0.21533 5.1858,0.63701 0.43066,0.12561 0.84337,0.26019 1.21122,0.42169 0.0987,0.46654 0.17944,0.92411 0.30504,1.39962 0.23328,0.86131 0.52038,1.72262 0.82543,2.5929 -0.41272,0.11664 -0.8344,0.26916 -1.24711,0.40374 -0.58318,0.18841 -1.15738,0.37682 -1.74056,0.60112 -1.04075,0.40374 -2.01869,0.87028 -2.95178,1.38169 -0.50243,0.27813 -1.01383,0.54729 -1.45346,0.8613 -0.3499,-0.0449 -0.69981,-0.0897 -1.04972,-0.15252 z m 29.3473,8.98094 c -1.7585,1.1843 -3.36449,2.48523 -4.59365,3.85795 -1.72261,-0.68187 -4.4142,-1.48935 -4.4142,-1.48935 0,0 1.96486,-2.44038 5.56262,-4.84486 -2.82617,-1.72262 -4.45907,-2.20711 -6.47777,-2.60187 -1.71364,1.17532 -5.11402,1.89308 -8.66692,1.89308 -3.55289,0 -7.12374,-0.69981 -9.44748,-2.35963 0.15253,-0.16149 0.34094,-0.32299 0.52935,-0.47551 0.42168,-0.36785 0.88822,-0.72673 1.43551,-1.05869 0.11664,-0.0718 0.25122,-0.13458 0.36785,-0.19739 1.00487,-0.56523 2.16225,-1.07663 3.39141,-1.52523 1.09458,-0.39477 2.24299,-0.72673 3.37346,-0.98692 0.56523,-0.13458 1.12149,-0.25121 1.66878,-0.34093 0,-0.009 0,-0.0179 0.009,-0.0359 -0.33197,-0.7985 -0.65496,-1.60598 -0.95103,-2.42243 -0.37683,-1.0228 -0.71776,-2.04561 -0.97795,-3.0415 -0.19738,-0.74467 -0.34093,-1.4714 -0.43065,-2.17121 -0.15252,-1.14841 -0.1615,-2.21608 0.0808,-3.14019 4.78205,1.57009 10.26393,8.58617 10.48823,13.29645 4.04635,0.57421 6.46878,1.6329 9.10654,3.17608 3.1043,-1.51626 6.3073,-3.14916 10.76636,-3.15813 -0.21532,-4.42318 6.21758,-12.11216 10.78431,-13.8258 0.3499,1.12149 0.32299,2.55701 0.0897,4.10916 -0.0897,0.55626 -0.20636,1.13047 -0.34991,1.72262 -0.43065,1.79439 -1.07664,3.65159 -1.75851,5.34729 -0.0807,0.20635 -0.16149,0.42168 -0.25121,0.61906 0.19738,0.0538 0.40374,0.12561 0.61009,0.18841 1.23813,0.3858 2.5301,0.86131 3.79515,1.41758 1.28299,0.56523 2.50317,1.21121 3.57084,1.91102 0.11663,0.0807 0.23327,0.1615 0.34991,0.24225 0.66392,0.46654 1.25607,0.94205 1.73158,1.43551 0.24225,0.25122 0.46655,0.50243 0.64599,0.76262 -1.78543,1.06766 -4.62954,1.57009 -7.56337,1.57009 -4.04636,0 -8.25421,-0.96 -10.07552,-2.72747 -2.68262,0.2243 -5.8587,1.26504 -8.8643,2.79028 2.25196,1.82131 3.42729,3.3286 3.42729,3.3286 0,0 -0.7357,0.37682 -3.41832,2.12635 -1.1843,-1.3099 -2.35963,-2.42243 -3.51701,-3.3914 z"
       id="path6"
       style="stroke-width:0.897197;fill:#a0a0a0;fill-opacity:1" /></g></svg>
