%TF.GenerationSoftware,KiCad,Pcbnew,9.0.1*%
%TF.CreationDate,2025-08-30T16:28:28-04:00*%
%TF.ProjectId,SEPIC,53455049-432e-46b6-9963-61645f706362,rev?*%
%TF.SameCoordinates,Original*%
%TF.FileFunction,Copper,L2,Bot*%
%TF.FilePolarity,Positive*%
%FSLAX46Y46*%
G04 Gerber Fmt 4.6, Leading zero omitted, Abs format (unit mm)*
G04 Created by KiCad (PCBNEW 9.0.1) date 2025-08-30 16:28:28*
%MOMM*%
%LPD*%
G01*
G04 APERTURE LIST*
G04 Aperture macros list*
%AMRoundRect*
0 Rectangle with rounded corners*
0 $1 Rounding radius*
0 $2 $3 $4 $5 $6 $7 $8 $9 X,Y pos of 4 corners*
0 Add a 4 corners polygon primitive as box body*
4,1,4,$2,$3,$4,$5,$6,$7,$8,$9,$2,$3,0*
0 Add four circle primitives for the rounded corners*
1,1,$1+$1,$2,$3*
1,1,$1+$1,$4,$5*
1,1,$1+$1,$6,$7*
1,1,$1+$1,$8,$9*
0 Add four rect primitives between the rounded corners*
20,1,$1+$1,$2,$3,$4,$5,0*
20,1,$1+$1,$4,$5,$6,$7,0*
20,1,$1+$1,$6,$7,$8,$9,0*
20,1,$1+$1,$8,$9,$2,$3,0*%
%AMFreePoly0*
4,1,23,0.550000,-0.750000,0.000000,-0.750000,0.000000,-0.745722,-0.065263,-0.745722,-0.191342,-0.711940,-0.304381,-0.646677,-0.396677,-0.554381,-0.461940,-0.441342,-0.495722,-0.315263,-0.495722,-0.250000,-0.500000,-0.250000,-0.500000,0.250000,-0.495722,0.250000,-0.495722,0.315263,-0.461940,0.441342,-0.396677,0.554381,-0.304381,0.646677,-0.191342,0.711940,-0.065263,0.745722,0.000000,0.745722,
0.000000,0.750000,0.550000,0.750000,0.550000,-0.750000,0.550000,-0.750000,$1*%
%AMFreePoly1*
4,1,23,0.000000,0.745722,0.065263,0.745722,0.191342,0.711940,0.304381,0.646677,0.396677,0.554381,0.461940,0.441342,0.495722,0.315263,0.495722,0.250000,0.500000,0.250000,0.500000,-0.250000,0.495722,-0.250000,0.495722,-0.315263,0.461940,-0.441342,0.396677,-0.554381,0.304381,-0.646677,0.191342,-0.711940,0.065263,-0.745722,0.000000,-0.745722,0.000000,-0.750000,-0.550000,-0.750000,
-0.550000,0.750000,0.000000,0.750000,0.000000,0.745722,0.000000,0.745722,$1*%
G04 Aperture macros list end*
%ADD10C,0.400000*%
%TA.AperFunction,ComponentPad*%
%ADD11R,3.500000X3.500000*%
%TD*%
%TA.AperFunction,ComponentPad*%
%ADD12RoundRect,0.750000X-1.000000X0.750000X-1.000000X-0.750000X1.000000X-0.750000X1.000000X0.750000X0*%
%TD*%
%TA.AperFunction,ComponentPad*%
%ADD13RoundRect,0.875000X-0.875000X0.875000X-0.875000X-0.875000X0.875000X-0.875000X0.875000X0.875000X0*%
%TD*%
%TA.AperFunction,ComponentPad*%
%ADD14R,2.200000X2.200000*%
%TD*%
%TA.AperFunction,ComponentPad*%
%ADD15C,2.200000*%
%TD*%
%TA.AperFunction,ComponentPad*%
%ADD16C,1.600000*%
%TD*%
%TA.AperFunction,ComponentPad*%
%ADD17R,1.700000X1.700000*%
%TD*%
%TA.AperFunction,ComponentPad*%
%ADD18C,1.700000*%
%TD*%
%TA.AperFunction,ComponentPad*%
%ADD19O,1.600000X1.600000*%
%TD*%
%TA.AperFunction,ComponentPad*%
%ADD20R,1.800000X1.800000*%
%TD*%
%TA.AperFunction,ComponentPad*%
%ADD21O,1.800000X1.800000*%
%TD*%
%TA.AperFunction,ComponentPad*%
%ADD22RoundRect,0.250000X1.050000X1.050000X-1.050000X1.050000X-1.050000X-1.050000X1.050000X-1.050000X0*%
%TD*%
%TA.AperFunction,ComponentPad*%
%ADD23C,2.600000*%
%TD*%
%TA.AperFunction,ComponentPad*%
%ADD24RoundRect,0.250000X-1.050000X-1.050000X1.050000X-1.050000X1.050000X1.050000X-1.050000X1.050000X0*%
%TD*%
%TA.AperFunction,ComponentPad*%
%ADD25RoundRect,0.250000X-0.550000X-0.550000X0.550000X-0.550000X0.550000X0.550000X-0.550000X0.550000X0*%
%TD*%
%TA.AperFunction,ComponentPad*%
%ADD26O,2.000000X1.905000*%
%TD*%
%TA.AperFunction,ComponentPad*%
%ADD27R,2.000000X1.905000*%
%TD*%
%TA.AperFunction,SMDPad,CuDef*%
%ADD28FreePoly0,0.000000*%
%TD*%
%TA.AperFunction,SMDPad,CuDef*%
%ADD29R,1.000000X1.500000*%
%TD*%
%TA.AperFunction,SMDPad,CuDef*%
%ADD30FreePoly1,0.000000*%
%TD*%
%TA.AperFunction,Conductor*%
%ADD31C,0.800000*%
%TD*%
%TA.AperFunction,Conductor*%
%ADD32C,1.000000*%
%TD*%
G04 APERTURE END LIST*
D10*
G36*
X77872556Y-80784438D02*
G01*
X77357864Y-80784438D01*
X77238646Y-80724829D01*
X77189308Y-80675489D01*
X77129699Y-80556271D01*
X77129699Y-80364984D01*
X77189308Y-80245765D01*
X77228209Y-80206864D01*
X77438346Y-80136819D01*
X77872556Y-80136819D01*
X77872556Y-80784438D01*
G37*
G36*
X77872556Y-79736819D02*
G01*
X77453102Y-79736819D01*
X77333884Y-79677209D01*
X77284546Y-79627871D01*
X77224937Y-79508652D01*
X77224937Y-79412603D01*
X77284546Y-79293384D01*
X77333884Y-79244047D01*
X77453102Y-79184438D01*
X77872556Y-79184438D01*
X77872556Y-79736819D01*
G37*
G36*
X79604594Y-80213009D02*
G01*
X79207185Y-80213009D01*
X79405889Y-79616894D01*
X79604594Y-80213009D01*
G37*
G36*
X79110652Y-76612169D02*
G01*
X78595960Y-76612169D01*
X78476742Y-76552560D01*
X78427404Y-76503220D01*
X78367795Y-76384002D01*
X78367795Y-76192715D01*
X78427404Y-76073496D01*
X78476742Y-76024159D01*
X78595960Y-75964550D01*
X79110652Y-75964550D01*
X79110652Y-76612169D01*
G37*
G36*
X77110652Y-76612169D02*
G01*
X76595960Y-76612169D01*
X76476742Y-76552560D01*
X76427404Y-76503220D01*
X76367795Y-76384002D01*
X76367795Y-76192715D01*
X76427404Y-76073496D01*
X76476742Y-76024159D01*
X76595960Y-75964550D01*
X77110652Y-75964550D01*
X77110652Y-76612169D01*
G37*
G36*
X81110652Y-76612169D02*
G01*
X80595960Y-76612169D01*
X80476742Y-76552560D01*
X80427404Y-76503220D01*
X80367795Y-76384002D01*
X80367795Y-76192715D01*
X80427404Y-76073496D01*
X80476742Y-76024159D01*
X80595960Y-75964550D01*
X81110652Y-75964550D01*
X81110652Y-76612169D01*
G37*
G36*
X81110652Y-74344662D02*
G01*
X80595960Y-74344662D01*
X80476742Y-74285053D01*
X80427404Y-74235713D01*
X80367795Y-74116495D01*
X80367795Y-73925208D01*
X80427404Y-73805989D01*
X80466305Y-73767088D01*
X80676442Y-73697043D01*
X81110652Y-73697043D01*
X81110652Y-74344662D01*
G37*
G36*
X81110652Y-73297043D02*
G01*
X80691198Y-73297043D01*
X80571980Y-73237433D01*
X80522642Y-73188095D01*
X80463033Y-73068876D01*
X80463033Y-72972827D01*
X80522642Y-72853608D01*
X80571980Y-72804271D01*
X80691198Y-72744662D01*
X81110652Y-72744662D01*
X81110652Y-73297043D01*
G37*
G36*
X79110652Y-73392281D02*
G01*
X78595960Y-73392281D01*
X78476742Y-73332672D01*
X78427404Y-73283332D01*
X78367795Y-73164114D01*
X78367795Y-72972827D01*
X78427404Y-72853608D01*
X78476742Y-72804271D01*
X78595960Y-72744662D01*
X79110652Y-72744662D01*
X79110652Y-73392281D01*
G37*
G36*
X82014745Y-81406660D02*
G01*
X75745573Y-81406660D01*
X75745573Y-80317771D01*
X76729699Y-80317771D01*
X76729699Y-80603485D01*
X76733542Y-80642503D01*
X76736291Y-80649140D01*
X76736801Y-80656310D01*
X76750814Y-80692928D01*
X76846052Y-80883404D01*
X76856623Y-80900197D01*
X76858643Y-80905074D01*
X76863149Y-80910565D01*
X76866938Y-80916584D01*
X76870929Y-80920045D01*
X76883515Y-80935382D01*
X76978753Y-81030621D01*
X76994092Y-81043210D01*
X76997552Y-81047199D01*
X77003563Y-81050983D01*
X77009060Y-81055494D01*
X77013942Y-81057516D01*
X77030732Y-81068085D01*
X77221209Y-81163324D01*
X77257826Y-81177336D01*
X77264995Y-81177845D01*
X77271633Y-81180595D01*
X77310651Y-81184438D01*
X78072556Y-81184438D01*
X78111574Y-81180595D01*
X78183670Y-81150732D01*
X78238850Y-81095552D01*
X78268713Y-81023456D01*
X78272556Y-80984438D01*
X78272556Y-80959423D01*
X78540794Y-80959423D01*
X78546325Y-81037263D01*
X78581224Y-81107061D01*
X78640177Y-81158190D01*
X78714208Y-81182867D01*
X78792048Y-81177336D01*
X78861846Y-81142437D01*
X78912975Y-81083484D01*
X78928960Y-81047684D01*
X79073852Y-80613009D01*
X79737928Y-80613009D01*
X79882819Y-81047684D01*
X79898804Y-81083484D01*
X79949933Y-81142437D01*
X80019731Y-81177336D01*
X80097571Y-81182868D01*
X80171602Y-81158190D01*
X80230555Y-81107061D01*
X80265454Y-81037263D01*
X80270985Y-80959424D01*
X80262293Y-80921193D01*
X79603703Y-78945420D01*
X80257352Y-78945420D01*
X80257352Y-79023456D01*
X80287215Y-79095552D01*
X80342395Y-79150732D01*
X80414491Y-79180595D01*
X80453509Y-79184438D01*
X80824938Y-79184438D01*
X80824938Y-80984438D01*
X80828781Y-81023456D01*
X80858644Y-81095552D01*
X80913824Y-81150732D01*
X80985920Y-81180595D01*
X81063956Y-81180595D01*
X81136052Y-81150732D01*
X81191232Y-81095552D01*
X81221095Y-81023456D01*
X81224938Y-80984438D01*
X81224938Y-79184438D01*
X81596366Y-79184438D01*
X81635384Y-79180595D01*
X81707480Y-79150732D01*
X81762660Y-79095552D01*
X81792523Y-79023456D01*
X81792523Y-78945420D01*
X81762660Y-78873324D01*
X81707480Y-78818144D01*
X81635384Y-78788281D01*
X81596366Y-78784438D01*
X80453509Y-78784438D01*
X80414491Y-78788281D01*
X80342395Y-78818144D01*
X80287215Y-78873324D01*
X80257352Y-78945420D01*
X79603703Y-78945420D01*
X79595627Y-78921193D01*
X79579642Y-78885392D01*
X79570280Y-78874597D01*
X79563889Y-78861815D01*
X79544943Y-78845384D01*
X79528513Y-78826439D01*
X79515730Y-78820047D01*
X79504936Y-78810686D01*
X79481149Y-78802757D01*
X79458715Y-78791540D01*
X79444459Y-78790527D01*
X79430905Y-78786009D01*
X79405892Y-78787786D01*
X79380875Y-78786009D01*
X79367317Y-78790528D01*
X79353065Y-78791541D01*
X79330635Y-78802755D01*
X79306844Y-78810686D01*
X79296049Y-78820047D01*
X79283267Y-78826439D01*
X79266836Y-78845384D01*
X79247891Y-78861815D01*
X79241499Y-78874597D01*
X79232138Y-78885392D01*
X79216153Y-78921193D01*
X78549486Y-80921192D01*
X78540794Y-80959423D01*
X78272556Y-80959423D01*
X78272556Y-78984438D01*
X78268713Y-78945420D01*
X78238850Y-78873324D01*
X78183670Y-78818144D01*
X78111574Y-78788281D01*
X78072556Y-78784438D01*
X77405889Y-78784438D01*
X77366871Y-78788281D01*
X77360233Y-78791030D01*
X77353064Y-78791540D01*
X77316447Y-78805552D01*
X77125970Y-78900791D01*
X77109178Y-78911360D01*
X77104299Y-78913382D01*
X77098806Y-78917889D01*
X77092790Y-78921677D01*
X77089328Y-78925668D01*
X77073992Y-78938255D01*
X76978754Y-79033493D01*
X76966167Y-79048828D01*
X76962176Y-79052291D01*
X76958388Y-79058307D01*
X76953881Y-79063800D01*
X76951859Y-79068679D01*
X76941290Y-79085471D01*
X76846052Y-79275947D01*
X76832039Y-79312565D01*
X76831529Y-79319734D01*
X76828780Y-79326372D01*
X76824937Y-79365390D01*
X76824937Y-79555866D01*
X76828780Y-79594884D01*
X76831529Y-79601521D01*
X76832039Y-79608691D01*
X76846052Y-79645309D01*
X76941290Y-79835785D01*
X76951859Y-79852576D01*
X76953881Y-79857456D01*
X76958388Y-79862948D01*
X76962176Y-79868965D01*
X76966167Y-79872427D01*
X76978754Y-79887763D01*
X76980331Y-79889340D01*
X76978754Y-79890636D01*
X76883516Y-79985874D01*
X76870929Y-80001209D01*
X76866938Y-80004672D01*
X76863150Y-80010688D01*
X76858643Y-80016181D01*
X76856621Y-80021060D01*
X76846052Y-80037852D01*
X76750814Y-80228328D01*
X76736801Y-80264946D01*
X76736291Y-80272115D01*
X76733542Y-80278753D01*
X76729699Y-80317771D01*
X75745573Y-80317771D01*
X75745573Y-76145502D01*
X75967795Y-76145502D01*
X75967795Y-76431216D01*
X75971638Y-76470234D01*
X75974387Y-76476871D01*
X75974897Y-76484041D01*
X75988910Y-76520659D01*
X76084148Y-76711135D01*
X76094719Y-76727928D01*
X76096739Y-76732805D01*
X76101245Y-76738296D01*
X76105034Y-76744315D01*
X76109025Y-76747776D01*
X76121611Y-76763113D01*
X76216849Y-76858352D01*
X76232188Y-76870941D01*
X76235648Y-76874930D01*
X76241659Y-76878714D01*
X76247156Y-76883225D01*
X76252038Y-76885247D01*
X76268828Y-76895816D01*
X76459305Y-76991055D01*
X76495922Y-77005067D01*
X76503091Y-77005576D01*
X76509729Y-77008326D01*
X76548747Y-77012169D01*
X77110652Y-77012169D01*
X77110652Y-77764550D01*
X77114495Y-77803568D01*
X77144358Y-77875664D01*
X77199538Y-77930844D01*
X77271634Y-77960707D01*
X77349670Y-77960707D01*
X77421766Y-77930844D01*
X77476946Y-77875664D01*
X77506809Y-77803568D01*
X77510652Y-77764550D01*
X77510652Y-76145502D01*
X77967795Y-76145502D01*
X77967795Y-76431216D01*
X77971638Y-76470234D01*
X77974387Y-76476871D01*
X77974897Y-76484041D01*
X77988910Y-76520659D01*
X78084148Y-76711135D01*
X78094719Y-76727928D01*
X78096739Y-76732805D01*
X78101245Y-76738296D01*
X78105034Y-76744315D01*
X78109025Y-76747776D01*
X78121611Y-76763113D01*
X78216849Y-76858352D01*
X78232188Y-76870941D01*
X78235648Y-76874930D01*
X78241659Y-76878714D01*
X78247156Y-76883225D01*
X78252038Y-76885247D01*
X78268828Y-76895816D01*
X78459305Y-76991055D01*
X78463883Y-76992807D01*
X78003949Y-77649857D01*
X77984722Y-77684026D01*
X77967842Y-77760215D01*
X77981404Y-77837064D01*
X78023342Y-77902873D01*
X78087271Y-77947623D01*
X78163460Y-77964503D01*
X78240309Y-77950941D01*
X78306118Y-77909003D01*
X78331641Y-77879243D01*
X78938593Y-77012169D01*
X79110652Y-77012169D01*
X79110652Y-77764550D01*
X79114495Y-77803568D01*
X79144358Y-77875664D01*
X79199538Y-77930844D01*
X79271634Y-77960707D01*
X79349670Y-77960707D01*
X79421766Y-77930844D01*
X79476946Y-77875664D01*
X79506809Y-77803568D01*
X79510652Y-77764550D01*
X79510652Y-76145502D01*
X79967795Y-76145502D01*
X79967795Y-76431216D01*
X79971638Y-76470234D01*
X79974387Y-76476871D01*
X79974897Y-76484041D01*
X79988910Y-76520659D01*
X80084148Y-76711135D01*
X80094719Y-76727928D01*
X80096739Y-76732805D01*
X80101245Y-76738296D01*
X80105034Y-76744315D01*
X80109025Y-76747776D01*
X80121611Y-76763113D01*
X80216849Y-76858352D01*
X80232188Y-76870941D01*
X80235648Y-76874930D01*
X80241659Y-76878714D01*
X80247156Y-76883225D01*
X80252038Y-76885247D01*
X80268828Y-76895816D01*
X80459305Y-76991055D01*
X80495922Y-77005067D01*
X80503091Y-77005576D01*
X80509729Y-77008326D01*
X80548747Y-77012169D01*
X81110652Y-77012169D01*
X81110652Y-77764550D01*
X81114495Y-77803568D01*
X81144358Y-77875664D01*
X81199538Y-77930844D01*
X81271634Y-77960707D01*
X81349670Y-77960707D01*
X81421766Y-77930844D01*
X81476946Y-77875664D01*
X81506809Y-77803568D01*
X81510652Y-77764550D01*
X81510652Y-75764550D01*
X81506809Y-75725532D01*
X81476946Y-75653436D01*
X81421766Y-75598256D01*
X81349670Y-75568393D01*
X81310652Y-75564550D01*
X80548747Y-75564550D01*
X80509729Y-75568393D01*
X80503091Y-75571142D01*
X80495922Y-75571652D01*
X80459305Y-75585664D01*
X80268828Y-75680903D01*
X80252036Y-75691472D01*
X80247157Y-75693494D01*
X80241664Y-75698001D01*
X80235648Y-75701789D01*
X80232186Y-75705780D01*
X80216850Y-75718367D01*
X80121612Y-75813605D01*
X80109025Y-75828940D01*
X80105034Y-75832403D01*
X80101246Y-75838419D01*
X80096739Y-75843912D01*
X80094717Y-75848791D01*
X80084148Y-75865583D01*
X79988910Y-76056059D01*
X79974897Y-76092677D01*
X79974387Y-76099846D01*
X79971638Y-76106484D01*
X79967795Y-76145502D01*
X79510652Y-76145502D01*
X79510652Y-75764550D01*
X79506809Y-75725532D01*
X79476946Y-75653436D01*
X79421766Y-75598256D01*
X79349670Y-75568393D01*
X79310652Y-75564550D01*
X78548747Y-75564550D01*
X78509729Y-75568393D01*
X78503091Y-75571142D01*
X78495922Y-75571652D01*
X78459305Y-75585664D01*
X78268828Y-75680903D01*
X78252036Y-75691472D01*
X78247157Y-75693494D01*
X78241664Y-75698001D01*
X78235648Y-75701789D01*
X78232186Y-75705780D01*
X78216850Y-75718367D01*
X78121612Y-75813605D01*
X78109025Y-75828940D01*
X78105034Y-75832403D01*
X78101246Y-75838419D01*
X78096739Y-75843912D01*
X78094717Y-75848791D01*
X78084148Y-75865583D01*
X77988910Y-76056059D01*
X77974897Y-76092677D01*
X77974387Y-76099846D01*
X77971638Y-76106484D01*
X77967795Y-76145502D01*
X77510652Y-76145502D01*
X77510652Y-75764550D01*
X77506809Y-75725532D01*
X77476946Y-75653436D01*
X77421766Y-75598256D01*
X77349670Y-75568393D01*
X77310652Y-75564550D01*
X76548747Y-75564550D01*
X76509729Y-75568393D01*
X76503091Y-75571142D01*
X76495922Y-75571652D01*
X76459305Y-75585664D01*
X76268828Y-75680903D01*
X76252036Y-75691472D01*
X76247157Y-75693494D01*
X76241664Y-75698001D01*
X76235648Y-75701789D01*
X76232186Y-75705780D01*
X76216850Y-75718367D01*
X76121612Y-75813605D01*
X76109025Y-75828940D01*
X76105034Y-75832403D01*
X76101246Y-75838419D01*
X76096739Y-75843912D01*
X76094717Y-75848791D01*
X76084148Y-75865583D01*
X75988910Y-76056059D01*
X75974897Y-76092677D01*
X75974387Y-76099846D01*
X75971638Y-76106484D01*
X75967795Y-76145502D01*
X75745573Y-76145502D01*
X75745573Y-72696120D01*
X75971638Y-72696120D01*
X75971638Y-72774156D01*
X76001501Y-72846252D01*
X76056681Y-72901432D01*
X76128777Y-72931295D01*
X76206813Y-72931295D01*
X76278909Y-72901432D01*
X76309216Y-72876559D01*
X76371067Y-72814707D01*
X76581204Y-72744662D01*
X76706767Y-72744662D01*
X76916902Y-72814706D01*
X77051043Y-72948848D01*
X77121947Y-73090655D01*
X77205890Y-73426427D01*
X77205890Y-73662896D01*
X77121947Y-73998668D01*
X77051043Y-74140474D01*
X76916901Y-74274617D01*
X76706767Y-74344662D01*
X76581204Y-74344662D01*
X76371068Y-74274616D01*
X76309217Y-74212764D01*
X76278910Y-74187892D01*
X76206814Y-74158028D01*
X76128778Y-74158028D01*
X76056682Y-74187891D01*
X76001502Y-74243070D01*
X75971638Y-74315166D01*
X75971638Y-74393202D01*
X76001501Y-74465298D01*
X76026373Y-74495606D01*
X76121611Y-74590845D01*
X76151918Y-74615718D01*
X76158559Y-74618469D01*
X76163987Y-74623176D01*
X76199787Y-74639161D01*
X76485501Y-74734399D01*
X76504850Y-74738798D01*
X76509729Y-74740819D01*
X76516803Y-74741515D01*
X76523732Y-74743091D01*
X76528997Y-74742716D01*
X76548747Y-74744662D01*
X76739223Y-74744662D01*
X76758971Y-74742716D01*
X76764237Y-74743091D01*
X76771164Y-74741515D01*
X76778241Y-74740819D01*
X76783121Y-74738797D01*
X76802468Y-74734399D01*
X77088183Y-74639161D01*
X77123984Y-74623176D01*
X77129411Y-74618468D01*
X77136052Y-74615718D01*
X77166360Y-74590845D01*
X77356835Y-74400368D01*
X77369421Y-74385031D01*
X77373413Y-74381570D01*
X77377200Y-74375553D01*
X77381708Y-74370061D01*
X77383729Y-74365181D01*
X77394299Y-74348390D01*
X77489538Y-74157913D01*
X77490630Y-74155057D01*
X77491489Y-74153899D01*
X77497335Y-74137535D01*
X77503550Y-74121296D01*
X77503652Y-74119857D01*
X77504681Y-74116978D01*
X77599918Y-73736026D01*
X77600918Y-73729262D01*
X77602047Y-73726537D01*
X77603495Y-73711834D01*
X77605653Y-73697241D01*
X77605219Y-73694327D01*
X77605890Y-73687519D01*
X77605890Y-73401804D01*
X77605219Y-73394995D01*
X77605653Y-73392082D01*
X77603495Y-73377488D01*
X77602047Y-73362786D01*
X77600918Y-73360060D01*
X77599918Y-73353297D01*
X77504681Y-72972345D01*
X77503652Y-72969465D01*
X77503550Y-72968027D01*
X77497335Y-72951787D01*
X77491489Y-72935424D01*
X77490630Y-72934265D01*
X77489538Y-72931410D01*
X77486640Y-72925614D01*
X77967795Y-72925614D01*
X77967795Y-73211328D01*
X77971638Y-73250346D01*
X77974387Y-73256983D01*
X77974897Y-73264153D01*
X77988910Y-73300771D01*
X78084148Y-73491247D01*
X78094719Y-73508040D01*
X78096739Y-73512917D01*
X78101245Y-73518408D01*
X78105034Y-73524427D01*
X78109025Y-73527888D01*
X78121611Y-73543225D01*
X78216849Y-73638464D01*
X78232188Y-73651053D01*
X78235648Y-73655042D01*
X78241659Y-73658826D01*
X78247156Y-73663337D01*
X78252038Y-73665359D01*
X78268828Y-73675928D01*
X78459305Y-73771167D01*
X78495922Y-73785179D01*
X78503091Y-73785688D01*
X78509729Y-73788438D01*
X78548747Y-73792281D01*
X79110652Y-73792281D01*
X79110652Y-74544662D01*
X79114495Y-74583680D01*
X79144358Y-74655776D01*
X79199538Y-74710956D01*
X79271634Y-74740819D01*
X79349670Y-74740819D01*
X79421766Y-74710956D01*
X79476946Y-74655776D01*
X79506809Y-74583680D01*
X79510652Y-74544662D01*
X79510652Y-73877995D01*
X79967795Y-73877995D01*
X79967795Y-74163709D01*
X79971638Y-74202727D01*
X79974387Y-74209364D01*
X79974897Y-74216534D01*
X79988910Y-74253152D01*
X80084148Y-74443628D01*
X80094719Y-74460421D01*
X80096739Y-74465298D01*
X80101245Y-74470789D01*
X80105034Y-74476808D01*
X80109025Y-74480269D01*
X80121611Y-74495606D01*
X80216849Y-74590845D01*
X80232188Y-74603434D01*
X80235648Y-74607423D01*
X80241659Y-74611207D01*
X80247156Y-74615718D01*
X80252038Y-74617740D01*
X80268828Y-74628309D01*
X80459305Y-74723548D01*
X80495922Y-74737560D01*
X80503091Y-74738069D01*
X80509729Y-74740819D01*
X80548747Y-74744662D01*
X81310652Y-74744662D01*
X81349670Y-74740819D01*
X81421766Y-74710956D01*
X81476946Y-74655776D01*
X81506809Y-74583680D01*
X81510652Y-74544662D01*
X81510652Y-72544662D01*
X81506809Y-72505644D01*
X81476946Y-72433548D01*
X81421766Y-72378368D01*
X81349670Y-72348505D01*
X81310652Y-72344662D01*
X80643985Y-72344662D01*
X80604967Y-72348505D01*
X80598329Y-72351254D01*
X80591160Y-72351764D01*
X80554543Y-72365776D01*
X80364066Y-72461015D01*
X80347274Y-72471584D01*
X80342395Y-72473606D01*
X80336902Y-72478113D01*
X80330886Y-72481901D01*
X80327424Y-72485892D01*
X80312088Y-72498479D01*
X80216850Y-72593717D01*
X80204263Y-72609052D01*
X80200272Y-72612515D01*
X80196484Y-72618531D01*
X80191977Y-72624024D01*
X80189955Y-72628903D01*
X80179386Y-72645695D01*
X80084148Y-72836171D01*
X80070135Y-72872789D01*
X80069625Y-72879958D01*
X80066876Y-72886596D01*
X80063033Y-72925614D01*
X80063033Y-73116090D01*
X80066876Y-73155108D01*
X80069625Y-73161745D01*
X80070135Y-73168915D01*
X80084148Y-73205533D01*
X80179386Y-73396009D01*
X80189955Y-73412800D01*
X80191977Y-73417680D01*
X80196484Y-73423172D01*
X80200272Y-73429189D01*
X80204263Y-73432651D01*
X80216850Y-73447987D01*
X80218427Y-73449564D01*
X80216850Y-73450860D01*
X80121612Y-73546098D01*
X80109025Y-73561433D01*
X80105034Y-73564896D01*
X80101246Y-73570912D01*
X80096739Y-73576405D01*
X80094717Y-73581284D01*
X80084148Y-73598076D01*
X79988910Y-73788552D01*
X79974897Y-73825170D01*
X79974387Y-73832339D01*
X79971638Y-73838977D01*
X79967795Y-73877995D01*
X79510652Y-73877995D01*
X79510652Y-72544662D01*
X79506809Y-72505644D01*
X79476946Y-72433548D01*
X79421766Y-72378368D01*
X79349670Y-72348505D01*
X79310652Y-72344662D01*
X78548747Y-72344662D01*
X78509729Y-72348505D01*
X78503091Y-72351254D01*
X78495922Y-72351764D01*
X78459305Y-72365776D01*
X78268828Y-72461015D01*
X78252036Y-72471584D01*
X78247157Y-72473606D01*
X78241664Y-72478113D01*
X78235648Y-72481901D01*
X78232186Y-72485892D01*
X78216850Y-72498479D01*
X78121612Y-72593717D01*
X78109025Y-72609052D01*
X78105034Y-72612515D01*
X78101246Y-72618531D01*
X78096739Y-72624024D01*
X78094717Y-72628903D01*
X78084148Y-72645695D01*
X77988910Y-72836171D01*
X77974897Y-72872789D01*
X77974387Y-72879958D01*
X77971638Y-72886596D01*
X77967795Y-72925614D01*
X77486640Y-72925614D01*
X77394299Y-72740933D01*
X77383729Y-72724141D01*
X77381708Y-72719262D01*
X77377199Y-72713768D01*
X77373413Y-72707753D01*
X77369423Y-72704292D01*
X77356836Y-72688955D01*
X77166359Y-72498479D01*
X77136052Y-72473606D01*
X77129412Y-72470855D01*
X77123984Y-72466148D01*
X77088183Y-72450163D01*
X76802468Y-72354925D01*
X76783121Y-72350526D01*
X76778241Y-72348505D01*
X76771164Y-72347808D01*
X76764237Y-72346233D01*
X76758971Y-72346607D01*
X76739223Y-72344662D01*
X76548747Y-72344662D01*
X76528997Y-72346607D01*
X76523732Y-72346233D01*
X76516803Y-72347808D01*
X76509729Y-72348505D01*
X76504850Y-72350525D01*
X76485501Y-72354925D01*
X76199787Y-72450163D01*
X76163987Y-72466148D01*
X76158558Y-72470855D01*
X76151919Y-72473606D01*
X76121612Y-72498479D01*
X76026374Y-72593717D01*
X76001501Y-72624024D01*
X75971638Y-72696120D01*
X75745573Y-72696120D01*
X75745573Y-72122440D01*
X82014745Y-72122440D01*
X82014745Y-81406660D01*
G37*
D11*
%TO.P,J2,1*%
%TO.N,+24V*%
X50500000Y-40250000D03*
D12*
%TO.P,J2,2*%
%TO.N,GND*%
X50500000Y-34250000D03*
D13*
%TO.P,J2,3*%
%TO.N,N/C*%
X45800000Y-37250000D03*
%TD*%
D14*
%TO.P,L1,1*%
%TO.N,Net-(Q1-D)*%
X58500000Y-59590000D03*
D15*
%TO.P,L1,2*%
%TO.N,+24V*%
X48340000Y-59590000D03*
%TO.P,L1,3*%
%TO.N,Net-(D1-A)*%
X48340000Y-79910000D03*
%TO.P,L1,4*%
%TO.N,GND*%
X58500000Y-79910000D03*
%TD*%
D16*
%TO.P,C2,1*%
%TO.N,Net-(Q1-D)*%
X60920000Y-52750000D03*
%TO.P,C2,2*%
%TO.N,Net-(D1-A)*%
X62920000Y-52750000D03*
%TD*%
D17*
%TO.P,J3,1,Pin_1*%
%TO.N,Net-(J3-Pin_1)*%
X79115000Y-51925000D03*
D18*
%TO.P,J3,2,Pin_2*%
%TO.N,Net-(J3-Pin_2)*%
X79115000Y-54465000D03*
%TD*%
D16*
%TO.P,C1,1*%
%TO.N,+24V*%
X54670000Y-52750000D03*
%TO.P,C1,2*%
%TO.N,GND*%
X56670000Y-52750000D03*
%TD*%
%TO.P,R1,1*%
%TO.N,Net-(U1-A)*%
X67920000Y-38650000D03*
D19*
%TO.P,R1,2*%
%TO.N,Net-(J3-Pin_2)*%
X67920000Y-51350000D03*
%TD*%
D16*
%TO.P,C4,1*%
%TO.N,out*%
X66420000Y-61500000D03*
%TO.P,C4,2*%
%TO.N,GND*%
X71420000Y-61500000D03*
%TD*%
D20*
%TO.P,D1,1,K*%
%TO.N,out*%
X71730000Y-69250000D03*
D21*
%TO.P,D1,2,A*%
%TO.N,Net-(D1-A)*%
X64110000Y-69250000D03*
%TD*%
D22*
%TO.P,J1,1,Pin_1*%
%TO.N,GND*%
X64465000Y-31827500D03*
D23*
%TO.P,J1,2,Pin_2*%
%TO.N,Net-(J1-Pin_2)*%
X59385000Y-31827500D03*
%TD*%
D24*
%TO.P,J4,1,Pin_1*%
%TO.N,out*%
X65500000Y-78500000D03*
D23*
%TO.P,J4,2,Pin_2*%
%TO.N,GND*%
X70580000Y-78500000D03*
%TD*%
D16*
%TO.P,C3,1*%
%TO.N,VCC*%
X73000000Y-36750000D03*
%TO.P,C3,2*%
%TO.N,GND*%
X78000000Y-36750000D03*
%TD*%
D25*
%TO.P,U1,1,NC*%
%TO.N,unconnected-(U1-NC-Pad1)*%
X71590000Y-40190000D03*
D16*
%TO.P,U1,2,A*%
%TO.N,Net-(U1-A)*%
X71590000Y-42730000D03*
%TO.P,U1,3,C*%
%TO.N,Net-(J3-Pin_1)*%
X71590000Y-45270000D03*
%TO.P,U1,4,NC*%
%TO.N,unconnected-(U1-NC-Pad4)*%
X71590000Y-47810000D03*
%TO.P,U1,5,VEE*%
%TO.N,GND*%
X79210000Y-47810000D03*
%TO.P,U1,6,VO*%
%TO.N,PWM*%
X79210000Y-45270000D03*
%TO.P,U1,7,VO*%
X79210000Y-42730000D03*
%TO.P,U1,8,VCC*%
%TO.N,VCC*%
X79210000Y-40190000D03*
%TD*%
D26*
%TO.P,Q1,3,S*%
%TO.N,GND*%
X79750000Y-65600000D03*
%TO.P,Q1,2,G*%
%TO.N,PWM*%
X79750000Y-63060000D03*
D27*
%TO.P,Q1,1,D*%
%TO.N,Net-(Q1-D)*%
X79750000Y-60520000D03*
%TD*%
D28*
%TO.P,JP1,1,A*%
%TO.N,Net-(J1-Pin_2)*%
X60400000Y-40000000D03*
D29*
%TO.P,JP1,2,C*%
%TO.N,VCC*%
X61950000Y-40000000D03*
D30*
%TO.P,JP1,3,B*%
%TO.N,+24V*%
X63500000Y-40000000D03*
%TD*%
D31*
%TO.N,Net-(Q1-D)*%
X79750000Y-60520000D02*
X72954156Y-60520000D01*
X72954156Y-60520000D02*
X63583156Y-51149000D01*
X63583156Y-51149000D02*
X61389630Y-51149000D01*
X61389630Y-51149000D02*
X60920000Y-51618630D01*
X60920000Y-51618630D02*
X60920000Y-52750000D01*
%TO.N,PWM*%
X79750000Y-63060000D02*
X80764500Y-63060000D01*
X80764500Y-63060000D02*
X81799000Y-62025500D01*
X81799000Y-62025500D02*
X81799000Y-47859000D01*
X81799000Y-47859000D02*
X79210000Y-45270000D01*
%TO.N,Net-(Q1-D)*%
X60920000Y-52750000D02*
X60920000Y-53420000D01*
X58500000Y-55840000D02*
X58500000Y-59590000D01*
X60920000Y-53420000D02*
X58500000Y-55840000D01*
%TO.N,PWM*%
X79210000Y-42730000D02*
X79210000Y-45270000D01*
%TO.N,Net-(J1-Pin_2)*%
X60400000Y-40000000D02*
X60400000Y-32842500D01*
X60400000Y-32842500D02*
X59385000Y-31827500D01*
%TO.N,Net-(J3-Pin_1)*%
X69989000Y-46871000D02*
X71590000Y-45270000D01*
X71325000Y-51925000D02*
X69989000Y-50589000D01*
X69989000Y-50589000D02*
X69989000Y-46871000D01*
X79115000Y-51925000D02*
X71325000Y-51925000D01*
%TO.N,Net-(J3-Pin_2)*%
X79115000Y-54465000D02*
X71035000Y-54465000D01*
X71035000Y-54465000D02*
X67920000Y-51350000D01*
%TO.N,VCC*%
X61950000Y-38300000D02*
X62000000Y-38250000D01*
D32*
X61950000Y-40000000D02*
X61950000Y-38300000D01*
D31*
%TO.N,Net-(U1-A)*%
X70868630Y-42730000D02*
X71590000Y-42730000D01*
X67920000Y-39781370D02*
X70868630Y-42730000D01*
X67920000Y-38650000D02*
X67920000Y-39781370D01*
%TD*%
%TA.AperFunction,Conductor*%
%TO.N,VCC*%
G36*
X69875000Y-33625000D02*
G01*
X70693590Y-33687968D01*
X70711079Y-33689703D01*
X72280386Y-33880457D01*
X72297797Y-33882965D01*
X73000000Y-34000000D01*
X73624402Y-34104067D01*
X73742809Y-34143598D01*
X73783353Y-34167821D01*
X74839119Y-34886647D01*
X74930046Y-34972180D01*
X74956704Y-35011175D01*
X75625000Y-36125000D01*
X76338403Y-37314006D01*
X76338404Y-37314006D01*
X76750000Y-38000000D01*
X78625000Y-38625000D01*
X79618859Y-38956286D01*
X79729651Y-39013802D01*
X79816367Y-39101511D01*
X80424686Y-39945508D01*
X80452471Y-40000556D01*
X80480472Y-40055509D01*
X80480591Y-40056266D01*
X80480937Y-40056950D01*
X80500000Y-40178807D01*
X80500000Y-40317502D01*
X80480472Y-40440800D01*
X80423798Y-40552028D01*
X80420741Y-40556178D01*
X79864721Y-41301047D01*
X79775317Y-41388171D01*
X79663366Y-41443404D01*
X79539826Y-41461338D01*
X79482563Y-41456459D01*
X79400137Y-41443404D01*
X79312352Y-41429500D01*
X79107648Y-41429500D01*
X79107641Y-41429500D01*
X78905466Y-41461522D01*
X78710780Y-41524780D01*
X78528388Y-41617713D01*
X78362784Y-41738031D01*
X78227049Y-41873766D01*
X78126055Y-41947141D01*
X78058368Y-41974159D01*
X73384901Y-43360258D01*
X73261140Y-43376595D01*
X73138388Y-43353888D01*
X73028660Y-43294360D01*
X72942699Y-43203838D01*
X72888917Y-43091182D01*
X72872580Y-42967421D01*
X72877358Y-42915324D01*
X72890500Y-42832352D01*
X72890500Y-42627648D01*
X72858477Y-42425466D01*
X72795220Y-42230781D01*
X72702287Y-42048390D01*
X72581966Y-41882781D01*
X72581964Y-41882779D01*
X72580405Y-41880953D01*
X72579150Y-41878906D01*
X72572752Y-41870099D01*
X72573445Y-41869595D01*
X72515181Y-41774513D01*
X72486041Y-41653128D01*
X72495837Y-41528678D01*
X72543611Y-41413346D01*
X72601676Y-41339691D01*
X72608653Y-41332713D01*
X72608656Y-41332712D01*
X72732712Y-41208656D01*
X72824814Y-41059334D01*
X72879999Y-40892797D01*
X72890500Y-40790009D01*
X72890499Y-39589992D01*
X72882318Y-39509901D01*
X72880000Y-39487205D01*
X72828440Y-39331610D01*
X72824814Y-39320666D01*
X72732712Y-39171344D01*
X72608656Y-39047288D01*
X72608655Y-39047287D01*
X72459333Y-38955185D01*
X72459331Y-38955184D01*
X72292799Y-38900001D01*
X72241403Y-38894750D01*
X72190009Y-38889500D01*
X72190007Y-38889500D01*
X70989993Y-38889500D01*
X70989973Y-38889502D01*
X70887205Y-38899999D01*
X70720667Y-38955185D01*
X70720666Y-38955185D01*
X70571344Y-39047287D01*
X70447287Y-39171344D01*
X70355185Y-39320666D01*
X70355184Y-39320668D01*
X70300001Y-39487200D01*
X70289500Y-39589988D01*
X70289500Y-39914098D01*
X70284588Y-39945111D01*
X70284588Y-39976515D01*
X70274884Y-40006379D01*
X70269972Y-40037396D01*
X70255715Y-40065375D01*
X70246012Y-40095240D01*
X70227553Y-40120645D01*
X70213298Y-40148624D01*
X70191095Y-40170826D01*
X70172636Y-40196234D01*
X70147228Y-40214693D01*
X70125026Y-40236896D01*
X70097047Y-40251151D01*
X70071642Y-40269610D01*
X70041777Y-40279313D01*
X70013798Y-40293570D01*
X69982781Y-40298482D01*
X69952917Y-40308186D01*
X69921514Y-40308186D01*
X69890500Y-40313098D01*
X69859486Y-40308186D01*
X69828083Y-40308186D01*
X69798218Y-40298482D01*
X69767202Y-40293570D01*
X69739222Y-40279313D01*
X69709358Y-40269610D01*
X69683952Y-40251151D01*
X69655974Y-40236896D01*
X69608364Y-40196234D01*
X69139874Y-39727744D01*
X69066498Y-39626750D01*
X69027922Y-39508025D01*
X69027922Y-39383191D01*
X69066496Y-39264469D01*
X69125220Y-39149219D01*
X69188477Y-38954534D01*
X69220500Y-38752352D01*
X69220500Y-38547648D01*
X69199607Y-38415740D01*
X69188477Y-38345466D01*
X69168279Y-38283304D01*
X69125220Y-38150781D01*
X69032287Y-37968390D01*
X68911966Y-37802781D01*
X68767219Y-37658034D01*
X68767215Y-37658031D01*
X68601611Y-37537713D01*
X68419219Y-37444780D01*
X68224533Y-37381522D01*
X68022358Y-37349500D01*
X68022352Y-37349500D01*
X67817648Y-37349500D01*
X67817641Y-37349500D01*
X67615466Y-37381522D01*
X67420780Y-37444780D01*
X67238388Y-37537713D01*
X67072784Y-37658031D01*
X66928031Y-37802784D01*
X66807713Y-37968388D01*
X66714780Y-38150780D01*
X66651522Y-38345466D01*
X66619500Y-38547641D01*
X66619500Y-38752358D01*
X66651522Y-38954533D01*
X66714780Y-39149219D01*
X66807713Y-39331611D01*
X66937248Y-39509901D01*
X66935440Y-39511214D01*
X66989121Y-39598803D01*
X67013425Y-39682150D01*
X67019500Y-39716565D01*
X67019500Y-39870062D01*
X67054105Y-40044036D01*
X67077829Y-40101309D01*
X67121987Y-40207917D01*
X67121988Y-40207918D01*
X67169277Y-40278692D01*
X67220531Y-40355400D01*
X67220533Y-40355402D01*
X67220536Y-40355406D01*
X70169166Y-43304035D01*
X70294595Y-43429464D01*
X70442083Y-43528013D01*
X70458381Y-43538903D01*
X70456879Y-43541149D01*
X70532907Y-43598696D01*
X70604290Y-43701108D01*
X70640533Y-43820566D01*
X70638087Y-43945377D01*
X70597192Y-44063323D01*
X70521852Y-44162859D01*
X70419440Y-44234242D01*
X70358752Y-44257780D01*
X66463759Y-45412993D01*
X66339998Y-45429330D01*
X66217246Y-45406623D01*
X66205887Y-45402410D01*
X65280655Y-45043164D01*
X65172785Y-44980332D01*
X65089611Y-44887241D01*
X65083207Y-44876957D01*
X64696412Y-44234242D01*
X64420801Y-43776274D01*
X64373957Y-43660564D01*
X64365162Y-43536039D01*
X64395278Y-43414891D01*
X64432072Y-43347137D01*
X64957969Y-42568921D01*
X64979622Y-42533882D01*
X65011496Y-42477268D01*
X65057627Y-42366145D01*
X65091428Y-42245974D01*
X65106849Y-42168164D01*
X65390978Y-39753070D01*
X65393183Y-39729629D01*
X65395801Y-39692570D01*
X65392586Y-39589859D01*
X65376018Y-39466128D01*
X65373898Y-39451846D01*
X65330763Y-39314583D01*
X65276771Y-39202029D01*
X65236958Y-39133422D01*
X64725370Y-38392579D01*
X64711544Y-38373521D01*
X64689037Y-38343972D01*
X64618779Y-38268973D01*
X64524616Y-38187015D01*
X64524571Y-38186977D01*
X64513601Y-38177699D01*
X64513596Y-38177696D01*
X64513595Y-38177695D01*
X64390548Y-38103123D01*
X64390547Y-38103122D01*
X64390543Y-38103120D01*
X64275677Y-38054277D01*
X64254523Y-38047184D01*
X64200464Y-38029058D01*
X64200459Y-38029056D01*
X64200454Y-38029055D01*
X63657753Y-37893381D01*
X63628469Y-37886976D01*
X63581969Y-37878245D01*
X63581967Y-37878244D01*
X63581958Y-37878243D01*
X63581951Y-37878242D01*
X63581948Y-37878242D01*
X63473100Y-37869799D01*
X63473097Y-37869799D01*
X63390630Y-37872339D01*
X63348288Y-37873644D01*
X63333905Y-37874292D01*
X63333901Y-37874293D01*
X63192964Y-37903178D01*
X63192956Y-37903180D01*
X63192952Y-37903181D01*
X63192947Y-37903182D01*
X63192946Y-37903183D01*
X63075475Y-37945392D01*
X63003152Y-37977993D01*
X62914246Y-38026798D01*
X62886772Y-38043029D01*
X62844229Y-38070010D01*
X62780420Y-38121112D01*
X62780150Y-38121332D01*
X62757538Y-38139442D01*
X62755675Y-38141303D01*
X62740023Y-38154076D01*
X62739312Y-38154489D01*
X62737962Y-38155752D01*
X62709430Y-38186977D01*
X62697026Y-38199952D01*
X62669260Y-38227719D01*
X62659207Y-38238063D01*
X62659195Y-38238077D01*
X62647232Y-38255046D01*
X62640908Y-38261969D01*
X62626681Y-38282874D01*
X62627311Y-38283303D01*
X62598767Y-38323793D01*
X62598718Y-38323865D01*
X62585132Y-38343137D01*
X62579231Y-38349208D01*
X62575755Y-38355631D01*
X62567624Y-38369795D01*
X62562725Y-38377221D01*
X62560314Y-38382529D01*
X62560311Y-38382536D01*
X62545235Y-38415740D01*
X62537453Y-38431904D01*
X62519582Y-38466980D01*
X62513261Y-38479837D01*
X62513197Y-38479999D01*
X62512771Y-38481354D01*
X62506370Y-38501339D01*
X62503243Y-38508230D01*
X62496172Y-38532509D01*
X62496369Y-38532566D01*
X62492377Y-38545034D01*
X62466632Y-38596092D01*
X62442242Y-38647834D01*
X62437896Y-38653083D01*
X62436173Y-38656501D01*
X62429475Y-38663255D01*
X62394524Y-38705475D01*
X62350000Y-38749999D01*
X62350000Y-39601000D01*
X62330472Y-39724298D01*
X62273798Y-39835526D01*
X62185526Y-39923798D01*
X62074298Y-39980472D01*
X61951000Y-40000000D01*
X61949000Y-40000000D01*
X61825702Y-39980472D01*
X61714474Y-39923798D01*
X61626202Y-39835526D01*
X61569528Y-39724298D01*
X61550000Y-39601000D01*
X61550000Y-38750001D01*
X61482962Y-38682963D01*
X61464974Y-38673798D01*
X61376702Y-38585526D01*
X61320028Y-38474298D01*
X61300500Y-38351000D01*
X61300500Y-37614191D01*
X61306558Y-37575939D01*
X61307991Y-37537237D01*
X61316265Y-37514651D01*
X61320028Y-37490893D01*
X61350931Y-37420024D01*
X61629780Y-36919446D01*
X61706839Y-36821242D01*
X61768323Y-36774370D01*
X64738010Y-34935994D01*
X65543510Y-34437351D01*
X65598259Y-34409058D01*
X66997644Y-33817995D01*
X67056094Y-33798476D01*
X67250000Y-33750000D01*
X67442687Y-33701828D01*
X67505928Y-33691327D01*
X69015603Y-33564057D01*
X69079700Y-33563823D01*
X69875000Y-33625000D01*
G37*
%TD.AperFunction*%
%TD*%
%TA.AperFunction,Conductor*%
%TO.N,Net-(D1-A)*%
G36*
X63225833Y-52069185D02*
G01*
X63246475Y-52085819D01*
X64829175Y-53668519D01*
X64862660Y-53729842D01*
X64865129Y-53746690D01*
X65232293Y-58519822D01*
X65217808Y-58588173D01*
X65168669Y-58637843D01*
X65166443Y-58639045D01*
X65154117Y-58645536D01*
X65147206Y-58647236D01*
X65017309Y-58709108D01*
X64959148Y-58747825D01*
X64959143Y-58747828D01*
X64958058Y-58748798D01*
X64958058Y-58748799D01*
X64851945Y-58843787D01*
X64851940Y-58843792D01*
X64214506Y-59603871D01*
X64214498Y-59603881D01*
X64214497Y-59603883D01*
X64178047Y-59653124D01*
X64161697Y-59678267D01*
X64131476Y-59731549D01*
X64087239Y-59868463D01*
X64075437Y-59937330D01*
X64071565Y-60081157D01*
X64429821Y-63158905D01*
X64432546Y-63178849D01*
X64434076Y-63188593D01*
X64437613Y-63208510D01*
X64745884Y-64763281D01*
X64750195Y-64782953D01*
X64752508Y-64792587D01*
X64752510Y-64792593D01*
X64757615Y-64812130D01*
X64762247Y-64828509D01*
X65818278Y-68562888D01*
X65819508Y-68625670D01*
X65611735Y-69488168D01*
X65596926Y-69523895D01*
X65223676Y-70133283D01*
X65210414Y-70151120D01*
X64176551Y-71308599D01*
X64160319Y-71323782D01*
X54083059Y-79181380D01*
X54078610Y-79184691D01*
X52779972Y-80106970D01*
X52775380Y-80110080D01*
X51859091Y-80701021D01*
X51859090Y-80701021D01*
X50689608Y-81455251D01*
X50652325Y-81471378D01*
X49222894Y-81826831D01*
X49182400Y-81830045D01*
X49144836Y-81826831D01*
X48559878Y-81776781D01*
X46172007Y-81572471D01*
X46106890Y-81547143D01*
X46089147Y-81530449D01*
X45398339Y-80738771D01*
X45369094Y-80675316D01*
X45367928Y-80650982D01*
X45395277Y-80110080D01*
X45545483Y-77139323D01*
X45550510Y-77123880D01*
X45550618Y-77109746D01*
X45565521Y-77077758D01*
X45581653Y-77053073D01*
X45629997Y-77010001D01*
X45650000Y-77000000D01*
X59084326Y-67500012D01*
X58870910Y-63208510D01*
X58777028Y-61320658D01*
X58793359Y-61252723D01*
X58843825Y-61204402D01*
X58900873Y-61190499D01*
X59647872Y-61190499D01*
X59707483Y-61184091D01*
X59842331Y-61133796D01*
X59957546Y-61047546D01*
X60043796Y-60932331D01*
X60094091Y-60797483D01*
X60100500Y-60737873D01*
X60100499Y-58442128D01*
X60094091Y-58382517D01*
X60043796Y-58247669D01*
X60043795Y-58247668D01*
X60043793Y-58247664D01*
X59957547Y-58132455D01*
X59957544Y-58132452D01*
X59842335Y-58046206D01*
X59842328Y-58046202D01*
X59707482Y-57995908D01*
X59707483Y-57995908D01*
X59647883Y-57989501D01*
X59647881Y-57989500D01*
X59647873Y-57989500D01*
X59647865Y-57989500D01*
X59524500Y-57989500D01*
X59457461Y-57969815D01*
X59411706Y-57917011D01*
X59400500Y-57865500D01*
X59400500Y-56264362D01*
X59420185Y-56197323D01*
X59436819Y-56176681D01*
X61619462Y-53994038D01*
X61619464Y-53994036D01*
X61645400Y-53955220D01*
X61668738Y-53920292D01*
X61693375Y-53883419D01*
X61718013Y-53846547D01*
X61737895Y-53798547D01*
X61747729Y-53774803D01*
X61774608Y-53734577D01*
X61840666Y-53668519D01*
X61911966Y-53597219D01*
X61911968Y-53597215D01*
X61911971Y-53597213D01*
X61964732Y-53524590D01*
X62032287Y-53431610D01*
X62125220Y-53249219D01*
X62188477Y-53054534D01*
X62220500Y-52852352D01*
X62220500Y-52647648D01*
X62188477Y-52445466D01*
X62125220Y-52250781D01*
X62125217Y-52250777D01*
X62125217Y-52250774D01*
X62114528Y-52229796D01*
X62101631Y-52161127D01*
X62127907Y-52096386D01*
X62185013Y-52056128D01*
X62225012Y-52049500D01*
X63158794Y-52049500D01*
X63225833Y-52069185D01*
G37*
%TD.AperFunction*%
%TD*%
%TA.AperFunction,Conductor*%
%TO.N,GND*%
G36*
X82125000Y-27270462D02*
G01*
X82179538Y-27325000D01*
X82199500Y-27399500D01*
X82199500Y-46626282D01*
X82179538Y-46700782D01*
X82125000Y-46755320D01*
X82050500Y-46775282D01*
X81976000Y-46755320D01*
X81945141Y-46731641D01*
X80554141Y-45340641D01*
X80515577Y-45273846D01*
X80510500Y-45235282D01*
X80510500Y-45167652D01*
X80510500Y-45167648D01*
X80478477Y-44965466D01*
X80415220Y-44770781D01*
X80322287Y-44588390D01*
X80322285Y-44588387D01*
X80201971Y-44422787D01*
X80201964Y-44422779D01*
X80154141Y-44374956D01*
X80115577Y-44308161D01*
X80110500Y-44269597D01*
X80110500Y-43730403D01*
X80130462Y-43655903D01*
X80154141Y-43625044D01*
X80201966Y-43577219D01*
X80322287Y-43411610D01*
X80415220Y-43229219D01*
X80478477Y-43034534D01*
X80510500Y-42832352D01*
X80510500Y-42627648D01*
X80478477Y-42425466D01*
X80415220Y-42230781D01*
X80322287Y-42048390D01*
X80322285Y-42048387D01*
X80201971Y-41882787D01*
X80198165Y-41878331D01*
X80199876Y-41876869D01*
X80166534Y-41819118D01*
X80166534Y-41741990D01*
X80205098Y-41675195D01*
X80206471Y-41673840D01*
X80217511Y-41663082D01*
X80217511Y-41663081D01*
X80217517Y-41663076D01*
X80269807Y-41603430D01*
X80825827Y-40858561D01*
X80827739Y-40855983D01*
X80830796Y-40851833D01*
X80874201Y-40781522D01*
X80930875Y-40670294D01*
X80937246Y-40657335D01*
X80979749Y-40519876D01*
X80999277Y-40396578D01*
X81005500Y-40317502D01*
X81005500Y-40178807D01*
X80999426Y-40100678D01*
X80980363Y-39978821D01*
X80978022Y-39965100D01*
X80978016Y-39965082D01*
X80977690Y-39963790D01*
X80977690Y-39963787D01*
X80977678Y-39963740D01*
X80977303Y-39962254D01*
X80977285Y-39962203D01*
X80977285Y-39962199D01*
X80952118Y-39888352D01*
X80932010Y-39828776D01*
X80931664Y-39828092D01*
X80931593Y-39828126D01*
X80930875Y-39826018D01*
X80930873Y-39826015D01*
X80930872Y-39826010D01*
X80903383Y-39772063D01*
X80875960Y-39717731D01*
X80875954Y-39717722D01*
X80875951Y-39717715D01*
X80834773Y-39649942D01*
X80226450Y-38805940D01*
X80175842Y-38746113D01*
X80175839Y-38746109D01*
X80089123Y-38658400D01*
X80079523Y-38648946D01*
X79962559Y-38565155D01*
X79901252Y-38533328D01*
X79851766Y-38507638D01*
X79851756Y-38507634D01*
X79778715Y-38476727D01*
X77139543Y-37597003D01*
X77075179Y-37554506D01*
X77058895Y-37532309D01*
X76769891Y-37050636D01*
X76769887Y-37050630D01*
X76362928Y-36372365D01*
X75390167Y-34751097D01*
X75374010Y-34725893D01*
X75347352Y-34686898D01*
X75276400Y-34603983D01*
X75276397Y-34603979D01*
X75185477Y-34518454D01*
X75185466Y-34518444D01*
X75123619Y-34468807D01*
X75123612Y-34468802D01*
X74067857Y-33749983D01*
X74042616Y-33733871D01*
X74002072Y-33709648D01*
X74002069Y-33709646D01*
X74002063Y-33709643D01*
X73902898Y-33664118D01*
X73902894Y-33664117D01*
X73902888Y-33664114D01*
X73784481Y-33624583D01*
X73784473Y-33624581D01*
X73707504Y-33605444D01*
X72380896Y-33384342D01*
X72369801Y-33382618D01*
X72352480Y-33380123D01*
X72341368Y-33378648D01*
X70772088Y-33187898D01*
X70760972Y-33186670D01*
X70743555Y-33184942D01*
X70736880Y-33184354D01*
X70732360Y-33183957D01*
X70732331Y-33183954D01*
X70732311Y-33183953D01*
X69913770Y-33120989D01*
X69118463Y-33059811D01*
X69077864Y-33058325D01*
X69016769Y-33058549D01*
X69013758Y-33058560D01*
X68973139Y-33060344D01*
X68973137Y-33060344D01*
X68973118Y-33060345D01*
X67463480Y-33187611D01*
X67423124Y-33192655D01*
X67359876Y-33203157D01*
X67320083Y-33211421D01*
X66933490Y-33308069D01*
X66895990Y-33318999D01*
X66837528Y-33338522D01*
X66808152Y-33349613D01*
X66800959Y-33352329D01*
X66286580Y-33569589D01*
X65401571Y-33943393D01*
X65366180Y-33959980D01*
X65311452Y-33988263D01*
X65277437Y-34007542D01*
X61527927Y-36328666D01*
X61454075Y-36350906D01*
X61378997Y-36333240D01*
X61322810Y-36280403D01*
X61300570Y-36206551D01*
X61300500Y-36201976D01*
X61300500Y-32753808D01*
X61290802Y-32705053D01*
X61274988Y-32625549D01*
X61265895Y-32579834D01*
X61198013Y-32415954D01*
X61198013Y-32415953D01*
X61157695Y-32355613D01*
X61156125Y-32353044D01*
X61146044Y-32318852D01*
X61134587Y-32285100D01*
X61134964Y-32281269D01*
X61134314Y-32279064D01*
X61135779Y-32272995D01*
X61139344Y-32236794D01*
X61154693Y-32179514D01*
X61185500Y-31945511D01*
X61185500Y-31709489D01*
X61154693Y-31475486D01*
X61093606Y-31247507D01*
X61003284Y-31029451D01*
X61003281Y-31029446D01*
X61003280Y-31029443D01*
X60942231Y-30923705D01*
X60885273Y-30825050D01*
X60741592Y-30637801D01*
X60574699Y-30470908D01*
X60387450Y-30327227D01*
X60361013Y-30311963D01*
X60183056Y-30209219D01*
X59964996Y-30118895D01*
X59964994Y-30118894D01*
X59964993Y-30118894D01*
X59737014Y-30057807D01*
X59737012Y-30057806D01*
X59737006Y-30057805D01*
X59503016Y-30027000D01*
X59503011Y-30027000D01*
X59266989Y-30027000D01*
X59266983Y-30027000D01*
X59032993Y-30057805D01*
X58805003Y-30118895D01*
X58586943Y-30209219D01*
X58382551Y-30327226D01*
X58382550Y-30327227D01*
X58195301Y-30470908D01*
X58195299Y-30470909D01*
X58195295Y-30470913D01*
X58028413Y-30637795D01*
X57884726Y-30825051D01*
X57766719Y-31029443D01*
X57676395Y-31247503D01*
X57615305Y-31475493D01*
X57584500Y-31709483D01*
X57584500Y-31945516D01*
X57615305Y-32179506D01*
X57615306Y-32179512D01*
X57615307Y-32179514D01*
X57661804Y-32353044D01*
X57676395Y-32407496D01*
X57766719Y-32625556D01*
X57840766Y-32753808D01*
X57884727Y-32829950D01*
X58028408Y-33017199D01*
X58195301Y-33184092D01*
X58382550Y-33327773D01*
X58470668Y-33378648D01*
X58586943Y-33445780D01*
X58586946Y-33445781D01*
X58586951Y-33445784D01*
X58805007Y-33536106D01*
X59032986Y-33597193D01*
X59032992Y-33597193D01*
X59032993Y-33597194D01*
X59095659Y-33605444D01*
X59266989Y-33628000D01*
X59350500Y-33628000D01*
X59425000Y-33647962D01*
X59479538Y-33702500D01*
X59499500Y-33777000D01*
X59499500Y-37402661D01*
X59479538Y-37477161D01*
X59425000Y-37531699D01*
X59350500Y-37551661D01*
X59306486Y-37545012D01*
X59281628Y-37537326D01*
X59226406Y-37520251D01*
X59164757Y-37510487D01*
X59103109Y-37500723D01*
X59103097Y-37500722D01*
X59082972Y-37499138D01*
X59024032Y-37494500D01*
X58250000Y-37494500D01*
X48844946Y-37494500D01*
X48844943Y-37494500D01*
X48813572Y-37495474D01*
X48798184Y-37496431D01*
X48766918Y-37499354D01*
X48650011Y-37531341D01*
X48646474Y-37532309D01*
X48628130Y-37537328D01*
X48564057Y-37565167D01*
X48441592Y-37640701D01*
X48441590Y-37640702D01*
X48294971Y-37763068D01*
X48224983Y-37795478D01*
X48148167Y-37788551D01*
X48085105Y-37744144D01*
X48052695Y-37674156D01*
X48050500Y-37648673D01*
X48050500Y-36281373D01*
X48047705Y-36228760D01*
X48003245Y-35998875D01*
X47920575Y-35779813D01*
X47920569Y-35779800D01*
X47802075Y-35577875D01*
X47802071Y-35577870D01*
X47802070Y-35577868D01*
X47651142Y-35398858D01*
X47472132Y-35247930D01*
X47472129Y-35247928D01*
X47472124Y-35247924D01*
X47270199Y-35129430D01*
X47270186Y-35129424D01*
X47051124Y-35046754D01*
X46821239Y-35002294D01*
X46768626Y-34999500D01*
X46768622Y-34999500D01*
X44831378Y-34999500D01*
X44831374Y-34999500D01*
X44778760Y-35002294D01*
X44548875Y-35046754D01*
X44329813Y-35129424D01*
X44329800Y-35129430D01*
X44127875Y-35247924D01*
X44127870Y-35247928D01*
X43948858Y-35398858D01*
X43797928Y-35577870D01*
X43797924Y-35577875D01*
X43679430Y-35779800D01*
X43679424Y-35779813D01*
X43596754Y-35998875D01*
X43552294Y-36228760D01*
X43549500Y-36281373D01*
X43549500Y-38218626D01*
X43552294Y-38271239D01*
X43596754Y-38501124D01*
X43679424Y-38720186D01*
X43679430Y-38720199D01*
X43797924Y-38922124D01*
X43797928Y-38922129D01*
X43797930Y-38922132D01*
X43948858Y-39101142D01*
X44127868Y-39252070D01*
X44127870Y-39252071D01*
X44127875Y-39252075D01*
X44329800Y-39370569D01*
X44329806Y-39370572D01*
X44329810Y-39370574D01*
X44548874Y-39453245D01*
X44778759Y-39497705D01*
X44789282Y-39498264D01*
X44831374Y-39500500D01*
X44831378Y-39500500D01*
X46768626Y-39500500D01*
X46794931Y-39499102D01*
X46821241Y-39497705D01*
X47014361Y-39460355D01*
X47091293Y-39465807D01*
X47155194Y-39508997D01*
X47188940Y-39578350D01*
X47189248Y-39633297D01*
X47146088Y-39870677D01*
X47144775Y-39878226D01*
X47144152Y-39881985D01*
X47142933Y-39889690D01*
X46905827Y-41467375D01*
X46904753Y-41474908D01*
X46904244Y-41478680D01*
X46903254Y-41486475D01*
X46164711Y-47690243D01*
X44599201Y-60840514D01*
X44599200Y-60840535D01*
X44595739Y-60909516D01*
X44596356Y-60943294D01*
X44602328Y-61012085D01*
X44602328Y-61012086D01*
X44602328Y-61012088D01*
X44602329Y-61012090D01*
X44644540Y-61149640D01*
X44644544Y-61149648D01*
X44644546Y-61149654D01*
X44669596Y-61202788D01*
X44672221Y-61209635D01*
X44674335Y-61212838D01*
X44674335Y-61212839D01*
X44753588Y-61332924D01*
X44753591Y-61332928D01*
X45195038Y-61830044D01*
X45372671Y-62030079D01*
X45385024Y-62043989D01*
X45434293Y-62092367D01*
X45434298Y-62092372D01*
X45434307Y-62092380D01*
X45459987Y-62114359D01*
X45515385Y-62155567D01*
X45646262Y-62215338D01*
X45684378Y-62226530D01*
X45713297Y-62235022D01*
X45713299Y-62235022D01*
X45713301Y-62235023D01*
X45713305Y-62235024D01*
X45713306Y-62235024D01*
X45713310Y-62235025D01*
X45713314Y-62235026D01*
X45855706Y-62255498D01*
X45855710Y-62255498D01*
X45855721Y-62255500D01*
X45855725Y-62255500D01*
X48674045Y-62255500D01*
X48691811Y-62253660D01*
X48777609Y-62244777D01*
X48777617Y-62244775D01*
X48777620Y-62244775D01*
X48827330Y-62234370D01*
X48827335Y-62234368D01*
X48827342Y-62234367D01*
X48926519Y-62202651D01*
X49034070Y-62155562D01*
X49178378Y-62092379D01*
X50221589Y-61635628D01*
X50312159Y-61584268D01*
X50353542Y-61554785D01*
X50431672Y-61485955D01*
X55314407Y-56196326D01*
X55366983Y-56128660D01*
X55389787Y-56093525D01*
X55430176Y-56017958D01*
X56009231Y-54670930D01*
X56036279Y-54589618D01*
X56046084Y-54548894D01*
X56059008Y-54464193D01*
X56117280Y-53590110D01*
X56118394Y-53558893D01*
X56118467Y-53543567D01*
X56117649Y-53512302D01*
X56117649Y-53512299D01*
X56089077Y-53371292D01*
X56089076Y-53371288D01*
X56088299Y-53369111D01*
X56067191Y-53309949D01*
X56065599Y-53305486D01*
X56065598Y-53305484D01*
X55998460Y-53178241D01*
X55998457Y-53178235D01*
X55997944Y-53177529D01*
X55996950Y-53176161D01*
X55984739Y-53156236D01*
X55959137Y-53105990D01*
X55943101Y-53030552D01*
X55944730Y-53015050D01*
X55970500Y-52852352D01*
X55970500Y-52647648D01*
X55944732Y-52484957D01*
X55945565Y-52477029D01*
X55943101Y-52469445D01*
X55949550Y-52439102D01*
X55952793Y-52408252D01*
X55959134Y-52394009D01*
X55984733Y-52343770D01*
X55996944Y-52323845D01*
X56061597Y-52234856D01*
X56072967Y-52221037D01*
X56076269Y-52217483D01*
X56088210Y-52203634D01*
X56111504Y-52174511D01*
X56179846Y-52047898D01*
X56203946Y-51982316D01*
X56233849Y-51841581D01*
X56451165Y-48581853D01*
X56481265Y-48130339D01*
X56506137Y-48057336D01*
X56554854Y-48011553D01*
X59246615Y-46441357D01*
X59250265Y-46439297D01*
X59946505Y-46059532D01*
X59946514Y-46059524D01*
X59950843Y-46057164D01*
X59950871Y-46057147D01*
X61992059Y-44943776D01*
X61992060Y-44943776D01*
X63780752Y-43968123D01*
X63855714Y-43949974D01*
X63929708Y-43971737D01*
X63982907Y-44027581D01*
X63985397Y-44032347D01*
X63987690Y-44036939D01*
X64546491Y-44965466D01*
X64650091Y-45137612D01*
X64654104Y-45144166D01*
X64660508Y-45154450D01*
X64670398Y-45167648D01*
X64712656Y-45224043D01*
X64712659Y-45224047D01*
X64795820Y-45317123D01*
X64805603Y-45327762D01*
X64918354Y-45417133D01*
X64918357Y-45417135D01*
X65026227Y-45479967D01*
X65097689Y-45514390D01*
X66022921Y-45873636D01*
X66030101Y-45876361D01*
X66030154Y-45876381D01*
X66034492Y-45877989D01*
X66041460Y-45880574D01*
X66125297Y-45903690D01*
X66125301Y-45903691D01*
X66125312Y-45903693D01*
X66248019Y-45926392D01*
X66250012Y-45926731D01*
X66262282Y-45928820D01*
X66396502Y-45930371D01*
X66406146Y-45930483D01*
X66406146Y-45930482D01*
X66406152Y-45930483D01*
X66529913Y-45914146D01*
X66607496Y-45897627D01*
X70123185Y-44854910D01*
X70152356Y-44854137D01*
X70181178Y-44849583D01*
X70190403Y-44853128D01*
X70200283Y-44852866D01*
X70225932Y-44866781D01*
X70253173Y-44877249D01*
X70259390Y-44884932D01*
X70268077Y-44889645D01*
X70283333Y-44914520D01*
X70301690Y-44937206D01*
X70302902Y-44946429D01*
X70308400Y-44955393D01*
X70313728Y-45013389D01*
X70313320Y-45017255D01*
X70289500Y-45167648D01*
X70289500Y-45243115D01*
X70288678Y-45250910D01*
X70277560Y-45279840D01*
X70269538Y-45309782D01*
X70262560Y-45318875D01*
X70261012Y-45322905D01*
X70256939Y-45326200D01*
X70245859Y-45340641D01*
X69289536Y-46296963D01*
X69289535Y-46296965D01*
X69254458Y-46349463D01*
X69254456Y-46349465D01*
X69190989Y-46444448D01*
X69190987Y-46444450D01*
X69164044Y-46509499D01*
X69123105Y-46608334D01*
X69123104Y-46608336D01*
X69105327Y-46697713D01*
X69088500Y-46782308D01*
X69088500Y-50319597D01*
X69068538Y-50394097D01*
X69014000Y-50448635D01*
X68939500Y-50468597D01*
X68865000Y-50448635D01*
X68834141Y-50424956D01*
X68767220Y-50358035D01*
X68767212Y-50358028D01*
X68601612Y-50237714D01*
X68419224Y-50144782D01*
X68419220Y-50144780D01*
X68419219Y-50144780D01*
X68224534Y-50081523D01*
X68022352Y-50049500D01*
X67817648Y-50049500D01*
X67649163Y-50076185D01*
X67615465Y-50081523D01*
X67420787Y-50144778D01*
X67420775Y-50144782D01*
X67238387Y-50237714D01*
X67072787Y-50358028D01*
X67072779Y-50358035D01*
X66928035Y-50502779D01*
X66928028Y-50502787D01*
X66807714Y-50668387D01*
X66714782Y-50850775D01*
X66714778Y-50850787D01*
X66651807Y-51044593D01*
X66651523Y-51045466D01*
X66619500Y-51247648D01*
X66619500Y-51452352D01*
X66651523Y-51654534D01*
X66712298Y-51841581D01*
X66714778Y-51849212D01*
X66714782Y-51849224D01*
X66807714Y-52031612D01*
X66928028Y-52197212D01*
X66928035Y-52197220D01*
X67072779Y-52341964D01*
X67072787Y-52341971D01*
X67238387Y-52462285D01*
X67238390Y-52462287D01*
X67420781Y-52555220D01*
X67615466Y-52618477D01*
X67817648Y-52650500D01*
X67885282Y-52650500D01*
X67959782Y-52670462D01*
X67990641Y-52694141D01*
X70335536Y-55039035D01*
X70460965Y-55164464D01*
X70460968Y-55164466D01*
X70608449Y-55263011D01*
X70608451Y-55263012D01*
X70608453Y-55263013D01*
X70690393Y-55296953D01*
X70772334Y-55330895D01*
X70946308Y-55365500D01*
X70946309Y-55365500D01*
X78043886Y-55365500D01*
X78118386Y-55385462D01*
X78149245Y-55409141D01*
X78235208Y-55495104D01*
X78407184Y-55620051D01*
X78596588Y-55716557D01*
X78798757Y-55782246D01*
X79008713Y-55815500D01*
X79008718Y-55815500D01*
X79221282Y-55815500D01*
X79221287Y-55815500D01*
X79431243Y-55782246D01*
X79633412Y-55716557D01*
X79822816Y-55620051D01*
X79994792Y-55495104D01*
X80145104Y-55344792D01*
X80270051Y-55172816D01*
X80366557Y-54983412D01*
X80432246Y-54781243D01*
X80465500Y-54571287D01*
X80465500Y-54358713D01*
X80432246Y-54148757D01*
X80366557Y-53946588D01*
X80270051Y-53757184D01*
X80145104Y-53585208D01*
X80059076Y-53499180D01*
X80020512Y-53432385D01*
X80020512Y-53355257D01*
X80059076Y-53288462D01*
X80112366Y-53254215D01*
X80151172Y-53239742D01*
X80207327Y-53218798D01*
X80207333Y-53218795D01*
X80264938Y-53175671D01*
X80322546Y-53132546D01*
X80365671Y-53074938D01*
X80408795Y-53017333D01*
X80408797Y-53017329D01*
X80444191Y-52922432D01*
X80459091Y-52882483D01*
X80465500Y-52822873D01*
X80465499Y-51027128D01*
X80459091Y-50967517D01*
X80415554Y-50850787D01*
X80408797Y-50832670D01*
X80408795Y-50832666D01*
X80322547Y-50717455D01*
X80322544Y-50717452D01*
X80207333Y-50631204D01*
X80207329Y-50631202D01*
X80072482Y-50580908D01*
X80012876Y-50574500D01*
X78217136Y-50574500D01*
X78217111Y-50574502D01*
X78157521Y-50580908D01*
X78157515Y-50580909D01*
X78022670Y-50631202D01*
X78022666Y-50631204D01*
X77907455Y-50717452D01*
X77907452Y-50717455D01*
X77821204Y-50832666D01*
X77821203Y-50832668D01*
X77785808Y-50927570D01*
X77741069Y-50990396D01*
X77670911Y-51022437D01*
X77646202Y-51024500D01*
X71759717Y-51024500D01*
X71685217Y-51004538D01*
X71654358Y-50980859D01*
X70933141Y-50259641D01*
X70894577Y-50192846D01*
X70889500Y-50154282D01*
X70889500Y-49154840D01*
X70909462Y-49080340D01*
X70964000Y-49025802D01*
X71038500Y-49005840D01*
X71084684Y-49015041D01*
X71085214Y-49013411D01*
X71090779Y-49015219D01*
X71090781Y-49015220D01*
X71285466Y-49078477D01*
X71487648Y-49110500D01*
X71487653Y-49110500D01*
X71692347Y-49110500D01*
X71692352Y-49110500D01*
X71894534Y-49078477D01*
X72089219Y-49015220D01*
X72271610Y-48922287D01*
X72437219Y-48801966D01*
X72581966Y-48657219D01*
X72702287Y-48491610D01*
X72795220Y-48309219D01*
X72858477Y-48114534D01*
X72890500Y-47912352D01*
X72890500Y-47707648D01*
X72858477Y-47505466D01*
X72795220Y-47310781D01*
X72702287Y-47128390D01*
X72702285Y-47128387D01*
X72581971Y-46962787D01*
X72581964Y-46962779D01*
X72437220Y-46818035D01*
X72437212Y-46818028D01*
X72271609Y-46697712D01*
X72222637Y-46672760D01*
X72165319Y-46621152D01*
X72141485Y-46547798D01*
X72157521Y-46472356D01*
X72209129Y-46415038D01*
X72222637Y-46407240D01*
X72271610Y-46382287D01*
X72437219Y-46261966D01*
X72581966Y-46117219D01*
X72702287Y-45951610D01*
X72795220Y-45769219D01*
X72858477Y-45574534D01*
X72890500Y-45372352D01*
X72890500Y-45167648D01*
X72858477Y-44965466D01*
X72795220Y-44770781D01*
X72702287Y-44588390D01*
X72702285Y-44588387D01*
X72581971Y-44422787D01*
X72581964Y-44422779D01*
X72437220Y-44278035D01*
X72437212Y-44278028D01*
X72271609Y-44157712D01*
X72222637Y-44132760D01*
X72165319Y-44081152D01*
X72141485Y-44007798D01*
X72157521Y-43932356D01*
X72209129Y-43875038D01*
X72222637Y-43867240D01*
X72234081Y-43861409D01*
X72271610Y-43842287D01*
X72437219Y-43721966D01*
X72486110Y-43673074D01*
X72552903Y-43634511D01*
X72630031Y-43634511D01*
X72680434Y-43658910D01*
X72693567Y-43668685D01*
X72787611Y-43738686D01*
X72879131Y-43788336D01*
X72897370Y-43798231D01*
X72910120Y-43804913D01*
X72910124Y-43804915D01*
X73046439Y-43850955D01*
X73150667Y-43870235D01*
X73169174Y-43873659D01*
X73169183Y-43873660D01*
X73169191Y-43873662D01*
X73183424Y-43876085D01*
X73317644Y-43877636D01*
X73327288Y-43877748D01*
X73327288Y-43877747D01*
X73327294Y-43877748D01*
X73451055Y-43861411D01*
X73528638Y-43844892D01*
X77718135Y-42602332D01*
X77795233Y-42600288D01*
X77863028Y-42637067D01*
X77903350Y-42702815D01*
X77909500Y-42745183D01*
X77909500Y-42832352D01*
X77941523Y-43034534D01*
X78004778Y-43229212D01*
X78004782Y-43229224D01*
X78097714Y-43411612D01*
X78218028Y-43577212D01*
X78218035Y-43577220D01*
X78265859Y-43625044D01*
X78304423Y-43691839D01*
X78309500Y-43730403D01*
X78309500Y-44269597D01*
X78289538Y-44344097D01*
X78265859Y-44374956D01*
X78218035Y-44422779D01*
X78218028Y-44422787D01*
X78097714Y-44588387D01*
X78004782Y-44770775D01*
X78004778Y-44770787D01*
X77948571Y-44943776D01*
X77941523Y-44965466D01*
X77909500Y-45167648D01*
X77909500Y-45372352D01*
X77926545Y-45479967D01*
X77941523Y-45574534D01*
X78004778Y-45769212D01*
X78004782Y-45769224D01*
X78097714Y-45951612D01*
X78218028Y-46117212D01*
X78218035Y-46117220D01*
X78362779Y-46261964D01*
X78362787Y-46261971D01*
X78483214Y-46349465D01*
X78528390Y-46382287D01*
X78710781Y-46475220D01*
X78905466Y-46538477D01*
X79107648Y-46570500D01*
X79175282Y-46570500D01*
X79249782Y-46590462D01*
X79280641Y-46614141D01*
X80854859Y-48188359D01*
X80893423Y-48255154D01*
X80898500Y-48293718D01*
X80898500Y-58918000D01*
X80878538Y-58992500D01*
X80824000Y-59047038D01*
X80749500Y-59067000D01*
X78702136Y-59067000D01*
X78702111Y-59067002D01*
X78642521Y-59073408D01*
X78642515Y-59073409D01*
X78507670Y-59123702D01*
X78507666Y-59123704D01*
X78392455Y-59209952D01*
X78392452Y-59209955D01*
X78306204Y-59325166D01*
X78306202Y-59325170D01*
X78255908Y-59460017D01*
X78253069Y-59486428D01*
X78225257Y-59558367D01*
X78165202Y-59606762D01*
X78104923Y-59619500D01*
X73388873Y-59619500D01*
X73314373Y-59599538D01*
X73283514Y-59575859D01*
X64157193Y-50449537D01*
X64157186Y-50449531D01*
X64103727Y-50413812D01*
X64103721Y-50413808D01*
X64098115Y-50410063D01*
X64009703Y-50350987D01*
X63927762Y-50317046D01*
X63845822Y-50283105D01*
X63845820Y-50283104D01*
X63845819Y-50283104D01*
X63671848Y-50248500D01*
X63671847Y-50248500D01*
X61478322Y-50248500D01*
X61300938Y-50248500D01*
X61126966Y-50283104D01*
X61126960Y-50283106D01*
X61045022Y-50317045D01*
X61045023Y-50317046D01*
X60963086Y-50350985D01*
X60963083Y-50350986D01*
X60963083Y-50350987D01*
X60874670Y-50410063D01*
X60852381Y-50424956D01*
X60815595Y-50449535D01*
X60815593Y-50449536D01*
X60220536Y-51044593D01*
X60220535Y-51044595D01*
X60181063Y-51103670D01*
X60121987Y-51192083D01*
X60093313Y-51261309D01*
X60090095Y-51269077D01*
X60090091Y-51269085D01*
X60054107Y-51355958D01*
X60054104Y-51355968D01*
X60025763Y-51498452D01*
X60019500Y-51529938D01*
X60019500Y-51749597D01*
X59999538Y-51824097D01*
X59975859Y-51854956D01*
X59928035Y-51902779D01*
X59928028Y-51902787D01*
X59807714Y-52068387D01*
X59714782Y-52250775D01*
X59714778Y-52250787D01*
X59653591Y-52439102D01*
X59651523Y-52445466D01*
X59619500Y-52647648D01*
X59619500Y-52852352D01*
X59651523Y-53054534D01*
X59684565Y-53156228D01*
X59711701Y-53239742D01*
X59715738Y-53316765D01*
X59680723Y-53385486D01*
X59675353Y-53391145D01*
X57800536Y-55265963D01*
X57800535Y-55265965D01*
X57761063Y-55325040D01*
X57701987Y-55413453D01*
X57696355Y-55427051D01*
X57691839Y-55437952D01*
X57691839Y-55437953D01*
X57634104Y-55577336D01*
X57599500Y-55751307D01*
X57599500Y-57840500D01*
X57579538Y-57915000D01*
X57525000Y-57969538D01*
X57450501Y-57989500D01*
X57352137Y-57989500D01*
X57352111Y-57989502D01*
X57292521Y-57995908D01*
X57292515Y-57995909D01*
X57157670Y-58046202D01*
X57157666Y-58046204D01*
X57042455Y-58132452D01*
X57042452Y-58132455D01*
X56956204Y-58247666D01*
X56956202Y-58247670D01*
X56905908Y-58382517D01*
X56899500Y-58442114D01*
X56899500Y-60737863D01*
X56899502Y-60737888D01*
X56905908Y-60797478D01*
X56905909Y-60797484D01*
X56956202Y-60932329D01*
X56956204Y-60932333D01*
X57042452Y-61047544D01*
X57042455Y-61047547D01*
X57157666Y-61133795D01*
X57157670Y-61133797D01*
X57292517Y-61184091D01*
X57352114Y-61190499D01*
X57352118Y-61190499D01*
X57352127Y-61190500D01*
X58123253Y-61190499D01*
X58197753Y-61210461D01*
X58252291Y-61264999D01*
X58272253Y-61339499D01*
X58272218Y-61342727D01*
X58272152Y-61345762D01*
X58272152Y-61345765D01*
X58445348Y-64828509D01*
X58561585Y-67165888D01*
X58545348Y-67241288D01*
X58498796Y-67294945D01*
X47430409Y-75121878D01*
X45307753Y-76622899D01*
X45307588Y-76622666D01*
X45305311Y-76624718D01*
X45293735Y-76632565D01*
X45293727Y-76632571D01*
X45293727Y-76632572D01*
X45245383Y-76675644D01*
X45245380Y-76675647D01*
X45245379Y-76675647D01*
X45158501Y-76776536D01*
X45142371Y-76801218D01*
X45142369Y-76801222D01*
X45107310Y-76864280D01*
X45097665Y-76884981D01*
X45092400Y-76896282D01*
X45066697Y-76963626D01*
X45059438Y-77011510D01*
X45058644Y-77016233D01*
X45040628Y-77113791D01*
X44863073Y-80625455D01*
X44863007Y-80675185D01*
X44863007Y-80675200D01*
X44864170Y-80699483D01*
X44868991Y-80748988D01*
X44868991Y-80748991D01*
X44910002Y-80886892D01*
X44910003Y-80886893D01*
X44910005Y-80886900D01*
X44930696Y-80931795D01*
X44939249Y-80950354D01*
X44939250Y-80950355D01*
X45017456Y-81071124D01*
X45708264Y-81862802D01*
X45708271Y-81862809D01*
X45708285Y-81862825D01*
X45742758Y-81898614D01*
X45760495Y-81915302D01*
X45798336Y-81947549D01*
X45798338Y-81947550D01*
X45923644Y-82018260D01*
X45988761Y-82043588D01*
X46128913Y-82076131D01*
X49139306Y-82333705D01*
X49170959Y-82333802D01*
X49222383Y-82333960D01*
X49222383Y-82333959D01*
X49222396Y-82333960D01*
X49262890Y-82330746D01*
X49344880Y-82317391D01*
X49344888Y-82317388D01*
X49344897Y-82317387D01*
X50774299Y-81961941D01*
X50774299Y-81961940D01*
X50774311Y-81961938D01*
X50774317Y-81961935D01*
X50774324Y-81961934D01*
X50852986Y-81935343D01*
X50852988Y-81935341D01*
X50853012Y-81935334D01*
X50890295Y-81919207D01*
X50963583Y-81880066D01*
X52133065Y-81125836D01*
X53049355Y-80534895D01*
X53058844Y-80528623D01*
X53063436Y-80525513D01*
X53072669Y-80519109D01*
X54371307Y-79596830D01*
X54380406Y-79590215D01*
X54384855Y-79586904D01*
X54393892Y-79580019D01*
X61996867Y-73651707D01*
X62067890Y-73621641D01*
X62144434Y-73631114D01*
X62205987Y-73677591D01*
X62236055Y-73748616D01*
X62226582Y-73825160D01*
X62226216Y-73826055D01*
X62123663Y-74074535D01*
X62123661Y-74074542D01*
X62090819Y-74193754D01*
X62090818Y-74193759D01*
X62082050Y-74253302D01*
X62079132Y-74376939D01*
X62658275Y-80206333D01*
X62664093Y-80247549D01*
X62667770Y-80267596D01*
X62676955Y-80308184D01*
X62733844Y-80440332D01*
X62733846Y-80440337D01*
X62770318Y-80499916D01*
X62770325Y-80499927D01*
X62799333Y-80534923D01*
X62862136Y-80610692D01*
X62862139Y-80610695D01*
X62862144Y-80610701D01*
X63670367Y-81342608D01*
X63702340Y-81369250D01*
X63718535Y-81381652D01*
X63752579Y-81405567D01*
X63883456Y-81465338D01*
X63921572Y-81476530D01*
X63950491Y-81485022D01*
X63950493Y-81485022D01*
X63950495Y-81485023D01*
X63950499Y-81485024D01*
X63950500Y-81485024D01*
X63950504Y-81485025D01*
X63950508Y-81485026D01*
X64092900Y-81505498D01*
X64092904Y-81505498D01*
X64092915Y-81505500D01*
X64092919Y-81505500D01*
X67421083Y-81505500D01*
X67421101Y-81505500D01*
X67471552Y-81502976D01*
X67496177Y-81500506D01*
X67546114Y-81492962D01*
X67681627Y-81444610D01*
X67743422Y-81412004D01*
X67859822Y-81327435D01*
X67999447Y-81191742D01*
X75960491Y-81191742D01*
X81801366Y-81191742D01*
X81801366Y-72337358D01*
X75960491Y-72337358D01*
X75960491Y-81191742D01*
X67999447Y-81191742D01*
X68610486Y-80597912D01*
X68644904Y-80560945D01*
X68660842Y-80542012D01*
X68691399Y-80501795D01*
X68754882Y-80372677D01*
X68776473Y-80306227D01*
X68801008Y-80164455D01*
X68945080Y-75121877D01*
X68967162Y-75047978D01*
X69017136Y-74998501D01*
X71883381Y-73271983D01*
X73749330Y-72148007D01*
X74348364Y-71787171D01*
X74348376Y-71787164D01*
X74447546Y-71709020D01*
X74490692Y-71665250D01*
X74567410Y-71564957D01*
X75242260Y-70407265D01*
X75291729Y-70291088D01*
X75308556Y-70231975D01*
X75327687Y-70107174D01*
X75432718Y-66203514D01*
X75432901Y-66189337D01*
X75432893Y-66182377D01*
X75432677Y-66168179D01*
X75408046Y-66026423D01*
X75386410Y-65959988D01*
X75322839Y-65830914D01*
X75322837Y-65830911D01*
X75322834Y-65830905D01*
X74636419Y-64828516D01*
X74628251Y-64816939D01*
X74628236Y-64816918D01*
X74624144Y-64811288D01*
X74615644Y-64799932D01*
X74615642Y-64799930D01*
X74615641Y-64799928D01*
X74512506Y-64699634D01*
X74512501Y-64699630D01*
X74512495Y-64699624D01*
X74458751Y-64660551D01*
X74456906Y-64659143D01*
X74455983Y-64658538D01*
X74455979Y-64658535D01*
X74328747Y-64591352D01*
X70474738Y-63214920D01*
X70411292Y-63171063D01*
X70390301Y-63138607D01*
X69043376Y-60307004D01*
X68666376Y-59514446D01*
X68664038Y-59509599D01*
X68662809Y-59507086D01*
X68660376Y-59502179D01*
X68578119Y-59384135D01*
X68578118Y-59384133D01*
X68530421Y-59333076D01*
X68530419Y-59333074D01*
X68493971Y-59303804D01*
X68418238Y-59242985D01*
X68362353Y-59209955D01*
X68157210Y-59088707D01*
X67341183Y-58606403D01*
X67336193Y-58603492D01*
X67334130Y-58602304D01*
X67334077Y-58602274D01*
X67334020Y-58602241D01*
X67329333Y-58599574D01*
X67329330Y-58599573D01*
X67329327Y-58599571D01*
X67195157Y-58547653D01*
X67195155Y-58547652D01*
X67195149Y-58547650D01*
X67128415Y-58532276D01*
X67127241Y-58531994D01*
X67127058Y-58531964D01*
X66983691Y-58519949D01*
X66983680Y-58519948D01*
X65891089Y-58584695D01*
X65815539Y-58569175D01*
X65757870Y-58517959D01*
X65733714Y-58447384D01*
X65728724Y-58382517D01*
X65441745Y-54651794D01*
X65455934Y-54575984D01*
X65506129Y-54517424D01*
X65578878Y-54491807D01*
X65654690Y-54505996D01*
X65695665Y-54535009D01*
X72254692Y-61094035D01*
X72380121Y-61219464D01*
X72380124Y-61219466D01*
X72527607Y-61318012D01*
X72527609Y-61318013D01*
X72691490Y-61385894D01*
X72865464Y-61420500D01*
X72865465Y-61420500D01*
X78104924Y-61420500D01*
X78179424Y-61440462D01*
X78233962Y-61495000D01*
X78253069Y-61553571D01*
X78255295Y-61574273D01*
X78255909Y-61579985D01*
X78306202Y-61714829D01*
X78306204Y-61714833D01*
X78392452Y-61830044D01*
X78392455Y-61830047D01*
X78507666Y-61916295D01*
X78517023Y-61921404D01*
X78516016Y-61923246D01*
X78567530Y-61959923D01*
X78599575Y-62030079D01*
X78592249Y-62106858D01*
X78573184Y-62142378D01*
X78459784Y-62298459D01*
X78459784Y-62298460D01*
X78355955Y-62502236D01*
X78355948Y-62502251D01*
X78285278Y-62719752D01*
X78285278Y-62719755D01*
X78249500Y-62945646D01*
X78249500Y-63174354D01*
X78256675Y-63219653D01*
X78285278Y-63400247D01*
X78355948Y-63617748D01*
X78355950Y-63617753D01*
X78355952Y-63617758D01*
X78448264Y-63798931D01*
X78459784Y-63821539D01*
X78459785Y-63821542D01*
X78535603Y-63925895D01*
X78594214Y-64006566D01*
X78755934Y-64168286D01*
X78755937Y-64168288D01*
X78940957Y-64302714D01*
X78940958Y-64302714D01*
X78940962Y-64302717D01*
X79144742Y-64406548D01*
X79362255Y-64477222D01*
X79588146Y-64513000D01*
X79588151Y-64513000D01*
X79911849Y-64513000D01*
X79911854Y-64513000D01*
X80137745Y-64477222D01*
X80355258Y-64406548D01*
X80559038Y-64302717D01*
X80744066Y-64168286D01*
X80905786Y-64006566D01*
X80919512Y-63987672D01*
X80979449Y-63939133D01*
X80989338Y-63935147D01*
X80999930Y-63931312D01*
X81027166Y-63925895D01*
X81109106Y-63891953D01*
X81191047Y-63858013D01*
X81279459Y-63798936D01*
X81338536Y-63759464D01*
X81945143Y-63152856D01*
X82011936Y-63114294D01*
X82089064Y-63114294D01*
X82155859Y-63152858D01*
X82194423Y-63219653D01*
X82199500Y-63258217D01*
X82199500Y-82850500D01*
X82179538Y-82925000D01*
X82125000Y-82979538D01*
X82050500Y-82999500D01*
X42649500Y-82999500D01*
X42575000Y-82979538D01*
X42520462Y-82925000D01*
X42500500Y-82850500D01*
X42500500Y-27399500D01*
X42520462Y-27325000D01*
X42575000Y-27270462D01*
X42649500Y-27250500D01*
X82050500Y-27250500D01*
X82125000Y-27270462D01*
G37*
%TD.AperFunction*%
%TD*%
%TA.AperFunction,Conductor*%
%TO.N,+24V*%
G36*
X59147330Y-38019528D02*
G01*
X59258558Y-38076202D01*
X59318656Y-38129933D01*
X59395133Y-38213677D01*
X59407460Y-38232370D01*
X59423298Y-38248208D01*
X59441628Y-38284182D01*
X59463854Y-38317886D01*
X59469802Y-38339477D01*
X59479972Y-38359436D01*
X59486288Y-38399314D01*
X59497011Y-38438236D01*
X59499500Y-38482734D01*
X59499500Y-39217162D01*
X59479972Y-39340460D01*
X59469127Y-39369855D01*
X59445801Y-39426166D01*
X59445798Y-39426177D01*
X59411725Y-39553331D01*
X59394500Y-39684173D01*
X59394500Y-40315826D01*
X59411725Y-40446668D01*
X59445798Y-40573822D01*
X59445801Y-40573833D01*
X59496297Y-40695740D01*
X59496300Y-40695746D01*
X59562127Y-40809760D01*
X59562130Y-40809766D01*
X59642449Y-40914436D01*
X59642459Y-40914449D01*
X59735551Y-41007541D01*
X59735563Y-41007550D01*
X59840233Y-41087869D01*
X59840239Y-41087872D01*
X59840243Y-41087875D01*
X59918977Y-41133332D01*
X59954253Y-41153699D01*
X59954259Y-41153702D01*
X60051054Y-41193796D01*
X60076171Y-41204200D01*
X60121485Y-41216342D01*
X60203332Y-41238274D01*
X60203337Y-41238274D01*
X60203338Y-41238275D01*
X60247507Y-41244090D01*
X60334173Y-41255500D01*
X60334174Y-41255500D01*
X60950011Y-41255500D01*
X61021934Y-41250356D01*
X61021935Y-41250355D01*
X61021940Y-41250355D01*
X61083285Y-41232342D01*
X61207084Y-41216342D01*
X61329774Y-41239381D01*
X61335115Y-41241330D01*
X61342517Y-41244091D01*
X61402127Y-41250500D01*
X62497872Y-41250499D01*
X62557483Y-41244091D01*
X62692331Y-41193796D01*
X62807546Y-41107546D01*
X62893796Y-40992331D01*
X62944091Y-40857483D01*
X62950500Y-40797873D01*
X62950500Y-40088691D01*
X62950500Y-38819689D01*
X62954455Y-38794712D01*
X62953677Y-38769436D01*
X62964161Y-38733430D01*
X62970028Y-38696391D01*
X62981508Y-38673858D01*
X62988579Y-38649579D01*
X63009677Y-38618575D01*
X63026702Y-38585163D01*
X63044584Y-38567280D01*
X63058811Y-38546375D01*
X63088454Y-38523410D01*
X63114974Y-38496891D01*
X63157491Y-38469927D01*
X63246410Y-38421115D01*
X63363888Y-38378903D01*
X63488663Y-38375059D01*
X63535168Y-38383792D01*
X63803684Y-38450921D01*
X64077863Y-38519465D01*
X64192740Y-38568313D01*
X64286903Y-38650271D01*
X64309410Y-38679820D01*
X64803473Y-39395285D01*
X64820998Y-39420663D01*
X64874990Y-39533217D01*
X64891558Y-39656948D01*
X64888940Y-39694007D01*
X64604811Y-42109101D01*
X64571010Y-42229272D01*
X64539136Y-42285886D01*
X63852019Y-43302675D01*
X63766803Y-43393899D01*
X63712489Y-43429550D01*
X61750000Y-44500000D01*
X59704445Y-45615755D01*
X59704446Y-45615756D01*
X59704393Y-45615785D01*
X59703930Y-45616037D01*
X59000005Y-45999996D01*
X58999999Y-45999997D01*
X58250000Y-38000000D01*
X59024032Y-38000000D01*
X59147330Y-38019528D01*
G37*
%TD.AperFunction*%
%TD*%
%TA.AperFunction,Conductor*%
%TO.N,out*%
G36*
X67081671Y-59040248D02*
G01*
X67083950Y-59041561D01*
X68161031Y-59678157D01*
X68208728Y-59729214D01*
X68209915Y-59731641D01*
X70049999Y-63600000D01*
X72500000Y-64475000D01*
X74158729Y-65067403D01*
X74215240Y-65108488D01*
X74219332Y-65114118D01*
X74905757Y-66116523D01*
X74927393Y-66182958D01*
X74927401Y-66189918D01*
X74822370Y-70093578D01*
X74805543Y-70152691D01*
X74130693Y-71310383D01*
X74087547Y-71354153D01*
X68450000Y-74749999D01*
X68449999Y-74750000D01*
X68427152Y-75549674D01*
X68295714Y-80150018D01*
X68274123Y-80216468D01*
X68258185Y-80235401D01*
X67507521Y-80964924D01*
X67445726Y-80997530D01*
X67421101Y-81000000D01*
X64092915Y-81000000D01*
X64025876Y-80980315D01*
X64009681Y-80967913D01*
X64006380Y-80964924D01*
X63201458Y-80236006D01*
X63164979Y-80176415D01*
X63161299Y-80156352D01*
X62703632Y-75549674D01*
X62624185Y-74749999D01*
X62582156Y-74326955D01*
X62590927Y-74267396D01*
X63105705Y-73020118D01*
X63141498Y-72971707D01*
X66132456Y-70508566D01*
X66132456Y-70508565D01*
X66750000Y-70000000D01*
X65244040Y-64674575D01*
X65241729Y-64664950D01*
X65204067Y-64475000D01*
X64933461Y-63110201D01*
X64931932Y-63100461D01*
X64573675Y-60022709D01*
X64585476Y-59953844D01*
X64601829Y-59928696D01*
X65239263Y-59168617D01*
X65297424Y-59129900D01*
X65326938Y-59124515D01*
X66162500Y-59075000D01*
X67013588Y-59024564D01*
X67081671Y-59040248D01*
G37*
%TD.AperFunction*%
%TD*%
%TA.AperFunction,Conductor*%
%TO.N,+24V*%
G36*
X58999999Y-45999999D02*
G01*
X57666670Y-46777775D01*
X56000000Y-47750000D01*
X55999999Y-47750000D01*
X55999999Y-47750001D01*
X55946785Y-48548228D01*
X55729469Y-51807956D01*
X55705369Y-51873538D01*
X55693428Y-51887387D01*
X55678030Y-51902785D01*
X55557715Y-52068386D01*
X55464781Y-52250776D01*
X55401522Y-52445465D01*
X55369500Y-52647648D01*
X55369500Y-52852351D01*
X55401522Y-53054534D01*
X55464781Y-53249223D01*
X55506606Y-53331308D01*
X55557713Y-53431610D01*
X55589494Y-53475354D01*
X55612973Y-53541159D01*
X55612900Y-53556485D01*
X55554628Y-54430568D01*
X55544823Y-54471292D01*
X54965768Y-55818320D01*
X54942964Y-55853455D01*
X50060229Y-61143084D01*
X50018846Y-61172567D01*
X48723776Y-61739590D01*
X48674043Y-61750000D01*
X45855721Y-61750000D01*
X45788682Y-61730315D01*
X45763002Y-61708336D01*
X45131568Y-60997273D01*
X45101773Y-60934075D01*
X45101156Y-60900285D01*
X45773810Y-55250000D01*
X46666667Y-47750000D01*
X47405207Y-41546258D01*
X47405714Y-41542500D01*
X47642825Y-39964786D01*
X47643448Y-39961033D01*
X47841998Y-38869011D01*
X47843823Y-38864089D01*
X47843703Y-38861108D01*
X47857050Y-38828440D01*
X47893830Y-38765763D01*
X47921313Y-38733331D01*
X48765493Y-38028799D01*
X48829576Y-38000956D01*
X48844946Y-38000000D01*
X58250000Y-38000000D01*
X58999999Y-45999999D01*
G37*
%TD.AperFunction*%
%TD*%
M02*
