%TF.GenerationSoftware,KiCad,Pcbnew,9.0.1*%
%TF.CreationDate,2025-09-03T01:12:29-04:00*%
%TF.ProjectId,SEPIC,53455049-432e-46b6-9963-61645f706362,rev?*%
%TF.SameCoordinates,Original*%
%TF.FileFunction,Copper,L2,Bot*%
%TF.FilePolarity,Positive*%
%FSLAX46Y46*%
G04 Gerber Fmt 4.6, Leading zero omitted, Abs format (unit mm)*
G04 Created by KiCad (PCBNEW 9.0.1) date 2025-09-03 01:12:29*
%MOMM*%
%LPD*%
G01*
G04 APERTURE LIST*
G04 Aperture macros list*
%AMRoundRect*
0 Rectangle with rounded corners*
0 $1 Rounding radius*
0 $2 $3 $4 $5 $6 $7 $8 $9 X,Y pos of 4 corners*
0 Add a 4 corners polygon primitive as box body*
4,1,4,$2,$3,$4,$5,$6,$7,$8,$9,$2,$3,0*
0 Add four circle primitives for the rounded corners*
1,1,$1+$1,$2,$3*
1,1,$1+$1,$4,$5*
1,1,$1+$1,$6,$7*
1,1,$1+$1,$8,$9*
0 Add four rect primitives between the rounded corners*
20,1,$1+$1,$2,$3,$4,$5,0*
20,1,$1+$1,$4,$5,$6,$7,0*
20,1,$1+$1,$6,$7,$8,$9,0*
20,1,$1+$1,$8,$9,$2,$3,0*%
%AMFreePoly0*
4,1,23,0.550000,-0.750000,0.000000,-0.750000,0.000000,-0.745722,-0.065263,-0.745722,-0.191342,-0.711940,-0.304381,-0.646677,-0.396677,-0.554381,-0.461940,-0.441342,-0.495722,-0.315263,-0.495722,-0.250000,-0.500000,-0.250000,-0.500000,0.250000,-0.495722,0.250000,-0.495722,0.315263,-0.461940,0.441342,-0.396677,0.554381,-0.304381,0.646677,-0.191342,0.711940,-0.065263,0.745722,0.000000,0.745722,
0.000000,0.750000,0.550000,0.750000,0.550000,-0.750000,0.550000,-0.750000,$1*%
%AMFreePoly1*
4,1,23,0.000000,0.745722,0.065263,0.745722,0.191342,0.711940,0.304381,0.646677,0.396677,0.554381,0.461940,0.441342,0.495722,0.315263,0.495722,0.250000,0.500000,0.250000,0.500000,-0.250000,0.495722,-0.250000,0.495722,-0.315263,0.461940,-0.441342,0.396677,-0.554381,0.304381,-0.646677,0.191342,-0.711940,0.065263,-0.745722,0.000000,-0.745722,0.000000,-0.750000,-0.550000,-0.750000,
-0.550000,0.750000,0.000000,0.750000,0.000000,0.745722,0.000000,0.745722,$1*%
G04 Aperture macros list end*
%TA.AperFunction,NonConductor*%
%ADD10C,0.000000*%
%TD*%
%ADD11C,0.400000*%
%TA.AperFunction,ComponentPad*%
%ADD12R,3.500000X3.500000*%
%TD*%
%TA.AperFunction,ComponentPad*%
%ADD13RoundRect,0.750000X-1.000000X0.750000X-1.000000X-0.750000X1.000000X-0.750000X1.000000X0.750000X0*%
%TD*%
%TA.AperFunction,ComponentPad*%
%ADD14RoundRect,0.875000X-0.875000X0.875000X-0.875000X-0.875000X0.875000X-0.875000X0.875000X0.875000X0*%
%TD*%
%TA.AperFunction,ComponentPad*%
%ADD15R,2.200000X2.200000*%
%TD*%
%TA.AperFunction,ComponentPad*%
%ADD16C,2.200000*%
%TD*%
%TA.AperFunction,ComponentPad*%
%ADD17R,1.700000X1.700000*%
%TD*%
%TA.AperFunction,ComponentPad*%
%ADD18C,1.700000*%
%TD*%
%TA.AperFunction,ComponentPad*%
%ADD19C,1.600000*%
%TD*%
%TA.AperFunction,ComponentPad*%
%ADD20O,1.600000X1.600000*%
%TD*%
%TA.AperFunction,ComponentPad*%
%ADD21C,2.000000*%
%TD*%
%TA.AperFunction,ComponentPad*%
%ADD22R,1.800000X1.800000*%
%TD*%
%TA.AperFunction,ComponentPad*%
%ADD23O,1.800000X1.800000*%
%TD*%
%TA.AperFunction,ComponentPad*%
%ADD24RoundRect,0.250000X1.050000X1.050000X-1.050000X1.050000X-1.050000X-1.050000X1.050000X-1.050000X0*%
%TD*%
%TA.AperFunction,ComponentPad*%
%ADD25C,2.600000*%
%TD*%
%TA.AperFunction,ComponentPad*%
%ADD26RoundRect,0.250000X-1.050000X-1.050000X1.050000X-1.050000X1.050000X1.050000X-1.050000X1.050000X0*%
%TD*%
%TA.AperFunction,ComponentPad*%
%ADD27RoundRect,0.250000X-0.550000X-0.550000X0.550000X-0.550000X0.550000X0.550000X-0.550000X0.550000X0*%
%TD*%
%TA.AperFunction,ComponentPad*%
%ADD28R,2.000000X1.905000*%
%TD*%
%TA.AperFunction,ComponentPad*%
%ADD29O,2.000000X1.905000*%
%TD*%
%TA.AperFunction,SMDPad,CuDef*%
%ADD30FreePoly0,0.000000*%
%TD*%
%TA.AperFunction,SMDPad,CuDef*%
%ADD31R,1.000000X1.500000*%
%TD*%
%TA.AperFunction,SMDPad,CuDef*%
%ADD32FreePoly1,0.000000*%
%TD*%
%TA.AperFunction,ComponentPad*%
%ADD33RoundRect,0.650000X-0.650000X0.650000X-0.650000X-0.650000X0.650000X-0.650000X0.650000X0.650000X0*%
%TD*%
%TA.AperFunction,ComponentPad*%
%ADD34RoundRect,0.650000X0.650000X0.650000X-0.650000X0.650000X-0.650000X-0.650000X0.650000X-0.650000X0*%
%TD*%
%TA.AperFunction,Conductor*%
%ADD35C,0.800000*%
%TD*%
G04 APERTURE END LIST*
D10*
%TA.AperFunction,NonConductor*%
G36*
X47860000Y-31160000D02*
G01*
X47680000Y-31160000D01*
X47680000Y-30260000D01*
X47770000Y-30260000D01*
X47860000Y-30260000D01*
X47860000Y-31160000D01*
G37*
%TD.AperFunction*%
%TA.AperFunction,NonConductor*%
G36*
X50200000Y-30800000D02*
G01*
X48640000Y-30800000D01*
X48640000Y-30620000D01*
X49420000Y-30620000D01*
X50200000Y-30620000D01*
X50200000Y-30800000D01*
G37*
%TD.AperFunction*%
%TA.AperFunction,NonConductor*%
G36*
X48220000Y-30800000D02*
G01*
X47320000Y-30800000D01*
X47320000Y-30620000D01*
X47770000Y-30620000D01*
X48220000Y-30620000D01*
X48220000Y-30800000D01*
G37*
%TD.AperFunction*%
%TA.AperFunction,NonConductor*%
G36*
X54068866Y-30757453D02*
G01*
X54065496Y-30804153D01*
X54059940Y-30850051D01*
X54052246Y-30895098D01*
X54042466Y-30939243D01*
X54030647Y-30982439D01*
X54016840Y-31024635D01*
X54001094Y-31065781D01*
X53983458Y-31105829D01*
X53963982Y-31144729D01*
X53942715Y-31182431D01*
X53919707Y-31218887D01*
X53895007Y-31254046D01*
X53868665Y-31287859D01*
X53840729Y-31320277D01*
X53811250Y-31351250D01*
X53780277Y-31380729D01*
X53747859Y-31408665D01*
X53714046Y-31435007D01*
X53678887Y-31459707D01*
X53642432Y-31482715D01*
X53604729Y-31503982D01*
X53565829Y-31523458D01*
X53525781Y-31541094D01*
X53484635Y-31556840D01*
X53442439Y-31570647D01*
X53399244Y-31582466D01*
X53355098Y-31592246D01*
X53310051Y-31599939D01*
X53264153Y-31605496D01*
X53217453Y-31608866D01*
X53170000Y-31610000D01*
X53122548Y-31608866D01*
X53075847Y-31605496D01*
X53029949Y-31599939D01*
X52984903Y-31592246D01*
X52940757Y-31582466D01*
X52897561Y-31570647D01*
X52855366Y-31556840D01*
X52814219Y-31541094D01*
X52774171Y-31523458D01*
X52735271Y-31503982D01*
X52697569Y-31482715D01*
X52661114Y-31459707D01*
X52625955Y-31435007D01*
X52592141Y-31408665D01*
X52559724Y-31380729D01*
X52528750Y-31351250D01*
X52499271Y-31320277D01*
X52471336Y-31287859D01*
X52444993Y-31254046D01*
X52420293Y-31218887D01*
X52397285Y-31182431D01*
X52376018Y-31144729D01*
X52356542Y-31105829D01*
X52338907Y-31065781D01*
X52323160Y-31024635D01*
X52309353Y-30982439D01*
X52297535Y-30939243D01*
X52287754Y-30895098D01*
X52280061Y-30850051D01*
X52274505Y-30804153D01*
X52271135Y-30757453D01*
X52270014Y-30710600D01*
X52468600Y-30710600D01*
X52469485Y-30747613D01*
X52472114Y-30784039D01*
X52476448Y-30819840D01*
X52482448Y-30854976D01*
X52490077Y-30889410D01*
X52499296Y-30923102D01*
X52510065Y-30956015D01*
X52522347Y-30988109D01*
X52536103Y-31019347D01*
X52551294Y-31049689D01*
X52567882Y-31079096D01*
X52585829Y-31107532D01*
X52605095Y-31134956D01*
X52625642Y-31161330D01*
X52647432Y-31186616D01*
X52670425Y-31210775D01*
X52694584Y-31233769D01*
X52719870Y-31255558D01*
X52746245Y-31276105D01*
X52773669Y-31295371D01*
X52802104Y-31313318D01*
X52831512Y-31329906D01*
X52861854Y-31345097D01*
X52893091Y-31358853D01*
X52925185Y-31371135D01*
X52958098Y-31381905D01*
X52991790Y-31391123D01*
X53026224Y-31398752D01*
X53061361Y-31404753D01*
X53097161Y-31409087D01*
X53133587Y-31411715D01*
X53170600Y-31412600D01*
X53207613Y-31411715D01*
X53244039Y-31409087D01*
X53279840Y-31404753D01*
X53314976Y-31398752D01*
X53349410Y-31391123D01*
X53383103Y-31381905D01*
X53416015Y-31371135D01*
X53448110Y-31358853D01*
X53479347Y-31345097D01*
X53509689Y-31329906D01*
X53539097Y-31313318D01*
X53567532Y-31295371D01*
X53594956Y-31276105D01*
X53621330Y-31255558D01*
X53646616Y-31233769D01*
X53670775Y-31210775D01*
X53693769Y-31186616D01*
X53715559Y-31161330D01*
X53736106Y-31134956D01*
X53755372Y-31107532D01*
X53773318Y-31079096D01*
X53789906Y-31049689D01*
X53805097Y-31019347D01*
X53818853Y-30988109D01*
X53831135Y-30956015D01*
X53841905Y-30923102D01*
X53851123Y-30889410D01*
X53858752Y-30854976D01*
X53864753Y-30819840D01*
X53869087Y-30784039D01*
X53871715Y-30747613D01*
X53872600Y-30710600D01*
X53871715Y-30673587D01*
X53869087Y-30637161D01*
X53864753Y-30601360D01*
X53858752Y-30566224D01*
X53851123Y-30531790D01*
X53841905Y-30498098D01*
X53831135Y-30465185D01*
X53818853Y-30433091D01*
X53805097Y-30401853D01*
X53789906Y-30371511D01*
X53773318Y-30342104D01*
X53755372Y-30313668D01*
X53736106Y-30286244D01*
X53715559Y-30259870D01*
X53693769Y-30234584D01*
X53670775Y-30210425D01*
X53646616Y-30187431D01*
X53621330Y-30165642D01*
X53594956Y-30145095D01*
X53567532Y-30125829D01*
X53539097Y-30107882D01*
X53509689Y-30091294D01*
X53479347Y-30076103D01*
X53448110Y-30062347D01*
X53416015Y-30050065D01*
X53383103Y-30039295D01*
X53349410Y-30030077D01*
X53314976Y-30022448D01*
X53279840Y-30016447D01*
X53244039Y-30012114D01*
X53207613Y-30009485D01*
X53170600Y-30008600D01*
X53133587Y-30009485D01*
X53097161Y-30012114D01*
X53061361Y-30016447D01*
X53026224Y-30022448D01*
X52991790Y-30030077D01*
X52958098Y-30039295D01*
X52925185Y-30050065D01*
X52893091Y-30062347D01*
X52861854Y-30076103D01*
X52831512Y-30091294D01*
X52802104Y-30107882D01*
X52773669Y-30125829D01*
X52746245Y-30145095D01*
X52719870Y-30165642D01*
X52694584Y-30187431D01*
X52670425Y-30210425D01*
X52647432Y-30234584D01*
X52625642Y-30259870D01*
X52605095Y-30286244D01*
X52585829Y-30313668D01*
X52567882Y-30342104D01*
X52551294Y-30371511D01*
X52536103Y-30401853D01*
X52522347Y-30433091D01*
X52510065Y-30465185D01*
X52499296Y-30498098D01*
X52490077Y-30531790D01*
X52482448Y-30566224D01*
X52476448Y-30601360D01*
X52472114Y-30637161D01*
X52469485Y-30673587D01*
X52468600Y-30710600D01*
X52270014Y-30710600D01*
X52270000Y-30710000D01*
X52271135Y-30662547D01*
X52274505Y-30615847D01*
X52280061Y-30569949D01*
X52287754Y-30524902D01*
X52297535Y-30480757D01*
X52309353Y-30437561D01*
X52323160Y-30395365D01*
X52338907Y-30354219D01*
X52356542Y-30314171D01*
X52376018Y-30275271D01*
X52397285Y-30237569D01*
X52420293Y-30201113D01*
X52444993Y-30165954D01*
X52471336Y-30132141D01*
X52499271Y-30099723D01*
X52528750Y-30068750D01*
X52559724Y-30039271D01*
X52592141Y-30011335D01*
X52625955Y-29984993D01*
X52661114Y-29960293D01*
X52697569Y-29937285D01*
X52735271Y-29916018D01*
X52774171Y-29896542D01*
X52814219Y-29878906D01*
X52855366Y-29863160D01*
X52897561Y-29849353D01*
X52940757Y-29837534D01*
X52984903Y-29827754D01*
X53029949Y-29820061D01*
X53075847Y-29814504D01*
X53122548Y-29811134D01*
X53170000Y-29810000D01*
X53217453Y-29811134D01*
X53264153Y-29814504D01*
X53310051Y-29820061D01*
X53355098Y-29827754D01*
X53399244Y-29837534D01*
X53442439Y-29849353D01*
X53484635Y-29863160D01*
X53525781Y-29878906D01*
X53565829Y-29896542D01*
X53604729Y-29916018D01*
X53642432Y-29937285D01*
X53678887Y-29960293D01*
X53714046Y-29984993D01*
X53747859Y-30011335D01*
X53780277Y-30039271D01*
X53811250Y-30068750D01*
X53840729Y-30099723D01*
X53868665Y-30132141D01*
X53895007Y-30165954D01*
X53919707Y-30201113D01*
X53942715Y-30237569D01*
X53963982Y-30275271D01*
X53983458Y-30314171D01*
X54001094Y-30354219D01*
X54016840Y-30395365D01*
X54030647Y-30437561D01*
X54042466Y-30480757D01*
X54052246Y-30524902D01*
X54059940Y-30569949D01*
X54065496Y-30615847D01*
X54068866Y-30662547D01*
X54070000Y-30710000D01*
X54069986Y-30710600D01*
X54068866Y-30757453D01*
G37*
%TD.AperFunction*%
%TA.AperFunction,NonConductor*%
G36*
X48668866Y-30757453D02*
G01*
X48665496Y-30804153D01*
X48659939Y-30850051D01*
X48652246Y-30895098D01*
X48642466Y-30939243D01*
X48630647Y-30982439D01*
X48616840Y-31024635D01*
X48601094Y-31065781D01*
X48583458Y-31105829D01*
X48563982Y-31144729D01*
X48542715Y-31182431D01*
X48519707Y-31218887D01*
X48495007Y-31254046D01*
X48468665Y-31287859D01*
X48440729Y-31320277D01*
X48411250Y-31351250D01*
X48380277Y-31380729D01*
X48347859Y-31408665D01*
X48314046Y-31435007D01*
X48278887Y-31459707D01*
X48242431Y-31482715D01*
X48204729Y-31503982D01*
X48165829Y-31523458D01*
X48125781Y-31541094D01*
X48084635Y-31556840D01*
X48042439Y-31570647D01*
X47999243Y-31582466D01*
X47955098Y-31592246D01*
X47910051Y-31599939D01*
X47864153Y-31605496D01*
X47817453Y-31608866D01*
X47770000Y-31610000D01*
X47722547Y-31608866D01*
X47675847Y-31605496D01*
X47629949Y-31599939D01*
X47584902Y-31592246D01*
X47540757Y-31582466D01*
X47497561Y-31570647D01*
X47455365Y-31556840D01*
X47414219Y-31541094D01*
X47374171Y-31523458D01*
X47335271Y-31503982D01*
X47297569Y-31482715D01*
X47261113Y-31459707D01*
X47225954Y-31435007D01*
X47192141Y-31408665D01*
X47159723Y-31380729D01*
X47128750Y-31351250D01*
X47099271Y-31320277D01*
X47071335Y-31287859D01*
X47044993Y-31254046D01*
X47020293Y-31218887D01*
X46997285Y-31182431D01*
X46976018Y-31144729D01*
X46956542Y-31105829D01*
X46938906Y-31065781D01*
X46923160Y-31024635D01*
X46909353Y-30982439D01*
X46897534Y-30939243D01*
X46887754Y-30895098D01*
X46880061Y-30850051D01*
X46874504Y-30804153D01*
X46871134Y-30757453D01*
X46870014Y-30710600D01*
X47068600Y-30710600D01*
X47069485Y-30747613D01*
X47072114Y-30784039D01*
X47076448Y-30819840D01*
X47082448Y-30854976D01*
X47090077Y-30889410D01*
X47099296Y-30923102D01*
X47110065Y-30956015D01*
X47122347Y-30988109D01*
X47136103Y-31019347D01*
X47151294Y-31049689D01*
X47167882Y-31079096D01*
X47185829Y-31107532D01*
X47205095Y-31134956D01*
X47225642Y-31161330D01*
X47247432Y-31186616D01*
X47270425Y-31210775D01*
X47294584Y-31233769D01*
X47319870Y-31255558D01*
X47346245Y-31276105D01*
X47373669Y-31295371D01*
X47402104Y-31313318D01*
X47431512Y-31329906D01*
X47461853Y-31345097D01*
X47493091Y-31358853D01*
X47525185Y-31371135D01*
X47558098Y-31381905D01*
X47591790Y-31391123D01*
X47626224Y-31398752D01*
X47661360Y-31404753D01*
X47697161Y-31409087D01*
X47733587Y-31411715D01*
X47770600Y-31412600D01*
X47807613Y-31411715D01*
X47844039Y-31409087D01*
X47879840Y-31404753D01*
X47914976Y-31398752D01*
X47949410Y-31391123D01*
X47983102Y-31381905D01*
X48016015Y-31371135D01*
X48048109Y-31358853D01*
X48079347Y-31345097D01*
X48109689Y-31329906D01*
X48139096Y-31313318D01*
X48167532Y-31295371D01*
X48194956Y-31276105D01*
X48221330Y-31255558D01*
X48246616Y-31233769D01*
X48270775Y-31210775D01*
X48293769Y-31186616D01*
X48315558Y-31161330D01*
X48336105Y-31134956D01*
X48355371Y-31107532D01*
X48373318Y-31079096D01*
X48389906Y-31049689D01*
X48405097Y-31019347D01*
X48418853Y-30988109D01*
X48431135Y-30956015D01*
X48441905Y-30923102D01*
X48451123Y-30889410D01*
X48458752Y-30854976D01*
X48464753Y-30819840D01*
X48469087Y-30784039D01*
X48471715Y-30747613D01*
X48472600Y-30710600D01*
X48471715Y-30673587D01*
X48469087Y-30637161D01*
X48464753Y-30601360D01*
X48458752Y-30566224D01*
X48451123Y-30531790D01*
X48441905Y-30498098D01*
X48431135Y-30465185D01*
X48418853Y-30433091D01*
X48405097Y-30401853D01*
X48389906Y-30371511D01*
X48373318Y-30342104D01*
X48355371Y-30313668D01*
X48336105Y-30286244D01*
X48315558Y-30259870D01*
X48293769Y-30234584D01*
X48270775Y-30210425D01*
X48246616Y-30187431D01*
X48221330Y-30165642D01*
X48194956Y-30145095D01*
X48167532Y-30125829D01*
X48139096Y-30107882D01*
X48109689Y-30091294D01*
X48079347Y-30076103D01*
X48048109Y-30062347D01*
X48016015Y-30050065D01*
X47983102Y-30039295D01*
X47949410Y-30030077D01*
X47914976Y-30022448D01*
X47879840Y-30016447D01*
X47844039Y-30012114D01*
X47807613Y-30009485D01*
X47770600Y-30008600D01*
X47733587Y-30009485D01*
X47697161Y-30012114D01*
X47661360Y-30016447D01*
X47626224Y-30022448D01*
X47591790Y-30030077D01*
X47558098Y-30039295D01*
X47525185Y-30050065D01*
X47493091Y-30062347D01*
X47461853Y-30076103D01*
X47431512Y-30091294D01*
X47402104Y-30107882D01*
X47373669Y-30125829D01*
X47346245Y-30145095D01*
X47319870Y-30165642D01*
X47294584Y-30187431D01*
X47270425Y-30210425D01*
X47247432Y-30234584D01*
X47225642Y-30259870D01*
X47205095Y-30286244D01*
X47185829Y-30313668D01*
X47167882Y-30342104D01*
X47151294Y-30371511D01*
X47136103Y-30401853D01*
X47122347Y-30433091D01*
X47110065Y-30465185D01*
X47099296Y-30498098D01*
X47090077Y-30531790D01*
X47082448Y-30566224D01*
X47076448Y-30601360D01*
X47072114Y-30637161D01*
X47069485Y-30673587D01*
X47068600Y-30710600D01*
X46870014Y-30710600D01*
X46870000Y-30710000D01*
X46871134Y-30662547D01*
X46874504Y-30615847D01*
X46880061Y-30569949D01*
X46887754Y-30524902D01*
X46897534Y-30480757D01*
X46909353Y-30437561D01*
X46923160Y-30395365D01*
X46938906Y-30354219D01*
X46956542Y-30314171D01*
X46976018Y-30275271D01*
X46997285Y-30237569D01*
X47020293Y-30201113D01*
X47044993Y-30165954D01*
X47071335Y-30132141D01*
X47099271Y-30099723D01*
X47128750Y-30068750D01*
X47159723Y-30039271D01*
X47192141Y-30011335D01*
X47225954Y-29984993D01*
X47261113Y-29960293D01*
X47297569Y-29937285D01*
X47335271Y-29916018D01*
X47374171Y-29896542D01*
X47414219Y-29878906D01*
X47455365Y-29863160D01*
X47497561Y-29849353D01*
X47540757Y-29837534D01*
X47584902Y-29827754D01*
X47629949Y-29820061D01*
X47675847Y-29814504D01*
X47722547Y-29811134D01*
X47770000Y-29810000D01*
X47817453Y-29811134D01*
X47864153Y-29814504D01*
X47910051Y-29820061D01*
X47955098Y-29827754D01*
X47999243Y-29837534D01*
X48042439Y-29849353D01*
X48084635Y-29863160D01*
X48125781Y-29878906D01*
X48165829Y-29896542D01*
X48204729Y-29916018D01*
X48242431Y-29937285D01*
X48278887Y-29960293D01*
X48314046Y-29984993D01*
X48347859Y-30011335D01*
X48380277Y-30039271D01*
X48411250Y-30068750D01*
X48440729Y-30099723D01*
X48468665Y-30132141D01*
X48495007Y-30165954D01*
X48519707Y-30201113D01*
X48542715Y-30237569D01*
X48563982Y-30275271D01*
X48583458Y-30314171D01*
X48601094Y-30354219D01*
X48616840Y-30395365D01*
X48630647Y-30437561D01*
X48642466Y-30480757D01*
X48652246Y-30524902D01*
X48659939Y-30569949D01*
X48665496Y-30615847D01*
X48668866Y-30662547D01*
X48670000Y-30710000D01*
X48669986Y-30710600D01*
X48668866Y-30757453D01*
G37*
%TD.AperFunction*%
%TA.AperFunction,NonConductor*%
G36*
X53620000Y-30800000D02*
G01*
X52720000Y-30800000D01*
X52720000Y-30620000D01*
X53170000Y-30620000D01*
X53620000Y-30620000D01*
X53620000Y-30800000D01*
G37*
%TD.AperFunction*%
%TA.AperFunction,NonConductor*%
G36*
X52330000Y-30800000D02*
G01*
X51310000Y-30800000D01*
X51310000Y-30620000D01*
X51820000Y-30620000D01*
X52330000Y-30620000D01*
X52330000Y-30800000D01*
G37*
%TD.AperFunction*%
%TA.AperFunction,NonConductor*%
G36*
X50500000Y-29810600D02*
G01*
X50545000Y-29813000D01*
X50588800Y-29817800D01*
X50633200Y-29825000D01*
X50677000Y-29834000D01*
X50720200Y-29845400D01*
X50762800Y-29859200D01*
X50804200Y-29874800D01*
X50845600Y-29892200D01*
X50885200Y-29912000D01*
X50924800Y-29933600D01*
X50962600Y-29957000D01*
X50999200Y-29982200D01*
X51034600Y-30009200D01*
X51068800Y-30038600D01*
X51101200Y-30068600D01*
X51132400Y-30101000D01*
X51161800Y-30134600D01*
X51189400Y-30169400D01*
X51215200Y-30206000D01*
X51239200Y-30243200D01*
X51260800Y-30282200D01*
X51281200Y-30321800D01*
X51299800Y-30362600D01*
X51316000Y-30404000D01*
X51329800Y-30447200D01*
X51341800Y-30489800D01*
X51352000Y-30533600D01*
X51359200Y-30577400D01*
X51365200Y-30621800D01*
X51368200Y-30666200D01*
X51369400Y-30710600D01*
X51368200Y-30755600D01*
X51365200Y-30800000D01*
X51359200Y-30844400D01*
X51351400Y-30888200D01*
X51341800Y-30931400D01*
X51329800Y-30974600D01*
X51315400Y-31016600D01*
X51299200Y-31058000D01*
X51281200Y-31098800D01*
X51260800Y-31138400D01*
X51238000Y-31176800D01*
X51214000Y-31214600D01*
X51188200Y-31251200D01*
X51160000Y-31286000D01*
X51130600Y-31319600D01*
X51100000Y-31351400D01*
X51067000Y-31382000D01*
X51033400Y-31410800D01*
X50997400Y-31437800D01*
X50960800Y-31463000D01*
X50923000Y-31486400D01*
X50884000Y-31508000D01*
X50843800Y-31527800D01*
X50803000Y-31545200D01*
X50761000Y-31560800D01*
X50718400Y-31573400D01*
X50675200Y-31584800D01*
X50631400Y-31593800D01*
X50587600Y-31601000D01*
X50543200Y-31605800D01*
X50498200Y-31608200D01*
X50453800Y-31608800D01*
X50409400Y-31607000D01*
X50365000Y-31602800D01*
X50320600Y-31596200D01*
X50276800Y-31587800D01*
X50233600Y-31577600D01*
X50191000Y-31564400D01*
X50149001Y-31548800D01*
X50107600Y-31532000D01*
X50066800Y-31513400D01*
X50027800Y-31492400D01*
X49989400Y-31469600D01*
X49952200Y-31444400D01*
X49916200Y-31418000D01*
X49882000Y-31389800D01*
X49849001Y-31359800D01*
X49817200Y-31328000D01*
X49787200Y-31295000D01*
X49759001Y-31260800D01*
X49732600Y-31224800D01*
X49893400Y-31112600D01*
X49913201Y-31140800D01*
X49935400Y-31167800D01*
X49958800Y-31193600D01*
X49983400Y-31218800D01*
X50009801Y-31242200D01*
X50036800Y-31264400D01*
X50065000Y-31284800D01*
X50093800Y-31304600D01*
X50123800Y-31322600D01*
X50155000Y-31338800D01*
X50186200Y-31354400D01*
X50218600Y-31367600D01*
X50251600Y-31379000D01*
X50285200Y-31389200D01*
X50319400Y-31397600D01*
X50353600Y-31404200D01*
X50388400Y-31409000D01*
X50423200Y-31412000D01*
X50458000Y-31413800D01*
X50492800Y-31413200D01*
X50528200Y-31411400D01*
X50563000Y-31407800D01*
X50597200Y-31402400D01*
X50631400Y-31395200D01*
X50665600Y-31386200D01*
X50698600Y-31375400D01*
X50731600Y-31363400D01*
X50763400Y-31350200D01*
X50795200Y-31335200D01*
X50825800Y-31317800D01*
X50855800Y-31299800D01*
X50884600Y-31280000D01*
X50912200Y-31258400D01*
X50938600Y-31236200D01*
X50964400Y-31212200D01*
X50988400Y-31187000D01*
X51011800Y-31160600D01*
X51034000Y-31133000D01*
X51054400Y-31104800D01*
X51073000Y-31075400D01*
X51090400Y-31044800D01*
X51106600Y-31013600D01*
X51121000Y-30981800D01*
X51133600Y-30949400D01*
X51144400Y-30915800D01*
X51154000Y-30882200D01*
X51161800Y-30848000D01*
X51167800Y-30813800D01*
X51172000Y-30779000D01*
X51175000Y-30744200D01*
X51175600Y-30709400D01*
X51175000Y-30674000D01*
X51172000Y-30639200D01*
X51167800Y-30604400D01*
X51161800Y-30570200D01*
X51154000Y-30536000D01*
X51144400Y-30502400D01*
X51133600Y-30469400D01*
X51120400Y-30436400D01*
X51106600Y-30404600D01*
X51090400Y-30373400D01*
X51073000Y-30343400D01*
X51054400Y-30314000D01*
X51034000Y-30285200D01*
X51012400Y-30258200D01*
X50989600Y-30231800D01*
X50965000Y-30206600D01*
X50939800Y-30182600D01*
X50912800Y-30159800D01*
X50885200Y-30138800D01*
X50856400Y-30119000D01*
X50826400Y-30100400D01*
X50795800Y-30083600D01*
X50764600Y-30068600D01*
X50732200Y-30054200D01*
X50699800Y-30041600D01*
X50666200Y-30031400D01*
X50632600Y-30022400D01*
X50598400Y-30015200D01*
X50563600Y-30009800D01*
X50528800Y-30006200D01*
X50494000Y-30004400D01*
X50458600Y-30003800D01*
X50423800Y-30005600D01*
X50389000Y-30008600D01*
X50354200Y-30013400D01*
X50320000Y-30020000D01*
X50286400Y-30028400D01*
X50252800Y-30038600D01*
X50219801Y-30050000D01*
X50187401Y-30063800D01*
X50155601Y-30077600D01*
X50125000Y-30094400D01*
X50094400Y-30112400D01*
X50065601Y-30131600D01*
X50037401Y-30152600D01*
X50010400Y-30174800D01*
X49984600Y-30198200D01*
X49960000Y-30222800D01*
X49936600Y-30248600D01*
X49914400Y-30276200D01*
X49892800Y-30303800D01*
X49733800Y-30192800D01*
X49760800Y-30156800D01*
X49789001Y-30122000D01*
X49819001Y-30089000D01*
X49850200Y-30057200D01*
X49883201Y-30027800D01*
X49918000Y-29999000D01*
X49954001Y-29972600D01*
X49991200Y-29948000D01*
X50029001Y-29925200D01*
X50068600Y-29904200D01*
X50108800Y-29885000D01*
X50150200Y-29868200D01*
X50192200Y-29853800D01*
X50235400Y-29841200D01*
X50278600Y-29831000D01*
X50322400Y-29822600D01*
X50366800Y-29816000D01*
X50411200Y-29811800D01*
X50455600Y-29810000D01*
X50500000Y-29810600D01*
G37*
%TD.AperFunction*%
%TA.AperFunction,NonConductor*%
G36*
X50492708Y-30291131D02*
G01*
X50514466Y-30292706D01*
X50535850Y-30295305D01*
X50556839Y-30298902D01*
X50577408Y-30303474D01*
X50597535Y-30308999D01*
X50617196Y-30315453D01*
X50636369Y-30322813D01*
X50655031Y-30331055D01*
X50673157Y-30340156D01*
X50690727Y-30350093D01*
X50707715Y-30360842D01*
X50724100Y-30372381D01*
X50739858Y-30384686D01*
X50754966Y-30397733D01*
X50769400Y-30411500D01*
X50783139Y-30425963D01*
X50796159Y-30441099D01*
X50808436Y-30456884D01*
X50819948Y-30473295D01*
X50830672Y-30490310D01*
X50840584Y-30507904D01*
X50849662Y-30526054D01*
X50857882Y-30544738D01*
X50865221Y-30563931D01*
X50871657Y-30583610D01*
X50877166Y-30603753D01*
X50881725Y-30624336D01*
X50885311Y-30645335D01*
X50887901Y-30666728D01*
X50889472Y-30688491D01*
X50890000Y-30710600D01*
X50889472Y-30732708D01*
X50887901Y-30754465D01*
X50885311Y-30775850D01*
X50881725Y-30796838D01*
X50877166Y-30817407D01*
X50871657Y-30837534D01*
X50865221Y-30857196D01*
X50857882Y-30876369D01*
X50849662Y-30895030D01*
X50840584Y-30913157D01*
X50830672Y-30930726D01*
X50819948Y-30947715D01*
X50808436Y-30964100D01*
X50796159Y-30979857D01*
X50783139Y-30994965D01*
X50769400Y-31009400D01*
X50754966Y-31023139D01*
X50739858Y-31036158D01*
X50724100Y-31048436D01*
X50707715Y-31059948D01*
X50690727Y-31070671D01*
X50673157Y-31080583D01*
X50655031Y-31089661D01*
X50636369Y-31097881D01*
X50617196Y-31105221D01*
X50597535Y-31111656D01*
X50577408Y-31117165D01*
X50556839Y-31121724D01*
X50535850Y-31125310D01*
X50514466Y-31127900D01*
X50492708Y-31129471D01*
X50470600Y-31130000D01*
X50448491Y-31129471D01*
X50426728Y-31127900D01*
X50405336Y-31125310D01*
X50384336Y-31121724D01*
X50363754Y-31117165D01*
X50343611Y-31111656D01*
X50323931Y-31105221D01*
X50304738Y-31097881D01*
X50286055Y-31089661D01*
X50267904Y-31080583D01*
X50250310Y-31070671D01*
X50233296Y-31059948D01*
X50216884Y-31048436D01*
X50201099Y-31036158D01*
X50185963Y-31023139D01*
X50171500Y-31009400D01*
X50157734Y-30994965D01*
X50144686Y-30979857D01*
X50132382Y-30964100D01*
X50120843Y-30947715D01*
X50110093Y-30930726D01*
X50100156Y-30913157D01*
X50091055Y-30895030D01*
X50082813Y-30876369D01*
X50075453Y-30857196D01*
X50069000Y-30837534D01*
X50063475Y-30817407D01*
X50058902Y-30796838D01*
X50055305Y-30775850D01*
X50052707Y-30754465D01*
X50051131Y-30732708D01*
X50050601Y-30710600D01*
X50051131Y-30688491D01*
X50052707Y-30666728D01*
X50055305Y-30645335D01*
X50058902Y-30624336D01*
X50063475Y-30603753D01*
X50069000Y-30583610D01*
X50075453Y-30563931D01*
X50082813Y-30544738D01*
X50091055Y-30526054D01*
X50100156Y-30507904D01*
X50110093Y-30490310D01*
X50120843Y-30473295D01*
X50132382Y-30456884D01*
X50144686Y-30441099D01*
X50157734Y-30425963D01*
X50171500Y-30411500D01*
X50185963Y-30397733D01*
X50201099Y-30384686D01*
X50216884Y-30372381D01*
X50233296Y-30360842D01*
X50250310Y-30350093D01*
X50267904Y-30340156D01*
X50286055Y-30331055D01*
X50304738Y-30322813D01*
X50323931Y-30315453D01*
X50343611Y-30308999D01*
X50363754Y-30303474D01*
X50384336Y-30298902D01*
X50405336Y-30295305D01*
X50426728Y-30292706D01*
X50448491Y-30291131D01*
X50470600Y-30290600D01*
X50492708Y-30291131D01*
G37*
%TD.AperFunction*%
D11*
G36*
X77872556Y-80784438D02*
G01*
X77357864Y-80784438D01*
X77238646Y-80724829D01*
X77189308Y-80675489D01*
X77129699Y-80556271D01*
X77129699Y-80364984D01*
X77189308Y-80245765D01*
X77228209Y-80206864D01*
X77438346Y-80136819D01*
X77872556Y-80136819D01*
X77872556Y-80784438D01*
G37*
G36*
X77872556Y-79736819D02*
G01*
X77453102Y-79736819D01*
X77333884Y-79677209D01*
X77284546Y-79627871D01*
X77224937Y-79508652D01*
X77224937Y-79412603D01*
X77284546Y-79293384D01*
X77333884Y-79244047D01*
X77453102Y-79184438D01*
X77872556Y-79184438D01*
X77872556Y-79736819D01*
G37*
G36*
X79604594Y-80213009D02*
G01*
X79207185Y-80213009D01*
X79405889Y-79616894D01*
X79604594Y-80213009D01*
G37*
G36*
X79110652Y-76612169D02*
G01*
X78595960Y-76612169D01*
X78476742Y-76552560D01*
X78427404Y-76503220D01*
X78367795Y-76384002D01*
X78367795Y-76192715D01*
X78427404Y-76073496D01*
X78476742Y-76024159D01*
X78595960Y-75964550D01*
X79110652Y-75964550D01*
X79110652Y-76612169D01*
G37*
G36*
X77110652Y-76612169D02*
G01*
X76595960Y-76612169D01*
X76476742Y-76552560D01*
X76427404Y-76503220D01*
X76367795Y-76384002D01*
X76367795Y-76192715D01*
X76427404Y-76073496D01*
X76476742Y-76024159D01*
X76595960Y-75964550D01*
X77110652Y-75964550D01*
X77110652Y-76612169D01*
G37*
G36*
X81110652Y-76612169D02*
G01*
X80595960Y-76612169D01*
X80476742Y-76552560D01*
X80427404Y-76503220D01*
X80367795Y-76384002D01*
X80367795Y-76192715D01*
X80427404Y-76073496D01*
X80476742Y-76024159D01*
X80595960Y-75964550D01*
X81110652Y-75964550D01*
X81110652Y-76612169D01*
G37*
G36*
X81110652Y-74344662D02*
G01*
X80595960Y-74344662D01*
X80476742Y-74285053D01*
X80427404Y-74235713D01*
X80367795Y-74116495D01*
X80367795Y-73925208D01*
X80427404Y-73805989D01*
X80466305Y-73767088D01*
X80676442Y-73697043D01*
X81110652Y-73697043D01*
X81110652Y-74344662D01*
G37*
G36*
X81110652Y-73297043D02*
G01*
X80691198Y-73297043D01*
X80571980Y-73237433D01*
X80522642Y-73188095D01*
X80463033Y-73068876D01*
X80463033Y-72972827D01*
X80522642Y-72853608D01*
X80571980Y-72804271D01*
X80691198Y-72744662D01*
X81110652Y-72744662D01*
X81110652Y-73297043D01*
G37*
G36*
X79110652Y-73392281D02*
G01*
X78595960Y-73392281D01*
X78476742Y-73332672D01*
X78427404Y-73283332D01*
X78367795Y-73164114D01*
X78367795Y-72972827D01*
X78427404Y-72853608D01*
X78476742Y-72804271D01*
X78595960Y-72744662D01*
X79110652Y-72744662D01*
X79110652Y-73392281D01*
G37*
G36*
X82014745Y-81406660D02*
G01*
X75745573Y-81406660D01*
X75745573Y-80317771D01*
X76729699Y-80317771D01*
X76729699Y-80603485D01*
X76733542Y-80642503D01*
X76736291Y-80649140D01*
X76736801Y-80656310D01*
X76750814Y-80692928D01*
X76846052Y-80883404D01*
X76856623Y-80900197D01*
X76858643Y-80905074D01*
X76863149Y-80910565D01*
X76866938Y-80916584D01*
X76870929Y-80920045D01*
X76883515Y-80935382D01*
X76978753Y-81030621D01*
X76994092Y-81043210D01*
X76997552Y-81047199D01*
X77003563Y-81050983D01*
X77009060Y-81055494D01*
X77013942Y-81057516D01*
X77030732Y-81068085D01*
X77221209Y-81163324D01*
X77257826Y-81177336D01*
X77264995Y-81177845D01*
X77271633Y-81180595D01*
X77310651Y-81184438D01*
X78072556Y-81184438D01*
X78111574Y-81180595D01*
X78183670Y-81150732D01*
X78238850Y-81095552D01*
X78268713Y-81023456D01*
X78272556Y-80984438D01*
X78272556Y-80959423D01*
X78540794Y-80959423D01*
X78546325Y-81037263D01*
X78581224Y-81107061D01*
X78640177Y-81158190D01*
X78714208Y-81182867D01*
X78792048Y-81177336D01*
X78861846Y-81142437D01*
X78912975Y-81083484D01*
X78928960Y-81047684D01*
X79073852Y-80613009D01*
X79737928Y-80613009D01*
X79882819Y-81047684D01*
X79898804Y-81083484D01*
X79949933Y-81142437D01*
X80019731Y-81177336D01*
X80097571Y-81182868D01*
X80171602Y-81158190D01*
X80230555Y-81107061D01*
X80265454Y-81037263D01*
X80270985Y-80959424D01*
X80262293Y-80921193D01*
X79603703Y-78945420D01*
X80257352Y-78945420D01*
X80257352Y-79023456D01*
X80287215Y-79095552D01*
X80342395Y-79150732D01*
X80414491Y-79180595D01*
X80453509Y-79184438D01*
X80824938Y-79184438D01*
X80824938Y-80984438D01*
X80828781Y-81023456D01*
X80858644Y-81095552D01*
X80913824Y-81150732D01*
X80985920Y-81180595D01*
X81063956Y-81180595D01*
X81136052Y-81150732D01*
X81191232Y-81095552D01*
X81221095Y-81023456D01*
X81224938Y-80984438D01*
X81224938Y-79184438D01*
X81596366Y-79184438D01*
X81635384Y-79180595D01*
X81707480Y-79150732D01*
X81762660Y-79095552D01*
X81792523Y-79023456D01*
X81792523Y-78945420D01*
X81762660Y-78873324D01*
X81707480Y-78818144D01*
X81635384Y-78788281D01*
X81596366Y-78784438D01*
X80453509Y-78784438D01*
X80414491Y-78788281D01*
X80342395Y-78818144D01*
X80287215Y-78873324D01*
X80257352Y-78945420D01*
X79603703Y-78945420D01*
X79595627Y-78921193D01*
X79579642Y-78885392D01*
X79570280Y-78874597D01*
X79563889Y-78861815D01*
X79544943Y-78845384D01*
X79528513Y-78826439D01*
X79515730Y-78820047D01*
X79504936Y-78810686D01*
X79481149Y-78802757D01*
X79458715Y-78791540D01*
X79444459Y-78790527D01*
X79430905Y-78786009D01*
X79405892Y-78787786D01*
X79380875Y-78786009D01*
X79367317Y-78790528D01*
X79353065Y-78791541D01*
X79330635Y-78802755D01*
X79306844Y-78810686D01*
X79296049Y-78820047D01*
X79283267Y-78826439D01*
X79266836Y-78845384D01*
X79247891Y-78861815D01*
X79241499Y-78874597D01*
X79232138Y-78885392D01*
X79216153Y-78921193D01*
X78549486Y-80921192D01*
X78540794Y-80959423D01*
X78272556Y-80959423D01*
X78272556Y-78984438D01*
X78268713Y-78945420D01*
X78238850Y-78873324D01*
X78183670Y-78818144D01*
X78111574Y-78788281D01*
X78072556Y-78784438D01*
X77405889Y-78784438D01*
X77366871Y-78788281D01*
X77360233Y-78791030D01*
X77353064Y-78791540D01*
X77316447Y-78805552D01*
X77125970Y-78900791D01*
X77109178Y-78911360D01*
X77104299Y-78913382D01*
X77098806Y-78917889D01*
X77092790Y-78921677D01*
X77089328Y-78925668D01*
X77073992Y-78938255D01*
X76978754Y-79033493D01*
X76966167Y-79048828D01*
X76962176Y-79052291D01*
X76958388Y-79058307D01*
X76953881Y-79063800D01*
X76951859Y-79068679D01*
X76941290Y-79085471D01*
X76846052Y-79275947D01*
X76832039Y-79312565D01*
X76831529Y-79319734D01*
X76828780Y-79326372D01*
X76824937Y-79365390D01*
X76824937Y-79555866D01*
X76828780Y-79594884D01*
X76831529Y-79601521D01*
X76832039Y-79608691D01*
X76846052Y-79645309D01*
X76941290Y-79835785D01*
X76951859Y-79852576D01*
X76953881Y-79857456D01*
X76958388Y-79862948D01*
X76962176Y-79868965D01*
X76966167Y-79872427D01*
X76978754Y-79887763D01*
X76980331Y-79889340D01*
X76978754Y-79890636D01*
X76883516Y-79985874D01*
X76870929Y-80001209D01*
X76866938Y-80004672D01*
X76863150Y-80010688D01*
X76858643Y-80016181D01*
X76856621Y-80021060D01*
X76846052Y-80037852D01*
X76750814Y-80228328D01*
X76736801Y-80264946D01*
X76736291Y-80272115D01*
X76733542Y-80278753D01*
X76729699Y-80317771D01*
X75745573Y-80317771D01*
X75745573Y-76145502D01*
X75967795Y-76145502D01*
X75967795Y-76431216D01*
X75971638Y-76470234D01*
X75974387Y-76476871D01*
X75974897Y-76484041D01*
X75988910Y-76520659D01*
X76084148Y-76711135D01*
X76094719Y-76727928D01*
X76096739Y-76732805D01*
X76101245Y-76738296D01*
X76105034Y-76744315D01*
X76109025Y-76747776D01*
X76121611Y-76763113D01*
X76216849Y-76858352D01*
X76232188Y-76870941D01*
X76235648Y-76874930D01*
X76241659Y-76878714D01*
X76247156Y-76883225D01*
X76252038Y-76885247D01*
X76268828Y-76895816D01*
X76459305Y-76991055D01*
X76495922Y-77005067D01*
X76503091Y-77005576D01*
X76509729Y-77008326D01*
X76548747Y-77012169D01*
X77110652Y-77012169D01*
X77110652Y-77764550D01*
X77114495Y-77803568D01*
X77144358Y-77875664D01*
X77199538Y-77930844D01*
X77271634Y-77960707D01*
X77349670Y-77960707D01*
X77421766Y-77930844D01*
X77476946Y-77875664D01*
X77506809Y-77803568D01*
X77510652Y-77764550D01*
X77510652Y-76145502D01*
X77967795Y-76145502D01*
X77967795Y-76431216D01*
X77971638Y-76470234D01*
X77974387Y-76476871D01*
X77974897Y-76484041D01*
X77988910Y-76520659D01*
X78084148Y-76711135D01*
X78094719Y-76727928D01*
X78096739Y-76732805D01*
X78101245Y-76738296D01*
X78105034Y-76744315D01*
X78109025Y-76747776D01*
X78121611Y-76763113D01*
X78216849Y-76858352D01*
X78232188Y-76870941D01*
X78235648Y-76874930D01*
X78241659Y-76878714D01*
X78247156Y-76883225D01*
X78252038Y-76885247D01*
X78268828Y-76895816D01*
X78459305Y-76991055D01*
X78463883Y-76992807D01*
X78003949Y-77649857D01*
X77984722Y-77684026D01*
X77967842Y-77760215D01*
X77981404Y-77837064D01*
X78023342Y-77902873D01*
X78087271Y-77947623D01*
X78163460Y-77964503D01*
X78240309Y-77950941D01*
X78306118Y-77909003D01*
X78331641Y-77879243D01*
X78938593Y-77012169D01*
X79110652Y-77012169D01*
X79110652Y-77764550D01*
X79114495Y-77803568D01*
X79144358Y-77875664D01*
X79199538Y-77930844D01*
X79271634Y-77960707D01*
X79349670Y-77960707D01*
X79421766Y-77930844D01*
X79476946Y-77875664D01*
X79506809Y-77803568D01*
X79510652Y-77764550D01*
X79510652Y-76145502D01*
X79967795Y-76145502D01*
X79967795Y-76431216D01*
X79971638Y-76470234D01*
X79974387Y-76476871D01*
X79974897Y-76484041D01*
X79988910Y-76520659D01*
X80084148Y-76711135D01*
X80094719Y-76727928D01*
X80096739Y-76732805D01*
X80101245Y-76738296D01*
X80105034Y-76744315D01*
X80109025Y-76747776D01*
X80121611Y-76763113D01*
X80216849Y-76858352D01*
X80232188Y-76870941D01*
X80235648Y-76874930D01*
X80241659Y-76878714D01*
X80247156Y-76883225D01*
X80252038Y-76885247D01*
X80268828Y-76895816D01*
X80459305Y-76991055D01*
X80495922Y-77005067D01*
X80503091Y-77005576D01*
X80509729Y-77008326D01*
X80548747Y-77012169D01*
X81110652Y-77012169D01*
X81110652Y-77764550D01*
X81114495Y-77803568D01*
X81144358Y-77875664D01*
X81199538Y-77930844D01*
X81271634Y-77960707D01*
X81349670Y-77960707D01*
X81421766Y-77930844D01*
X81476946Y-77875664D01*
X81506809Y-77803568D01*
X81510652Y-77764550D01*
X81510652Y-75764550D01*
X81506809Y-75725532D01*
X81476946Y-75653436D01*
X81421766Y-75598256D01*
X81349670Y-75568393D01*
X81310652Y-75564550D01*
X80548747Y-75564550D01*
X80509729Y-75568393D01*
X80503091Y-75571142D01*
X80495922Y-75571652D01*
X80459305Y-75585664D01*
X80268828Y-75680903D01*
X80252036Y-75691472D01*
X80247157Y-75693494D01*
X80241664Y-75698001D01*
X80235648Y-75701789D01*
X80232186Y-75705780D01*
X80216850Y-75718367D01*
X80121612Y-75813605D01*
X80109025Y-75828940D01*
X80105034Y-75832403D01*
X80101246Y-75838419D01*
X80096739Y-75843912D01*
X80094717Y-75848791D01*
X80084148Y-75865583D01*
X79988910Y-76056059D01*
X79974897Y-76092677D01*
X79974387Y-76099846D01*
X79971638Y-76106484D01*
X79967795Y-76145502D01*
X79510652Y-76145502D01*
X79510652Y-75764550D01*
X79506809Y-75725532D01*
X79476946Y-75653436D01*
X79421766Y-75598256D01*
X79349670Y-75568393D01*
X79310652Y-75564550D01*
X78548747Y-75564550D01*
X78509729Y-75568393D01*
X78503091Y-75571142D01*
X78495922Y-75571652D01*
X78459305Y-75585664D01*
X78268828Y-75680903D01*
X78252036Y-75691472D01*
X78247157Y-75693494D01*
X78241664Y-75698001D01*
X78235648Y-75701789D01*
X78232186Y-75705780D01*
X78216850Y-75718367D01*
X78121612Y-75813605D01*
X78109025Y-75828940D01*
X78105034Y-75832403D01*
X78101246Y-75838419D01*
X78096739Y-75843912D01*
X78094717Y-75848791D01*
X78084148Y-75865583D01*
X77988910Y-76056059D01*
X77974897Y-76092677D01*
X77974387Y-76099846D01*
X77971638Y-76106484D01*
X77967795Y-76145502D01*
X77510652Y-76145502D01*
X77510652Y-75764550D01*
X77506809Y-75725532D01*
X77476946Y-75653436D01*
X77421766Y-75598256D01*
X77349670Y-75568393D01*
X77310652Y-75564550D01*
X76548747Y-75564550D01*
X76509729Y-75568393D01*
X76503091Y-75571142D01*
X76495922Y-75571652D01*
X76459305Y-75585664D01*
X76268828Y-75680903D01*
X76252036Y-75691472D01*
X76247157Y-75693494D01*
X76241664Y-75698001D01*
X76235648Y-75701789D01*
X76232186Y-75705780D01*
X76216850Y-75718367D01*
X76121612Y-75813605D01*
X76109025Y-75828940D01*
X76105034Y-75832403D01*
X76101246Y-75838419D01*
X76096739Y-75843912D01*
X76094717Y-75848791D01*
X76084148Y-75865583D01*
X75988910Y-76056059D01*
X75974897Y-76092677D01*
X75974387Y-76099846D01*
X75971638Y-76106484D01*
X75967795Y-76145502D01*
X75745573Y-76145502D01*
X75745573Y-72696120D01*
X75971638Y-72696120D01*
X75971638Y-72774156D01*
X76001501Y-72846252D01*
X76056681Y-72901432D01*
X76128777Y-72931295D01*
X76206813Y-72931295D01*
X76278909Y-72901432D01*
X76309216Y-72876559D01*
X76371067Y-72814707D01*
X76581204Y-72744662D01*
X76706767Y-72744662D01*
X76916902Y-72814706D01*
X77051043Y-72948848D01*
X77121947Y-73090655D01*
X77205890Y-73426427D01*
X77205890Y-73662896D01*
X77121947Y-73998668D01*
X77051043Y-74140474D01*
X76916901Y-74274617D01*
X76706767Y-74344662D01*
X76581204Y-74344662D01*
X76371068Y-74274616D01*
X76309217Y-74212764D01*
X76278910Y-74187892D01*
X76206814Y-74158028D01*
X76128778Y-74158028D01*
X76056682Y-74187891D01*
X76001502Y-74243070D01*
X75971638Y-74315166D01*
X75971638Y-74393202D01*
X76001501Y-74465298D01*
X76026373Y-74495606D01*
X76121611Y-74590845D01*
X76151918Y-74615718D01*
X76158559Y-74618469D01*
X76163987Y-74623176D01*
X76199787Y-74639161D01*
X76485501Y-74734399D01*
X76504850Y-74738798D01*
X76509729Y-74740819D01*
X76516803Y-74741515D01*
X76523732Y-74743091D01*
X76528997Y-74742716D01*
X76548747Y-74744662D01*
X76739223Y-74744662D01*
X76758971Y-74742716D01*
X76764237Y-74743091D01*
X76771164Y-74741515D01*
X76778241Y-74740819D01*
X76783121Y-74738797D01*
X76802468Y-74734399D01*
X77088183Y-74639161D01*
X77123984Y-74623176D01*
X77129411Y-74618468D01*
X77136052Y-74615718D01*
X77166360Y-74590845D01*
X77356835Y-74400368D01*
X77369421Y-74385031D01*
X77373413Y-74381570D01*
X77377200Y-74375553D01*
X77381708Y-74370061D01*
X77383729Y-74365181D01*
X77394299Y-74348390D01*
X77489538Y-74157913D01*
X77490630Y-74155057D01*
X77491489Y-74153899D01*
X77497335Y-74137535D01*
X77503550Y-74121296D01*
X77503652Y-74119857D01*
X77504681Y-74116978D01*
X77599918Y-73736026D01*
X77600918Y-73729262D01*
X77602047Y-73726537D01*
X77603495Y-73711834D01*
X77605653Y-73697241D01*
X77605219Y-73694327D01*
X77605890Y-73687519D01*
X77605890Y-73401804D01*
X77605219Y-73394995D01*
X77605653Y-73392082D01*
X77603495Y-73377488D01*
X77602047Y-73362786D01*
X77600918Y-73360060D01*
X77599918Y-73353297D01*
X77504681Y-72972345D01*
X77503652Y-72969465D01*
X77503550Y-72968027D01*
X77497335Y-72951787D01*
X77491489Y-72935424D01*
X77490630Y-72934265D01*
X77489538Y-72931410D01*
X77486640Y-72925614D01*
X77967795Y-72925614D01*
X77967795Y-73211328D01*
X77971638Y-73250346D01*
X77974387Y-73256983D01*
X77974897Y-73264153D01*
X77988910Y-73300771D01*
X78084148Y-73491247D01*
X78094719Y-73508040D01*
X78096739Y-73512917D01*
X78101245Y-73518408D01*
X78105034Y-73524427D01*
X78109025Y-73527888D01*
X78121611Y-73543225D01*
X78216849Y-73638464D01*
X78232188Y-73651053D01*
X78235648Y-73655042D01*
X78241659Y-73658826D01*
X78247156Y-73663337D01*
X78252038Y-73665359D01*
X78268828Y-73675928D01*
X78459305Y-73771167D01*
X78495922Y-73785179D01*
X78503091Y-73785688D01*
X78509729Y-73788438D01*
X78548747Y-73792281D01*
X79110652Y-73792281D01*
X79110652Y-74544662D01*
X79114495Y-74583680D01*
X79144358Y-74655776D01*
X79199538Y-74710956D01*
X79271634Y-74740819D01*
X79349670Y-74740819D01*
X79421766Y-74710956D01*
X79476946Y-74655776D01*
X79506809Y-74583680D01*
X79510652Y-74544662D01*
X79510652Y-73877995D01*
X79967795Y-73877995D01*
X79967795Y-74163709D01*
X79971638Y-74202727D01*
X79974387Y-74209364D01*
X79974897Y-74216534D01*
X79988910Y-74253152D01*
X80084148Y-74443628D01*
X80094719Y-74460421D01*
X80096739Y-74465298D01*
X80101245Y-74470789D01*
X80105034Y-74476808D01*
X80109025Y-74480269D01*
X80121611Y-74495606D01*
X80216849Y-74590845D01*
X80232188Y-74603434D01*
X80235648Y-74607423D01*
X80241659Y-74611207D01*
X80247156Y-74615718D01*
X80252038Y-74617740D01*
X80268828Y-74628309D01*
X80459305Y-74723548D01*
X80495922Y-74737560D01*
X80503091Y-74738069D01*
X80509729Y-74740819D01*
X80548747Y-74744662D01*
X81310652Y-74744662D01*
X81349670Y-74740819D01*
X81421766Y-74710956D01*
X81476946Y-74655776D01*
X81506809Y-74583680D01*
X81510652Y-74544662D01*
X81510652Y-72544662D01*
X81506809Y-72505644D01*
X81476946Y-72433548D01*
X81421766Y-72378368D01*
X81349670Y-72348505D01*
X81310652Y-72344662D01*
X80643985Y-72344662D01*
X80604967Y-72348505D01*
X80598329Y-72351254D01*
X80591160Y-72351764D01*
X80554543Y-72365776D01*
X80364066Y-72461015D01*
X80347274Y-72471584D01*
X80342395Y-72473606D01*
X80336902Y-72478113D01*
X80330886Y-72481901D01*
X80327424Y-72485892D01*
X80312088Y-72498479D01*
X80216850Y-72593717D01*
X80204263Y-72609052D01*
X80200272Y-72612515D01*
X80196484Y-72618531D01*
X80191977Y-72624024D01*
X80189955Y-72628903D01*
X80179386Y-72645695D01*
X80084148Y-72836171D01*
X80070135Y-72872789D01*
X80069625Y-72879958D01*
X80066876Y-72886596D01*
X80063033Y-72925614D01*
X80063033Y-73116090D01*
X80066876Y-73155108D01*
X80069625Y-73161745D01*
X80070135Y-73168915D01*
X80084148Y-73205533D01*
X80179386Y-73396009D01*
X80189955Y-73412800D01*
X80191977Y-73417680D01*
X80196484Y-73423172D01*
X80200272Y-73429189D01*
X80204263Y-73432651D01*
X80216850Y-73447987D01*
X80218427Y-73449564D01*
X80216850Y-73450860D01*
X80121612Y-73546098D01*
X80109025Y-73561433D01*
X80105034Y-73564896D01*
X80101246Y-73570912D01*
X80096739Y-73576405D01*
X80094717Y-73581284D01*
X80084148Y-73598076D01*
X79988910Y-73788552D01*
X79974897Y-73825170D01*
X79974387Y-73832339D01*
X79971638Y-73838977D01*
X79967795Y-73877995D01*
X79510652Y-73877995D01*
X79510652Y-72544662D01*
X79506809Y-72505644D01*
X79476946Y-72433548D01*
X79421766Y-72378368D01*
X79349670Y-72348505D01*
X79310652Y-72344662D01*
X78548747Y-72344662D01*
X78509729Y-72348505D01*
X78503091Y-72351254D01*
X78495922Y-72351764D01*
X78459305Y-72365776D01*
X78268828Y-72461015D01*
X78252036Y-72471584D01*
X78247157Y-72473606D01*
X78241664Y-72478113D01*
X78235648Y-72481901D01*
X78232186Y-72485892D01*
X78216850Y-72498479D01*
X78121612Y-72593717D01*
X78109025Y-72609052D01*
X78105034Y-72612515D01*
X78101246Y-72618531D01*
X78096739Y-72624024D01*
X78094717Y-72628903D01*
X78084148Y-72645695D01*
X77988910Y-72836171D01*
X77974897Y-72872789D01*
X77974387Y-72879958D01*
X77971638Y-72886596D01*
X77967795Y-72925614D01*
X77486640Y-72925614D01*
X77394299Y-72740933D01*
X77383729Y-72724141D01*
X77381708Y-72719262D01*
X77377199Y-72713768D01*
X77373413Y-72707753D01*
X77369423Y-72704292D01*
X77356836Y-72688955D01*
X77166359Y-72498479D01*
X77136052Y-72473606D01*
X77129412Y-72470855D01*
X77123984Y-72466148D01*
X77088183Y-72450163D01*
X76802468Y-72354925D01*
X76783121Y-72350526D01*
X76778241Y-72348505D01*
X76771164Y-72347808D01*
X76764237Y-72346233D01*
X76758971Y-72346607D01*
X76739223Y-72344662D01*
X76548747Y-72344662D01*
X76528997Y-72346607D01*
X76523732Y-72346233D01*
X76516803Y-72347808D01*
X76509729Y-72348505D01*
X76504850Y-72350525D01*
X76485501Y-72354925D01*
X76199787Y-72450163D01*
X76163987Y-72466148D01*
X76158558Y-72470855D01*
X76151919Y-72473606D01*
X76121612Y-72498479D01*
X76026374Y-72593717D01*
X76001501Y-72624024D01*
X75971638Y-72696120D01*
X75745573Y-72696120D01*
X75745573Y-72122440D01*
X82014745Y-72122440D01*
X82014745Y-81406660D01*
G37*
G36*
X73359524Y-55462001D02*
G01*
X72844832Y-55462001D01*
X72725614Y-55402392D01*
X72676276Y-55353052D01*
X72616667Y-55233834D01*
X72616667Y-55042547D01*
X72676276Y-54923328D01*
X72725614Y-54873991D01*
X72844832Y-54814382D01*
X73359524Y-54814382D01*
X73359524Y-55462001D01*
G37*
G36*
X68155338Y-51654103D02*
G01*
X68283691Y-51782457D01*
X68359523Y-52085783D01*
X68359523Y-52703204D01*
X68283691Y-53006529D01*
X68155336Y-53134885D01*
X68036120Y-53194494D01*
X67749593Y-53194494D01*
X67630375Y-53134885D01*
X67502020Y-53006528D01*
X67426190Y-52703204D01*
X67426190Y-52085782D01*
X67502020Y-51782457D01*
X67630376Y-51654102D01*
X67749593Y-51594494D01*
X68036120Y-51594494D01*
X68155338Y-51654103D01*
G37*
G36*
X73981746Y-57036604D02*
G01*
X61423015Y-57036604D01*
X61423015Y-56042953D01*
X61645237Y-56042953D01*
X61645237Y-56233429D01*
X61649080Y-56272447D01*
X61651829Y-56279084D01*
X61652339Y-56286254D01*
X61666352Y-56322872D01*
X61761590Y-56513348D01*
X61772161Y-56530141D01*
X61774181Y-56535018D01*
X61778687Y-56540509D01*
X61782476Y-56546528D01*
X61786467Y-56549989D01*
X61799053Y-56565326D01*
X61894291Y-56660565D01*
X61909630Y-56673154D01*
X61913090Y-56677143D01*
X61919101Y-56680927D01*
X61924598Y-56685438D01*
X61929480Y-56687460D01*
X61946270Y-56698029D01*
X62136747Y-56793268D01*
X62173364Y-56807280D01*
X62180533Y-56807789D01*
X62187171Y-56810539D01*
X62226189Y-56814382D01*
X62702380Y-56814382D01*
X62722129Y-56812436D01*
X62727395Y-56812811D01*
X62734323Y-56811235D01*
X62741398Y-56810539D01*
X62746276Y-56808518D01*
X62765626Y-56804119D01*
X63051340Y-56708881D01*
X63087140Y-56692896D01*
X63146093Y-56641767D01*
X63180992Y-56571969D01*
X63186523Y-56494129D01*
X63161846Y-56420098D01*
X63110717Y-56361145D01*
X63040919Y-56326246D01*
X62963079Y-56320715D01*
X62924848Y-56329407D01*
X62669923Y-56414382D01*
X62273402Y-56414382D01*
X62154184Y-56354773D01*
X62104846Y-56305433D01*
X62045237Y-56186215D01*
X62045237Y-56090166D01*
X62104846Y-55970947D01*
X62154184Y-55921610D01*
X62295991Y-55850706D01*
X62655649Y-55760792D01*
X62658531Y-55759762D01*
X62659968Y-55759660D01*
X62676182Y-55753455D01*
X62692570Y-55747600D01*
X62693730Y-55746740D01*
X62696585Y-55745648D01*
X62887061Y-55650409D01*
X62903850Y-55639840D01*
X62908732Y-55637818D01*
X62914229Y-55633306D01*
X62920241Y-55629522D01*
X62923700Y-55625533D01*
X62939039Y-55612945D01*
X63034277Y-55517707D01*
X63046863Y-55502370D01*
X63050855Y-55498909D01*
X63054642Y-55492892D01*
X63059150Y-55487400D01*
X63061171Y-55482520D01*
X63071741Y-55465729D01*
X63166980Y-55275252D01*
X63180992Y-55238635D01*
X63181501Y-55231465D01*
X63184251Y-55224828D01*
X63188094Y-55185810D01*
X63188094Y-54995334D01*
X63184251Y-54956316D01*
X63181501Y-54949678D01*
X63180992Y-54942509D01*
X63166980Y-54905892D01*
X63071741Y-54715415D01*
X63061171Y-54698623D01*
X63059150Y-54693744D01*
X63054642Y-54688251D01*
X63050855Y-54682235D01*
X63046863Y-54678773D01*
X63034277Y-54663437D01*
X62946204Y-54575364D01*
X63553842Y-54575364D01*
X63553842Y-54653400D01*
X63583705Y-54725496D01*
X63638885Y-54780676D01*
X63710981Y-54810539D01*
X63749999Y-54814382D01*
X64502380Y-54814382D01*
X64502380Y-55366763D01*
X64035713Y-55366763D01*
X63996695Y-55370606D01*
X63924599Y-55400469D01*
X63869419Y-55455649D01*
X63839556Y-55527745D01*
X63839556Y-55605781D01*
X63869419Y-55677877D01*
X63924599Y-55733057D01*
X63996695Y-55762920D01*
X64035713Y-55766763D01*
X64502380Y-55766763D01*
X64502380Y-56414382D01*
X63749999Y-56414382D01*
X63710981Y-56418225D01*
X63638885Y-56448088D01*
X63583705Y-56503268D01*
X63553842Y-56575364D01*
X63553842Y-56653400D01*
X63583705Y-56725496D01*
X63638885Y-56780676D01*
X63710981Y-56810539D01*
X63749999Y-56814382D01*
X64702380Y-56814382D01*
X64741398Y-56810539D01*
X64813494Y-56780676D01*
X64868674Y-56725496D01*
X64898537Y-56653400D01*
X64902380Y-56614382D01*
X64902380Y-56575364D01*
X65172890Y-56575364D01*
X65172890Y-56653400D01*
X65202753Y-56725496D01*
X65257933Y-56780676D01*
X65330029Y-56810539D01*
X65369047Y-56814382D01*
X66321428Y-56814382D01*
X66360446Y-56810539D01*
X66432542Y-56780676D01*
X66487722Y-56725496D01*
X66517585Y-56653400D01*
X66521428Y-56614382D01*
X66521428Y-54614382D01*
X66517585Y-54575364D01*
X66982414Y-54575364D01*
X66982414Y-54653400D01*
X67012277Y-54725496D01*
X67067457Y-54780676D01*
X67139553Y-54810539D01*
X67178571Y-54814382D01*
X67930952Y-54814382D01*
X67930952Y-55366763D01*
X67464285Y-55366763D01*
X67425267Y-55370606D01*
X67353171Y-55400469D01*
X67297991Y-55455649D01*
X67268128Y-55527745D01*
X67268128Y-55605781D01*
X67297991Y-55677877D01*
X67353171Y-55733057D01*
X67425267Y-55762920D01*
X67464285Y-55766763D01*
X67930952Y-55766763D01*
X67930952Y-56414382D01*
X67178571Y-56414382D01*
X67139553Y-56418225D01*
X67067457Y-56448088D01*
X67012277Y-56503268D01*
X66982414Y-56575364D01*
X66982414Y-56653400D01*
X67012277Y-56725496D01*
X67067457Y-56780676D01*
X67139553Y-56810539D01*
X67178571Y-56814382D01*
X68130952Y-56814382D01*
X68169970Y-56810539D01*
X68242066Y-56780676D01*
X68297246Y-56725496D01*
X68327109Y-56653400D01*
X68330952Y-56614382D01*
X68330952Y-56575364D01*
X68601462Y-56575364D01*
X68601462Y-56653400D01*
X68631325Y-56725496D01*
X68686505Y-56780676D01*
X68758601Y-56810539D01*
X68797619Y-56814382D01*
X69750000Y-56814382D01*
X69789018Y-56810539D01*
X69861114Y-56780676D01*
X69916294Y-56725496D01*
X69946157Y-56653400D01*
X69950000Y-56614382D01*
X69950000Y-54614382D01*
X69946157Y-54575364D01*
X70410986Y-54575364D01*
X70410986Y-54653400D01*
X70440849Y-54725496D01*
X70496029Y-54780676D01*
X70568125Y-54810539D01*
X70607143Y-54814382D01*
X71359524Y-54814382D01*
X71359524Y-55366763D01*
X70892857Y-55366763D01*
X70853839Y-55370606D01*
X70781743Y-55400469D01*
X70726563Y-55455649D01*
X70696700Y-55527745D01*
X70696700Y-55605781D01*
X70726563Y-55677877D01*
X70781743Y-55733057D01*
X70853839Y-55762920D01*
X70892857Y-55766763D01*
X71359524Y-55766763D01*
X71359524Y-56414382D01*
X70607143Y-56414382D01*
X70568125Y-56418225D01*
X70496029Y-56448088D01*
X70440849Y-56503268D01*
X70410986Y-56575364D01*
X70410986Y-56653400D01*
X70440849Y-56725496D01*
X70496029Y-56780676D01*
X70568125Y-56810539D01*
X70607143Y-56814382D01*
X71559524Y-56814382D01*
X71598542Y-56810539D01*
X71670638Y-56780676D01*
X71725818Y-56725496D01*
X71755681Y-56653400D01*
X71759524Y-56614382D01*
X71759524Y-54995334D01*
X72216667Y-54995334D01*
X72216667Y-55281048D01*
X72220510Y-55320066D01*
X72223259Y-55326703D01*
X72223769Y-55333873D01*
X72237782Y-55370491D01*
X72333020Y-55560967D01*
X72343591Y-55577760D01*
X72345611Y-55582637D01*
X72350117Y-55588128D01*
X72353906Y-55594147D01*
X72357897Y-55597608D01*
X72370483Y-55612945D01*
X72465721Y-55708184D01*
X72481060Y-55720773D01*
X72484520Y-55724762D01*
X72490531Y-55728546D01*
X72496028Y-55733057D01*
X72500910Y-55735079D01*
X72517700Y-55745648D01*
X72708177Y-55840887D01*
X72744794Y-55854899D01*
X72751963Y-55855408D01*
X72758601Y-55858158D01*
X72797619Y-55862001D01*
X73359524Y-55862001D01*
X73359524Y-56614382D01*
X73363367Y-56653400D01*
X73393230Y-56725496D01*
X73448410Y-56780676D01*
X73520506Y-56810539D01*
X73598542Y-56810539D01*
X73670638Y-56780676D01*
X73725818Y-56725496D01*
X73755681Y-56653400D01*
X73759524Y-56614382D01*
X73759524Y-54614382D01*
X73755681Y-54575364D01*
X73725818Y-54503268D01*
X73670638Y-54448088D01*
X73598542Y-54418225D01*
X73559524Y-54414382D01*
X72797619Y-54414382D01*
X72758601Y-54418225D01*
X72751963Y-54420974D01*
X72744794Y-54421484D01*
X72708177Y-54435496D01*
X72517700Y-54530735D01*
X72500908Y-54541304D01*
X72496029Y-54543326D01*
X72490536Y-54547833D01*
X72484520Y-54551621D01*
X72481058Y-54555612D01*
X72465722Y-54568199D01*
X72370484Y-54663437D01*
X72357897Y-54678772D01*
X72353906Y-54682235D01*
X72350118Y-54688251D01*
X72345611Y-54693744D01*
X72343589Y-54698623D01*
X72333020Y-54715415D01*
X72237782Y-54905891D01*
X72223769Y-54942509D01*
X72223259Y-54949678D01*
X72220510Y-54956316D01*
X72216667Y-54995334D01*
X71759524Y-54995334D01*
X71759524Y-54614382D01*
X71755681Y-54575364D01*
X71725818Y-54503268D01*
X71670638Y-54448088D01*
X71598542Y-54418225D01*
X71559524Y-54414382D01*
X70607143Y-54414382D01*
X70568125Y-54418225D01*
X70496029Y-54448088D01*
X70440849Y-54503268D01*
X70410986Y-54575364D01*
X69946157Y-54575364D01*
X69916294Y-54503268D01*
X69861114Y-54448088D01*
X69789018Y-54418225D01*
X69710982Y-54418225D01*
X69638886Y-54448088D01*
X69583706Y-54503268D01*
X69553843Y-54575364D01*
X69550000Y-54614382D01*
X69550000Y-56414382D01*
X68797619Y-56414382D01*
X68758601Y-56418225D01*
X68686505Y-56448088D01*
X68631325Y-56503268D01*
X68601462Y-56575364D01*
X68330952Y-56575364D01*
X68330952Y-54614382D01*
X68327109Y-54575364D01*
X68297246Y-54503268D01*
X68242066Y-54448088D01*
X68169970Y-54418225D01*
X68130952Y-54414382D01*
X67178571Y-54414382D01*
X67139553Y-54418225D01*
X67067457Y-54448088D01*
X67012277Y-54503268D01*
X66982414Y-54575364D01*
X66517585Y-54575364D01*
X66487722Y-54503268D01*
X66432542Y-54448088D01*
X66360446Y-54418225D01*
X66282410Y-54418225D01*
X66210314Y-54448088D01*
X66155134Y-54503268D01*
X66125271Y-54575364D01*
X66121428Y-54614382D01*
X66121428Y-56414382D01*
X65369047Y-56414382D01*
X65330029Y-56418225D01*
X65257933Y-56448088D01*
X65202753Y-56503268D01*
X65172890Y-56575364D01*
X64902380Y-56575364D01*
X64902380Y-54614382D01*
X64898537Y-54575364D01*
X64868674Y-54503268D01*
X64813494Y-54448088D01*
X64741398Y-54418225D01*
X64702380Y-54414382D01*
X63749999Y-54414382D01*
X63710981Y-54418225D01*
X63638885Y-54448088D01*
X63583705Y-54503268D01*
X63553842Y-54575364D01*
X62946204Y-54575364D01*
X62939039Y-54568199D01*
X62923703Y-54555612D01*
X62920241Y-54551621D01*
X62914224Y-54547833D01*
X62908732Y-54543326D01*
X62903852Y-54541304D01*
X62887061Y-54530735D01*
X62696585Y-54435497D01*
X62659967Y-54421484D01*
X62652797Y-54420974D01*
X62646160Y-54418225D01*
X62607142Y-54414382D01*
X62130951Y-54414382D01*
X62111201Y-54416327D01*
X62105936Y-54415953D01*
X62099007Y-54417528D01*
X62091933Y-54418225D01*
X62087054Y-54420245D01*
X62067705Y-54424645D01*
X61781991Y-54519883D01*
X61746191Y-54535868D01*
X61687238Y-54586997D01*
X61652339Y-54656795D01*
X61646808Y-54734635D01*
X61671485Y-54808666D01*
X61722614Y-54867619D01*
X61792412Y-54902518D01*
X61870252Y-54908049D01*
X61908483Y-54899357D01*
X62163408Y-54814382D01*
X62559929Y-54814382D01*
X62679147Y-54873991D01*
X62728485Y-54923329D01*
X62788094Y-55042547D01*
X62788094Y-55138597D01*
X62728485Y-55257815D01*
X62679147Y-55307152D01*
X62537334Y-55378060D01*
X62177682Y-55467972D01*
X62174802Y-55469000D01*
X62173364Y-55469103D01*
X62157124Y-55475317D01*
X62140761Y-55481164D01*
X62139602Y-55482022D01*
X62136747Y-55483115D01*
X61946270Y-55578354D01*
X61929478Y-55588923D01*
X61924599Y-55590945D01*
X61919106Y-55595452D01*
X61913090Y-55599240D01*
X61909628Y-55603231D01*
X61894292Y-55615818D01*
X61799054Y-55711056D01*
X61786467Y-55726391D01*
X61782476Y-55729854D01*
X61778688Y-55735870D01*
X61774181Y-55741363D01*
X61772159Y-55746242D01*
X61761590Y-55763034D01*
X61666352Y-55953510D01*
X61652339Y-55990128D01*
X61651829Y-55997297D01*
X61649080Y-56003935D01*
X61645237Y-56042953D01*
X61423015Y-56042953D01*
X61423015Y-52823065D01*
X65121428Y-52823065D01*
X65121428Y-53013541D01*
X65125271Y-53052559D01*
X65128020Y-53059196D01*
X65128530Y-53066366D01*
X65142543Y-53102984D01*
X65237781Y-53293460D01*
X65248352Y-53310253D01*
X65250372Y-53315130D01*
X65254878Y-53320621D01*
X65258667Y-53326640D01*
X65262658Y-53330101D01*
X65275244Y-53345438D01*
X65370482Y-53440677D01*
X65385821Y-53453266D01*
X65389281Y-53457255D01*
X65395292Y-53461039D01*
X65400789Y-53465550D01*
X65405671Y-53467572D01*
X65422461Y-53478141D01*
X65612938Y-53573380D01*
X65649555Y-53587392D01*
X65656724Y-53587901D01*
X65663362Y-53590651D01*
X65702380Y-53594494D01*
X66178571Y-53594494D01*
X66198320Y-53592548D01*
X66203586Y-53592923D01*
X66210514Y-53591347D01*
X66217589Y-53590651D01*
X66222467Y-53588630D01*
X66241817Y-53584231D01*
X66527531Y-53488993D01*
X66563331Y-53473008D01*
X66622284Y-53421879D01*
X66657183Y-53352081D01*
X66662714Y-53274241D01*
X66638037Y-53200210D01*
X66586908Y-53141257D01*
X66517110Y-53106358D01*
X66439270Y-53100827D01*
X66401039Y-53109519D01*
X66146114Y-53194494D01*
X65749593Y-53194494D01*
X65630375Y-53134885D01*
X65581037Y-53085545D01*
X65521428Y-52966327D01*
X65521428Y-52870278D01*
X65581037Y-52751059D01*
X65630375Y-52701722D01*
X65772182Y-52630818D01*
X66131840Y-52540904D01*
X66134722Y-52539874D01*
X66136159Y-52539772D01*
X66152373Y-52533567D01*
X66168761Y-52527712D01*
X66169921Y-52526852D01*
X66172776Y-52525760D01*
X66363252Y-52430521D01*
X66380041Y-52419952D01*
X66384923Y-52417930D01*
X66390420Y-52413418D01*
X66396432Y-52409634D01*
X66399891Y-52405645D01*
X66415230Y-52393057D01*
X66510468Y-52297819D01*
X66523054Y-52282482D01*
X66527046Y-52279021D01*
X66530833Y-52273004D01*
X66535341Y-52267512D01*
X66537362Y-52262632D01*
X66547932Y-52245841D01*
X66640273Y-52061160D01*
X67026190Y-52061160D01*
X67026190Y-52727827D01*
X67026860Y-52734635D01*
X67026427Y-52737549D01*
X67028585Y-52752150D01*
X67030033Y-52766845D01*
X67031160Y-52769567D01*
X67032161Y-52776334D01*
X67127399Y-53157286D01*
X67140591Y-53194207D01*
X67149443Y-53206154D01*
X67155134Y-53219893D01*
X67180006Y-53250200D01*
X67370482Y-53440677D01*
X67385820Y-53453264D01*
X67389281Y-53457255D01*
X67395297Y-53461042D01*
X67400789Y-53465549D01*
X67405667Y-53467569D01*
X67422461Y-53478141D01*
X67612938Y-53573380D01*
X67649555Y-53587392D01*
X67656724Y-53587901D01*
X67663362Y-53590651D01*
X67702380Y-53594494D01*
X68083333Y-53594494D01*
X68122351Y-53590651D01*
X68128988Y-53587901D01*
X68136158Y-53587392D01*
X68172776Y-53573379D01*
X68363252Y-53478141D01*
X68380043Y-53467571D01*
X68384923Y-53465550D01*
X68390416Y-53461041D01*
X68396432Y-53457255D01*
X68399892Y-53453264D01*
X68415231Y-53440677D01*
X68500431Y-53355476D01*
X68934795Y-53355476D01*
X68934795Y-53433512D01*
X68964658Y-53505608D01*
X69019838Y-53560788D01*
X69091934Y-53590651D01*
X69130952Y-53594494D01*
X70083333Y-53594494D01*
X70122351Y-53590651D01*
X70194447Y-53560788D01*
X70249627Y-53505608D01*
X70279490Y-53433512D01*
X70283333Y-53394494D01*
X70283333Y-51394494D01*
X70279490Y-51355476D01*
X70249627Y-51283380D01*
X70194447Y-51228200D01*
X70122351Y-51198337D01*
X70044315Y-51198337D01*
X69972219Y-51228200D01*
X69917039Y-51283380D01*
X69887176Y-51355476D01*
X69883333Y-51394494D01*
X69883333Y-53194494D01*
X69130952Y-53194494D01*
X69091934Y-53198337D01*
X69019838Y-53228200D01*
X68964658Y-53283380D01*
X68934795Y-53355476D01*
X68500431Y-53355476D01*
X68605706Y-53250200D01*
X68630579Y-53219893D01*
X68636269Y-53206154D01*
X68645122Y-53194207D01*
X68658314Y-53157286D01*
X68753551Y-52776334D01*
X68754551Y-52769570D01*
X68755680Y-52766845D01*
X68757128Y-52752142D01*
X68759286Y-52737549D01*
X68758852Y-52734635D01*
X68759523Y-52727827D01*
X68759523Y-52061160D01*
X68758852Y-52054351D01*
X68759286Y-52051438D01*
X68757128Y-52036844D01*
X68755680Y-52022142D01*
X68754551Y-52019416D01*
X68753551Y-52012653D01*
X68658314Y-51631701D01*
X68645122Y-51594780D01*
X68636269Y-51582832D01*
X68630579Y-51569094D01*
X68605707Y-51538787D01*
X68415230Y-51348311D01*
X68399894Y-51335724D01*
X68396432Y-51331733D01*
X68390415Y-51327945D01*
X68384923Y-51323438D01*
X68380043Y-51321416D01*
X68363252Y-51310847D01*
X68172776Y-51215609D01*
X68136158Y-51201596D01*
X68128988Y-51201086D01*
X68122351Y-51198337D01*
X68083333Y-51194494D01*
X67702380Y-51194494D01*
X67663362Y-51198337D01*
X67656724Y-51201086D01*
X67649555Y-51201596D01*
X67612938Y-51215608D01*
X67422461Y-51310847D01*
X67405669Y-51321416D01*
X67400790Y-51323438D01*
X67395296Y-51327946D01*
X67389281Y-51331733D01*
X67385820Y-51335722D01*
X67370483Y-51348310D01*
X67180007Y-51538787D01*
X67155134Y-51569094D01*
X67149443Y-51582832D01*
X67140591Y-51594780D01*
X67127399Y-51631701D01*
X67032161Y-52012653D01*
X67031160Y-52019419D01*
X67030033Y-52022142D01*
X67028585Y-52036836D01*
X67026427Y-52051438D01*
X67026860Y-52054351D01*
X67026190Y-52061160D01*
X66640273Y-52061160D01*
X66643171Y-52055364D01*
X66657183Y-52018747D01*
X66657692Y-52011577D01*
X66660442Y-52004940D01*
X66664285Y-51965922D01*
X66664285Y-51775446D01*
X66660442Y-51736428D01*
X66657692Y-51729790D01*
X66657183Y-51722621D01*
X66643171Y-51686004D01*
X66547932Y-51495527D01*
X66537362Y-51478735D01*
X66535341Y-51473856D01*
X66530833Y-51468363D01*
X66527046Y-51462347D01*
X66523054Y-51458885D01*
X66510468Y-51443549D01*
X66415230Y-51348311D01*
X66399894Y-51335724D01*
X66396432Y-51331733D01*
X66390415Y-51327945D01*
X66384923Y-51323438D01*
X66380043Y-51321416D01*
X66363252Y-51310847D01*
X66172776Y-51215609D01*
X66136158Y-51201596D01*
X66128988Y-51201086D01*
X66122351Y-51198337D01*
X66083333Y-51194494D01*
X65607142Y-51194494D01*
X65587392Y-51196439D01*
X65582127Y-51196065D01*
X65575198Y-51197640D01*
X65568124Y-51198337D01*
X65563245Y-51200357D01*
X65543896Y-51204757D01*
X65258182Y-51299995D01*
X65222382Y-51315980D01*
X65163429Y-51367109D01*
X65128530Y-51436907D01*
X65122999Y-51514747D01*
X65147676Y-51588778D01*
X65198805Y-51647731D01*
X65268603Y-51682630D01*
X65346443Y-51688161D01*
X65384674Y-51679469D01*
X65639599Y-51594494D01*
X66036120Y-51594494D01*
X66155338Y-51654103D01*
X66204676Y-51703441D01*
X66264285Y-51822659D01*
X66264285Y-51918709D01*
X66204676Y-52037927D01*
X66155338Y-52087264D01*
X66013525Y-52158172D01*
X65653873Y-52248084D01*
X65650993Y-52249112D01*
X65649555Y-52249215D01*
X65633315Y-52255429D01*
X65616952Y-52261276D01*
X65615793Y-52262134D01*
X65612938Y-52263227D01*
X65422461Y-52358466D01*
X65405669Y-52369035D01*
X65400790Y-52371057D01*
X65395297Y-52375564D01*
X65389281Y-52379352D01*
X65385819Y-52383343D01*
X65370483Y-52395930D01*
X65275245Y-52491168D01*
X65262658Y-52506503D01*
X65258667Y-52509966D01*
X65254879Y-52515982D01*
X65250372Y-52521475D01*
X65248350Y-52526354D01*
X65237781Y-52543146D01*
X65142543Y-52733622D01*
X65128530Y-52770240D01*
X65128020Y-52777409D01*
X65125271Y-52784047D01*
X65121428Y-52823065D01*
X61423015Y-52823065D01*
X61423015Y-50972272D01*
X73981746Y-50972272D01*
X73981746Y-57036604D01*
G37*
D12*
%TO.P,J2,1*%
%TO.N,+24V*%
X50500000Y-40250000D03*
D13*
%TO.P,J2,2*%
%TO.N,GND*%
X50500000Y-34250000D03*
D14*
%TO.P,J2,3*%
%TO.N,N/C*%
X45800000Y-37250000D03*
%TD*%
D15*
%TO.P,L1,1*%
%TO.N,Net-(Q1-D)*%
X58500000Y-59590000D03*
D16*
%TO.P,L1,2*%
%TO.N,Net-(L1-Pad2)*%
X48340000Y-59590000D03*
%TO.P,L1,3*%
%TO.N,Net-(L1-Pad3)*%
X48340000Y-79910000D03*
%TO.P,L1,4*%
%TO.N,GND*%
X58500000Y-79910000D03*
%TD*%
%TO.P,C2,1*%
%TO.N,Net-(Q1-D)*%
X69800000Y-47800000D03*
%TO.P,C2,2*%
%TO.N,Net-(D1-A)*%
X54800000Y-47800000D03*
%TD*%
D17*
%TO.P,J3,1,Pin_1*%
%TO.N,Net-(J3-Pin_1)*%
X80115000Y-49000000D03*
D18*
%TO.P,J3,2,Pin_2*%
%TO.N,Net-(J3-Pin_2)*%
X80115000Y-51540000D03*
%TD*%
D19*
%TO.P,C1,1*%
%TO.N,+24V*%
X50200000Y-48000000D03*
%TO.P,C1,2*%
%TO.N,GND*%
X45200000Y-48000000D03*
%TD*%
%TO.P,R1,1*%
%TO.N,Net-(U1-A)*%
X67500000Y-39530000D03*
D20*
%TO.P,R1,2*%
%TO.N,Net-(J3-Pin_2)*%
X67500000Y-42070000D03*
%TD*%
D21*
%TO.P,C4,1*%
%TO.N,out*%
X66700000Y-61000000D03*
%TO.P,C4,2*%
%TO.N,GND*%
X74200000Y-61000000D03*
%TD*%
D22*
%TO.P,D1,1,K*%
%TO.N,out*%
X70810000Y-71000000D03*
D23*
%TO.P,D1,2,A*%
%TO.N,Net-(D1-A)*%
X63190000Y-71000000D03*
%TD*%
D19*
%TO.P,R2,1*%
%TO.N,PWM*%
X79870000Y-45250000D03*
D20*
%TO.P,R2,2*%
%TO.N,Net-(R2-Pad2)*%
X77330000Y-45250000D03*
%TD*%
D24*
%TO.P,J1,1,Pin_1*%
%TO.N,GND*%
X64465000Y-31827500D03*
D25*
%TO.P,J1,2,Pin_2*%
%TO.N,Net-(J1-Pin_2)*%
X59385000Y-31827500D03*
%TD*%
D26*
%TO.P,J4,1,Pin_1*%
%TO.N,out*%
X65500000Y-78500000D03*
D25*
%TO.P,J4,2,Pin_2*%
%TO.N,GND*%
X70580000Y-78500000D03*
%TD*%
D19*
%TO.P,C3,1*%
%TO.N,VCC*%
X73000000Y-30500000D03*
%TO.P,C3,2*%
%TO.N,GND*%
X78000000Y-30500000D03*
%TD*%
D27*
%TO.P,U1,1,NC*%
%TO.N,unconnected-(U1-NC-Pad1)*%
X71190000Y-33940000D03*
D19*
%TO.P,U1,2,A*%
%TO.N,Net-(U1-A)*%
X71190000Y-36480000D03*
%TO.P,U1,3,C*%
%TO.N,Net-(J3-Pin_1)*%
X71190000Y-39020000D03*
%TO.P,U1,4,NC*%
%TO.N,unconnected-(U1-NC-Pad4)*%
X71190000Y-41560000D03*
%TO.P,U1,5,VEE*%
%TO.N,GND*%
X78810000Y-41560000D03*
%TO.P,U1,6,VO*%
%TO.N,Net-(R2-Pad2)*%
X78810000Y-39020000D03*
%TO.P,U1,7,VO*%
X78810000Y-36480000D03*
%TO.P,U1,8,VCC*%
%TO.N,VCC*%
X78810000Y-33940000D03*
%TD*%
D28*
%TO.P,Q1,1,G*%
%TO.N,PWM*%
X80500000Y-56200000D03*
D29*
%TO.P,Q1,2,D*%
%TO.N,Net-(Q1-D)*%
X80500000Y-58740000D03*
%TO.P,Q1,3,S*%
%TO.N,GND*%
X80500000Y-61280000D03*
%TD*%
D30*
%TO.P,JP1,1,A*%
%TO.N,Net-(J1-Pin_2)*%
X60400000Y-40000000D03*
D31*
%TO.P,JP1,2,C*%
%TO.N,VCC*%
X61950000Y-40000000D03*
D32*
%TO.P,JP1,3,B*%
%TO.N,+24V*%
X63500000Y-40000000D03*
%TD*%
D33*
%TO.P,TP1,1,1*%
%TO.N,+24V*%
X49600000Y-51060000D03*
D25*
%TO.P,TP1,2,2*%
%TO.N,Net-(L1-Pad2)*%
X49600000Y-56140000D03*
%TD*%
D34*
%TO.P,TP2,1,1*%
%TO.N,Net-(D1-A)*%
X56740000Y-74600000D03*
D25*
%TO.P,TP2,2,2*%
%TO.N,Net-(L1-Pad3)*%
X51660000Y-74600000D03*
%TD*%
D35*
%TO.N,PWM*%
X81800000Y-54150000D02*
X80500000Y-55450000D01*
X79870000Y-45250000D02*
X81800000Y-47180000D01*
X80500000Y-55450000D02*
X80500000Y-56200000D01*
X81800000Y-47180000D02*
X81800000Y-54150000D01*
%TO.N,Net-(J1-Pin_2)*%
X60400000Y-40000000D02*
X60400000Y-32842500D01*
X60400000Y-32842500D02*
X59385000Y-31827500D01*
%TO.N,Net-(J3-Pin_1)*%
X72791000Y-40621000D02*
X71190000Y-39020000D01*
X80115000Y-49000000D02*
X76365844Y-49000000D01*
X72791000Y-45425156D02*
X72791000Y-40621000D01*
X76365844Y-49000000D02*
X72791000Y-45425156D01*
%TO.N,Net-(J3-Pin_2)*%
X76970000Y-51540000D02*
X80115000Y-51540000D01*
X67500000Y-42070000D02*
X76970000Y-51540000D01*
%TO.N,Net-(U1-A)*%
X68140000Y-39530000D02*
X71190000Y-36480000D01*
X67500000Y-39530000D02*
X68140000Y-39530000D01*
%TO.N,Net-(R2-Pad2)*%
X76530001Y-44450001D02*
X76530001Y-41299999D01*
X76530001Y-41299999D02*
X78810000Y-39020000D01*
X77330000Y-45250000D02*
X76530001Y-44450001D01*
X78810000Y-36480000D02*
X78810000Y-39020000D01*
%TD*%
%TA.AperFunction,Conductor*%
%TO.N,VCC*%
G36*
X73758026Y-29019528D02*
G01*
X73869254Y-29076202D01*
X73916864Y-29116864D01*
X74483136Y-29683136D01*
X74556512Y-29784130D01*
X74595088Y-29902855D01*
X74600000Y-29965272D01*
X74600000Y-32400000D01*
X79284728Y-32400000D01*
X79408026Y-32419528D01*
X79519254Y-32476202D01*
X79566864Y-32516864D01*
X80133136Y-33083136D01*
X80206512Y-33184130D01*
X80245088Y-33302855D01*
X80250000Y-33365272D01*
X80250000Y-34284728D01*
X80245088Y-34315741D01*
X80245088Y-34347146D01*
X80235384Y-34377010D01*
X80230472Y-34408026D01*
X80216214Y-34436008D01*
X80206511Y-34465871D01*
X80188054Y-34491273D01*
X80173798Y-34519254D01*
X80133135Y-34566864D01*
X79569664Y-35130334D01*
X79468671Y-35203710D01*
X79349946Y-35242286D01*
X79225111Y-35242286D01*
X79164235Y-35227671D01*
X79114532Y-35211522D01*
X78912358Y-35179500D01*
X78912352Y-35179500D01*
X78707648Y-35179500D01*
X78707641Y-35179500D01*
X78505467Y-35211522D01*
X78447146Y-35230472D01*
X78323849Y-35250000D01*
X72831343Y-35250000D01*
X72708045Y-35230472D01*
X72596817Y-35173798D01*
X72508545Y-35085526D01*
X72451871Y-34974298D01*
X72432343Y-34851000D01*
X72451871Y-34727702D01*
X72452596Y-34725495D01*
X72479998Y-34642799D01*
X72479999Y-34642797D01*
X72490500Y-34540009D01*
X72490499Y-33339992D01*
X72489251Y-33327773D01*
X72480000Y-33237205D01*
X72428946Y-33083136D01*
X72424814Y-33070666D01*
X72332712Y-32921344D01*
X72208656Y-32797288D01*
X72208655Y-32797287D01*
X72059333Y-32705185D01*
X72059331Y-32705184D01*
X71892799Y-32650001D01*
X71841403Y-32644750D01*
X71790009Y-32639500D01*
X71790007Y-32639500D01*
X70589993Y-32639500D01*
X70589973Y-32639502D01*
X70487205Y-32649999D01*
X70320667Y-32705185D01*
X70320666Y-32705185D01*
X70171344Y-32797287D01*
X70047287Y-32921344D01*
X69955185Y-33070666D01*
X69955184Y-33070668D01*
X69900001Y-33237200D01*
X69889500Y-33339988D01*
X69889500Y-34540006D01*
X69889502Y-34540026D01*
X69899999Y-34642791D01*
X69900001Y-34642797D01*
X69927404Y-34725495D01*
X69927405Y-34725496D01*
X69947650Y-34848678D01*
X69928840Y-34972087D01*
X69872814Y-35083644D01*
X69785058Y-35172427D01*
X69674161Y-35229748D01*
X69609650Y-35240350D01*
X69600001Y-35250000D01*
X69600000Y-35250000D01*
X69600000Y-35250001D01*
X69600000Y-36434728D01*
X69580472Y-36558026D01*
X69523798Y-36669254D01*
X69483136Y-36716864D01*
X68916864Y-37283136D01*
X68815870Y-37356512D01*
X68697145Y-37395088D01*
X68634728Y-37400000D01*
X63450000Y-37400000D01*
X62600000Y-38250000D01*
X62600000Y-38250001D01*
X62600000Y-38351000D01*
X62580472Y-38474298D01*
X62523798Y-38585526D01*
X62435526Y-38673798D01*
X62416517Y-38683483D01*
X62350000Y-38750001D01*
X62350000Y-39601000D01*
X62330472Y-39724298D01*
X62273798Y-39835526D01*
X62185526Y-39923798D01*
X62074298Y-39980472D01*
X61951000Y-40000000D01*
X61949000Y-40000000D01*
X61825702Y-39980472D01*
X61714474Y-39923798D01*
X61626202Y-39835526D01*
X61569528Y-39724298D01*
X61550000Y-39601000D01*
X61550000Y-38750001D01*
X61482962Y-38682963D01*
X61464974Y-38673798D01*
X61376702Y-38585526D01*
X61320028Y-38474298D01*
X61300500Y-38351000D01*
X61300500Y-36264772D01*
X61320028Y-36141474D01*
X61376702Y-36030246D01*
X61417364Y-35982636D01*
X61883136Y-35516864D01*
X61984130Y-35443488D01*
X62102855Y-35404912D01*
X62165272Y-35400000D01*
X66199998Y-35400000D01*
X66200000Y-35400000D01*
X67800000Y-33800000D01*
X67800000Y-29965272D01*
X67819528Y-29841974D01*
X67876202Y-29730746D01*
X67916864Y-29683136D01*
X68483136Y-29116864D01*
X68584130Y-29043488D01*
X68702855Y-29004912D01*
X68765272Y-29000000D01*
X73634728Y-29000000D01*
X73758026Y-29019528D01*
G37*
%TD.AperFunction*%
%TD*%
%TA.AperFunction,NonConductor*%
G36*
X70747030Y-35268013D02*
G01*
X70765043Y-35311500D01*
X70747030Y-35354987D01*
X70730994Y-35365714D01*
X70731321Y-35366356D01*
X70560798Y-35453241D01*
X70407928Y-35564308D01*
X70407928Y-35564309D01*
X70274308Y-35697929D01*
X70216754Y-35777144D01*
X70176620Y-35801738D01*
X70130851Y-35790749D01*
X70106257Y-35750615D01*
X70105500Y-35740995D01*
X70105500Y-35587951D01*
X70123513Y-35544464D01*
X70129853Y-35538937D01*
X70144574Y-35527784D01*
X70232330Y-35439001D01*
X70242331Y-35428590D01*
X70324545Y-35310512D01*
X70337910Y-35283898D01*
X70373524Y-35253122D01*
X70392869Y-35250000D01*
X70703543Y-35250000D01*
X70747030Y-35268013D01*
G37*
%TD.AperFunction*%
%TA.AperFunction,NonConductor*%
G36*
X80231987Y-35269870D02*
G01*
X80250000Y-35313357D01*
X80250000Y-39688500D01*
X80231987Y-39731987D01*
X80188500Y-39750000D01*
X79884224Y-39750000D01*
X79840737Y-39731987D01*
X79822724Y-39688500D01*
X79834472Y-39652348D01*
X79834597Y-39652176D01*
X79836760Y-39649199D01*
X79922547Y-39480832D01*
X79980940Y-39301118D01*
X80010500Y-39114481D01*
X80010500Y-38925519D01*
X79980940Y-38738882D01*
X79922547Y-38559168D01*
X79836760Y-38390801D01*
X79725690Y-38237927D01*
X79628513Y-38140750D01*
X79610500Y-38097263D01*
X79610500Y-37402737D01*
X79628513Y-37359250D01*
X79725691Y-37262072D01*
X79725691Y-37262071D01*
X79836760Y-37109199D01*
X79922547Y-36940832D01*
X79980940Y-36761118D01*
X80010500Y-36574481D01*
X80010500Y-36385519D01*
X79980940Y-36198882D01*
X79922547Y-36019168D01*
X79836760Y-35850801D01*
X79836758Y-35850798D01*
X79733745Y-35709013D01*
X79722756Y-35663243D01*
X79747350Y-35623110D01*
X79754800Y-35618471D01*
X79760220Y-35615610D01*
X79765797Y-35612668D01*
X79765797Y-35612667D01*
X79765799Y-35612667D01*
X79866781Y-35539299D01*
X79866784Y-35539296D01*
X79866790Y-35539292D01*
X79927106Y-35487777D01*
X80145013Y-35269869D01*
X80188500Y-35251857D01*
X80231987Y-35269870D01*
G37*
%TD.AperFunction*%
%TA.AperFunction,NonConductor*%
G36*
X68527435Y-37923513D02*
G01*
X68545448Y-37967000D01*
X68527435Y-38010487D01*
X68098179Y-38439741D01*
X68054692Y-38457754D01*
X68026773Y-38451051D01*
X67997030Y-38435896D01*
X67960833Y-38417453D01*
X67781119Y-38359060D01*
X67781121Y-38359060D01*
X67594484Y-38329500D01*
X67594481Y-38329500D01*
X67405519Y-38329500D01*
X67405515Y-38329500D01*
X67218879Y-38359060D01*
X67039166Y-38417453D01*
X66870798Y-38503241D01*
X66717928Y-38614308D01*
X66717928Y-38614309D01*
X66717927Y-38614310D01*
X66584310Y-38747927D01*
X66584309Y-38747928D01*
X66584308Y-38747928D01*
X66473241Y-38900798D01*
X66387453Y-39069166D01*
X66329060Y-39248879D01*
X66299500Y-39435515D01*
X66299500Y-39624484D01*
X66329060Y-39811120D01*
X66387453Y-39990833D01*
X66473241Y-40159201D01*
X66584308Y-40312071D01*
X66717928Y-40445691D01*
X66850699Y-40542155D01*
X66870801Y-40556760D01*
X67039168Y-40642547D01*
X67218879Y-40700939D01*
X67218882Y-40700940D01*
X67405519Y-40730500D01*
X67405523Y-40730500D01*
X67594477Y-40730500D01*
X67594481Y-40730500D01*
X67781118Y-40700940D01*
X67960832Y-40642547D01*
X68129199Y-40556760D01*
X68282073Y-40445690D01*
X68415690Y-40312073D01*
X68436480Y-40283457D01*
X68462698Y-40262788D01*
X68509380Y-40243452D01*
X68519172Y-40239397D01*
X68519172Y-40239396D01*
X68519179Y-40239394D01*
X68584734Y-40195591D01*
X68650282Y-40151794D01*
X68650283Y-40151792D01*
X68650289Y-40151789D01*
X69884513Y-38917563D01*
X69928000Y-38899551D01*
X69971487Y-38917564D01*
X69989500Y-38961051D01*
X69989500Y-39114484D01*
X70019060Y-39301120D01*
X70077453Y-39480833D01*
X70163241Y-39649201D01*
X70274308Y-39802071D01*
X70407928Y-39935691D01*
X70560798Y-40046758D01*
X70560801Y-40046760D01*
X70729168Y-40132547D01*
X70908879Y-40190939D01*
X70908882Y-40190940D01*
X71095519Y-40220500D01*
X71232948Y-40220500D01*
X71276435Y-40238513D01*
X71292435Y-40254513D01*
X71310448Y-40298000D01*
X71292435Y-40341487D01*
X71248948Y-40359500D01*
X71095515Y-40359500D01*
X70908879Y-40389060D01*
X70729166Y-40447453D01*
X70560798Y-40533241D01*
X70407928Y-40644308D01*
X70407928Y-40644309D01*
X70407927Y-40644310D01*
X70274310Y-40777927D01*
X70274309Y-40777928D01*
X70274308Y-40777928D01*
X70163241Y-40930798D01*
X70077453Y-41099166D01*
X70019060Y-41278879D01*
X69989500Y-41465515D01*
X69989500Y-41654484D01*
X70019060Y-41841120D01*
X70077453Y-42020833D01*
X70163241Y-42189201D01*
X70274308Y-42342071D01*
X70407928Y-42475691D01*
X70560798Y-42586758D01*
X70560801Y-42586760D01*
X70729168Y-42672547D01*
X70908879Y-42730939D01*
X70908882Y-42730940D01*
X71095519Y-42760500D01*
X71095523Y-42760500D01*
X71284477Y-42760500D01*
X71284481Y-42760500D01*
X71471118Y-42730940D01*
X71650832Y-42672547D01*
X71819199Y-42586760D01*
X71892851Y-42533247D01*
X71938620Y-42522259D01*
X71978754Y-42546853D01*
X71990500Y-42583002D01*
X71990500Y-45279948D01*
X71972487Y-45323435D01*
X71929000Y-45341448D01*
X71885513Y-45323435D01*
X68718513Y-42156435D01*
X68700500Y-42112948D01*
X68700500Y-41975523D01*
X68700499Y-41975515D01*
X68670940Y-41788882D01*
X68612547Y-41609168D01*
X68526760Y-41440801D01*
X68415690Y-41287927D01*
X68282073Y-41154310D01*
X68282072Y-41154309D01*
X68282071Y-41154308D01*
X68129201Y-41043241D01*
X67960833Y-40957453D01*
X67781119Y-40899060D01*
X67781121Y-40899060D01*
X67594484Y-40869500D01*
X67594481Y-40869500D01*
X67405519Y-40869500D01*
X67405515Y-40869500D01*
X67218879Y-40899060D01*
X67039166Y-40957453D01*
X66870798Y-41043241D01*
X66717928Y-41154308D01*
X66717928Y-41154309D01*
X66717927Y-41154310D01*
X66584310Y-41287927D01*
X66584309Y-41287928D01*
X66584308Y-41287928D01*
X66473241Y-41440798D01*
X66387453Y-41609166D01*
X66329060Y-41788879D01*
X66299500Y-41975515D01*
X66299500Y-42164484D01*
X66329060Y-42351120D01*
X66387453Y-42530833D01*
X66473241Y-42699201D01*
X66584308Y-42852071D01*
X66584310Y-42852073D01*
X66717927Y-42985690D01*
X66717932Y-42985694D01*
X66718567Y-42986236D01*
X66718664Y-42986427D01*
X66719636Y-42987399D01*
X66719320Y-42987714D01*
X66739935Y-43028177D01*
X66725388Y-43072943D01*
X66683447Y-43094311D01*
X66678624Y-43094500D01*
X64925984Y-43094500D01*
X64870058Y-43100512D01*
X64824895Y-43087250D01*
X64802337Y-43045937D01*
X64801985Y-43039364D01*
X64801985Y-39323999D01*
X64790431Y-39216538D01*
X64781206Y-39174136D01*
X64779226Y-39165033D01*
X64745098Y-39062496D01*
X64667310Y-38941457D01*
X64667305Y-38941451D01*
X64667303Y-38941448D01*
X64621558Y-38888656D01*
X64621551Y-38888649D01*
X64512822Y-38794433D01*
X64381947Y-38734662D01*
X64314904Y-38714976D01*
X64172490Y-38694500D01*
X64172485Y-38694500D01*
X63119501Y-38694500D01*
X63076014Y-38676487D01*
X63058001Y-38633000D01*
X63060746Y-38614833D01*
X63077958Y-38559166D01*
X63079749Y-38553374D01*
X63089464Y-38492027D01*
X63106718Y-38458164D01*
X63641371Y-37923513D01*
X63684858Y-37905500D01*
X68483948Y-37905500D01*
X68527435Y-37923513D01*
G37*
%TD.AperFunction*%
%TA.AperFunction,NonConductor*%
G36*
X72030812Y-35268013D02*
G01*
X72042121Y-35283579D01*
X72058129Y-35314996D01*
X72064874Y-35327780D01*
X72064878Y-35327786D01*
X72151103Y-35442968D01*
X72239375Y-35531240D01*
X72249726Y-35541301D01*
X72367323Y-35624201D01*
X72367327Y-35624203D01*
X72367329Y-35624204D01*
X72478546Y-35680873D01*
X72484913Y-35684002D01*
X72491510Y-35687246D01*
X72491513Y-35687247D01*
X72491511Y-35687247D01*
X72596086Y-35719581D01*
X72628969Y-35729749D01*
X72752267Y-35749277D01*
X72752282Y-35749278D01*
X72752290Y-35749279D01*
X72831340Y-35755500D01*
X72831343Y-35755500D01*
X77731824Y-35755500D01*
X77775311Y-35773513D01*
X77793324Y-35817000D01*
X77784265Y-35849128D01*
X77783239Y-35850801D01*
X77697453Y-36019166D01*
X77639060Y-36198879D01*
X77609500Y-36385515D01*
X77609500Y-36574484D01*
X77639060Y-36761120D01*
X77697453Y-36940833D01*
X77783241Y-37109201D01*
X77894308Y-37262071D01*
X77991487Y-37359250D01*
X78009500Y-37402737D01*
X78009500Y-38097263D01*
X77991487Y-38140750D01*
X77894310Y-38237927D01*
X77894309Y-38237928D01*
X77894308Y-38237928D01*
X77783241Y-38390798D01*
X77697453Y-38559166D01*
X77639060Y-38738879D01*
X77609500Y-38925515D01*
X77609500Y-39062948D01*
X77591487Y-39106435D01*
X75908211Y-40789710D01*
X75908206Y-40789716D01*
X75820612Y-40920810D01*
X75820608Y-40920817D01*
X75760264Y-41066500D01*
X75760262Y-41066508D01*
X75729501Y-41221153D01*
X75729501Y-44528846D01*
X75760262Y-44683491D01*
X75760264Y-44683499D01*
X75820608Y-44829182D01*
X75820612Y-44829189D01*
X75908206Y-44960283D01*
X75908211Y-44960289D01*
X76111487Y-45163565D01*
X76129500Y-45207052D01*
X76129500Y-45344484D01*
X76159060Y-45531120D01*
X76217453Y-45710833D01*
X76303241Y-45879201D01*
X76414308Y-46032071D01*
X76414309Y-46032072D01*
X76414310Y-46032073D01*
X76547927Y-46165690D01*
X76700801Y-46276760D01*
X76869168Y-46362547D01*
X77048879Y-46420939D01*
X77048882Y-46420940D01*
X77235519Y-46450500D01*
X77235523Y-46450500D01*
X77424477Y-46450500D01*
X77424481Y-46450500D01*
X77611118Y-46420940D01*
X77790832Y-46362547D01*
X77959199Y-46276760D01*
X78112073Y-46165690D01*
X78245690Y-46032073D01*
X78356760Y-45879199D01*
X78442547Y-45710832D01*
X78500940Y-45531118D01*
X78530500Y-45344481D01*
X78530500Y-45155519D01*
X78500940Y-44968882D01*
X78442547Y-44789168D01*
X78356760Y-44620801D01*
X78356758Y-44620798D01*
X78245691Y-44467928D01*
X78112071Y-44334308D01*
X77959201Y-44223241D01*
X77790833Y-44137453D01*
X77611119Y-44079060D01*
X77611121Y-44079060D01*
X77424484Y-44049500D01*
X77424481Y-44049500D01*
X77392001Y-44049500D01*
X77348514Y-44031487D01*
X77330501Y-43988000D01*
X77330501Y-43061500D01*
X77348514Y-43018013D01*
X77392001Y-43000000D01*
X80250000Y-43000000D01*
X81162026Y-43000000D01*
X81205513Y-43018013D01*
X81481987Y-43294487D01*
X81500000Y-43337974D01*
X81500000Y-45599448D01*
X81481987Y-45642935D01*
X81438500Y-45660948D01*
X81395013Y-45642935D01*
X81088513Y-45336435D01*
X81070500Y-45292948D01*
X81070500Y-45155523D01*
X81070499Y-45155515D01*
X81040940Y-44968882D01*
X80982547Y-44789168D01*
X80896760Y-44620801D01*
X80896758Y-44620798D01*
X80785691Y-44467928D01*
X80652071Y-44334308D01*
X80499201Y-44223241D01*
X80330833Y-44137453D01*
X80151119Y-44079060D01*
X80151121Y-44079060D01*
X79964484Y-44049500D01*
X79964481Y-44049500D01*
X79775519Y-44049500D01*
X79775515Y-44049500D01*
X79588879Y-44079060D01*
X79409166Y-44137453D01*
X79240798Y-44223241D01*
X79087928Y-44334308D01*
X79087928Y-44334309D01*
X79087927Y-44334310D01*
X78954310Y-44467927D01*
X78954309Y-44467928D01*
X78954308Y-44467928D01*
X78843241Y-44620798D01*
X78757453Y-44789166D01*
X78699060Y-44968879D01*
X78669500Y-45155515D01*
X78669500Y-45344484D01*
X78699060Y-45531120D01*
X78757453Y-45710833D01*
X78843241Y-45879201D01*
X78954308Y-46032071D01*
X78954309Y-46032072D01*
X78954310Y-46032073D01*
X79087927Y-46165690D01*
X79240801Y-46276760D01*
X79409168Y-46362547D01*
X79588879Y-46420939D01*
X79588882Y-46420940D01*
X79775519Y-46450500D01*
X79912948Y-46450500D01*
X79956435Y-46468513D01*
X80981487Y-47493565D01*
X80999500Y-47537052D01*
X80999500Y-47688000D01*
X80981487Y-47731487D01*
X80938000Y-47749500D01*
X79233486Y-47749500D01*
X79233476Y-47749501D01*
X79139698Y-47764353D01*
X79026654Y-47821952D01*
X78936952Y-47911654D01*
X78879353Y-48024697D01*
X78864500Y-48118477D01*
X78864500Y-48138000D01*
X78846487Y-48181487D01*
X78803000Y-48199500D01*
X76722896Y-48199500D01*
X76679409Y-48181487D01*
X73609513Y-45111591D01*
X73591500Y-45068104D01*
X73591500Y-40542155D01*
X73591499Y-40542154D01*
X73588745Y-40528311D01*
X73560737Y-40387503D01*
X73500394Y-40241821D01*
X73500392Y-40241818D01*
X73500388Y-40241811D01*
X73412794Y-40110717D01*
X73412789Y-40110711D01*
X72408513Y-39106435D01*
X72390500Y-39062948D01*
X72390500Y-38925523D01*
X72390499Y-38925515D01*
X72389240Y-38917564D01*
X72360940Y-38738882D01*
X72302547Y-38559168D01*
X72216760Y-38390801D01*
X72105690Y-38237927D01*
X71972073Y-38104310D01*
X71972071Y-38104308D01*
X71819201Y-37993241D01*
X71650833Y-37907453D01*
X71471119Y-37849060D01*
X71471121Y-37849060D01*
X71284484Y-37819500D01*
X71284481Y-37819500D01*
X71131052Y-37819500D01*
X71087565Y-37801487D01*
X71069552Y-37758000D01*
X71087565Y-37714513D01*
X71103565Y-37698513D01*
X71147052Y-37680500D01*
X71284477Y-37680500D01*
X71284481Y-37680500D01*
X71471118Y-37650940D01*
X71650832Y-37592547D01*
X71819199Y-37506760D01*
X71972073Y-37395690D01*
X72105690Y-37262073D01*
X72216760Y-37109199D01*
X72302547Y-36940832D01*
X72360940Y-36761118D01*
X72390500Y-36574481D01*
X72390500Y-36385519D01*
X72360940Y-36198882D01*
X72302547Y-36019168D01*
X72216760Y-35850801D01*
X72216758Y-35850798D01*
X72105691Y-35697928D01*
X71972071Y-35564308D01*
X71819201Y-35453241D01*
X71648679Y-35366356D01*
X71649438Y-35364864D01*
X71619613Y-35334973D01*
X71619664Y-35287903D01*
X71652984Y-35254656D01*
X71676457Y-35250000D01*
X71987325Y-35250000D01*
X72030812Y-35268013D01*
G37*
%TD.AperFunction*%
%TA.AperFunction,NonConductor*%
G36*
X80981487Y-50268512D02*
G01*
X80999500Y-50311999D01*
X80999500Y-50516223D01*
X80981487Y-50559710D01*
X80938000Y-50577723D01*
X80901851Y-50565977D01*
X80770407Y-50470477D01*
X80595026Y-50381116D01*
X80575196Y-50374673D01*
X80562317Y-50370488D01*
X80526526Y-50339919D01*
X80522833Y-50292994D01*
X80553403Y-50257202D01*
X80581322Y-50250499D01*
X80938000Y-50250499D01*
X80981487Y-50268512D01*
G37*
%TD.AperFunction*%
%TA.AperFunction,NonConductor*%
G36*
X78846488Y-49818513D02*
G01*
X78864501Y-49862000D01*
X78864501Y-49881523D01*
X78879353Y-49975301D01*
X78879353Y-49975302D01*
X78879354Y-49975304D01*
X78936950Y-50088342D01*
X78936952Y-50088345D01*
X79026654Y-50178047D01*
X79026656Y-50178048D01*
X79026658Y-50178050D01*
X79139696Y-50235646D01*
X79233481Y-50250500D01*
X79648675Y-50250499D01*
X79692161Y-50268512D01*
X79710174Y-50311999D01*
X79692161Y-50355486D01*
X79667680Y-50370488D01*
X79634980Y-50381113D01*
X79634974Y-50381116D01*
X79459592Y-50470477D01*
X79300355Y-50586170D01*
X79165038Y-50721487D01*
X79121551Y-50739500D01*
X77327052Y-50739500D01*
X77283565Y-50721487D01*
X76467565Y-49905487D01*
X76449552Y-49862000D01*
X76467565Y-49818513D01*
X76511052Y-49800500D01*
X78803001Y-49800500D01*
X78846488Y-49818513D01*
G37*
%TD.AperFunction*%
%TA.AperFunction,Conductor*%
%TO.N,Net-(D1-A)*%
G36*
X56015677Y-46019685D02*
G01*
X56036319Y-46036319D01*
X56563681Y-46563681D01*
X56597166Y-46625004D01*
X56600000Y-46651362D01*
X56600000Y-61800000D01*
X57200000Y-62400000D01*
X64148638Y-62400000D01*
X64215677Y-62419685D01*
X64236319Y-62436319D01*
X64658181Y-62858181D01*
X64691666Y-62919504D01*
X64694500Y-62945862D01*
X64694500Y-75390166D01*
X64674815Y-75457205D01*
X64669700Y-75464566D01*
X64477451Y-75720896D01*
X64465859Y-75734250D01*
X64436306Y-75763754D01*
X64374956Y-75797188D01*
X64348698Y-75800000D01*
X54124000Y-75800000D01*
X54056961Y-75780315D01*
X54011206Y-75727511D01*
X54000000Y-75676000D01*
X54000000Y-73524000D01*
X54019685Y-73456961D01*
X54072489Y-73411206D01*
X54124000Y-73400000D01*
X58800000Y-73400000D01*
X59400000Y-72800000D01*
X59400000Y-65200000D01*
X58800000Y-64600000D01*
X53651362Y-64600000D01*
X53584323Y-64580315D01*
X53563681Y-64563681D01*
X53036319Y-64036319D01*
X53002834Y-63974996D01*
X53000000Y-63948638D01*
X53000000Y-60728138D01*
X53011205Y-60676628D01*
X53065338Y-60558097D01*
X53085023Y-60491058D01*
X53085024Y-60491054D01*
X53105500Y-60348638D01*
X53105500Y-53724000D01*
X53093947Y-53616544D01*
X53082741Y-53565033D01*
X53082637Y-53564722D01*
X53048616Y-53462502D01*
X53048614Y-53462498D01*
X53019684Y-53417482D01*
X53000000Y-53350443D01*
X53000000Y-46651362D01*
X53019685Y-46584323D01*
X53036319Y-46563681D01*
X53563681Y-46036319D01*
X53625004Y-46002834D01*
X53651362Y-46000000D01*
X55948638Y-46000000D01*
X56015677Y-46019685D01*
G37*
%TD.AperFunction*%
%TD*%
%TA.AperFunction,Conductor*%
%TO.N,GND*%
G36*
X84125000Y-27270462D02*
G01*
X84179538Y-27325000D01*
X84199500Y-27399500D01*
X84199500Y-82850500D01*
X84179538Y-82925000D01*
X84125000Y-82979538D01*
X84050500Y-82999500D01*
X42649500Y-82999500D01*
X42575000Y-82979538D01*
X42520462Y-82925000D01*
X42500500Y-82850500D01*
X42500500Y-36281373D01*
X43549500Y-36281373D01*
X43549500Y-38218626D01*
X43552294Y-38271239D01*
X43596754Y-38501124D01*
X43679424Y-38720186D01*
X43679430Y-38720199D01*
X43797924Y-38922124D01*
X43797928Y-38922129D01*
X43797930Y-38922132D01*
X43948858Y-39101142D01*
X44127868Y-39252070D01*
X44127870Y-39252071D01*
X44127875Y-39252075D01*
X44329800Y-39370569D01*
X44329806Y-39370572D01*
X44329810Y-39370574D01*
X44548874Y-39453245D01*
X44778759Y-39497705D01*
X44789282Y-39498264D01*
X44831374Y-39500500D01*
X44831378Y-39500500D01*
X45887068Y-39500500D01*
X45961568Y-39520462D01*
X46016106Y-39575000D01*
X46036067Y-39649499D01*
X46030168Y-41629357D01*
X45996378Y-52968620D01*
X45996379Y-52968636D01*
X46007767Y-53076830D01*
X46007771Y-53076856D01*
X46018972Y-53128718D01*
X46018973Y-53128723D01*
X46053263Y-53232005D01*
X46073833Y-53264012D01*
X46097316Y-53337478D01*
X46084020Y-53406463D01*
X46034663Y-53514537D01*
X46034658Y-53514552D01*
X46014977Y-53581576D01*
X46014974Y-53581589D01*
X46014973Y-53581593D01*
X45994501Y-53723985D01*
X45994500Y-53724003D01*
X45994500Y-60348643D01*
X45997394Y-60402649D01*
X45997396Y-60402678D01*
X46000228Y-60429020D01*
X46000235Y-60429066D01*
X46008883Y-60482440D01*
X46059166Y-60617252D01*
X46059167Y-60617255D01*
X46092650Y-60678575D01*
X46092655Y-60678583D01*
X46178874Y-60793758D01*
X46178877Y-60793761D01*
X47206239Y-61821123D01*
X47246500Y-61857288D01*
X47246518Y-61857303D01*
X47246521Y-61857305D01*
X47267141Y-61873921D01*
X47267140Y-61873921D01*
X47280596Y-61883624D01*
X47311026Y-61905567D01*
X47441903Y-61965338D01*
X47480019Y-61976530D01*
X47508938Y-61985022D01*
X47508940Y-61985022D01*
X47508942Y-61985023D01*
X47508946Y-61985024D01*
X47508947Y-61985024D01*
X47508951Y-61985025D01*
X47508955Y-61985026D01*
X47651347Y-62005498D01*
X47651351Y-62005498D01*
X47651362Y-62005500D01*
X47651366Y-62005500D01*
X51448643Y-62005500D01*
X51502649Y-62002605D01*
X51502678Y-62002603D01*
X51529020Y-61999771D01*
X51529026Y-61999770D01*
X51529036Y-61999769D01*
X51537856Y-61998339D01*
X51582440Y-61991116D01*
X51582443Y-61991114D01*
X51582448Y-61991114D01*
X51717257Y-61940832D01*
X51778580Y-61907347D01*
X51893761Y-61821123D01*
X52240141Y-61474743D01*
X52306936Y-61436179D01*
X52384064Y-61436179D01*
X52450859Y-61474743D01*
X52489423Y-61541538D01*
X52494500Y-61580102D01*
X52494500Y-63948643D01*
X52497394Y-64002649D01*
X52497396Y-64002678D01*
X52500228Y-64029020D01*
X52500235Y-64029066D01*
X52508883Y-64082440D01*
X52559166Y-64217252D01*
X52559167Y-64217255D01*
X52592650Y-64278575D01*
X52592655Y-64278583D01*
X52678874Y-64393758D01*
X52678877Y-64393761D01*
X53206239Y-64921123D01*
X53246500Y-64957288D01*
X53246518Y-64957303D01*
X53246521Y-64957305D01*
X53267141Y-64973921D01*
X53267140Y-64973921D01*
X53280596Y-64983624D01*
X53311026Y-65005567D01*
X53441903Y-65065338D01*
X53480019Y-65076530D01*
X53508938Y-65085022D01*
X53508940Y-65085022D01*
X53508942Y-65085023D01*
X53508946Y-65085024D01*
X53508947Y-65085024D01*
X53508951Y-65085025D01*
X53508955Y-65085026D01*
X53651347Y-65105498D01*
X53651351Y-65105498D01*
X53651362Y-65105500D01*
X58528898Y-65105500D01*
X58603398Y-65125462D01*
X58634257Y-65149141D01*
X58850859Y-65365743D01*
X58889423Y-65432538D01*
X58894500Y-65471102D01*
X58894500Y-72528898D01*
X58874538Y-72603398D01*
X58850859Y-72634257D01*
X58634257Y-72850859D01*
X58567462Y-72889423D01*
X58528898Y-72894500D01*
X57879282Y-72894500D01*
X57819099Y-72881805D01*
X57757185Y-72854468D01*
X57757183Y-72854467D01*
X57549627Y-72805650D01*
X57549628Y-72805650D01*
X57461016Y-72799500D01*
X57461012Y-72799500D01*
X56018988Y-72799500D01*
X56018984Y-72799500D01*
X55930371Y-72805650D01*
X55722816Y-72854467D01*
X55722814Y-72854468D01*
X55660901Y-72881805D01*
X55600718Y-72894500D01*
X54124000Y-72894500D01*
X54123995Y-72894500D01*
X54123984Y-72894501D01*
X54016547Y-72906051D01*
X54016543Y-72906052D01*
X53965036Y-72917258D01*
X53965033Y-72917259D01*
X53862496Y-72951387D01*
X53862494Y-72951388D01*
X53828781Y-72973054D01*
X53755315Y-72996537D01*
X53686330Y-72983241D01*
X53579961Y-72934663D01*
X53579959Y-72934662D01*
X53579954Y-72934660D01*
X53579947Y-72934658D01*
X53512923Y-72914977D01*
X53512910Y-72914974D01*
X53512906Y-72914973D01*
X53370514Y-72894501D01*
X53370502Y-72894500D01*
X53370500Y-72894500D01*
X53370496Y-72894500D01*
X52271202Y-72894500D01*
X52232638Y-72889423D01*
X52088715Y-72850859D01*
X52012014Y-72830307D01*
X52012012Y-72830306D01*
X52012006Y-72830305D01*
X51778016Y-72799500D01*
X51778011Y-72799500D01*
X51541989Y-72799500D01*
X51541983Y-72799500D01*
X51307993Y-72830305D01*
X51087362Y-72889423D01*
X51048798Y-72894500D01*
X47051357Y-72894500D01*
X46997350Y-72897394D01*
X46997321Y-72897396D01*
X46970979Y-72900228D01*
X46970933Y-72900235D01*
X46917559Y-72908883D01*
X46782747Y-72959166D01*
X46782744Y-72959167D01*
X46721424Y-72992650D01*
X46721416Y-72992655D01*
X46606241Y-73078874D01*
X46078876Y-73606239D01*
X46042721Y-73646489D01*
X46042694Y-73646521D01*
X46026078Y-73667140D01*
X45994433Y-73711026D01*
X45934661Y-73841905D01*
X45934658Y-73841914D01*
X45914977Y-73908938D01*
X45914974Y-73908951D01*
X45914973Y-73908955D01*
X45894501Y-74051347D01*
X45894500Y-74051365D01*
X45894500Y-80948643D01*
X45897394Y-81002649D01*
X45897396Y-81002678D01*
X45900228Y-81029020D01*
X45900235Y-81029066D01*
X45908883Y-81082440D01*
X45959166Y-81217252D01*
X45959167Y-81217255D01*
X45992650Y-81278575D01*
X45992655Y-81278583D01*
X46078874Y-81393758D01*
X46078876Y-81393760D01*
X46078877Y-81393761D01*
X46606239Y-81921123D01*
X46646500Y-81957288D01*
X46646518Y-81957303D01*
X46646521Y-81957305D01*
X46667141Y-81973921D01*
X46667140Y-81973921D01*
X46680596Y-81983624D01*
X46711026Y-82005567D01*
X46841903Y-82065338D01*
X46880019Y-82076530D01*
X46908938Y-82085022D01*
X46908940Y-82085022D01*
X46908942Y-82085023D01*
X46908946Y-82085024D01*
X46908947Y-82085024D01*
X46908951Y-82085025D01*
X46908955Y-82085026D01*
X47051347Y-82105498D01*
X47051351Y-82105498D01*
X47051362Y-82105500D01*
X47051366Y-82105500D01*
X49748643Y-82105500D01*
X49802649Y-82102605D01*
X49802678Y-82102603D01*
X49829020Y-82099771D01*
X49829026Y-82099770D01*
X49829036Y-82099769D01*
X49837856Y-82098339D01*
X49882440Y-82091116D01*
X49882443Y-82091114D01*
X49882448Y-82091114D01*
X50017257Y-82040832D01*
X50078580Y-82007347D01*
X50193761Y-81921123D01*
X50721123Y-81393761D01*
X50757288Y-81353500D01*
X50773922Y-81332858D01*
X50805567Y-81288974D01*
X50849972Y-81191742D01*
X75960491Y-81191742D01*
X81801366Y-81191742D01*
X81801366Y-72337358D01*
X75960491Y-72337358D01*
X75960491Y-81191742D01*
X50849972Y-81191742D01*
X50865338Y-81158097D01*
X50885023Y-81091058D01*
X50885024Y-81091054D01*
X50885025Y-81091048D01*
X50885026Y-81091044D01*
X50905498Y-80948652D01*
X50905500Y-80948634D01*
X50905500Y-76671100D01*
X50910577Y-76652152D01*
X50910577Y-76632536D01*
X50920384Y-76615548D01*
X50925462Y-76596600D01*
X50949138Y-76565744D01*
X51118765Y-76396116D01*
X51185558Y-76357554D01*
X51262683Y-76357554D01*
X51307986Y-76369693D01*
X51307992Y-76369693D01*
X51307993Y-76369694D01*
X51308004Y-76369695D01*
X51541989Y-76400500D01*
X51778011Y-76400500D01*
X52012014Y-76369693D01*
X52196112Y-76320363D01*
X52232638Y-76310577D01*
X52271202Y-76305500D01*
X53370494Y-76305500D01*
X53370500Y-76305500D01*
X53413983Y-76300824D01*
X53477952Y-76293948D01*
X53477956Y-76293947D01*
X53529467Y-76282741D01*
X53632004Y-76248613D01*
X53665716Y-76226946D01*
X53739178Y-76203462D01*
X53808167Y-76216757D01*
X53914541Y-76265338D01*
X53952657Y-76276530D01*
X53981576Y-76285022D01*
X53981578Y-76285022D01*
X53981580Y-76285023D01*
X53981584Y-76285024D01*
X53981585Y-76285024D01*
X53981589Y-76285025D01*
X53981593Y-76285026D01*
X54123985Y-76305498D01*
X54123989Y-76305498D01*
X54124000Y-76305500D01*
X55600718Y-76305500D01*
X55660901Y-76318195D01*
X55677360Y-76325462D01*
X55722815Y-76345532D01*
X55930370Y-76394349D01*
X55948093Y-76395579D01*
X56018984Y-76400500D01*
X56018988Y-76400500D01*
X57461016Y-76400500D01*
X57524144Y-76396118D01*
X57549630Y-76394349D01*
X57757185Y-76345532D01*
X57802894Y-76325349D01*
X57819099Y-76318195D01*
X57879282Y-76305500D01*
X62819898Y-76305500D01*
X62894398Y-76325462D01*
X62948936Y-76380000D01*
X62968898Y-76454500D01*
X62948936Y-76529000D01*
X62925257Y-76559859D01*
X62878876Y-76606239D01*
X62842721Y-76646489D01*
X62842694Y-76646521D01*
X62826078Y-76667140D01*
X62794433Y-76711026D01*
X62734661Y-76841905D01*
X62734658Y-76841914D01*
X62714977Y-76908938D01*
X62714974Y-76908951D01*
X62714973Y-76908955D01*
X62694501Y-77051347D01*
X62694500Y-77051365D01*
X62694500Y-79948643D01*
X62697394Y-80002649D01*
X62697396Y-80002678D01*
X62700228Y-80029020D01*
X62700235Y-80029066D01*
X62708883Y-80082440D01*
X62759166Y-80217252D01*
X62759167Y-80217255D01*
X62792650Y-80278575D01*
X62792655Y-80278583D01*
X62878874Y-80393758D01*
X62878876Y-80393760D01*
X62878877Y-80393761D01*
X63406239Y-80921123D01*
X63446500Y-80957288D01*
X63446518Y-80957303D01*
X63446521Y-80957305D01*
X63467141Y-80973921D01*
X63467140Y-80973921D01*
X63480596Y-80983624D01*
X63511026Y-81005567D01*
X63641903Y-81065338D01*
X63680019Y-81076530D01*
X63708938Y-81085022D01*
X63708940Y-81085022D01*
X63708942Y-81085023D01*
X63708946Y-81085024D01*
X63708947Y-81085024D01*
X63708951Y-81085025D01*
X63708955Y-81085026D01*
X63851347Y-81105498D01*
X63851351Y-81105498D01*
X63851362Y-81105500D01*
X63851366Y-81105500D01*
X67948643Y-81105500D01*
X68002649Y-81102605D01*
X68002678Y-81102603D01*
X68029020Y-81099771D01*
X68029026Y-81099770D01*
X68029036Y-81099769D01*
X68037856Y-81098339D01*
X68082440Y-81091116D01*
X68082443Y-81091114D01*
X68082448Y-81091114D01*
X68217257Y-81040832D01*
X68278580Y-81007347D01*
X68393761Y-80921123D01*
X68921123Y-80393761D01*
X68957288Y-80353500D01*
X68973922Y-80332858D01*
X69005567Y-80288974D01*
X69065338Y-80158097D01*
X69085023Y-80091058D01*
X69085024Y-80091054D01*
X69085025Y-80091048D01*
X69085026Y-80091044D01*
X69105498Y-79948652D01*
X69105500Y-79948634D01*
X69105500Y-74071101D01*
X69125462Y-73996601D01*
X69149141Y-73965742D01*
X69365742Y-73749141D01*
X69432537Y-73710577D01*
X69471101Y-73705500D01*
X71748643Y-73705500D01*
X71802649Y-73702605D01*
X71802678Y-73702603D01*
X71829020Y-73699771D01*
X71829026Y-73699770D01*
X71829036Y-73699769D01*
X71837856Y-73698339D01*
X71882440Y-73691116D01*
X71882443Y-73691114D01*
X71882448Y-73691114D01*
X72017257Y-73640832D01*
X72078580Y-73607347D01*
X72193761Y-73521123D01*
X72721123Y-72993761D01*
X72757288Y-72953500D01*
X72773922Y-72932858D01*
X72805567Y-72888974D01*
X72865338Y-72758097D01*
X72885023Y-72691058D01*
X72885024Y-72691054D01*
X72885025Y-72691048D01*
X72885026Y-72691044D01*
X72905498Y-72548652D01*
X72905500Y-72548634D01*
X72905500Y-63182606D01*
X72902605Y-63128600D01*
X72902603Y-63128571D01*
X72899771Y-63102229D01*
X72899764Y-63102183D01*
X72891116Y-63048809D01*
X72891114Y-63048804D01*
X72891114Y-63048802D01*
X72840832Y-62913993D01*
X72807347Y-62852670D01*
X72806391Y-62851393D01*
X72721125Y-62737491D01*
X72662510Y-62678876D01*
X72622260Y-62642721D01*
X72622250Y-62642712D01*
X72601608Y-62626078D01*
X72601607Y-62626077D01*
X72601603Y-62626074D01*
X72601600Y-62626072D01*
X72557790Y-62594475D01*
X72557222Y-62594216D01*
X72547535Y-62589790D01*
X72519086Y-62571507D01*
X72456071Y-62548002D01*
X72426921Y-62534684D01*
X72424324Y-62533921D01*
X72401139Y-62527109D01*
X72396048Y-62525613D01*
X72384278Y-62521223D01*
X72372039Y-62518559D01*
X72366932Y-62517059D01*
X72366931Y-62517058D01*
X72365221Y-62516556D01*
X72365130Y-62516540D01*
X72359798Y-62514975D01*
X72359795Y-62514974D01*
X72359790Y-62514973D01*
X72333292Y-62511163D01*
X72262392Y-62480800D01*
X72216172Y-62419055D01*
X72205500Y-62363680D01*
X72205500Y-60198374D01*
X72225462Y-60123874D01*
X72280000Y-60069336D01*
X72310416Y-60057578D01*
X72310228Y-60057073D01*
X72455009Y-60003071D01*
X72455010Y-60003070D01*
X72455022Y-60003066D01*
X72516345Y-59969581D01*
X72631526Y-59883357D01*
X73565742Y-58949141D01*
X73632537Y-58910577D01*
X73671101Y-58905500D01*
X74878898Y-58905500D01*
X74953398Y-58925462D01*
X74984257Y-58949141D01*
X75600859Y-59565743D01*
X75639423Y-59632538D01*
X75644500Y-59671102D01*
X75644500Y-59748643D01*
X75647394Y-59802649D01*
X75647396Y-59802678D01*
X75650228Y-59829020D01*
X75650235Y-59829066D01*
X75658883Y-59882440D01*
X75709166Y-60017252D01*
X75709167Y-60017255D01*
X75742650Y-60078575D01*
X75742655Y-60078583D01*
X75828874Y-60193758D01*
X75828877Y-60193761D01*
X75956239Y-60321123D01*
X75996500Y-60357288D01*
X76017142Y-60373922D01*
X76061067Y-60405593D01*
X76071310Y-60410270D01*
X76099675Y-60428499D01*
X76162813Y-60452048D01*
X76167652Y-60454257D01*
X76167653Y-60454258D01*
X76167658Y-60454260D01*
X76191949Y-60465351D01*
X76191950Y-60465351D01*
X76191951Y-60465352D01*
X76194547Y-60466114D01*
X76217488Y-60472848D01*
X76217513Y-60472855D01*
X76222619Y-60474354D01*
X76234484Y-60478780D01*
X76246829Y-60481465D01*
X76251623Y-60482873D01*
X76251621Y-60482873D01*
X76251851Y-60482940D01*
X76251859Y-60482943D01*
X76251938Y-60482966D01*
X76251953Y-60482975D01*
X76254239Y-60483763D01*
X76258943Y-60485023D01*
X76258946Y-60485024D01*
X76401362Y-60505500D01*
X76401366Y-60505500D01*
X79734365Y-60505500D01*
X79773699Y-60500844D01*
X79852369Y-60491533D01*
X79861221Y-60489407D01*
X79908650Y-60478022D01*
X79908655Y-60478020D01*
X79908664Y-60478018D01*
X80020155Y-60436887D01*
X80078350Y-60407233D01*
X80099940Y-60398291D01*
X80219467Y-60359454D01*
X80242188Y-60353999D01*
X80366352Y-60334333D01*
X80389660Y-60332500D01*
X80610346Y-60332500D01*
X80633653Y-60334333D01*
X80757795Y-60353995D01*
X80780528Y-60359454D01*
X80900056Y-60398291D01*
X80921658Y-60407239D01*
X80979839Y-60436884D01*
X80979847Y-60436888D01*
X81091336Y-60478018D01*
X81091341Y-60478019D01*
X81091349Y-60478022D01*
X81147618Y-60491530D01*
X81147622Y-60491531D01*
X81147631Y-60491533D01*
X81206633Y-60498516D01*
X81265635Y-60505500D01*
X81265636Y-60505500D01*
X81875994Y-60505500D01*
X81876000Y-60505500D01*
X81919483Y-60500824D01*
X81983452Y-60493948D01*
X81983456Y-60493947D01*
X82034967Y-60482741D01*
X82137504Y-60448613D01*
X82258543Y-60370825D01*
X82311347Y-60325070D01*
X82405567Y-60216336D01*
X82465338Y-60085459D01*
X82485023Y-60018420D01*
X82485024Y-60018416D01*
X82485025Y-60018410D01*
X82485026Y-60018406D01*
X82505498Y-59876014D01*
X82505500Y-59875996D01*
X82505500Y-57651129D01*
X82505498Y-57651113D01*
X82489799Y-57526121D01*
X82489798Y-57526120D01*
X82489798Y-57526114D01*
X82474630Y-57466686D01*
X82428496Y-57349434D01*
X82428494Y-57349431D01*
X82342276Y-57234258D01*
X82342272Y-57234254D01*
X82305650Y-57197633D01*
X82292865Y-57184848D01*
X82292864Y-57184847D01*
X82177681Y-57098624D01*
X82084349Y-57063814D01*
X82072400Y-57056589D01*
X82055030Y-57038501D01*
X82034603Y-57023955D01*
X82028744Y-57011127D01*
X82018978Y-57000957D01*
X82012980Y-56976608D01*
X82002562Y-56953797D01*
X82000499Y-56929087D01*
X82000499Y-55284718D01*
X82020461Y-55210218D01*
X82044140Y-55179359D01*
X82499464Y-54724035D01*
X82592962Y-54584106D01*
X82598013Y-54576547D01*
X82617895Y-54528547D01*
X82665895Y-54412666D01*
X82700500Y-54238691D01*
X82700500Y-54061308D01*
X82700500Y-47091309D01*
X82700500Y-47091308D01*
X82665895Y-46917334D01*
X82613097Y-46789870D01*
X82598013Y-46753453D01*
X82525128Y-46644374D01*
X82522935Y-46641092D01*
X82522931Y-46641085D01*
X82499465Y-46605966D01*
X82499464Y-46605964D01*
X81949254Y-46055754D01*
X81910690Y-45988959D01*
X81910690Y-45911831D01*
X81926470Y-45874367D01*
X81949008Y-45836382D01*
X81967021Y-45792895D01*
X81985024Y-45741864D01*
X82005500Y-45599448D01*
X82005500Y-43337974D01*
X82002604Y-43283938D01*
X81967021Y-43144527D01*
X81949008Y-43101040D01*
X81925654Y-43052227D01*
X81925652Y-43052224D01*
X81925651Y-43052222D01*
X81839431Y-42937048D01*
X81839426Y-42937042D01*
X81562954Y-42660570D01*
X81522698Y-42624409D01*
X81522695Y-42624407D01*
X81398962Y-42550993D01*
X81398960Y-42550992D01*
X81355456Y-42532972D01*
X81304446Y-42514976D01*
X81304437Y-42514974D01*
X81162038Y-42494501D01*
X81162029Y-42494500D01*
X81162026Y-42494500D01*
X81162022Y-42494500D01*
X77579501Y-42494500D01*
X77505001Y-42474538D01*
X77450463Y-42420000D01*
X77430501Y-42345500D01*
X77430501Y-41734716D01*
X77450463Y-41660216D01*
X77474142Y-41629357D01*
X78739358Y-40364141D01*
X78806153Y-40325577D01*
X78844717Y-40320500D01*
X78912347Y-40320500D01*
X78912352Y-40320500D01*
X79114534Y-40288477D01*
X79309219Y-40225220D01*
X79441759Y-40157687D01*
X79517199Y-40141651D01*
X79585431Y-40162305D01*
X79647290Y-40199008D01*
X79690777Y-40217021D01*
X79690787Y-40217024D01*
X79690793Y-40217027D01*
X79741803Y-40235023D01*
X79741812Y-40235025D01*
X79850671Y-40250675D01*
X79884224Y-40255500D01*
X79884228Y-40255500D01*
X80188487Y-40255500D01*
X80188500Y-40255500D01*
X80242536Y-40252604D01*
X80381947Y-40217021D01*
X80425434Y-40199008D01*
X80520284Y-40147216D01*
X80625590Y-40049173D01*
X80699008Y-39925434D01*
X80717021Y-39881947D01*
X80735024Y-39830916D01*
X80755500Y-39688500D01*
X80755500Y-35313357D01*
X80752604Y-35259321D01*
X80717021Y-35119910D01*
X80712043Y-35107892D01*
X80699011Y-35076429D01*
X80699007Y-35076422D01*
X80682807Y-35046754D01*
X80647216Y-34981573D01*
X80647212Y-34981568D01*
X80623814Y-34956437D01*
X80616222Y-34942132D01*
X80604647Y-34930806D01*
X80598448Y-34908641D01*
X80587658Y-34888309D01*
X80588236Y-34872122D01*
X80583875Y-34856528D01*
X80589413Y-34839165D01*
X80590411Y-34811230D01*
X80603025Y-34781815D01*
X80607254Y-34774301D01*
X80615459Y-34763011D01*
X80623788Y-34751196D01*
X80648117Y-34701710D01*
X80648630Y-34700800D01*
X80666614Y-34665505D01*
X80666615Y-34665506D01*
X80680873Y-34637524D01*
X80687249Y-34624556D01*
X80715546Y-34533034D01*
X80716140Y-34533227D01*
X80725844Y-34503363D01*
X80730112Y-34489562D01*
X80738477Y-34431377D01*
X80738735Y-34430353D01*
X80744362Y-34394818D01*
X80744364Y-34394819D01*
X80749276Y-34363806D01*
X80750586Y-34347157D01*
X80750588Y-34347146D01*
X80750588Y-34347136D01*
X80755500Y-34284728D01*
X80755500Y-33365272D01*
X80753942Y-33325614D01*
X80749030Y-33263197D01*
X80733294Y-33184086D01*
X80725848Y-33146648D01*
X80706912Y-33088372D01*
X80687271Y-33027922D01*
X80682615Y-33014258D01*
X80615471Y-32887006D01*
X80615468Y-32887000D01*
X80542107Y-32786028D01*
X80542104Y-32786025D01*
X80542095Y-32786012D01*
X80490578Y-32725694D01*
X79924306Y-32159422D01*
X79924299Y-32159415D01*
X79895160Y-32132480D01*
X79895156Y-32132476D01*
X79855045Y-32098219D01*
X79847552Y-32091819D01*
X79847550Y-32091818D01*
X79847546Y-32091814D01*
X79829798Y-32079955D01*
X79748750Y-32025800D01*
X79637489Y-31969109D01*
X79624568Y-31962757D01*
X79624557Y-31962752D01*
X79487105Y-31920252D01*
X79487102Y-31920251D01*
X79386124Y-31904258D01*
X79363805Y-31900723D01*
X79363793Y-31900722D01*
X79343668Y-31899138D01*
X79284728Y-31894500D01*
X79284723Y-31894500D01*
X75254500Y-31894500D01*
X75180000Y-31874538D01*
X75125462Y-31820000D01*
X75105500Y-31745500D01*
X75105500Y-29965269D01*
X75103942Y-29925624D01*
X75103942Y-29925614D01*
X75099030Y-29863197D01*
X75080442Y-29769747D01*
X75075848Y-29746648D01*
X75051951Y-29673103D01*
X75037271Y-29627922D01*
X75032615Y-29614258D01*
X75030142Y-29609570D01*
X74965468Y-29487000D01*
X74892107Y-29386028D01*
X74892104Y-29386025D01*
X74892095Y-29386012D01*
X74840578Y-29325694D01*
X74274306Y-28759422D01*
X74274299Y-28759415D01*
X74245160Y-28732480D01*
X74245156Y-28732476D01*
X74197546Y-28691814D01*
X74194940Y-28690073D01*
X74098750Y-28625800D01*
X73987489Y-28569109D01*
X73974568Y-28562757D01*
X73974557Y-28562752D01*
X73837105Y-28520252D01*
X73837102Y-28520251D01*
X73742386Y-28505249D01*
X73713805Y-28500723D01*
X73713793Y-28500722D01*
X73693668Y-28499138D01*
X73634728Y-28494500D01*
X68765272Y-28494500D01*
X68765269Y-28494500D01*
X68725624Y-28496057D01*
X68680037Y-28499644D01*
X68663197Y-28500970D01*
X68663191Y-28500971D01*
X68663186Y-28500972D01*
X68546648Y-28524151D01*
X68427918Y-28562730D01*
X68414260Y-28567383D01*
X68414252Y-28567387D01*
X68287000Y-28634531D01*
X68186028Y-28707892D01*
X68186017Y-28707901D01*
X68186012Y-28707905D01*
X68157239Y-28732480D01*
X68125689Y-28759426D01*
X67559415Y-29325700D01*
X67532480Y-29354839D01*
X67491819Y-29402447D01*
X67491810Y-29402459D01*
X67425800Y-29501249D01*
X67369109Y-29612510D01*
X67362757Y-29625431D01*
X67362752Y-29625442D01*
X67320252Y-29762893D01*
X67320252Y-29762894D01*
X67320251Y-29762898D01*
X67314098Y-29801748D01*
X67302440Y-29875357D01*
X67300723Y-29886196D01*
X67294501Y-29965269D01*
X67294500Y-29965276D01*
X67294500Y-33528898D01*
X67274538Y-33603398D01*
X67250859Y-33634257D01*
X66034257Y-34850859D01*
X65967462Y-34889423D01*
X65928898Y-34894500D01*
X62165269Y-34894500D01*
X62125624Y-34896057D01*
X62080037Y-34899644D01*
X62063197Y-34900970D01*
X62063191Y-34900971D01*
X62063186Y-34900972D01*
X61946648Y-34924151D01*
X61827918Y-34962730D01*
X61814260Y-34967383D01*
X61814252Y-34967387D01*
X61687000Y-35034531D01*
X61586027Y-35107892D01*
X61586016Y-35107901D01*
X61546266Y-35141851D01*
X61476651Y-35175054D01*
X61399761Y-35169002D01*
X61336198Y-35125315D01*
X61302995Y-35055700D01*
X61300500Y-35028549D01*
X61300500Y-32753808D01*
X61294908Y-32725695D01*
X61265896Y-32579838D01*
X61265895Y-32579837D01*
X61265895Y-32579834D01*
X61198013Y-32415954D01*
X61198013Y-32415953D01*
X61157695Y-32355613D01*
X61156125Y-32353044D01*
X61146044Y-32318852D01*
X61134587Y-32285100D01*
X61134964Y-32281269D01*
X61134314Y-32279064D01*
X61135779Y-32272995D01*
X61139344Y-32236794D01*
X61154693Y-32179514D01*
X61185500Y-31945511D01*
X61185500Y-31709489D01*
X61154693Y-31475486D01*
X61093606Y-31247507D01*
X61003284Y-31029451D01*
X61003281Y-31029446D01*
X61003280Y-31029443D01*
X60942231Y-30923705D01*
X60885273Y-30825050D01*
X60741592Y-30637801D01*
X60574699Y-30470908D01*
X60387450Y-30327227D01*
X60306219Y-30280328D01*
X60183056Y-30209219D01*
X59964996Y-30118895D01*
X59964994Y-30118894D01*
X59964993Y-30118894D01*
X59737014Y-30057807D01*
X59737012Y-30057806D01*
X59737006Y-30057805D01*
X59503016Y-30027000D01*
X59503011Y-30027000D01*
X59266989Y-30027000D01*
X59266983Y-30027000D01*
X59032993Y-30057805D01*
X58805003Y-30118895D01*
X58586943Y-30209219D01*
X58382551Y-30327226D01*
X58382550Y-30327227D01*
X58195301Y-30470908D01*
X58195299Y-30470909D01*
X58195295Y-30470913D01*
X58028413Y-30637795D01*
X58028409Y-30637799D01*
X58028408Y-30637801D01*
X57963499Y-30722392D01*
X57884726Y-30825051D01*
X57766719Y-31029443D01*
X57676395Y-31247503D01*
X57615305Y-31475493D01*
X57584500Y-31709483D01*
X57584500Y-31945516D01*
X57615305Y-32179506D01*
X57615306Y-32179512D01*
X57615307Y-32179514D01*
X57661804Y-32353044D01*
X57676395Y-32407496D01*
X57766719Y-32625556D01*
X57824535Y-32725695D01*
X57884727Y-32829950D01*
X58028408Y-33017199D01*
X58195301Y-33184092D01*
X58382550Y-33327773D01*
X58447495Y-33365269D01*
X58586943Y-33445780D01*
X58586946Y-33445781D01*
X58586951Y-33445784D01*
X58805007Y-33536106D01*
X59032986Y-33597193D01*
X59032992Y-33597193D01*
X59032993Y-33597194D01*
X59080118Y-33603398D01*
X59266989Y-33628000D01*
X59350500Y-33628000D01*
X59425000Y-33647962D01*
X59479538Y-33702500D01*
X59499500Y-33777000D01*
X59499500Y-38545500D01*
X59479538Y-38620000D01*
X59425000Y-38674538D01*
X59350500Y-38694500D01*
X58050985Y-38694500D01*
X57976485Y-38674538D01*
X57921947Y-38620000D01*
X57901985Y-38545500D01*
X57901985Y-38276356D01*
X57899090Y-38222350D01*
X57899088Y-38222321D01*
X57896256Y-38195979D01*
X57896249Y-38195933D01*
X57887601Y-38142559D01*
X57887599Y-38142554D01*
X57887599Y-38142552D01*
X57837317Y-38007743D01*
X57803832Y-37946420D01*
X57802876Y-37945143D01*
X57717610Y-37831241D01*
X57565245Y-37678876D01*
X57524995Y-37642721D01*
X57524985Y-37642712D01*
X57504343Y-37626078D01*
X57504344Y-37626078D01*
X57482401Y-37610255D01*
X57460459Y-37594433D01*
X57329582Y-37534662D01*
X57329579Y-37534661D01*
X57329570Y-37534658D01*
X57262546Y-37514977D01*
X57262533Y-37514974D01*
X57262529Y-37514973D01*
X57120137Y-37494501D01*
X57120125Y-37494500D01*
X57120123Y-37494500D01*
X48199500Y-37494500D01*
X48125000Y-37474538D01*
X48070462Y-37420000D01*
X48050500Y-37345500D01*
X48050500Y-36281373D01*
X48047705Y-36228760D01*
X48003245Y-35998875D01*
X47920575Y-35779813D01*
X47920569Y-35779800D01*
X47802075Y-35577875D01*
X47802071Y-35577870D01*
X47802070Y-35577868D01*
X47651142Y-35398858D01*
X47472132Y-35247930D01*
X47472129Y-35247928D01*
X47472124Y-35247924D01*
X47270199Y-35129430D01*
X47270186Y-35129424D01*
X47051124Y-35046754D01*
X46821239Y-35002294D01*
X46768626Y-34999500D01*
X46768622Y-34999500D01*
X44831378Y-34999500D01*
X44831374Y-34999500D01*
X44778760Y-35002294D01*
X44548875Y-35046754D01*
X44329813Y-35129424D01*
X44329800Y-35129430D01*
X44127875Y-35247924D01*
X44127870Y-35247928D01*
X43948858Y-35398858D01*
X43797928Y-35577870D01*
X43797924Y-35577875D01*
X43679430Y-35779800D01*
X43679424Y-35779813D01*
X43596754Y-35998875D01*
X43552294Y-36228760D01*
X43549500Y-36281373D01*
X42500500Y-36281373D01*
X42500500Y-30697902D01*
X46364644Y-30697902D01*
X46364644Y-30722097D01*
X46365776Y-30769493D01*
X46366944Y-30793836D01*
X46370316Y-30840553D01*
X46372667Y-30864898D01*
X46372669Y-30864912D01*
X46378221Y-30910772D01*
X46378226Y-30910809D01*
X46381775Y-30935149D01*
X46389469Y-30980199D01*
X46394224Y-31004453D01*
X46403995Y-31048559D01*
X46409959Y-31072666D01*
X46421769Y-31115827D01*
X46428927Y-31139671D01*
X46442726Y-31181844D01*
X46451039Y-31205281D01*
X46464373Y-31240122D01*
X46466795Y-31246451D01*
X46469996Y-31254236D01*
X46476287Y-31269532D01*
X46493905Y-31309538D01*
X46504523Y-31332124D01*
X46511384Y-31345827D01*
X46524006Y-31371037D01*
X46535734Y-31393085D01*
X46535746Y-31393106D01*
X46535748Y-31393110D01*
X46556997Y-31430781D01*
X46569792Y-31452209D01*
X46592821Y-31488698D01*
X46606655Y-31509462D01*
X46631370Y-31544642D01*
X46646219Y-31564707D01*
X46655753Y-31576945D01*
X46672563Y-31598522D01*
X46688403Y-31617848D01*
X46716339Y-31650266D01*
X46716354Y-31650282D01*
X46716363Y-31650293D01*
X46733103Y-31668776D01*
X46762572Y-31699738D01*
X46780261Y-31717427D01*
X46811223Y-31746896D01*
X46829706Y-31763636D01*
X46829734Y-31763661D01*
X46862152Y-31791597D01*
X46881478Y-31807437D01*
X46915291Y-31833779D01*
X46935369Y-31848638D01*
X46970528Y-31873338D01*
X46991321Y-31887191D01*
X47027771Y-31910195D01*
X47027790Y-31910207D01*
X47049216Y-31923001D01*
X47086915Y-31944266D01*
X47108963Y-31955994D01*
X47143639Y-31973355D01*
X47147875Y-31975476D01*
X47157730Y-31980109D01*
X47170443Y-31986086D01*
X47170448Y-31986088D01*
X47170461Y-31986094D01*
X47210467Y-32003712D01*
X47210486Y-32003720D01*
X47210491Y-32003722D01*
X47233549Y-32013205D01*
X47266249Y-32025719D01*
X47274718Y-32028960D01*
X47298155Y-32037273D01*
X47340328Y-32051072D01*
X47340346Y-32051077D01*
X47340357Y-32051081D01*
X47364153Y-32058225D01*
X47372289Y-32060451D01*
X47407333Y-32070040D01*
X47407347Y-32070043D01*
X47407349Y-32070044D01*
X47431418Y-32075999D01*
X47431435Y-32076002D01*
X47431440Y-32076004D01*
X47446891Y-32079427D01*
X47475563Y-32085779D01*
X47499806Y-32090532D01*
X47544853Y-32098225D01*
X47569190Y-32101774D01*
X47615088Y-32107331D01*
X47639463Y-32109685D01*
X47686163Y-32113055D01*
X47710470Y-32114222D01*
X47710500Y-32114222D01*
X47710506Y-32114223D01*
X47757902Y-32115356D01*
X47757923Y-32115356D01*
X47782098Y-32115356D01*
X47829493Y-32114223D01*
X47829497Y-32114222D01*
X47829530Y-32114222D01*
X47853837Y-32113055D01*
X47900537Y-32109685D01*
X47924912Y-32107331D01*
X47970810Y-32101774D01*
X47995147Y-32098225D01*
X48040194Y-32090532D01*
X48064437Y-32085779D01*
X48108582Y-32075999D01*
X48132651Y-32070044D01*
X48134362Y-32069576D01*
X48140467Y-32067905D01*
X48175847Y-32058225D01*
X48199643Y-32051081D01*
X48199671Y-32051072D01*
X48241844Y-32037273D01*
X48265281Y-32028960D01*
X48265305Y-32028951D01*
X48306451Y-32013205D01*
X48329509Y-32003722D01*
X48369557Y-31986086D01*
X48392137Y-31975470D01*
X48431037Y-31955994D01*
X48453085Y-31944266D01*
X48490787Y-31922999D01*
X48512223Y-31910199D01*
X48548679Y-31887191D01*
X48569472Y-31873338D01*
X48604631Y-31848638D01*
X48624709Y-31833779D01*
X48658522Y-31807437D01*
X48677848Y-31791597D01*
X48710266Y-31763661D01*
X48722461Y-31752614D01*
X48728776Y-31746896D01*
X48759738Y-31717427D01*
X48759752Y-31717414D01*
X48777414Y-31699752D01*
X48806893Y-31668779D01*
X48823661Y-31650266D01*
X48851597Y-31617848D01*
X48867437Y-31598522D01*
X48893779Y-31564709D01*
X48908638Y-31544631D01*
X48933338Y-31509472D01*
X48947191Y-31488679D01*
X48970199Y-31452223D01*
X48982999Y-31430787D01*
X48999853Y-31400907D01*
X49053841Y-31345827D01*
X49128137Y-31325119D01*
X49202833Y-31344334D01*
X49257915Y-31398323D01*
X49261100Y-31403993D01*
X49324967Y-31523741D01*
X49324969Y-31523743D01*
X49351362Y-31559734D01*
X49355238Y-31564716D01*
X49368982Y-31582383D01*
X49397181Y-31616583D01*
X49413160Y-31635036D01*
X49413168Y-31635045D01*
X49443141Y-31668016D01*
X49443158Y-31668034D01*
X49443160Y-31668036D01*
X49443868Y-31668779D01*
X49459794Y-31685480D01*
X49491552Y-31717237D01*
X49508963Y-31733839D01*
X49541942Y-31763821D01*
X49560419Y-31779821D01*
X49574695Y-31791592D01*
X49594610Y-31808013D01*
X49617266Y-31825638D01*
X49653266Y-31852038D01*
X49653286Y-31852052D01*
X49668691Y-31862913D01*
X49705883Y-31888108D01*
X49705891Y-31888113D01*
X49731323Y-31904257D01*
X49769723Y-31927057D01*
X49788143Y-31937478D01*
X49827143Y-31958478D01*
X49857113Y-31973358D01*
X49885037Y-31986088D01*
X49897915Y-31991959D01*
X49917539Y-32000409D01*
X49958905Y-32017196D01*
X49970788Y-32021811D01*
X49972989Y-32022667D01*
X50002996Y-32033812D01*
X50015001Y-32038272D01*
X50032374Y-32044184D01*
X50041384Y-32047251D01*
X50083984Y-32060451D01*
X50109712Y-32067466D01*
X50117450Y-32069576D01*
X50160627Y-32079770D01*
X50160640Y-32079773D01*
X50181590Y-32084253D01*
X50203490Y-32088453D01*
X50225399Y-32092655D01*
X50236563Y-32094553D01*
X50246275Y-32096206D01*
X50290675Y-32102806D01*
X50317395Y-32106053D01*
X50361795Y-32110253D01*
X50388924Y-32112085D01*
X50433324Y-32113885D01*
X50460630Y-32114254D01*
X50505030Y-32113654D01*
X50525122Y-32112983D01*
X50570122Y-32110583D01*
X50597532Y-32108372D01*
X50597539Y-32108371D01*
X50597542Y-32108371D01*
X50607789Y-32107263D01*
X50641932Y-32103572D01*
X50641941Y-32103570D01*
X50641948Y-32103570D01*
X50669574Y-32099809D01*
X50669578Y-32099808D01*
X50669595Y-32099806D01*
X50713395Y-32092606D01*
X50713397Y-32092605D01*
X50713419Y-32092602D01*
X50724614Y-32090532D01*
X50733144Y-32088955D01*
X50776944Y-32079955D01*
X50804180Y-32073568D01*
X50847380Y-32062168D01*
X50861774Y-32058141D01*
X50904374Y-32045541D01*
X50937008Y-32034668D01*
X50972628Y-32021437D01*
X50979022Y-32019063D01*
X51001283Y-32010188D01*
X51001301Y-32010181D01*
X51042101Y-31992781D01*
X51067155Y-31981279D01*
X51107355Y-31961479D01*
X51128915Y-31950207D01*
X51167915Y-31928607D01*
X51189072Y-31916209D01*
X51226872Y-31892809D01*
X51247470Y-31879354D01*
X51284070Y-31854154D01*
X51300700Y-31842200D01*
X51336700Y-31815200D01*
X51362375Y-31794604D01*
X51395975Y-31765804D01*
X51410709Y-31752667D01*
X51443709Y-31722067D01*
X51464249Y-31701904D01*
X51494849Y-31670104D01*
X51511028Y-31652474D01*
X51540428Y-31618874D01*
X51552740Y-31604254D01*
X51580940Y-31569454D01*
X51601365Y-31542447D01*
X51627165Y-31505847D01*
X51640750Y-31485552D01*
X51664750Y-31447752D01*
X51672657Y-31434877D01*
X51688232Y-31408644D01*
X51743430Y-31354778D01*
X51818168Y-31335726D01*
X51892419Y-31356596D01*
X51946126Y-31411508D01*
X51957009Y-31430801D01*
X51969792Y-31452209D01*
X51992821Y-31488698D01*
X52006660Y-31509470D01*
X52031350Y-31544615D01*
X52046226Y-31564715D01*
X52072577Y-31598539D01*
X52088397Y-31617842D01*
X52103214Y-31635036D01*
X52116333Y-31650260D01*
X52133104Y-31668776D01*
X52133120Y-31668793D01*
X52162571Y-31699737D01*
X52180266Y-31717432D01*
X52211229Y-31746900D01*
X52217609Y-31752679D01*
X52229729Y-31763656D01*
X52262146Y-31791592D01*
X52281484Y-31807441D01*
X52304829Y-31825627D01*
X52315312Y-31833794D01*
X52335349Y-31848624D01*
X52370545Y-31873349D01*
X52391318Y-31887189D01*
X52427745Y-31910179D01*
X52427757Y-31910186D01*
X52427771Y-31910195D01*
X52449213Y-31922999D01*
X52486915Y-31944266D01*
X52508963Y-31955994D01*
X52543639Y-31973355D01*
X52547875Y-31975476D01*
X52570446Y-31986088D01*
X52610491Y-32003722D01*
X52633542Y-32013202D01*
X52639619Y-32015527D01*
X52674700Y-32028952D01*
X52698159Y-32037273D01*
X52722686Y-32045298D01*
X52740338Y-32051075D01*
X52740346Y-32051077D01*
X52740354Y-32051080D01*
X52764153Y-32058225D01*
X52764168Y-32058229D01*
X52764171Y-32058230D01*
X52807352Y-32070045D01*
X52831392Y-32075993D01*
X52831398Y-32075994D01*
X52831421Y-32076000D01*
X52875567Y-32085780D01*
X52899805Y-32090532D01*
X52944851Y-32098225D01*
X52969190Y-32101774D01*
X53015088Y-32107331D01*
X53015105Y-32107333D01*
X53039443Y-32109683D01*
X53039464Y-32109685D01*
X53086165Y-32113055D01*
X53110471Y-32114222D01*
X53110507Y-32114222D01*
X53110510Y-32114223D01*
X53157902Y-32115356D01*
X53157923Y-32115356D01*
X53182098Y-32115356D01*
X53229493Y-32114223D01*
X53229497Y-32114222D01*
X53229530Y-32114222D01*
X53253837Y-32113055D01*
X53300537Y-32109685D01*
X53324912Y-32107331D01*
X53370810Y-32101774D01*
X53395147Y-32098225D01*
X53440194Y-32090532D01*
X53452160Y-32088186D01*
X53464433Y-32085781D01*
X53483820Y-32081485D01*
X53508580Y-32076000D01*
X53532655Y-32070043D01*
X53568034Y-32060362D01*
X53575847Y-32058225D01*
X53578805Y-32057336D01*
X53599643Y-32051081D01*
X53621336Y-32043982D01*
X53641844Y-32037273D01*
X53665281Y-32028960D01*
X53665305Y-32028951D01*
X53706451Y-32013205D01*
X53729509Y-32003722D01*
X53769557Y-31986086D01*
X53792137Y-31975470D01*
X53831037Y-31955994D01*
X53853080Y-31944268D01*
X53890783Y-31923001D01*
X53912230Y-31910195D01*
X53948685Y-31887187D01*
X53969472Y-31873338D01*
X54004631Y-31848638D01*
X54024709Y-31833779D01*
X54058522Y-31807437D01*
X54077848Y-31791597D01*
X54110266Y-31763661D01*
X54122461Y-31752614D01*
X54128776Y-31746896D01*
X54159738Y-31717427D01*
X54159752Y-31717414D01*
X54177414Y-31699752D01*
X54206893Y-31668779D01*
X54223661Y-31650266D01*
X54251597Y-31617848D01*
X54267437Y-31598522D01*
X54293779Y-31564709D01*
X54308638Y-31544631D01*
X54333338Y-31509472D01*
X54347191Y-31488679D01*
X54370199Y-31452223D01*
X54382999Y-31430787D01*
X54404266Y-31393085D01*
X54415994Y-31371037D01*
X54435470Y-31332137D01*
X54446086Y-31309557D01*
X54463722Y-31269509D01*
X54473205Y-31246451D01*
X54488951Y-31205305D01*
X54488960Y-31205281D01*
X54497273Y-31181844D01*
X54511072Y-31139671D01*
X54511073Y-31139665D01*
X54511081Y-31139643D01*
X54518225Y-31115847D01*
X54530044Y-31072651D01*
X54535999Y-31048582D01*
X54545779Y-31004437D01*
X54550530Y-30980205D01*
X54550532Y-30980187D01*
X54550538Y-30980162D01*
X54558218Y-30935194D01*
X54558218Y-30935188D01*
X54558224Y-30935158D01*
X54561777Y-30910799D01*
X54567333Y-30864901D01*
X54569685Y-30840537D01*
X54573055Y-30793837D01*
X54574222Y-30769533D01*
X54575342Y-30722680D01*
X54575341Y-30722668D01*
X54575360Y-30721879D01*
X54575359Y-30721877D01*
X54575362Y-30721792D01*
X54575356Y-30697923D01*
X54575356Y-30697898D01*
X54574223Y-30650506D01*
X54574222Y-30650500D01*
X54574222Y-30650470D01*
X54573055Y-30626163D01*
X54569685Y-30579463D01*
X54567333Y-30555099D01*
X54561777Y-30509201D01*
X54558224Y-30484842D01*
X54555845Y-30470913D01*
X54550538Y-30439837D01*
X54545774Y-30415540D01*
X54536002Y-30371431D01*
X54530040Y-30347333D01*
X54518230Y-30304172D01*
X54518225Y-30304153D01*
X54511081Y-30280357D01*
X54511072Y-30280328D01*
X54497273Y-30238155D01*
X54488960Y-30214718D01*
X54485719Y-30206249D01*
X54473205Y-30173549D01*
X54463722Y-30150491D01*
X54463720Y-30150486D01*
X54463712Y-30150467D01*
X54446094Y-30110461D01*
X54435476Y-30087875D01*
X54433455Y-30083839D01*
X54415994Y-30048963D01*
X54404266Y-30026915D01*
X54382999Y-29989213D01*
X54370199Y-29967777D01*
X54347191Y-29931321D01*
X54343395Y-29925624D01*
X54333344Y-29910537D01*
X54333343Y-29910536D01*
X54333338Y-29910528D01*
X54308638Y-29875369D01*
X54293779Y-29855291D01*
X54293774Y-29855285D01*
X54289012Y-29849172D01*
X54267437Y-29821478D01*
X54251597Y-29802152D01*
X54223661Y-29769734D01*
X54222205Y-29768126D01*
X54206896Y-29751223D01*
X54177427Y-29720261D01*
X54159738Y-29702572D01*
X54128776Y-29673103D01*
X54110293Y-29656363D01*
X54110282Y-29656354D01*
X54110266Y-29656339D01*
X54077848Y-29628403D01*
X54077261Y-29627922D01*
X54060592Y-29614260D01*
X54058522Y-29612563D01*
X54031303Y-29591358D01*
X54024707Y-29586219D01*
X54004642Y-29571370D01*
X53995533Y-29564971D01*
X53969472Y-29546662D01*
X53969471Y-29546661D01*
X53969462Y-29546655D01*
X53948710Y-29532829D01*
X53948680Y-29532810D01*
X53912230Y-29509805D01*
X53897901Y-29501249D01*
X53890787Y-29497001D01*
X53853073Y-29475728D01*
X53831053Y-29464014D01*
X53792124Y-29444523D01*
X53769538Y-29433905D01*
X53729532Y-29416287D01*
X53711292Y-29408786D01*
X53706451Y-29406795D01*
X53695121Y-29402459D01*
X53665281Y-29391039D01*
X53641844Y-29382726D01*
X53599644Y-29368919D01*
X53575847Y-29361774D01*
X53532663Y-29349959D01*
X53529705Y-29349227D01*
X53508580Y-29344000D01*
X53508557Y-29343995D01*
X53464433Y-29334218D01*
X53440190Y-29329467D01*
X53395182Y-29321780D01*
X53374883Y-29318820D01*
X53370810Y-29318226D01*
X53352375Y-29315994D01*
X53324898Y-29312667D01*
X53300553Y-29310316D01*
X53253836Y-29306944D01*
X53229493Y-29305776D01*
X53182098Y-29304644D01*
X53182077Y-29304644D01*
X53157923Y-29304644D01*
X53157902Y-29304644D01*
X53110510Y-29305776D01*
X53086163Y-29306945D01*
X53039443Y-29310316D01*
X53015105Y-29312666D01*
X52969179Y-29318227D01*
X52944865Y-29321772D01*
X52899792Y-29329470D01*
X52875580Y-29334217D01*
X52831392Y-29344006D01*
X52807352Y-29349954D01*
X52764171Y-29361769D01*
X52740338Y-29368924D01*
X52698160Y-29382726D01*
X52674725Y-29391039D01*
X52674700Y-29391048D01*
X52668633Y-29393369D01*
X52633542Y-29406797D01*
X52610491Y-29416277D01*
X52570446Y-29433911D01*
X52547875Y-29444523D01*
X52517230Y-29459867D01*
X52508963Y-29464006D01*
X52486927Y-29475728D01*
X52486889Y-29475748D01*
X52449237Y-29496987D01*
X52449223Y-29496995D01*
X52449213Y-29497001D01*
X52442099Y-29501249D01*
X52427745Y-29509820D01*
X52391318Y-29532810D01*
X52370545Y-29546650D01*
X52335349Y-29571375D01*
X52315312Y-29586205D01*
X52285321Y-29609570D01*
X52281586Y-29612480D01*
X52281470Y-29612570D01*
X52262175Y-29628383D01*
X52229701Y-29656368D01*
X52211229Y-29673099D01*
X52180266Y-29702567D01*
X52162571Y-29720262D01*
X52133120Y-29751206D01*
X52116326Y-29769747D01*
X52088397Y-29802157D01*
X52072577Y-29821460D01*
X52046226Y-29855284D01*
X52031350Y-29875384D01*
X52006660Y-29910529D01*
X51992821Y-29931301D01*
X51969792Y-29967790D01*
X51957002Y-29989209D01*
X51946371Y-30008056D01*
X51892380Y-30063135D01*
X51818082Y-30083839D01*
X51743387Y-30064620D01*
X51688308Y-30010629D01*
X51686279Y-30007082D01*
X51681407Y-29998285D01*
X51663970Y-29969155D01*
X51663089Y-29967790D01*
X51639973Y-29931960D01*
X51639528Y-29931301D01*
X51628365Y-29914753D01*
X51628353Y-29914735D01*
X51602584Y-29878178D01*
X51597806Y-29871792D01*
X51585458Y-29855285D01*
X51557858Y-29820485D01*
X51557834Y-29820456D01*
X51542247Y-29801748D01*
X51524927Y-29781954D01*
X51512828Y-29768126D01*
X51512825Y-29768123D01*
X51512813Y-29768109D01*
X51496511Y-29750352D01*
X51481424Y-29734685D01*
X51465322Y-29717964D01*
X51444641Y-29697684D01*
X51444631Y-29697674D01*
X51412260Y-29667701D01*
X51398311Y-29655255D01*
X51364141Y-29625881D01*
X51363599Y-29625442D01*
X51341160Y-29607266D01*
X51320303Y-29591358D01*
X51305758Y-29580264D01*
X51285860Y-29565839D01*
X51249270Y-29540645D01*
X51228666Y-29527186D01*
X51190874Y-29503791D01*
X51166861Y-29489824D01*
X51127282Y-29468236D01*
X51127260Y-29468224D01*
X51111266Y-29459867D01*
X51071666Y-29440067D01*
X51071653Y-29440061D01*
X51071643Y-29440056D01*
X51041476Y-29426192D01*
X51021252Y-29417692D01*
X51000061Y-29408786D01*
X50993327Y-29406103D01*
X50982408Y-29401753D01*
X50941052Y-29386170D01*
X50918575Y-29378300D01*
X50875988Y-29364504D01*
X50849186Y-29356633D01*
X50805983Y-29345232D01*
X50778754Y-29338847D01*
X50734935Y-29329843D01*
X50714113Y-29326017D01*
X50669731Y-29318820D01*
X50665356Y-29318226D01*
X50643868Y-29315308D01*
X50643860Y-29315307D01*
X50643837Y-29315304D01*
X50600087Y-29310509D01*
X50571926Y-29308217D01*
X50561922Y-29307683D01*
X50526922Y-29305817D01*
X50514084Y-29305388D01*
X50506808Y-29305145D01*
X50462430Y-29304545D01*
X50435150Y-29304914D01*
X50435125Y-29304914D01*
X50435124Y-29304915D01*
X50422448Y-29305428D01*
X50390696Y-29306716D01*
X50363613Y-29308545D01*
X50319203Y-29312746D01*
X50292472Y-29315994D01*
X50248048Y-29322598D01*
X50227199Y-29326144D01*
X50183381Y-29334548D01*
X50162472Y-29339019D01*
X50141352Y-29344006D01*
X50119240Y-29349227D01*
X50119231Y-29349229D01*
X50119224Y-29349231D01*
X50093859Y-29355920D01*
X50050642Y-29368525D01*
X50028267Y-29375619D01*
X49986264Y-29390020D01*
X49960131Y-29399794D01*
X49918717Y-29416599D01*
X49890948Y-29428852D01*
X49850704Y-29448073D01*
X49831787Y-29457601D01*
X49792157Y-29478617D01*
X49767916Y-29492343D01*
X49730140Y-29515128D01*
X49712360Y-29526362D01*
X49675173Y-29550954D01*
X49655052Y-29564971D01*
X49619072Y-29591356D01*
X49595720Y-29609557D01*
X49595709Y-29609566D01*
X49595704Y-29609570D01*
X49590037Y-29614260D01*
X49560879Y-29638391D01*
X49546930Y-29650370D01*
X49513955Y-29679747D01*
X49489360Y-29703187D01*
X49458168Y-29734980D01*
X49444954Y-29748970D01*
X49414968Y-29781954D01*
X49396262Y-29803744D01*
X49368059Y-29838546D01*
X49356400Y-29853498D01*
X49329406Y-29889490D01*
X49282350Y-29965372D01*
X49282349Y-29965375D01*
X49272193Y-29995629D01*
X49229559Y-30059903D01*
X49160501Y-30094248D01*
X49083521Y-30089463D01*
X49019247Y-30046829D01*
X49001166Y-30021420D01*
X48982999Y-29989213D01*
X48970199Y-29967777D01*
X48947191Y-29931321D01*
X48943395Y-29925624D01*
X48933344Y-29910537D01*
X48933343Y-29910536D01*
X48933338Y-29910528D01*
X48908638Y-29875369D01*
X48893779Y-29855291D01*
X48893774Y-29855285D01*
X48889012Y-29849172D01*
X48867437Y-29821478D01*
X48851597Y-29802152D01*
X48823661Y-29769734D01*
X48822205Y-29768126D01*
X48806896Y-29751223D01*
X48777427Y-29720261D01*
X48759738Y-29702572D01*
X48728776Y-29673103D01*
X48710293Y-29656363D01*
X48710282Y-29656354D01*
X48710266Y-29656339D01*
X48677848Y-29628403D01*
X48677261Y-29627922D01*
X48660592Y-29614260D01*
X48658522Y-29612563D01*
X48631303Y-29591358D01*
X48624707Y-29586219D01*
X48604642Y-29571370D01*
X48595533Y-29564971D01*
X48569472Y-29546662D01*
X48569471Y-29546661D01*
X48569462Y-29546655D01*
X48548698Y-29532821D01*
X48512209Y-29509792D01*
X48490781Y-29496997D01*
X48453110Y-29475748D01*
X48453106Y-29475746D01*
X48453085Y-29475734D01*
X48431037Y-29464006D01*
X48399180Y-29448056D01*
X48392124Y-29444523D01*
X48369538Y-29433905D01*
X48329532Y-29416287D01*
X48311292Y-29408786D01*
X48306451Y-29406795D01*
X48295121Y-29402459D01*
X48265281Y-29391039D01*
X48241844Y-29382726D01*
X48199671Y-29368927D01*
X48175827Y-29361769D01*
X48132666Y-29349959D01*
X48108559Y-29343995D01*
X48064453Y-29334224D01*
X48040199Y-29329469D01*
X48040194Y-29329468D01*
X48020730Y-29326144D01*
X47995149Y-29321775D01*
X47974883Y-29318820D01*
X47970810Y-29318226D01*
X47952375Y-29315994D01*
X47924898Y-29312667D01*
X47900553Y-29310316D01*
X47853836Y-29306944D01*
X47829493Y-29305776D01*
X47782098Y-29304644D01*
X47782077Y-29304644D01*
X47757923Y-29304644D01*
X47757902Y-29304644D01*
X47710506Y-29305776D01*
X47686163Y-29306944D01*
X47639446Y-29310316D01*
X47615101Y-29312667D01*
X47569190Y-29318226D01*
X47544850Y-29321775D01*
X47499800Y-29329469D01*
X47475546Y-29334224D01*
X47431440Y-29343995D01*
X47407333Y-29349959D01*
X47364172Y-29361769D01*
X47340328Y-29368927D01*
X47298155Y-29382726D01*
X47274718Y-29391039D01*
X47233551Y-29406794D01*
X47210467Y-29416287D01*
X47170461Y-29433905D01*
X47147875Y-29444523D01*
X47117230Y-29459867D01*
X47108963Y-29464006D01*
X47086927Y-29475728D01*
X47086889Y-29475748D01*
X47049218Y-29496997D01*
X47027790Y-29509792D01*
X46991301Y-29532821D01*
X46970537Y-29546655D01*
X46935357Y-29571370D01*
X46915292Y-29586219D01*
X46881478Y-29612563D01*
X46862175Y-29628383D01*
X46829706Y-29656363D01*
X46811223Y-29673103D01*
X46780261Y-29702572D01*
X46762572Y-29720261D01*
X46733103Y-29751223D01*
X46716363Y-29769706D01*
X46688383Y-29802175D01*
X46672563Y-29821478D01*
X46646219Y-29855292D01*
X46631370Y-29875357D01*
X46606655Y-29910537D01*
X46592821Y-29931301D01*
X46569792Y-29967790D01*
X46556997Y-29989218D01*
X46535748Y-30026889D01*
X46524006Y-30048963D01*
X46504523Y-30087875D01*
X46493905Y-30110461D01*
X46476287Y-30150467D01*
X46466794Y-30173551D01*
X46451039Y-30214718D01*
X46442726Y-30238155D01*
X46428927Y-30280328D01*
X46421769Y-30304172D01*
X46409959Y-30347333D01*
X46403995Y-30371440D01*
X46394224Y-30415546D01*
X46389469Y-30439800D01*
X46381775Y-30484850D01*
X46378226Y-30509190D01*
X46372667Y-30555101D01*
X46370316Y-30579446D01*
X46366944Y-30626163D01*
X46365776Y-30650506D01*
X46364644Y-30697902D01*
X42500500Y-30697902D01*
X42500500Y-27399500D01*
X42520462Y-27325000D01*
X42575000Y-27270462D01*
X42649500Y-27250500D01*
X84050500Y-27250500D01*
X84125000Y-27270462D01*
G37*
%TD.AperFunction*%
%TD*%
%TA.AperFunction,Conductor*%
%TO.N,Net-(L1-Pad3)*%
G36*
X53437539Y-73419685D02*
G01*
X53483294Y-73472489D01*
X53494500Y-73524000D01*
X53494500Y-75676000D01*
X53474815Y-75743039D01*
X53422011Y-75788794D01*
X53370500Y-75800000D01*
X50999999Y-75800000D01*
X50400000Y-76399999D01*
X50400000Y-80948638D01*
X50380315Y-81015677D01*
X50363681Y-81036319D01*
X49836319Y-81563681D01*
X49774996Y-81597166D01*
X49748638Y-81600000D01*
X47051362Y-81600000D01*
X46984323Y-81580315D01*
X46963681Y-81563681D01*
X46436319Y-81036319D01*
X46402834Y-80974996D01*
X46400000Y-80948638D01*
X46400000Y-74051362D01*
X46419685Y-73984323D01*
X46436319Y-73963681D01*
X46963681Y-73436319D01*
X47025004Y-73402834D01*
X47051362Y-73400000D01*
X53370500Y-73400000D01*
X53437539Y-73419685D01*
G37*
%TD.AperFunction*%
%TD*%
%TA.AperFunction,Conductor*%
%TO.N,out*%
G36*
X71067529Y-59219685D02*
G01*
X71085893Y-59234098D01*
X71661405Y-59780835D01*
X71696451Y-59841279D01*
X71700000Y-59870734D01*
X71700000Y-62825000D01*
X71875000Y-63000000D01*
X72217388Y-63000000D01*
X72246828Y-63008644D01*
X72276815Y-63015168D01*
X72281830Y-63018922D01*
X72284427Y-63019685D01*
X72305069Y-63036319D01*
X72363681Y-63094931D01*
X72397166Y-63156254D01*
X72400000Y-63182612D01*
X72400000Y-72548638D01*
X72380315Y-72615677D01*
X72363681Y-72636319D01*
X71836319Y-73163681D01*
X71774996Y-73197166D01*
X71748638Y-73200000D01*
X69199999Y-73200000D01*
X68600000Y-73799999D01*
X68600000Y-79948638D01*
X68580315Y-80015677D01*
X68563681Y-80036319D01*
X68036319Y-80563681D01*
X67974996Y-80597166D01*
X67948638Y-80600000D01*
X63851362Y-80600000D01*
X63784323Y-80580315D01*
X63763681Y-80563681D01*
X63236319Y-80036319D01*
X63202834Y-79974996D01*
X63200000Y-79948638D01*
X63200000Y-77051362D01*
X63219685Y-76984323D01*
X63236319Y-76963681D01*
X63763681Y-76436319D01*
X63825004Y-76402834D01*
X63851362Y-76400000D01*
X64600000Y-76400000D01*
X65200000Y-75600000D01*
X65200000Y-60651362D01*
X65219685Y-60584323D01*
X65236319Y-60563681D01*
X66563681Y-59236319D01*
X66625004Y-59202834D01*
X66651362Y-59200000D01*
X71000490Y-59200000D01*
X71067529Y-59219685D01*
G37*
%TD.AperFunction*%
%TD*%
%TA.AperFunction,Conductor*%
%TO.N,Net-(L1-Pad2)*%
G36*
X52543039Y-53619685D02*
G01*
X52588794Y-53672489D01*
X52600000Y-53724000D01*
X52600000Y-60348638D01*
X52580315Y-60415677D01*
X52563681Y-60436319D01*
X51536319Y-61463681D01*
X51474996Y-61497166D01*
X51448638Y-61500000D01*
X47651362Y-61500000D01*
X47584323Y-61480315D01*
X47563681Y-61463681D01*
X46536319Y-60436319D01*
X46502834Y-60374996D01*
X46500000Y-60348638D01*
X46500000Y-53724000D01*
X46519685Y-53656961D01*
X46572489Y-53611206D01*
X46624000Y-53600000D01*
X52476000Y-53600000D01*
X52543039Y-53619685D01*
G37*
%TD.AperFunction*%
%TD*%
%TA.AperFunction,Conductor*%
%TO.N,+24V*%
G36*
X57187162Y-38019685D02*
G01*
X57207804Y-38036319D01*
X57360166Y-38188681D01*
X57393651Y-38250004D01*
X57396485Y-38276362D01*
X57396485Y-38900000D01*
X57696485Y-39200000D01*
X59353904Y-39200000D01*
X59420943Y-39219685D01*
X59466698Y-39272489D01*
X59476642Y-39341647D01*
X59468465Y-39371452D01*
X59445801Y-39426167D01*
X59411724Y-39553341D01*
X59394500Y-39684166D01*
X59394500Y-40315833D01*
X59411724Y-40446658D01*
X59445800Y-40573829D01*
X59496302Y-40695750D01*
X59496303Y-40695751D01*
X59562120Y-40809749D01*
X59562132Y-40809767D01*
X59642455Y-40914444D01*
X59642459Y-40914449D01*
X59735551Y-41007541D01*
X59735555Y-41007544D01*
X59840232Y-41087867D01*
X59840236Y-41087869D01*
X59840243Y-41087875D01*
X59840250Y-41087879D01*
X59954248Y-41153696D01*
X59954249Y-41153697D01*
X59954252Y-41153698D01*
X59954257Y-41153701D01*
X60076171Y-41204200D01*
X60203338Y-41238275D01*
X60334174Y-41255500D01*
X60334181Y-41255500D01*
X60950000Y-41255500D01*
X61021940Y-41250355D01*
X61159992Y-41209819D01*
X61159993Y-41209818D01*
X61168501Y-41207320D01*
X61169389Y-41210344D01*
X61223123Y-41202596D01*
X61248853Y-41209156D01*
X61342517Y-41244091D01*
X61402127Y-41250500D01*
X62497872Y-41250499D01*
X62557483Y-41244091D01*
X62692331Y-41193796D01*
X62807546Y-41107546D01*
X62893796Y-40992331D01*
X62944091Y-40857483D01*
X62950500Y-40797873D01*
X62950499Y-39323999D01*
X62970184Y-39256961D01*
X63022987Y-39211206D01*
X63074499Y-39200000D01*
X64172485Y-39200000D01*
X64239524Y-39219685D01*
X64285279Y-39272489D01*
X64296485Y-39324000D01*
X64296485Y-43798638D01*
X64276800Y-43865677D01*
X64260166Y-43886319D01*
X62682804Y-45463681D01*
X62621481Y-45497166D01*
X62595123Y-45500000D01*
X55995761Y-45500000D01*
X55978115Y-45498738D01*
X55948639Y-45494500D01*
X55948638Y-45494500D01*
X53651362Y-45494500D01*
X53651360Y-45494500D01*
X53597311Y-45497397D01*
X53597310Y-45497397D01*
X53570977Y-45500229D01*
X53570950Y-45500232D01*
X53517554Y-45508885D01*
X53517552Y-45508885D01*
X53382747Y-45559166D01*
X53321422Y-45592651D01*
X53206240Y-45678876D01*
X53206228Y-45678886D01*
X52678892Y-46206223D01*
X52678855Y-46206262D01*
X52642728Y-46246480D01*
X52642718Y-46246492D01*
X52626076Y-46267143D01*
X52594433Y-46311025D01*
X52534663Y-46441899D01*
X52514976Y-46508944D01*
X52494500Y-46651363D01*
X52494500Y-52970500D01*
X52474815Y-53037539D01*
X52422011Y-53083294D01*
X52370500Y-53094500D01*
X46625876Y-53094500D01*
X46558837Y-53074815D01*
X46513082Y-53022011D01*
X46501877Y-52970131D01*
X46541646Y-39624131D01*
X46561530Y-39557150D01*
X46614470Y-39511553D01*
X46665645Y-39500500D01*
X46768614Y-39500500D01*
X46768622Y-39500500D01*
X46821241Y-39497705D01*
X47051126Y-39453245D01*
X47270190Y-39370574D01*
X47472132Y-39252070D01*
X47651142Y-39101142D01*
X47802070Y-38922132D01*
X47920574Y-38720190D01*
X48003245Y-38501126D01*
X48047705Y-38271241D01*
X48050500Y-38218622D01*
X48050500Y-38124000D01*
X48070185Y-38056961D01*
X48122989Y-38011206D01*
X48174500Y-38000000D01*
X57120123Y-38000000D01*
X57187162Y-38019685D01*
G37*
%TD.AperFunction*%
%TD*%
%TA.AperFunction,Conductor*%
%TO.N,Net-(Q1-D)*%
G36*
X67772177Y-43619685D02*
G01*
X67792819Y-43636319D01*
X72064170Y-47907669D01*
X76270536Y-52114035D01*
X76395965Y-52239464D01*
X76395966Y-52239465D01*
X76543446Y-52338009D01*
X76543459Y-52338016D01*
X76666363Y-52388923D01*
X76707334Y-52405894D01*
X76707336Y-52405894D01*
X76707341Y-52405896D01*
X76881304Y-52440499D01*
X76881307Y-52440500D01*
X76881309Y-52440500D01*
X79054242Y-52440500D01*
X79121281Y-52460185D01*
X79141923Y-52476819D01*
X79235213Y-52570109D01*
X79407179Y-52695048D01*
X79407181Y-52695049D01*
X79407184Y-52695051D01*
X79596588Y-52791557D01*
X79798757Y-52857246D01*
X80008713Y-52890500D01*
X80008714Y-52890500D01*
X80221286Y-52890500D01*
X80221287Y-52890500D01*
X80431243Y-52857246D01*
X80633412Y-52791557D01*
X80719206Y-52747842D01*
X80787874Y-52734947D01*
X80852614Y-52761223D01*
X80892872Y-52818329D01*
X80899500Y-52858328D01*
X80899500Y-53725637D01*
X80879815Y-53792676D01*
X80863181Y-53813318D01*
X79965817Y-54710681D01*
X79904494Y-54744166D01*
X79878136Y-54747000D01*
X79452129Y-54747000D01*
X79452123Y-54747001D01*
X79392516Y-54753408D01*
X79257671Y-54803702D01*
X79257664Y-54803706D01*
X79142455Y-54889952D01*
X79142452Y-54889955D01*
X79056206Y-55005164D01*
X79056202Y-55005171D01*
X79005908Y-55140017D01*
X78999501Y-55199616D01*
X78999500Y-55199635D01*
X78999500Y-57200370D01*
X78999501Y-57200376D01*
X79005908Y-57259983D01*
X79056202Y-57394828D01*
X79056206Y-57394835D01*
X79142452Y-57510044D01*
X79142455Y-57510047D01*
X79257664Y-57596293D01*
X79257671Y-57596297D01*
X79392517Y-57646591D01*
X79392516Y-57646591D01*
X79399444Y-57647335D01*
X79452127Y-57653000D01*
X81547872Y-57652999D01*
X81607483Y-57646591D01*
X81742331Y-57596296D01*
X81801688Y-57551860D01*
X81867153Y-57527443D01*
X81935426Y-57542294D01*
X81984832Y-57591699D01*
X82000000Y-57651127D01*
X82000000Y-59876000D01*
X81980315Y-59943039D01*
X81927511Y-59988794D01*
X81876000Y-60000000D01*
X81265636Y-60000000D01*
X81209341Y-59986485D01*
X81105255Y-59933450D01*
X80887748Y-59862778D01*
X80718326Y-59835944D01*
X80661854Y-59827000D01*
X80338146Y-59827000D01*
X80279309Y-59836319D01*
X80112253Y-59862778D01*
X80112250Y-59862778D01*
X79894744Y-59933450D01*
X79790659Y-59986485D01*
X79734364Y-60000000D01*
X76401362Y-60000000D01*
X76371921Y-59991355D01*
X76341935Y-59984832D01*
X76336919Y-59981077D01*
X76334323Y-59980315D01*
X76313681Y-59963681D01*
X76186319Y-59836319D01*
X76152834Y-59774996D01*
X76150000Y-59748638D01*
X76150000Y-59400000D01*
X75150000Y-58400000D01*
X73400000Y-58400000D01*
X73399999Y-58400000D01*
X72274084Y-59525915D01*
X72212761Y-59559400D01*
X72143069Y-59554416D01*
X72089074Y-59515065D01*
X72009571Y-59414351D01*
X72009568Y-59414348D01*
X71434061Y-58867616D01*
X71434056Y-58867611D01*
X71397989Y-58836447D01*
X71397986Y-58836444D01*
X71397976Y-58836436D01*
X71379625Y-58822034D01*
X71379609Y-58822022D01*
X71340833Y-58794437D01*
X71340827Y-58794434D01*
X71340828Y-58794434D01*
X71340826Y-58794433D01*
X71262979Y-58758881D01*
X71209952Y-58734663D01*
X71142907Y-58714976D01*
X71095434Y-58708150D01*
X71000490Y-58694500D01*
X66651362Y-58694500D01*
X66651360Y-58694500D01*
X66597311Y-58697397D01*
X66597310Y-58697397D01*
X66570977Y-58700229D01*
X66570950Y-58700232D01*
X66517554Y-58708885D01*
X66517552Y-58708885D01*
X66382747Y-58759166D01*
X66321422Y-58792651D01*
X66206240Y-58878876D01*
X66206228Y-58878886D01*
X64878892Y-60206223D01*
X64878855Y-60206262D01*
X64842728Y-60246480D01*
X64842718Y-60246492D01*
X64826076Y-60267143D01*
X64794433Y-60311025D01*
X64734663Y-60441899D01*
X64714976Y-60508944D01*
X64694500Y-60651363D01*
X64694500Y-61900345D01*
X64674815Y-61967384D01*
X64622011Y-62013139D01*
X64552853Y-62023083D01*
X64497974Y-62000923D01*
X64488974Y-61994433D01*
X64358100Y-61934663D01*
X64291055Y-61914976D01*
X64243582Y-61908150D01*
X64148638Y-61894500D01*
X64148636Y-61894500D01*
X57460746Y-61894500D01*
X57393707Y-61874815D01*
X57373065Y-61858181D01*
X57141819Y-61626935D01*
X57108334Y-61565612D01*
X57105500Y-61539254D01*
X57105500Y-56821686D01*
X61637933Y-56821686D01*
X73764524Y-56821686D01*
X73764524Y-51187190D01*
X61637933Y-51187190D01*
X61637933Y-56821686D01*
X57105500Y-56821686D01*
X57105500Y-46651359D01*
X57102602Y-46597311D01*
X57102602Y-46597310D01*
X57099770Y-46570977D01*
X57099767Y-46570950D01*
X57091114Y-46517554D01*
X57091114Y-46517552D01*
X57040833Y-46382747D01*
X57040832Y-46382743D01*
X57007347Y-46321420D01*
X56921123Y-46206239D01*
X56921121Y-46206237D01*
X56919305Y-46203811D01*
X56894888Y-46138346D01*
X56909740Y-46070073D01*
X56959145Y-46020668D01*
X57018572Y-46005500D01*
X62595125Y-46005500D01*
X62605271Y-46004955D01*
X62649163Y-46002603D01*
X62649171Y-46002602D01*
X62649173Y-46002602D01*
X62649174Y-46002602D01*
X62656167Y-46001849D01*
X62675521Y-45999769D01*
X62675531Y-45999767D01*
X62675534Y-45999767D01*
X62685133Y-45998211D01*
X62728933Y-45991114D01*
X62863742Y-45940832D01*
X62925065Y-45907347D01*
X63040246Y-45821123D01*
X64617608Y-44243761D01*
X64653773Y-44203500D01*
X64670407Y-44182858D01*
X64702052Y-44138974D01*
X64761823Y-44008097D01*
X64781508Y-43941058D01*
X64781509Y-43941054D01*
X64801985Y-43798638D01*
X64801985Y-43724000D01*
X64821670Y-43656961D01*
X64874474Y-43611206D01*
X64925985Y-43600000D01*
X67705138Y-43600000D01*
X67772177Y-43619685D01*
G37*
%TD.AperFunction*%
%TD*%
M02*
