M48
; DRILL file {KiCad 9.0.1} date 2025-08-30T16:28:26-0400
; FORMAT={-:-/ absolute / metric / decimal}
; #@! TF.CreationDate,2025-08-30T16:28:26-04:00
; #@! TF.GenerationSoftware,Kicad,Pcbnew,9.0.1
; #@! TF.FileFunction,MixedPlating,1,2
FMAT,2
METRIC
; #@! TA.AperFunction,Plated,PTH,ComponentDrill
T1C0.800
; #@! TA.AperFunction,Plated,PTH,ComponentDrill
T2C0.900
; #@! TA.AperFunction,Plated,PTH,ComponentDrill
T3C1.000
; #@! TA.AperFunction,Plated,PTH,ComponentDrill
T4C1.100
; #@! TA.AperFunction,Plated,PTH,ComponentDrill
T5C1.300
%
G90
G05
T1
X54.67Y-52.75
X56.67Y-52.75
X60.92Y-52.75
X62.92Y-52.75
X66.42Y-61.5
X67.92Y-38.65
X67.92Y-51.35
X71.42Y-61.5
X71.59Y-40.19
X71.59Y-42.73
X71.59Y-45.27
X71.59Y-47.81
X73.0Y-36.75
X78.0Y-36.75
X79.21Y-40.19
X79.21Y-42.73
X79.21Y-45.27
X79.21Y-47.81
T2
X64.11Y-69.25
X71.73Y-69.25
T3
X79.115Y-51.925
X79.115Y-54.465
T4
X48.34Y-59.59
X48.34Y-79.91
X58.5Y-59.59
X58.5Y-79.91
X79.75Y-60.52
X79.75Y-63.06
X79.75Y-65.6
T5
X59.385Y-31.827
X64.465Y-31.827
X65.5Y-78.5
X70.58Y-78.5
T3
G00X45.8Y-36.25
M15
G01X45.8Y-38.25
M16
G05
G00X51.5Y-34.25
M15
G01X49.5Y-34.25
M16
G05
G00X51.5Y-40.25
M15
G01X49.5Y-40.25
M16
G05
M30
