%TF.GenerationSoftware,KiCad,Pcbnew,9.0.1*%
%TF.CreationDate,2025-09-11T13:58:11-03:00*%
%TF.ProjectId,SEPIC,53455049-432e-46b6-9963-61645f706362,rev?*%
%TF.SameCoordinates,Original*%
%TF.FileFunction,Copper,L2,Bot*%
%TF.FilePolarity,Positive*%
%FSLAX46Y46*%
G04 Gerber Fmt 4.6, Leading zero omitted, Abs format (unit mm)*
G04 Created by KiCad (PCBNEW 9.0.1) date 2025-09-11 13:58:11*
%MOMM*%
%LPD*%
G01*
G04 APERTURE LIST*
G04 Aperture macros list*
%AMRoundRect*
0 Rectangle with rounded corners*
0 $1 Rounding radius*
0 $2 $3 $4 $5 $6 $7 $8 $9 X,Y pos of 4 corners*
0 Add a 4 corners polygon primitive as box body*
4,1,4,$2,$3,$4,$5,$6,$7,$8,$9,$2,$3,0*
0 Add four circle primitives for the rounded corners*
1,1,$1+$1,$2,$3*
1,1,$1+$1,$4,$5*
1,1,$1+$1,$6,$7*
1,1,$1+$1,$8,$9*
0 Add four rect primitives between the rounded corners*
20,1,$1+$1,$2,$3,$4,$5,0*
20,1,$1+$1,$4,$5,$6,$7,0*
20,1,$1+$1,$6,$7,$8,$9,0*
20,1,$1+$1,$8,$9,$2,$3,0*%
%AMFreePoly0*
4,1,23,0.000000,0.745722,0.065263,0.745722,0.191342,0.711940,0.304381,0.646677,0.396677,0.554381,0.461940,0.441342,0.495722,0.315263,0.495722,0.250000,0.500000,0.250000,0.500000,-0.250000,0.495722,-0.250000,0.495722,-0.315263,0.461940,-0.441342,0.396677,-0.554381,0.304381,-0.646677,0.191342,-0.711940,0.065263,-0.745722,0.000000,-0.745722,0.000000,-0.750000,-0.550000,-0.750000,
-0.550000,0.750000,0.000000,0.750000,0.000000,0.745722,0.000000,0.745722,$1*%
%AMFreePoly1*
4,1,23,0.550000,-0.750000,0.000000,-0.750000,0.000000,-0.745722,-0.065263,-0.745722,-0.191342,-0.711940,-0.304381,-0.646677,-0.396677,-0.554381,-0.461940,-0.441342,-0.495722,-0.315263,-0.495722,-0.250000,-0.500000,-0.250000,-0.500000,0.250000,-0.495722,0.250000,-0.495722,0.315263,-0.461940,0.441342,-0.396677,0.554381,-0.304381,0.646677,-0.191342,0.711940,-0.065263,0.745722,0.000000,0.745722,
0.000000,0.750000,0.550000,0.750000,0.550000,-0.750000,0.550000,-0.750000,$1*%
G04 Aperture macros list end*
%TA.AperFunction,NonConductor*%
%ADD10C,0.000000*%
%TD*%
%ADD11C,0.400000*%
%TA.AperFunction,ComponentPad*%
%ADD12C,2.000000*%
%TD*%
%TA.AperFunction,ComponentPad*%
%ADD13RoundRect,0.875000X-0.875000X0.875000X-0.875000X-0.875000X0.875000X-0.875000X0.875000X0.875000X0*%
%TD*%
%TA.AperFunction,ComponentPad*%
%ADD14RoundRect,0.750000X-1.000000X0.750000X-1.000000X-0.750000X1.000000X-0.750000X1.000000X0.750000X0*%
%TD*%
%TA.AperFunction,ComponentPad*%
%ADD15R,3.500000X3.500000*%
%TD*%
%TA.AperFunction,ComponentPad*%
%ADD16C,2.200000*%
%TD*%
%TA.AperFunction,ComponentPad*%
%ADD17R,2.200000X2.200000*%
%TD*%
%TA.AperFunction,ComponentPad*%
%ADD18O,2.400000X2.400000*%
%TD*%
%TA.AperFunction,ComponentPad*%
%ADD19C,2.400000*%
%TD*%
%TA.AperFunction,ComponentPad*%
%ADD20C,1.700000*%
%TD*%
%TA.AperFunction,ComponentPad*%
%ADD21R,1.700000X1.700000*%
%TD*%
%TA.AperFunction,ComponentPad*%
%ADD22R,2.000000X2.000000*%
%TD*%
%TA.AperFunction,ComponentPad*%
%ADD23C,2.600000*%
%TD*%
%TA.AperFunction,ComponentPad*%
%ADD24RoundRect,0.250000X1.050000X1.050000X-1.050000X1.050000X-1.050000X-1.050000X1.050000X-1.050000X0*%
%TD*%
%TA.AperFunction,ComponentPad*%
%ADD25RoundRect,0.250000X-1.050000X-1.050000X1.050000X-1.050000X1.050000X1.050000X-1.050000X1.050000X0*%
%TD*%
%TA.AperFunction,ComponentPad*%
%ADD26RoundRect,0.312500X-0.687500X-0.687500X0.687500X-0.687500X0.687500X0.687500X-0.687500X0.687500X0*%
%TD*%
%TA.AperFunction,ComponentPad*%
%ADD27O,2.000000X1.905000*%
%TD*%
%TA.AperFunction,ComponentPad*%
%ADD28R,2.000000X1.905000*%
%TD*%
%TA.AperFunction,SMDPad,CuDef*%
%ADD29FreePoly0,0.000000*%
%TD*%
%TA.AperFunction,SMDPad,CuDef*%
%ADD30R,1.000000X1.500000*%
%TD*%
%TA.AperFunction,SMDPad,CuDef*%
%ADD31FreePoly1,0.000000*%
%TD*%
%TA.AperFunction,Conductor*%
%ADD32C,0.800000*%
%TD*%
G04 APERTURE END LIST*
D10*
%TA.AperFunction,NonConductor*%
G36*
X47860000Y-31160000D02*
G01*
X47680000Y-31160000D01*
X47680000Y-30260000D01*
X47770000Y-30260000D01*
X47860000Y-30260000D01*
X47860000Y-31160000D01*
G37*
%TD.AperFunction*%
%TA.AperFunction,NonConductor*%
G36*
X50200000Y-30800000D02*
G01*
X48640000Y-30800000D01*
X48640000Y-30620000D01*
X49420000Y-30620000D01*
X50200000Y-30620000D01*
X50200000Y-30800000D01*
G37*
%TD.AperFunction*%
%TA.AperFunction,NonConductor*%
G36*
X48220000Y-30800000D02*
G01*
X47320000Y-30800000D01*
X47320000Y-30620000D01*
X47770000Y-30620000D01*
X48220000Y-30620000D01*
X48220000Y-30800000D01*
G37*
%TD.AperFunction*%
%TA.AperFunction,NonConductor*%
G36*
X54068866Y-30757453D02*
G01*
X54065496Y-30804153D01*
X54059940Y-30850051D01*
X54052246Y-30895098D01*
X54042466Y-30939243D01*
X54030647Y-30982439D01*
X54016840Y-31024635D01*
X54001094Y-31065781D01*
X53983458Y-31105829D01*
X53963982Y-31144729D01*
X53942715Y-31182431D01*
X53919707Y-31218887D01*
X53895007Y-31254046D01*
X53868665Y-31287859D01*
X53840729Y-31320277D01*
X53811250Y-31351250D01*
X53780277Y-31380729D01*
X53747859Y-31408665D01*
X53714046Y-31435007D01*
X53678887Y-31459707D01*
X53642432Y-31482715D01*
X53604729Y-31503982D01*
X53565829Y-31523458D01*
X53525781Y-31541094D01*
X53484635Y-31556840D01*
X53442439Y-31570647D01*
X53399244Y-31582466D01*
X53355098Y-31592246D01*
X53310051Y-31599939D01*
X53264153Y-31605496D01*
X53217453Y-31608866D01*
X53170000Y-31610000D01*
X53122548Y-31608866D01*
X53075847Y-31605496D01*
X53029949Y-31599939D01*
X52984903Y-31592246D01*
X52940757Y-31582466D01*
X52897561Y-31570647D01*
X52855366Y-31556840D01*
X52814219Y-31541094D01*
X52774171Y-31523458D01*
X52735271Y-31503982D01*
X52697569Y-31482715D01*
X52661114Y-31459707D01*
X52625955Y-31435007D01*
X52592141Y-31408665D01*
X52559724Y-31380729D01*
X52528750Y-31351250D01*
X52499271Y-31320277D01*
X52471336Y-31287859D01*
X52444993Y-31254046D01*
X52420293Y-31218887D01*
X52397285Y-31182431D01*
X52376018Y-31144729D01*
X52356542Y-31105829D01*
X52338907Y-31065781D01*
X52323160Y-31024635D01*
X52309353Y-30982439D01*
X52297535Y-30939243D01*
X52287754Y-30895098D01*
X52280061Y-30850051D01*
X52274505Y-30804153D01*
X52271135Y-30757453D01*
X52270014Y-30710600D01*
X52468600Y-30710600D01*
X52469485Y-30747613D01*
X52472114Y-30784039D01*
X52476448Y-30819840D01*
X52482448Y-30854976D01*
X52490077Y-30889410D01*
X52499296Y-30923102D01*
X52510065Y-30956015D01*
X52522347Y-30988109D01*
X52536103Y-31019347D01*
X52551294Y-31049689D01*
X52567882Y-31079096D01*
X52585829Y-31107532D01*
X52605095Y-31134956D01*
X52625642Y-31161330D01*
X52647432Y-31186616D01*
X52670425Y-31210775D01*
X52694584Y-31233769D01*
X52719870Y-31255558D01*
X52746245Y-31276105D01*
X52773669Y-31295371D01*
X52802104Y-31313318D01*
X52831512Y-31329906D01*
X52861854Y-31345097D01*
X52893091Y-31358853D01*
X52925185Y-31371135D01*
X52958098Y-31381905D01*
X52991790Y-31391123D01*
X53026224Y-31398752D01*
X53061361Y-31404753D01*
X53097161Y-31409087D01*
X53133587Y-31411715D01*
X53170600Y-31412600D01*
X53207613Y-31411715D01*
X53244039Y-31409087D01*
X53279840Y-31404753D01*
X53314976Y-31398752D01*
X53349410Y-31391123D01*
X53383103Y-31381905D01*
X53416015Y-31371135D01*
X53448110Y-31358853D01*
X53479347Y-31345097D01*
X53509689Y-31329906D01*
X53539097Y-31313318D01*
X53567532Y-31295371D01*
X53594956Y-31276105D01*
X53621330Y-31255558D01*
X53646616Y-31233769D01*
X53670775Y-31210775D01*
X53693769Y-31186616D01*
X53715559Y-31161330D01*
X53736106Y-31134956D01*
X53755372Y-31107532D01*
X53773318Y-31079096D01*
X53789906Y-31049689D01*
X53805097Y-31019347D01*
X53818853Y-30988109D01*
X53831135Y-30956015D01*
X53841905Y-30923102D01*
X53851123Y-30889410D01*
X53858752Y-30854976D01*
X53864753Y-30819840D01*
X53869087Y-30784039D01*
X53871715Y-30747613D01*
X53872600Y-30710600D01*
X53871715Y-30673587D01*
X53869087Y-30637161D01*
X53864753Y-30601360D01*
X53858752Y-30566224D01*
X53851123Y-30531790D01*
X53841905Y-30498098D01*
X53831135Y-30465185D01*
X53818853Y-30433091D01*
X53805097Y-30401853D01*
X53789906Y-30371511D01*
X53773318Y-30342104D01*
X53755372Y-30313668D01*
X53736106Y-30286244D01*
X53715559Y-30259870D01*
X53693769Y-30234584D01*
X53670775Y-30210425D01*
X53646616Y-30187431D01*
X53621330Y-30165642D01*
X53594956Y-30145095D01*
X53567532Y-30125829D01*
X53539097Y-30107882D01*
X53509689Y-30091294D01*
X53479347Y-30076103D01*
X53448110Y-30062347D01*
X53416015Y-30050065D01*
X53383103Y-30039295D01*
X53349410Y-30030077D01*
X53314976Y-30022448D01*
X53279840Y-30016447D01*
X53244039Y-30012114D01*
X53207613Y-30009485D01*
X53170600Y-30008600D01*
X53133587Y-30009485D01*
X53097161Y-30012114D01*
X53061361Y-30016447D01*
X53026224Y-30022448D01*
X52991790Y-30030077D01*
X52958098Y-30039295D01*
X52925185Y-30050065D01*
X52893091Y-30062347D01*
X52861854Y-30076103D01*
X52831512Y-30091294D01*
X52802104Y-30107882D01*
X52773669Y-30125829D01*
X52746245Y-30145095D01*
X52719870Y-30165642D01*
X52694584Y-30187431D01*
X52670425Y-30210425D01*
X52647432Y-30234584D01*
X52625642Y-30259870D01*
X52605095Y-30286244D01*
X52585829Y-30313668D01*
X52567882Y-30342104D01*
X52551294Y-30371511D01*
X52536103Y-30401853D01*
X52522347Y-30433091D01*
X52510065Y-30465185D01*
X52499296Y-30498098D01*
X52490077Y-30531790D01*
X52482448Y-30566224D01*
X52476448Y-30601360D01*
X52472114Y-30637161D01*
X52469485Y-30673587D01*
X52468600Y-30710600D01*
X52270014Y-30710600D01*
X52270000Y-30710000D01*
X52271135Y-30662547D01*
X52274505Y-30615847D01*
X52280061Y-30569949D01*
X52287754Y-30524902D01*
X52297535Y-30480757D01*
X52309353Y-30437561D01*
X52323160Y-30395365D01*
X52338907Y-30354219D01*
X52356542Y-30314171D01*
X52376018Y-30275271D01*
X52397285Y-30237569D01*
X52420293Y-30201113D01*
X52444993Y-30165954D01*
X52471336Y-30132141D01*
X52499271Y-30099723D01*
X52528750Y-30068750D01*
X52559724Y-30039271D01*
X52592141Y-30011335D01*
X52625955Y-29984993D01*
X52661114Y-29960293D01*
X52697569Y-29937285D01*
X52735271Y-29916018D01*
X52774171Y-29896542D01*
X52814219Y-29878906D01*
X52855366Y-29863160D01*
X52897561Y-29849353D01*
X52940757Y-29837534D01*
X52984903Y-29827754D01*
X53029949Y-29820061D01*
X53075847Y-29814504D01*
X53122548Y-29811134D01*
X53170000Y-29810000D01*
X53217453Y-29811134D01*
X53264153Y-29814504D01*
X53310051Y-29820061D01*
X53355098Y-29827754D01*
X53399244Y-29837534D01*
X53442439Y-29849353D01*
X53484635Y-29863160D01*
X53525781Y-29878906D01*
X53565829Y-29896542D01*
X53604729Y-29916018D01*
X53642432Y-29937285D01*
X53678887Y-29960293D01*
X53714046Y-29984993D01*
X53747859Y-30011335D01*
X53780277Y-30039271D01*
X53811250Y-30068750D01*
X53840729Y-30099723D01*
X53868665Y-30132141D01*
X53895007Y-30165954D01*
X53919707Y-30201113D01*
X53942715Y-30237569D01*
X53963982Y-30275271D01*
X53983458Y-30314171D01*
X54001094Y-30354219D01*
X54016840Y-30395365D01*
X54030647Y-30437561D01*
X54042466Y-30480757D01*
X54052246Y-30524902D01*
X54059940Y-30569949D01*
X54065496Y-30615847D01*
X54068866Y-30662547D01*
X54070000Y-30710000D01*
X54069986Y-30710600D01*
X54068866Y-30757453D01*
G37*
%TD.AperFunction*%
%TA.AperFunction,NonConductor*%
G36*
X48668866Y-30757453D02*
G01*
X48665496Y-30804153D01*
X48659939Y-30850051D01*
X48652246Y-30895098D01*
X48642466Y-30939243D01*
X48630647Y-30982439D01*
X48616840Y-31024635D01*
X48601094Y-31065781D01*
X48583458Y-31105829D01*
X48563982Y-31144729D01*
X48542715Y-31182431D01*
X48519707Y-31218887D01*
X48495007Y-31254046D01*
X48468665Y-31287859D01*
X48440729Y-31320277D01*
X48411250Y-31351250D01*
X48380277Y-31380729D01*
X48347859Y-31408665D01*
X48314046Y-31435007D01*
X48278887Y-31459707D01*
X48242431Y-31482715D01*
X48204729Y-31503982D01*
X48165829Y-31523458D01*
X48125781Y-31541094D01*
X48084635Y-31556840D01*
X48042439Y-31570647D01*
X47999243Y-31582466D01*
X47955098Y-31592246D01*
X47910051Y-31599939D01*
X47864153Y-31605496D01*
X47817453Y-31608866D01*
X47770000Y-31610000D01*
X47722547Y-31608866D01*
X47675847Y-31605496D01*
X47629949Y-31599939D01*
X47584902Y-31592246D01*
X47540757Y-31582466D01*
X47497561Y-31570647D01*
X47455365Y-31556840D01*
X47414219Y-31541094D01*
X47374171Y-31523458D01*
X47335271Y-31503982D01*
X47297569Y-31482715D01*
X47261113Y-31459707D01*
X47225954Y-31435007D01*
X47192141Y-31408665D01*
X47159723Y-31380729D01*
X47128750Y-31351250D01*
X47099271Y-31320277D01*
X47071335Y-31287859D01*
X47044993Y-31254046D01*
X47020293Y-31218887D01*
X46997285Y-31182431D01*
X46976018Y-31144729D01*
X46956542Y-31105829D01*
X46938906Y-31065781D01*
X46923160Y-31024635D01*
X46909353Y-30982439D01*
X46897534Y-30939243D01*
X46887754Y-30895098D01*
X46880061Y-30850051D01*
X46874504Y-30804153D01*
X46871134Y-30757453D01*
X46870014Y-30710600D01*
X47068600Y-30710600D01*
X47069485Y-30747613D01*
X47072114Y-30784039D01*
X47076448Y-30819840D01*
X47082448Y-30854976D01*
X47090077Y-30889410D01*
X47099296Y-30923102D01*
X47110065Y-30956015D01*
X47122347Y-30988109D01*
X47136103Y-31019347D01*
X47151294Y-31049689D01*
X47167882Y-31079096D01*
X47185829Y-31107532D01*
X47205095Y-31134956D01*
X47225642Y-31161330D01*
X47247432Y-31186616D01*
X47270425Y-31210775D01*
X47294584Y-31233769D01*
X47319870Y-31255558D01*
X47346245Y-31276105D01*
X47373669Y-31295371D01*
X47402104Y-31313318D01*
X47431512Y-31329906D01*
X47461853Y-31345097D01*
X47493091Y-31358853D01*
X47525185Y-31371135D01*
X47558098Y-31381905D01*
X47591790Y-31391123D01*
X47626224Y-31398752D01*
X47661360Y-31404753D01*
X47697161Y-31409087D01*
X47733587Y-31411715D01*
X47770600Y-31412600D01*
X47807613Y-31411715D01*
X47844039Y-31409087D01*
X47879840Y-31404753D01*
X47914976Y-31398752D01*
X47949410Y-31391123D01*
X47983102Y-31381905D01*
X48016015Y-31371135D01*
X48048109Y-31358853D01*
X48079347Y-31345097D01*
X48109689Y-31329906D01*
X48139096Y-31313318D01*
X48167532Y-31295371D01*
X48194956Y-31276105D01*
X48221330Y-31255558D01*
X48246616Y-31233769D01*
X48270775Y-31210775D01*
X48293769Y-31186616D01*
X48315558Y-31161330D01*
X48336105Y-31134956D01*
X48355371Y-31107532D01*
X48373318Y-31079096D01*
X48389906Y-31049689D01*
X48405097Y-31019347D01*
X48418853Y-30988109D01*
X48431135Y-30956015D01*
X48441905Y-30923102D01*
X48451123Y-30889410D01*
X48458752Y-30854976D01*
X48464753Y-30819840D01*
X48469087Y-30784039D01*
X48471715Y-30747613D01*
X48472600Y-30710600D01*
X48471715Y-30673587D01*
X48469087Y-30637161D01*
X48464753Y-30601360D01*
X48458752Y-30566224D01*
X48451123Y-30531790D01*
X48441905Y-30498098D01*
X48431135Y-30465185D01*
X48418853Y-30433091D01*
X48405097Y-30401853D01*
X48389906Y-30371511D01*
X48373318Y-30342104D01*
X48355371Y-30313668D01*
X48336105Y-30286244D01*
X48315558Y-30259870D01*
X48293769Y-30234584D01*
X48270775Y-30210425D01*
X48246616Y-30187431D01*
X48221330Y-30165642D01*
X48194956Y-30145095D01*
X48167532Y-30125829D01*
X48139096Y-30107882D01*
X48109689Y-30091294D01*
X48079347Y-30076103D01*
X48048109Y-30062347D01*
X48016015Y-30050065D01*
X47983102Y-30039295D01*
X47949410Y-30030077D01*
X47914976Y-30022448D01*
X47879840Y-30016447D01*
X47844039Y-30012114D01*
X47807613Y-30009485D01*
X47770600Y-30008600D01*
X47733587Y-30009485D01*
X47697161Y-30012114D01*
X47661360Y-30016447D01*
X47626224Y-30022448D01*
X47591790Y-30030077D01*
X47558098Y-30039295D01*
X47525185Y-30050065D01*
X47493091Y-30062347D01*
X47461853Y-30076103D01*
X47431512Y-30091294D01*
X47402104Y-30107882D01*
X47373669Y-30125829D01*
X47346245Y-30145095D01*
X47319870Y-30165642D01*
X47294584Y-30187431D01*
X47270425Y-30210425D01*
X47247432Y-30234584D01*
X47225642Y-30259870D01*
X47205095Y-30286244D01*
X47185829Y-30313668D01*
X47167882Y-30342104D01*
X47151294Y-30371511D01*
X47136103Y-30401853D01*
X47122347Y-30433091D01*
X47110065Y-30465185D01*
X47099296Y-30498098D01*
X47090077Y-30531790D01*
X47082448Y-30566224D01*
X47076448Y-30601360D01*
X47072114Y-30637161D01*
X47069485Y-30673587D01*
X47068600Y-30710600D01*
X46870014Y-30710600D01*
X46870000Y-30710000D01*
X46871134Y-30662547D01*
X46874504Y-30615847D01*
X46880061Y-30569949D01*
X46887754Y-30524902D01*
X46897534Y-30480757D01*
X46909353Y-30437561D01*
X46923160Y-30395365D01*
X46938906Y-30354219D01*
X46956542Y-30314171D01*
X46976018Y-30275271D01*
X46997285Y-30237569D01*
X47020293Y-30201113D01*
X47044993Y-30165954D01*
X47071335Y-30132141D01*
X47099271Y-30099723D01*
X47128750Y-30068750D01*
X47159723Y-30039271D01*
X47192141Y-30011335D01*
X47225954Y-29984993D01*
X47261113Y-29960293D01*
X47297569Y-29937285D01*
X47335271Y-29916018D01*
X47374171Y-29896542D01*
X47414219Y-29878906D01*
X47455365Y-29863160D01*
X47497561Y-29849353D01*
X47540757Y-29837534D01*
X47584902Y-29827754D01*
X47629949Y-29820061D01*
X47675847Y-29814504D01*
X47722547Y-29811134D01*
X47770000Y-29810000D01*
X47817453Y-29811134D01*
X47864153Y-29814504D01*
X47910051Y-29820061D01*
X47955098Y-29827754D01*
X47999243Y-29837534D01*
X48042439Y-29849353D01*
X48084635Y-29863160D01*
X48125781Y-29878906D01*
X48165829Y-29896542D01*
X48204729Y-29916018D01*
X48242431Y-29937285D01*
X48278887Y-29960293D01*
X48314046Y-29984993D01*
X48347859Y-30011335D01*
X48380277Y-30039271D01*
X48411250Y-30068750D01*
X48440729Y-30099723D01*
X48468665Y-30132141D01*
X48495007Y-30165954D01*
X48519707Y-30201113D01*
X48542715Y-30237569D01*
X48563982Y-30275271D01*
X48583458Y-30314171D01*
X48601094Y-30354219D01*
X48616840Y-30395365D01*
X48630647Y-30437561D01*
X48642466Y-30480757D01*
X48652246Y-30524902D01*
X48659939Y-30569949D01*
X48665496Y-30615847D01*
X48668866Y-30662547D01*
X48670000Y-30710000D01*
X48669986Y-30710600D01*
X48668866Y-30757453D01*
G37*
%TD.AperFunction*%
%TA.AperFunction,NonConductor*%
G36*
X53620000Y-30800000D02*
G01*
X52720000Y-30800000D01*
X52720000Y-30620000D01*
X53170000Y-30620000D01*
X53620000Y-30620000D01*
X53620000Y-30800000D01*
G37*
%TD.AperFunction*%
%TA.AperFunction,NonConductor*%
G36*
X52330000Y-30800000D02*
G01*
X51310000Y-30800000D01*
X51310000Y-30620000D01*
X51820000Y-30620000D01*
X52330000Y-30620000D01*
X52330000Y-30800000D01*
G37*
%TD.AperFunction*%
%TA.AperFunction,NonConductor*%
G36*
X50500000Y-29810600D02*
G01*
X50545000Y-29813000D01*
X50588800Y-29817800D01*
X50633200Y-29825000D01*
X50677000Y-29834000D01*
X50720200Y-29845400D01*
X50762800Y-29859200D01*
X50804200Y-29874800D01*
X50845600Y-29892200D01*
X50885200Y-29912000D01*
X50924800Y-29933600D01*
X50962600Y-29957000D01*
X50999200Y-29982200D01*
X51034600Y-30009200D01*
X51068800Y-30038600D01*
X51101200Y-30068600D01*
X51132400Y-30101000D01*
X51161800Y-30134600D01*
X51189400Y-30169400D01*
X51215200Y-30206000D01*
X51239200Y-30243200D01*
X51260800Y-30282200D01*
X51281200Y-30321800D01*
X51299800Y-30362600D01*
X51316000Y-30404000D01*
X51329800Y-30447200D01*
X51341800Y-30489800D01*
X51352000Y-30533600D01*
X51359200Y-30577400D01*
X51365200Y-30621800D01*
X51368200Y-30666200D01*
X51369400Y-30710600D01*
X51368200Y-30755600D01*
X51365200Y-30800000D01*
X51359200Y-30844400D01*
X51351400Y-30888200D01*
X51341800Y-30931400D01*
X51329800Y-30974600D01*
X51315400Y-31016600D01*
X51299200Y-31058000D01*
X51281200Y-31098800D01*
X51260800Y-31138400D01*
X51238000Y-31176800D01*
X51214000Y-31214600D01*
X51188200Y-31251200D01*
X51160000Y-31286000D01*
X51130600Y-31319600D01*
X51100000Y-31351400D01*
X51067000Y-31382000D01*
X51033400Y-31410800D01*
X50997400Y-31437800D01*
X50960800Y-31463000D01*
X50923000Y-31486400D01*
X50884000Y-31508000D01*
X50843800Y-31527800D01*
X50803000Y-31545200D01*
X50761000Y-31560800D01*
X50718400Y-31573400D01*
X50675200Y-31584800D01*
X50631400Y-31593800D01*
X50587600Y-31601000D01*
X50543200Y-31605800D01*
X50498200Y-31608200D01*
X50453800Y-31608800D01*
X50409400Y-31607000D01*
X50365000Y-31602800D01*
X50320600Y-31596200D01*
X50276800Y-31587800D01*
X50233600Y-31577600D01*
X50191000Y-31564400D01*
X50149001Y-31548800D01*
X50107600Y-31532000D01*
X50066800Y-31513400D01*
X50027800Y-31492400D01*
X49989400Y-31469600D01*
X49952200Y-31444400D01*
X49916200Y-31418000D01*
X49882000Y-31389800D01*
X49849001Y-31359800D01*
X49817200Y-31328000D01*
X49787200Y-31295000D01*
X49759001Y-31260800D01*
X49732600Y-31224800D01*
X49893400Y-31112600D01*
X49913201Y-31140800D01*
X49935400Y-31167800D01*
X49958800Y-31193600D01*
X49983400Y-31218800D01*
X50009801Y-31242200D01*
X50036800Y-31264400D01*
X50065000Y-31284800D01*
X50093800Y-31304600D01*
X50123800Y-31322600D01*
X50155000Y-31338800D01*
X50186200Y-31354400D01*
X50218600Y-31367600D01*
X50251600Y-31379000D01*
X50285200Y-31389200D01*
X50319400Y-31397600D01*
X50353600Y-31404200D01*
X50388400Y-31409000D01*
X50423200Y-31412000D01*
X50458000Y-31413800D01*
X50492800Y-31413200D01*
X50528200Y-31411400D01*
X50563000Y-31407800D01*
X50597200Y-31402400D01*
X50631400Y-31395200D01*
X50665600Y-31386200D01*
X50698600Y-31375400D01*
X50731600Y-31363400D01*
X50763400Y-31350200D01*
X50795200Y-31335200D01*
X50825800Y-31317800D01*
X50855800Y-31299800D01*
X50884600Y-31280000D01*
X50912200Y-31258400D01*
X50938600Y-31236200D01*
X50964400Y-31212200D01*
X50988400Y-31187000D01*
X51011800Y-31160600D01*
X51034000Y-31133000D01*
X51054400Y-31104800D01*
X51073000Y-31075400D01*
X51090400Y-31044800D01*
X51106600Y-31013600D01*
X51121000Y-30981800D01*
X51133600Y-30949400D01*
X51144400Y-30915800D01*
X51154000Y-30882200D01*
X51161800Y-30848000D01*
X51167800Y-30813800D01*
X51172000Y-30779000D01*
X51175000Y-30744200D01*
X51175600Y-30709400D01*
X51175000Y-30674000D01*
X51172000Y-30639200D01*
X51167800Y-30604400D01*
X51161800Y-30570200D01*
X51154000Y-30536000D01*
X51144400Y-30502400D01*
X51133600Y-30469400D01*
X51120400Y-30436400D01*
X51106600Y-30404600D01*
X51090400Y-30373400D01*
X51073000Y-30343400D01*
X51054400Y-30314000D01*
X51034000Y-30285200D01*
X51012400Y-30258200D01*
X50989600Y-30231800D01*
X50965000Y-30206600D01*
X50939800Y-30182600D01*
X50912800Y-30159800D01*
X50885200Y-30138800D01*
X50856400Y-30119000D01*
X50826400Y-30100400D01*
X50795800Y-30083600D01*
X50764600Y-30068600D01*
X50732200Y-30054200D01*
X50699800Y-30041600D01*
X50666200Y-30031400D01*
X50632600Y-30022400D01*
X50598400Y-30015200D01*
X50563600Y-30009800D01*
X50528800Y-30006200D01*
X50494000Y-30004400D01*
X50458600Y-30003800D01*
X50423800Y-30005600D01*
X50389000Y-30008600D01*
X50354200Y-30013400D01*
X50320000Y-30020000D01*
X50286400Y-30028400D01*
X50252800Y-30038600D01*
X50219801Y-30050000D01*
X50187401Y-30063800D01*
X50155601Y-30077600D01*
X50125000Y-30094400D01*
X50094400Y-30112400D01*
X50065601Y-30131600D01*
X50037401Y-30152600D01*
X50010400Y-30174800D01*
X49984600Y-30198200D01*
X49960000Y-30222800D01*
X49936600Y-30248600D01*
X49914400Y-30276200D01*
X49892800Y-30303800D01*
X49733800Y-30192800D01*
X49760800Y-30156800D01*
X49789001Y-30122000D01*
X49819001Y-30089000D01*
X49850200Y-30057200D01*
X49883201Y-30027800D01*
X49918000Y-29999000D01*
X49954001Y-29972600D01*
X49991200Y-29948000D01*
X50029001Y-29925200D01*
X50068600Y-29904200D01*
X50108800Y-29885000D01*
X50150200Y-29868200D01*
X50192200Y-29853800D01*
X50235400Y-29841200D01*
X50278600Y-29831000D01*
X50322400Y-29822600D01*
X50366800Y-29816000D01*
X50411200Y-29811800D01*
X50455600Y-29810000D01*
X50500000Y-29810600D01*
G37*
%TD.AperFunction*%
%TA.AperFunction,NonConductor*%
G36*
X50492708Y-30291131D02*
G01*
X50514466Y-30292706D01*
X50535850Y-30295305D01*
X50556839Y-30298902D01*
X50577408Y-30303474D01*
X50597535Y-30308999D01*
X50617196Y-30315453D01*
X50636369Y-30322813D01*
X50655031Y-30331055D01*
X50673157Y-30340156D01*
X50690727Y-30350093D01*
X50707715Y-30360842D01*
X50724100Y-30372381D01*
X50739858Y-30384686D01*
X50754966Y-30397733D01*
X50769400Y-30411500D01*
X50783139Y-30425963D01*
X50796159Y-30441099D01*
X50808436Y-30456884D01*
X50819948Y-30473295D01*
X50830672Y-30490310D01*
X50840584Y-30507904D01*
X50849662Y-30526054D01*
X50857882Y-30544738D01*
X50865221Y-30563931D01*
X50871657Y-30583610D01*
X50877166Y-30603753D01*
X50881725Y-30624336D01*
X50885311Y-30645335D01*
X50887901Y-30666728D01*
X50889472Y-30688491D01*
X50890000Y-30710600D01*
X50889472Y-30732708D01*
X50887901Y-30754465D01*
X50885311Y-30775850D01*
X50881725Y-30796838D01*
X50877166Y-30817407D01*
X50871657Y-30837534D01*
X50865221Y-30857196D01*
X50857882Y-30876369D01*
X50849662Y-30895030D01*
X50840584Y-30913157D01*
X50830672Y-30930726D01*
X50819948Y-30947715D01*
X50808436Y-30964100D01*
X50796159Y-30979857D01*
X50783139Y-30994965D01*
X50769400Y-31009400D01*
X50754966Y-31023139D01*
X50739858Y-31036158D01*
X50724100Y-31048436D01*
X50707715Y-31059948D01*
X50690727Y-31070671D01*
X50673157Y-31080583D01*
X50655031Y-31089661D01*
X50636369Y-31097881D01*
X50617196Y-31105221D01*
X50597535Y-31111656D01*
X50577408Y-31117165D01*
X50556839Y-31121724D01*
X50535850Y-31125310D01*
X50514466Y-31127900D01*
X50492708Y-31129471D01*
X50470600Y-31130000D01*
X50448491Y-31129471D01*
X50426728Y-31127900D01*
X50405336Y-31125310D01*
X50384336Y-31121724D01*
X50363754Y-31117165D01*
X50343611Y-31111656D01*
X50323931Y-31105221D01*
X50304738Y-31097881D01*
X50286055Y-31089661D01*
X50267904Y-31080583D01*
X50250310Y-31070671D01*
X50233296Y-31059948D01*
X50216884Y-31048436D01*
X50201099Y-31036158D01*
X50185963Y-31023139D01*
X50171500Y-31009400D01*
X50157734Y-30994965D01*
X50144686Y-30979857D01*
X50132382Y-30964100D01*
X50120843Y-30947715D01*
X50110093Y-30930726D01*
X50100156Y-30913157D01*
X50091055Y-30895030D01*
X50082813Y-30876369D01*
X50075453Y-30857196D01*
X50069000Y-30837534D01*
X50063475Y-30817407D01*
X50058902Y-30796838D01*
X50055305Y-30775850D01*
X50052707Y-30754465D01*
X50051131Y-30732708D01*
X50050601Y-30710600D01*
X50051131Y-30688491D01*
X50052707Y-30666728D01*
X50055305Y-30645335D01*
X50058902Y-30624336D01*
X50063475Y-30603753D01*
X50069000Y-30583610D01*
X50075453Y-30563931D01*
X50082813Y-30544738D01*
X50091055Y-30526054D01*
X50100156Y-30507904D01*
X50110093Y-30490310D01*
X50120843Y-30473295D01*
X50132382Y-30456884D01*
X50144686Y-30441099D01*
X50157734Y-30425963D01*
X50171500Y-30411500D01*
X50185963Y-30397733D01*
X50201099Y-30384686D01*
X50216884Y-30372381D01*
X50233296Y-30360842D01*
X50250310Y-30350093D01*
X50267904Y-30340156D01*
X50286055Y-30331055D01*
X50304738Y-30322813D01*
X50323931Y-30315453D01*
X50343611Y-30308999D01*
X50363754Y-30303474D01*
X50384336Y-30298902D01*
X50405336Y-30295305D01*
X50426728Y-30292706D01*
X50448491Y-30291131D01*
X50470600Y-30290600D01*
X50492708Y-30291131D01*
G37*
%TD.AperFunction*%
D11*
G36*
X79322556Y-89784438D02*
G01*
X78807864Y-89784438D01*
X78688646Y-89724829D01*
X78639308Y-89675489D01*
X78579699Y-89556271D01*
X78579699Y-89364984D01*
X78639308Y-89245765D01*
X78678209Y-89206864D01*
X78888346Y-89136819D01*
X79322556Y-89136819D01*
X79322556Y-89784438D01*
G37*
G36*
X79322556Y-88736819D02*
G01*
X78903102Y-88736819D01*
X78783884Y-88677209D01*
X78734546Y-88627871D01*
X78674937Y-88508652D01*
X78674937Y-88412603D01*
X78734546Y-88293384D01*
X78783884Y-88244047D01*
X78903102Y-88184438D01*
X79322556Y-88184438D01*
X79322556Y-88736819D01*
G37*
G36*
X81054594Y-89213009D02*
G01*
X80657185Y-89213009D01*
X80855889Y-88616894D01*
X81054594Y-89213009D01*
G37*
G36*
X80560652Y-85612169D02*
G01*
X80045960Y-85612169D01*
X79926742Y-85552560D01*
X79877404Y-85503220D01*
X79817795Y-85384002D01*
X79817795Y-85192715D01*
X79877404Y-85073496D01*
X79926742Y-85024159D01*
X80045960Y-84964550D01*
X80560652Y-84964550D01*
X80560652Y-85612169D01*
G37*
G36*
X78560652Y-85612169D02*
G01*
X78045960Y-85612169D01*
X77926742Y-85552560D01*
X77877404Y-85503220D01*
X77817795Y-85384002D01*
X77817795Y-85192715D01*
X77877404Y-85073496D01*
X77926742Y-85024159D01*
X78045960Y-84964550D01*
X78560652Y-84964550D01*
X78560652Y-85612169D01*
G37*
G36*
X82560652Y-85612169D02*
G01*
X82045960Y-85612169D01*
X81926742Y-85552560D01*
X81877404Y-85503220D01*
X81817795Y-85384002D01*
X81817795Y-85192715D01*
X81877404Y-85073496D01*
X81926742Y-85024159D01*
X82045960Y-84964550D01*
X82560652Y-84964550D01*
X82560652Y-85612169D01*
G37*
G36*
X82560652Y-83344662D02*
G01*
X82045960Y-83344662D01*
X81926742Y-83285053D01*
X81877404Y-83235713D01*
X81817795Y-83116495D01*
X81817795Y-82925208D01*
X81877404Y-82805989D01*
X81916305Y-82767088D01*
X82126442Y-82697043D01*
X82560652Y-82697043D01*
X82560652Y-83344662D01*
G37*
G36*
X82560652Y-82297043D02*
G01*
X82141198Y-82297043D01*
X82021980Y-82237433D01*
X81972642Y-82188095D01*
X81913033Y-82068876D01*
X81913033Y-81972827D01*
X81972642Y-81853608D01*
X82021980Y-81804271D01*
X82141198Y-81744662D01*
X82560652Y-81744662D01*
X82560652Y-82297043D01*
G37*
G36*
X80560652Y-82392281D02*
G01*
X80045960Y-82392281D01*
X79926742Y-82332672D01*
X79877404Y-82283332D01*
X79817795Y-82164114D01*
X79817795Y-81972827D01*
X79877404Y-81853608D01*
X79926742Y-81804271D01*
X80045960Y-81744662D01*
X80560652Y-81744662D01*
X80560652Y-82392281D01*
G37*
G36*
X83464745Y-90406660D02*
G01*
X77195573Y-90406660D01*
X77195573Y-89317771D01*
X78179699Y-89317771D01*
X78179699Y-89603485D01*
X78183542Y-89642503D01*
X78186291Y-89649140D01*
X78186801Y-89656310D01*
X78200814Y-89692928D01*
X78296052Y-89883404D01*
X78306623Y-89900197D01*
X78308643Y-89905074D01*
X78313149Y-89910565D01*
X78316938Y-89916584D01*
X78320929Y-89920045D01*
X78333515Y-89935382D01*
X78428753Y-90030621D01*
X78444092Y-90043210D01*
X78447552Y-90047199D01*
X78453563Y-90050983D01*
X78459060Y-90055494D01*
X78463942Y-90057516D01*
X78480732Y-90068085D01*
X78671209Y-90163324D01*
X78707826Y-90177336D01*
X78714995Y-90177845D01*
X78721633Y-90180595D01*
X78760651Y-90184438D01*
X79522556Y-90184438D01*
X79561574Y-90180595D01*
X79633670Y-90150732D01*
X79688850Y-90095552D01*
X79718713Y-90023456D01*
X79722556Y-89984438D01*
X79722556Y-89959423D01*
X79990794Y-89959423D01*
X79996325Y-90037263D01*
X80031224Y-90107061D01*
X80090177Y-90158190D01*
X80164208Y-90182867D01*
X80242048Y-90177336D01*
X80311846Y-90142437D01*
X80362975Y-90083484D01*
X80378960Y-90047684D01*
X80523852Y-89613009D01*
X81187928Y-89613009D01*
X81332819Y-90047684D01*
X81348804Y-90083484D01*
X81399933Y-90142437D01*
X81469731Y-90177336D01*
X81547571Y-90182868D01*
X81621602Y-90158190D01*
X81680555Y-90107061D01*
X81715454Y-90037263D01*
X81720985Y-89959424D01*
X81712293Y-89921193D01*
X81053703Y-87945420D01*
X81707352Y-87945420D01*
X81707352Y-88023456D01*
X81737215Y-88095552D01*
X81792395Y-88150732D01*
X81864491Y-88180595D01*
X81903509Y-88184438D01*
X82274938Y-88184438D01*
X82274938Y-89984438D01*
X82278781Y-90023456D01*
X82308644Y-90095552D01*
X82363824Y-90150732D01*
X82435920Y-90180595D01*
X82513956Y-90180595D01*
X82586052Y-90150732D01*
X82641232Y-90095552D01*
X82671095Y-90023456D01*
X82674938Y-89984438D01*
X82674938Y-88184438D01*
X83046366Y-88184438D01*
X83085384Y-88180595D01*
X83157480Y-88150732D01*
X83212660Y-88095552D01*
X83242523Y-88023456D01*
X83242523Y-87945420D01*
X83212660Y-87873324D01*
X83157480Y-87818144D01*
X83085384Y-87788281D01*
X83046366Y-87784438D01*
X81903509Y-87784438D01*
X81864491Y-87788281D01*
X81792395Y-87818144D01*
X81737215Y-87873324D01*
X81707352Y-87945420D01*
X81053703Y-87945420D01*
X81045627Y-87921193D01*
X81029642Y-87885392D01*
X81020280Y-87874597D01*
X81013889Y-87861815D01*
X80994943Y-87845384D01*
X80978513Y-87826439D01*
X80965730Y-87820047D01*
X80954936Y-87810686D01*
X80931149Y-87802757D01*
X80908715Y-87791540D01*
X80894459Y-87790527D01*
X80880905Y-87786009D01*
X80855892Y-87787786D01*
X80830875Y-87786009D01*
X80817317Y-87790528D01*
X80803065Y-87791541D01*
X80780635Y-87802755D01*
X80756844Y-87810686D01*
X80746049Y-87820047D01*
X80733267Y-87826439D01*
X80716836Y-87845384D01*
X80697891Y-87861815D01*
X80691499Y-87874597D01*
X80682138Y-87885392D01*
X80666153Y-87921193D01*
X79999486Y-89921192D01*
X79990794Y-89959423D01*
X79722556Y-89959423D01*
X79722556Y-87984438D01*
X79718713Y-87945420D01*
X79688850Y-87873324D01*
X79633670Y-87818144D01*
X79561574Y-87788281D01*
X79522556Y-87784438D01*
X78855889Y-87784438D01*
X78816871Y-87788281D01*
X78810233Y-87791030D01*
X78803064Y-87791540D01*
X78766447Y-87805552D01*
X78575970Y-87900791D01*
X78559178Y-87911360D01*
X78554299Y-87913382D01*
X78548806Y-87917889D01*
X78542790Y-87921677D01*
X78539328Y-87925668D01*
X78523992Y-87938255D01*
X78428754Y-88033493D01*
X78416167Y-88048828D01*
X78412176Y-88052291D01*
X78408388Y-88058307D01*
X78403881Y-88063800D01*
X78401859Y-88068679D01*
X78391290Y-88085471D01*
X78296052Y-88275947D01*
X78282039Y-88312565D01*
X78281529Y-88319734D01*
X78278780Y-88326372D01*
X78274937Y-88365390D01*
X78274937Y-88555866D01*
X78278780Y-88594884D01*
X78281529Y-88601521D01*
X78282039Y-88608691D01*
X78296052Y-88645309D01*
X78391290Y-88835785D01*
X78401859Y-88852576D01*
X78403881Y-88857456D01*
X78408388Y-88862948D01*
X78412176Y-88868965D01*
X78416167Y-88872427D01*
X78428754Y-88887763D01*
X78430331Y-88889340D01*
X78428754Y-88890636D01*
X78333516Y-88985874D01*
X78320929Y-89001209D01*
X78316938Y-89004672D01*
X78313150Y-89010688D01*
X78308643Y-89016181D01*
X78306621Y-89021060D01*
X78296052Y-89037852D01*
X78200814Y-89228328D01*
X78186801Y-89264946D01*
X78186291Y-89272115D01*
X78183542Y-89278753D01*
X78179699Y-89317771D01*
X77195573Y-89317771D01*
X77195573Y-85145502D01*
X77417795Y-85145502D01*
X77417795Y-85431216D01*
X77421638Y-85470234D01*
X77424387Y-85476871D01*
X77424897Y-85484041D01*
X77438910Y-85520659D01*
X77534148Y-85711135D01*
X77544719Y-85727928D01*
X77546739Y-85732805D01*
X77551245Y-85738296D01*
X77555034Y-85744315D01*
X77559025Y-85747776D01*
X77571611Y-85763113D01*
X77666849Y-85858352D01*
X77682188Y-85870941D01*
X77685648Y-85874930D01*
X77691659Y-85878714D01*
X77697156Y-85883225D01*
X77702038Y-85885247D01*
X77718828Y-85895816D01*
X77909305Y-85991055D01*
X77945922Y-86005067D01*
X77953091Y-86005576D01*
X77959729Y-86008326D01*
X77998747Y-86012169D01*
X78560652Y-86012169D01*
X78560652Y-86764550D01*
X78564495Y-86803568D01*
X78594358Y-86875664D01*
X78649538Y-86930844D01*
X78721634Y-86960707D01*
X78799670Y-86960707D01*
X78871766Y-86930844D01*
X78926946Y-86875664D01*
X78956809Y-86803568D01*
X78960652Y-86764550D01*
X78960652Y-85145502D01*
X79417795Y-85145502D01*
X79417795Y-85431216D01*
X79421638Y-85470234D01*
X79424387Y-85476871D01*
X79424897Y-85484041D01*
X79438910Y-85520659D01*
X79534148Y-85711135D01*
X79544719Y-85727928D01*
X79546739Y-85732805D01*
X79551245Y-85738296D01*
X79555034Y-85744315D01*
X79559025Y-85747776D01*
X79571611Y-85763113D01*
X79666849Y-85858352D01*
X79682188Y-85870941D01*
X79685648Y-85874930D01*
X79691659Y-85878714D01*
X79697156Y-85883225D01*
X79702038Y-85885247D01*
X79718828Y-85895816D01*
X79909305Y-85991055D01*
X79913883Y-85992807D01*
X79453949Y-86649857D01*
X79434722Y-86684026D01*
X79417842Y-86760215D01*
X79431404Y-86837064D01*
X79473342Y-86902873D01*
X79537271Y-86947623D01*
X79613460Y-86964503D01*
X79690309Y-86950941D01*
X79756118Y-86909003D01*
X79781641Y-86879243D01*
X80388593Y-86012169D01*
X80560652Y-86012169D01*
X80560652Y-86764550D01*
X80564495Y-86803568D01*
X80594358Y-86875664D01*
X80649538Y-86930844D01*
X80721634Y-86960707D01*
X80799670Y-86960707D01*
X80871766Y-86930844D01*
X80926946Y-86875664D01*
X80956809Y-86803568D01*
X80960652Y-86764550D01*
X80960652Y-85145502D01*
X81417795Y-85145502D01*
X81417795Y-85431216D01*
X81421638Y-85470234D01*
X81424387Y-85476871D01*
X81424897Y-85484041D01*
X81438910Y-85520659D01*
X81534148Y-85711135D01*
X81544719Y-85727928D01*
X81546739Y-85732805D01*
X81551245Y-85738296D01*
X81555034Y-85744315D01*
X81559025Y-85747776D01*
X81571611Y-85763113D01*
X81666849Y-85858352D01*
X81682188Y-85870941D01*
X81685648Y-85874930D01*
X81691659Y-85878714D01*
X81697156Y-85883225D01*
X81702038Y-85885247D01*
X81718828Y-85895816D01*
X81909305Y-85991055D01*
X81945922Y-86005067D01*
X81953091Y-86005576D01*
X81959729Y-86008326D01*
X81998747Y-86012169D01*
X82560652Y-86012169D01*
X82560652Y-86764550D01*
X82564495Y-86803568D01*
X82594358Y-86875664D01*
X82649538Y-86930844D01*
X82721634Y-86960707D01*
X82799670Y-86960707D01*
X82871766Y-86930844D01*
X82926946Y-86875664D01*
X82956809Y-86803568D01*
X82960652Y-86764550D01*
X82960652Y-84764550D01*
X82956809Y-84725532D01*
X82926946Y-84653436D01*
X82871766Y-84598256D01*
X82799670Y-84568393D01*
X82760652Y-84564550D01*
X81998747Y-84564550D01*
X81959729Y-84568393D01*
X81953091Y-84571142D01*
X81945922Y-84571652D01*
X81909305Y-84585664D01*
X81718828Y-84680903D01*
X81702036Y-84691472D01*
X81697157Y-84693494D01*
X81691664Y-84698001D01*
X81685648Y-84701789D01*
X81682186Y-84705780D01*
X81666850Y-84718367D01*
X81571612Y-84813605D01*
X81559025Y-84828940D01*
X81555034Y-84832403D01*
X81551246Y-84838419D01*
X81546739Y-84843912D01*
X81544717Y-84848791D01*
X81534148Y-84865583D01*
X81438910Y-85056059D01*
X81424897Y-85092677D01*
X81424387Y-85099846D01*
X81421638Y-85106484D01*
X81417795Y-85145502D01*
X80960652Y-85145502D01*
X80960652Y-84764550D01*
X80956809Y-84725532D01*
X80926946Y-84653436D01*
X80871766Y-84598256D01*
X80799670Y-84568393D01*
X80760652Y-84564550D01*
X79998747Y-84564550D01*
X79959729Y-84568393D01*
X79953091Y-84571142D01*
X79945922Y-84571652D01*
X79909305Y-84585664D01*
X79718828Y-84680903D01*
X79702036Y-84691472D01*
X79697157Y-84693494D01*
X79691664Y-84698001D01*
X79685648Y-84701789D01*
X79682186Y-84705780D01*
X79666850Y-84718367D01*
X79571612Y-84813605D01*
X79559025Y-84828940D01*
X79555034Y-84832403D01*
X79551246Y-84838419D01*
X79546739Y-84843912D01*
X79544717Y-84848791D01*
X79534148Y-84865583D01*
X79438910Y-85056059D01*
X79424897Y-85092677D01*
X79424387Y-85099846D01*
X79421638Y-85106484D01*
X79417795Y-85145502D01*
X78960652Y-85145502D01*
X78960652Y-84764550D01*
X78956809Y-84725532D01*
X78926946Y-84653436D01*
X78871766Y-84598256D01*
X78799670Y-84568393D01*
X78760652Y-84564550D01*
X77998747Y-84564550D01*
X77959729Y-84568393D01*
X77953091Y-84571142D01*
X77945922Y-84571652D01*
X77909305Y-84585664D01*
X77718828Y-84680903D01*
X77702036Y-84691472D01*
X77697157Y-84693494D01*
X77691664Y-84698001D01*
X77685648Y-84701789D01*
X77682186Y-84705780D01*
X77666850Y-84718367D01*
X77571612Y-84813605D01*
X77559025Y-84828940D01*
X77555034Y-84832403D01*
X77551246Y-84838419D01*
X77546739Y-84843912D01*
X77544717Y-84848791D01*
X77534148Y-84865583D01*
X77438910Y-85056059D01*
X77424897Y-85092677D01*
X77424387Y-85099846D01*
X77421638Y-85106484D01*
X77417795Y-85145502D01*
X77195573Y-85145502D01*
X77195573Y-81696120D01*
X77421638Y-81696120D01*
X77421638Y-81774156D01*
X77451501Y-81846252D01*
X77506681Y-81901432D01*
X77578777Y-81931295D01*
X77656813Y-81931295D01*
X77728909Y-81901432D01*
X77759216Y-81876559D01*
X77821067Y-81814707D01*
X78031204Y-81744662D01*
X78156767Y-81744662D01*
X78366902Y-81814706D01*
X78501043Y-81948848D01*
X78571947Y-82090655D01*
X78655890Y-82426427D01*
X78655890Y-82662896D01*
X78571947Y-82998668D01*
X78501043Y-83140474D01*
X78366901Y-83274617D01*
X78156767Y-83344662D01*
X78031204Y-83344662D01*
X77821068Y-83274616D01*
X77759217Y-83212764D01*
X77728910Y-83187892D01*
X77656814Y-83158028D01*
X77578778Y-83158028D01*
X77506682Y-83187891D01*
X77451502Y-83243070D01*
X77421638Y-83315166D01*
X77421638Y-83393202D01*
X77451501Y-83465298D01*
X77476373Y-83495606D01*
X77571611Y-83590845D01*
X77601918Y-83615718D01*
X77608559Y-83618469D01*
X77613987Y-83623176D01*
X77649787Y-83639161D01*
X77935501Y-83734399D01*
X77954850Y-83738798D01*
X77959729Y-83740819D01*
X77966803Y-83741515D01*
X77973732Y-83743091D01*
X77978997Y-83742716D01*
X77998747Y-83744662D01*
X78189223Y-83744662D01*
X78208971Y-83742716D01*
X78214237Y-83743091D01*
X78221164Y-83741515D01*
X78228241Y-83740819D01*
X78233121Y-83738797D01*
X78252468Y-83734399D01*
X78538183Y-83639161D01*
X78573984Y-83623176D01*
X78579411Y-83618468D01*
X78586052Y-83615718D01*
X78616360Y-83590845D01*
X78806835Y-83400368D01*
X78819421Y-83385031D01*
X78823413Y-83381570D01*
X78827200Y-83375553D01*
X78831708Y-83370061D01*
X78833729Y-83365181D01*
X78844299Y-83348390D01*
X78939538Y-83157913D01*
X78940630Y-83155057D01*
X78941489Y-83153899D01*
X78947335Y-83137535D01*
X78953550Y-83121296D01*
X78953652Y-83119857D01*
X78954681Y-83116978D01*
X79049918Y-82736026D01*
X79050918Y-82729262D01*
X79052047Y-82726537D01*
X79053495Y-82711834D01*
X79055653Y-82697241D01*
X79055219Y-82694327D01*
X79055890Y-82687519D01*
X79055890Y-82401804D01*
X79055219Y-82394995D01*
X79055653Y-82392082D01*
X79053495Y-82377488D01*
X79052047Y-82362786D01*
X79050918Y-82360060D01*
X79049918Y-82353297D01*
X78954681Y-81972345D01*
X78953652Y-81969465D01*
X78953550Y-81968027D01*
X78947335Y-81951787D01*
X78941489Y-81935424D01*
X78940630Y-81934265D01*
X78939538Y-81931410D01*
X78936640Y-81925614D01*
X79417795Y-81925614D01*
X79417795Y-82211328D01*
X79421638Y-82250346D01*
X79424387Y-82256983D01*
X79424897Y-82264153D01*
X79438910Y-82300771D01*
X79534148Y-82491247D01*
X79544719Y-82508040D01*
X79546739Y-82512917D01*
X79551245Y-82518408D01*
X79555034Y-82524427D01*
X79559025Y-82527888D01*
X79571611Y-82543225D01*
X79666849Y-82638464D01*
X79682188Y-82651053D01*
X79685648Y-82655042D01*
X79691659Y-82658826D01*
X79697156Y-82663337D01*
X79702038Y-82665359D01*
X79718828Y-82675928D01*
X79909305Y-82771167D01*
X79945922Y-82785179D01*
X79953091Y-82785688D01*
X79959729Y-82788438D01*
X79998747Y-82792281D01*
X80560652Y-82792281D01*
X80560652Y-83544662D01*
X80564495Y-83583680D01*
X80594358Y-83655776D01*
X80649538Y-83710956D01*
X80721634Y-83740819D01*
X80799670Y-83740819D01*
X80871766Y-83710956D01*
X80926946Y-83655776D01*
X80956809Y-83583680D01*
X80960652Y-83544662D01*
X80960652Y-82877995D01*
X81417795Y-82877995D01*
X81417795Y-83163709D01*
X81421638Y-83202727D01*
X81424387Y-83209364D01*
X81424897Y-83216534D01*
X81438910Y-83253152D01*
X81534148Y-83443628D01*
X81544719Y-83460421D01*
X81546739Y-83465298D01*
X81551245Y-83470789D01*
X81555034Y-83476808D01*
X81559025Y-83480269D01*
X81571611Y-83495606D01*
X81666849Y-83590845D01*
X81682188Y-83603434D01*
X81685648Y-83607423D01*
X81691659Y-83611207D01*
X81697156Y-83615718D01*
X81702038Y-83617740D01*
X81718828Y-83628309D01*
X81909305Y-83723548D01*
X81945922Y-83737560D01*
X81953091Y-83738069D01*
X81959729Y-83740819D01*
X81998747Y-83744662D01*
X82760652Y-83744662D01*
X82799670Y-83740819D01*
X82871766Y-83710956D01*
X82926946Y-83655776D01*
X82956809Y-83583680D01*
X82960652Y-83544662D01*
X82960652Y-81544662D01*
X82956809Y-81505644D01*
X82926946Y-81433548D01*
X82871766Y-81378368D01*
X82799670Y-81348505D01*
X82760652Y-81344662D01*
X82093985Y-81344662D01*
X82054967Y-81348505D01*
X82048329Y-81351254D01*
X82041160Y-81351764D01*
X82004543Y-81365776D01*
X81814066Y-81461015D01*
X81797274Y-81471584D01*
X81792395Y-81473606D01*
X81786902Y-81478113D01*
X81780886Y-81481901D01*
X81777424Y-81485892D01*
X81762088Y-81498479D01*
X81666850Y-81593717D01*
X81654263Y-81609052D01*
X81650272Y-81612515D01*
X81646484Y-81618531D01*
X81641977Y-81624024D01*
X81639955Y-81628903D01*
X81629386Y-81645695D01*
X81534148Y-81836171D01*
X81520135Y-81872789D01*
X81519625Y-81879958D01*
X81516876Y-81886596D01*
X81513033Y-81925614D01*
X81513033Y-82116090D01*
X81516876Y-82155108D01*
X81519625Y-82161745D01*
X81520135Y-82168915D01*
X81534148Y-82205533D01*
X81629386Y-82396009D01*
X81639955Y-82412800D01*
X81641977Y-82417680D01*
X81646484Y-82423172D01*
X81650272Y-82429189D01*
X81654263Y-82432651D01*
X81666850Y-82447987D01*
X81668427Y-82449564D01*
X81666850Y-82450860D01*
X81571612Y-82546098D01*
X81559025Y-82561433D01*
X81555034Y-82564896D01*
X81551246Y-82570912D01*
X81546739Y-82576405D01*
X81544717Y-82581284D01*
X81534148Y-82598076D01*
X81438910Y-82788552D01*
X81424897Y-82825170D01*
X81424387Y-82832339D01*
X81421638Y-82838977D01*
X81417795Y-82877995D01*
X80960652Y-82877995D01*
X80960652Y-81544662D01*
X80956809Y-81505644D01*
X80926946Y-81433548D01*
X80871766Y-81378368D01*
X80799670Y-81348505D01*
X80760652Y-81344662D01*
X79998747Y-81344662D01*
X79959729Y-81348505D01*
X79953091Y-81351254D01*
X79945922Y-81351764D01*
X79909305Y-81365776D01*
X79718828Y-81461015D01*
X79702036Y-81471584D01*
X79697157Y-81473606D01*
X79691664Y-81478113D01*
X79685648Y-81481901D01*
X79682186Y-81485892D01*
X79666850Y-81498479D01*
X79571612Y-81593717D01*
X79559025Y-81609052D01*
X79555034Y-81612515D01*
X79551246Y-81618531D01*
X79546739Y-81624024D01*
X79544717Y-81628903D01*
X79534148Y-81645695D01*
X79438910Y-81836171D01*
X79424897Y-81872789D01*
X79424387Y-81879958D01*
X79421638Y-81886596D01*
X79417795Y-81925614D01*
X78936640Y-81925614D01*
X78844299Y-81740933D01*
X78833729Y-81724141D01*
X78831708Y-81719262D01*
X78827199Y-81713768D01*
X78823413Y-81707753D01*
X78819423Y-81704292D01*
X78806836Y-81688955D01*
X78616359Y-81498479D01*
X78586052Y-81473606D01*
X78579412Y-81470855D01*
X78573984Y-81466148D01*
X78538183Y-81450163D01*
X78252468Y-81354925D01*
X78233121Y-81350526D01*
X78228241Y-81348505D01*
X78221164Y-81347808D01*
X78214237Y-81346233D01*
X78208971Y-81346607D01*
X78189223Y-81344662D01*
X77998747Y-81344662D01*
X77978997Y-81346607D01*
X77973732Y-81346233D01*
X77966803Y-81347808D01*
X77959729Y-81348505D01*
X77954850Y-81350525D01*
X77935501Y-81354925D01*
X77649787Y-81450163D01*
X77613987Y-81466148D01*
X77608558Y-81470855D01*
X77601919Y-81473606D01*
X77571612Y-81498479D01*
X77476374Y-81593717D01*
X77451501Y-81624024D01*
X77421638Y-81696120D01*
X77195573Y-81696120D01*
X77195573Y-81122440D01*
X83464745Y-81122440D01*
X83464745Y-90406660D01*
G37*
G36*
X77278570Y-56603721D02*
G01*
X76840070Y-56603721D01*
X76739897Y-56553635D01*
X76700083Y-56513820D01*
X76649999Y-56413651D01*
X76649999Y-56250935D01*
X76700086Y-56150761D01*
X76739896Y-56110950D01*
X76840070Y-56060864D01*
X77278570Y-56060864D01*
X77278570Y-56603721D01*
G37*
G36*
X72602957Y-53213051D02*
G01*
X72712262Y-53322356D01*
X72778570Y-53587584D01*
X72778570Y-54138345D01*
X72712262Y-54403573D01*
X72602957Y-54512879D01*
X72502785Y-54562965D01*
X72254356Y-54562965D01*
X72154185Y-54512879D01*
X72044877Y-54403571D01*
X71978570Y-54138344D01*
X71978570Y-53587585D01*
X72044877Y-53322358D01*
X72154185Y-53213050D01*
X72254356Y-53162965D01*
X72502785Y-53162965D01*
X72602957Y-53213051D01*
G37*
G36*
X77878570Y-58060864D02*
G01*
X66535714Y-58060864D01*
X66535714Y-57146578D01*
X66735714Y-57146578D01*
X66735714Y-57318007D01*
X66739557Y-57357025D01*
X66742306Y-57363662D01*
X66742816Y-57370832D01*
X66756829Y-57407450D01*
X66842542Y-57578877D01*
X66853113Y-57595670D01*
X66855134Y-57600549D01*
X66859641Y-57606041D01*
X66863429Y-57612058D01*
X66867420Y-57615519D01*
X66880007Y-57630856D01*
X66965721Y-57716571D01*
X66981059Y-57729158D01*
X66984520Y-57733149D01*
X66990535Y-57736935D01*
X66996029Y-57741444D01*
X67000908Y-57743465D01*
X67017700Y-57754035D01*
X67189128Y-57839749D01*
X67225745Y-57853761D01*
X67232912Y-57854270D01*
X67239553Y-57857021D01*
X67278571Y-57860864D01*
X67707143Y-57860864D01*
X67726892Y-57858918D01*
X67732158Y-57859293D01*
X67739086Y-57857717D01*
X67746161Y-57857021D01*
X67751039Y-57855000D01*
X67770389Y-57850601D01*
X68027530Y-57764887D01*
X68063331Y-57748902D01*
X68122283Y-57697773D01*
X68157182Y-57627975D01*
X68162714Y-57550136D01*
X68138037Y-57476104D01*
X68086908Y-57417151D01*
X68017110Y-57382252D01*
X67939270Y-57376721D01*
X67901039Y-57385413D01*
X67674686Y-57460864D01*
X67325785Y-57460864D01*
X67225615Y-57410779D01*
X67185798Y-57370963D01*
X67135714Y-57270794D01*
X67135714Y-57193791D01*
X67185798Y-57093621D01*
X67225615Y-57053805D01*
X67348375Y-56992425D01*
X67669935Y-56912035D01*
X67672814Y-56911006D01*
X67674254Y-56910904D01*
X67690485Y-56904692D01*
X67706856Y-56898844D01*
X67708016Y-56897984D01*
X67710871Y-56896892D01*
X67882300Y-56811177D01*
X67899089Y-56800608D01*
X67903971Y-56798586D01*
X67909468Y-56794074D01*
X67915480Y-56790290D01*
X67918939Y-56786301D01*
X67934278Y-56773713D01*
X68019992Y-56687999D01*
X68032578Y-56672662D01*
X68036570Y-56669201D01*
X68040357Y-56663184D01*
X68044865Y-56657692D01*
X68046886Y-56652812D01*
X68057456Y-56636021D01*
X68143170Y-56464593D01*
X68157182Y-56427976D01*
X68157691Y-56420808D01*
X68160442Y-56414168D01*
X68164285Y-56375150D01*
X68164285Y-56203721D01*
X68160442Y-56164703D01*
X68157692Y-56158064D01*
X68157183Y-56150896D01*
X68143171Y-56114278D01*
X68057457Y-55942850D01*
X68046886Y-55926058D01*
X68044865Y-55921178D01*
X68040355Y-55915682D01*
X68036570Y-55909670D01*
X68032580Y-55906210D01*
X68019992Y-55890871D01*
X67950967Y-55821846D01*
X68453842Y-55821846D01*
X68453842Y-55899882D01*
X68483705Y-55971978D01*
X68538885Y-56027158D01*
X68610981Y-56057021D01*
X68649999Y-56060864D01*
X69307142Y-56060864D01*
X69307142Y-56518007D01*
X68907142Y-56518007D01*
X68868124Y-56521850D01*
X68796028Y-56551713D01*
X68740848Y-56606893D01*
X68710985Y-56678989D01*
X68710985Y-56757025D01*
X68740848Y-56829121D01*
X68796028Y-56884301D01*
X68868124Y-56914164D01*
X68907142Y-56918007D01*
X69307142Y-56918007D01*
X69307142Y-57460864D01*
X68649999Y-57460864D01*
X68610981Y-57464707D01*
X68538885Y-57494570D01*
X68483705Y-57549750D01*
X68453842Y-57621846D01*
X68453842Y-57699882D01*
X68483705Y-57771978D01*
X68538885Y-57827158D01*
X68610981Y-57857021D01*
X68649999Y-57860864D01*
X69507142Y-57860864D01*
X69546160Y-57857021D01*
X69618256Y-57827158D01*
X69673436Y-57771978D01*
X69703299Y-57699882D01*
X69707142Y-57660864D01*
X69707142Y-57621846D01*
X69910985Y-57621846D01*
X69910985Y-57699882D01*
X69940848Y-57771978D01*
X69996028Y-57827158D01*
X70068124Y-57857021D01*
X70107142Y-57860864D01*
X70964285Y-57860864D01*
X71003303Y-57857021D01*
X71075399Y-57827158D01*
X71130579Y-57771978D01*
X71160442Y-57699882D01*
X71164285Y-57660864D01*
X71164285Y-55860864D01*
X71160442Y-55821846D01*
X71539556Y-55821846D01*
X71539556Y-55899882D01*
X71569419Y-55971978D01*
X71624599Y-56027158D01*
X71696695Y-56057021D01*
X71735713Y-56060864D01*
X72392856Y-56060864D01*
X72392856Y-56518007D01*
X71992856Y-56518007D01*
X71953838Y-56521850D01*
X71881742Y-56551713D01*
X71826562Y-56606893D01*
X71796699Y-56678989D01*
X71796699Y-56757025D01*
X71826562Y-56829121D01*
X71881742Y-56884301D01*
X71953838Y-56914164D01*
X71992856Y-56918007D01*
X72392856Y-56918007D01*
X72392856Y-57460864D01*
X71735713Y-57460864D01*
X71696695Y-57464707D01*
X71624599Y-57494570D01*
X71569419Y-57549750D01*
X71539556Y-57621846D01*
X71539556Y-57699882D01*
X71569419Y-57771978D01*
X71624599Y-57827158D01*
X71696695Y-57857021D01*
X71735713Y-57860864D01*
X72592856Y-57860864D01*
X72631874Y-57857021D01*
X72703970Y-57827158D01*
X72759150Y-57771978D01*
X72789013Y-57699882D01*
X72792856Y-57660864D01*
X72792856Y-57621846D01*
X72996699Y-57621846D01*
X72996699Y-57699882D01*
X73026562Y-57771978D01*
X73081742Y-57827158D01*
X73153838Y-57857021D01*
X73192856Y-57860864D01*
X74049999Y-57860864D01*
X74089017Y-57857021D01*
X74161113Y-57827158D01*
X74216293Y-57771978D01*
X74246156Y-57699882D01*
X74249999Y-57660864D01*
X74249999Y-55860864D01*
X74246156Y-55821846D01*
X74625270Y-55821846D01*
X74625270Y-55899882D01*
X74655133Y-55971978D01*
X74710313Y-56027158D01*
X74782409Y-56057021D01*
X74821427Y-56060864D01*
X75478570Y-56060864D01*
X75478570Y-56518007D01*
X75078570Y-56518007D01*
X75039552Y-56521850D01*
X74967456Y-56551713D01*
X74912276Y-56606893D01*
X74882413Y-56678989D01*
X74882413Y-56757025D01*
X74912276Y-56829121D01*
X74967456Y-56884301D01*
X75039552Y-56914164D01*
X75078570Y-56918007D01*
X75478570Y-56918007D01*
X75478570Y-57460864D01*
X74821427Y-57460864D01*
X74782409Y-57464707D01*
X74710313Y-57494570D01*
X74655133Y-57549750D01*
X74625270Y-57621846D01*
X74625270Y-57699882D01*
X74655133Y-57771978D01*
X74710313Y-57827158D01*
X74782409Y-57857021D01*
X74821427Y-57860864D01*
X75678570Y-57860864D01*
X75717588Y-57857021D01*
X75789684Y-57827158D01*
X75844864Y-57771978D01*
X75874727Y-57699882D01*
X75878570Y-57660864D01*
X75878570Y-56203721D01*
X76249999Y-56203721D01*
X76249999Y-56460864D01*
X76253842Y-56499882D01*
X76256591Y-56506519D01*
X76257101Y-56513689D01*
X76271114Y-56550307D01*
X76356827Y-56721734D01*
X76367399Y-56738529D01*
X76369419Y-56743405D01*
X76373925Y-56748895D01*
X76377714Y-56754915D01*
X76381705Y-56758376D01*
X76394291Y-56773713D01*
X76480005Y-56859428D01*
X76495346Y-56872017D01*
X76498805Y-56876006D01*
X76504817Y-56879791D01*
X76510312Y-56884300D01*
X76515190Y-56886320D01*
X76531985Y-56896893D01*
X76703413Y-56982607D01*
X76740031Y-56996619D01*
X76747199Y-56997128D01*
X76753838Y-56999878D01*
X76792856Y-57003721D01*
X77278570Y-57003721D01*
X77278570Y-57660864D01*
X77282413Y-57699882D01*
X77312276Y-57771978D01*
X77367456Y-57827158D01*
X77439552Y-57857021D01*
X77517588Y-57857021D01*
X77589684Y-57827158D01*
X77644864Y-57771978D01*
X77674727Y-57699882D01*
X77678570Y-57660864D01*
X77678570Y-55860864D01*
X77674727Y-55821846D01*
X77644864Y-55749750D01*
X77589684Y-55694570D01*
X77517588Y-55664707D01*
X77478570Y-55660864D01*
X76792856Y-55660864D01*
X76753838Y-55664707D01*
X76747199Y-55667456D01*
X76740031Y-55667966D01*
X76703413Y-55681978D01*
X76531985Y-55767692D01*
X76515193Y-55778262D01*
X76510313Y-55780284D01*
X76504817Y-55784793D01*
X76498805Y-55788579D01*
X76495345Y-55792568D01*
X76480006Y-55805157D01*
X76394292Y-55890871D01*
X76381703Y-55906210D01*
X76377714Y-55909670D01*
X76373928Y-55915682D01*
X76369419Y-55921178D01*
X76367397Y-55926058D01*
X76356827Y-55942850D01*
X76271113Y-56114279D01*
X76257101Y-56150896D01*
X76256591Y-56158065D01*
X76253842Y-56164703D01*
X76249999Y-56203721D01*
X75878570Y-56203721D01*
X75878570Y-55860864D01*
X75874727Y-55821846D01*
X75844864Y-55749750D01*
X75789684Y-55694570D01*
X75717588Y-55664707D01*
X75678570Y-55660864D01*
X74821427Y-55660864D01*
X74782409Y-55664707D01*
X74710313Y-55694570D01*
X74655133Y-55749750D01*
X74625270Y-55821846D01*
X74246156Y-55821846D01*
X74216293Y-55749750D01*
X74161113Y-55694570D01*
X74089017Y-55664707D01*
X74010981Y-55664707D01*
X73938885Y-55694570D01*
X73883705Y-55749750D01*
X73853842Y-55821846D01*
X73849999Y-55860864D01*
X73849999Y-57460864D01*
X73192856Y-57460864D01*
X73153838Y-57464707D01*
X73081742Y-57494570D01*
X73026562Y-57549750D01*
X72996699Y-57621846D01*
X72792856Y-57621846D01*
X72792856Y-55860864D01*
X72789013Y-55821846D01*
X72759150Y-55749750D01*
X72703970Y-55694570D01*
X72631874Y-55664707D01*
X72592856Y-55660864D01*
X71735713Y-55660864D01*
X71696695Y-55664707D01*
X71624599Y-55694570D01*
X71569419Y-55749750D01*
X71539556Y-55821846D01*
X71160442Y-55821846D01*
X71130579Y-55749750D01*
X71075399Y-55694570D01*
X71003303Y-55664707D01*
X70925267Y-55664707D01*
X70853171Y-55694570D01*
X70797991Y-55749750D01*
X70768128Y-55821846D01*
X70764285Y-55860864D01*
X70764285Y-57460864D01*
X70107142Y-57460864D01*
X70068124Y-57464707D01*
X69996028Y-57494570D01*
X69940848Y-57549750D01*
X69910985Y-57621846D01*
X69707142Y-57621846D01*
X69707142Y-55860864D01*
X69703299Y-55821846D01*
X69673436Y-55749750D01*
X69618256Y-55694570D01*
X69546160Y-55664707D01*
X69507142Y-55660864D01*
X68649999Y-55660864D01*
X68610981Y-55664707D01*
X68538885Y-55694570D01*
X68483705Y-55749750D01*
X68453842Y-55821846D01*
X67950967Y-55821846D01*
X67934278Y-55805157D01*
X67918938Y-55792568D01*
X67915479Y-55788579D01*
X67909466Y-55784793D01*
X67903971Y-55780284D01*
X67899090Y-55778262D01*
X67882299Y-55767692D01*
X67710870Y-55681978D01*
X67674253Y-55667966D01*
X67667083Y-55667456D01*
X67660446Y-55664707D01*
X67621428Y-55660864D01*
X67192857Y-55660864D01*
X67173107Y-55662809D01*
X67167842Y-55662435D01*
X67160913Y-55664010D01*
X67153839Y-55664707D01*
X67148960Y-55666727D01*
X67129611Y-55671127D01*
X66872469Y-55756841D01*
X66836668Y-55772826D01*
X66777715Y-55823955D01*
X66742816Y-55893753D01*
X66737285Y-55971592D01*
X66761962Y-56045624D01*
X66813091Y-56104577D01*
X66882889Y-56139476D01*
X66960728Y-56145007D01*
X66998959Y-56136315D01*
X67225313Y-56060864D01*
X67574214Y-56060864D01*
X67674388Y-56110951D01*
X67714198Y-56150761D01*
X67764285Y-56250934D01*
X67764285Y-56327936D01*
X67714199Y-56428107D01*
X67674385Y-56467921D01*
X67551624Y-56529302D01*
X67230064Y-56609692D01*
X67227181Y-56610721D01*
X67225745Y-56610824D01*
X67209530Y-56617028D01*
X67193143Y-56622884D01*
X67191982Y-56623743D01*
X67189128Y-56624836D01*
X67017700Y-56710550D01*
X67000908Y-56721119D01*
X66996029Y-56723141D01*
X66990535Y-56727649D01*
X66984520Y-56731436D01*
X66981059Y-56735426D01*
X66965721Y-56748014D01*
X66880007Y-56833729D01*
X66867420Y-56849065D01*
X66863429Y-56852527D01*
X66859641Y-56858543D01*
X66855134Y-56864036D01*
X66853113Y-56868914D01*
X66842542Y-56885708D01*
X66756829Y-57057135D01*
X66742816Y-57093753D01*
X66742306Y-57100922D01*
X66739557Y-57107560D01*
X66735714Y-57146578D01*
X66535714Y-57146578D01*
X66535714Y-54248679D01*
X69864285Y-54248679D01*
X69864285Y-54420108D01*
X69868128Y-54459126D01*
X69870877Y-54465763D01*
X69871387Y-54472933D01*
X69885400Y-54509551D01*
X69971113Y-54680978D01*
X69981684Y-54697771D01*
X69983705Y-54702650D01*
X69988212Y-54708142D01*
X69992000Y-54714159D01*
X69995991Y-54717620D01*
X70008578Y-54732957D01*
X70094292Y-54818672D01*
X70109630Y-54831259D01*
X70113091Y-54835250D01*
X70119106Y-54839036D01*
X70124600Y-54843545D01*
X70129479Y-54845566D01*
X70146271Y-54856136D01*
X70317699Y-54941850D01*
X70354316Y-54955862D01*
X70361483Y-54956371D01*
X70368124Y-54959122D01*
X70407142Y-54962965D01*
X70835714Y-54962965D01*
X70855463Y-54961019D01*
X70860729Y-54961394D01*
X70867657Y-54959818D01*
X70874732Y-54959122D01*
X70879610Y-54957101D01*
X70898960Y-54952702D01*
X71156101Y-54866988D01*
X71191902Y-54851003D01*
X71250854Y-54799874D01*
X71285753Y-54730076D01*
X71291285Y-54652237D01*
X71266608Y-54578205D01*
X71215479Y-54519252D01*
X71145681Y-54484353D01*
X71067841Y-54478822D01*
X71029610Y-54487514D01*
X70803257Y-54562965D01*
X70454356Y-54562965D01*
X70354186Y-54512880D01*
X70314369Y-54473064D01*
X70264285Y-54372895D01*
X70264285Y-54295892D01*
X70314369Y-54195722D01*
X70354186Y-54155906D01*
X70476946Y-54094526D01*
X70798506Y-54014136D01*
X70801385Y-54013107D01*
X70802825Y-54013005D01*
X70819056Y-54006793D01*
X70835427Y-54000945D01*
X70836587Y-54000085D01*
X70839442Y-53998993D01*
X71010871Y-53913278D01*
X71027660Y-53902709D01*
X71032542Y-53900687D01*
X71038039Y-53896175D01*
X71044051Y-53892391D01*
X71047510Y-53888402D01*
X71062849Y-53875814D01*
X71148563Y-53790100D01*
X71161149Y-53774763D01*
X71165141Y-53771302D01*
X71168928Y-53765285D01*
X71173436Y-53759793D01*
X71175457Y-53754913D01*
X71186027Y-53738122D01*
X71271741Y-53566694D01*
X71273168Y-53562965D01*
X71578570Y-53562965D01*
X71578570Y-54162965D01*
X71579240Y-54169773D01*
X71578807Y-54172687D01*
X71580965Y-54187281D01*
X71582413Y-54201983D01*
X71583541Y-54204707D01*
X71584542Y-54211473D01*
X71670257Y-54554329D01*
X71683448Y-54591250D01*
X71692300Y-54603197D01*
X71697991Y-54616936D01*
X71722863Y-54647243D01*
X71894292Y-54818672D01*
X71909631Y-54831260D01*
X71913091Y-54835250D01*
X71919103Y-54839035D01*
X71924599Y-54843545D01*
X71929479Y-54845566D01*
X71946271Y-54856137D01*
X72117699Y-54941851D01*
X72154317Y-54955863D01*
X72161485Y-54956372D01*
X72168124Y-54959122D01*
X72207142Y-54962965D01*
X72549999Y-54962965D01*
X72589017Y-54959122D01*
X72595654Y-54956372D01*
X72602824Y-54955863D01*
X72639441Y-54941851D01*
X72810870Y-54856137D01*
X72827660Y-54845567D01*
X72832543Y-54843545D01*
X72838041Y-54839032D01*
X72844050Y-54835250D01*
X72847507Y-54831263D01*
X72862850Y-54818672D01*
X72957574Y-54723947D01*
X73296699Y-54723947D01*
X73296699Y-54801983D01*
X73326562Y-54874079D01*
X73381742Y-54929259D01*
X73453838Y-54959122D01*
X73492856Y-54962965D01*
X74349999Y-54962965D01*
X74389017Y-54959122D01*
X74461113Y-54929259D01*
X74516293Y-54874079D01*
X74546156Y-54801983D01*
X74549999Y-54762965D01*
X74549999Y-52962965D01*
X74546156Y-52923947D01*
X74516293Y-52851851D01*
X74461113Y-52796671D01*
X74389017Y-52766808D01*
X74310981Y-52766808D01*
X74238885Y-52796671D01*
X74183705Y-52851851D01*
X74153842Y-52923947D01*
X74149999Y-52962965D01*
X74149999Y-54562965D01*
X73492856Y-54562965D01*
X73453838Y-54566808D01*
X73381742Y-54596671D01*
X73326562Y-54651851D01*
X73296699Y-54723947D01*
X72957574Y-54723947D01*
X73034278Y-54647243D01*
X73059151Y-54616935D01*
X73064841Y-54603196D01*
X73073693Y-54591250D01*
X73086885Y-54554329D01*
X73172599Y-54211472D01*
X73173599Y-54204704D01*
X73174727Y-54201983D01*
X73176173Y-54187301D01*
X73178334Y-54172687D01*
X73177899Y-54169769D01*
X73178570Y-54162965D01*
X73178570Y-53562965D01*
X73177899Y-53556160D01*
X73178334Y-53553243D01*
X73176173Y-53538628D01*
X73174727Y-53523947D01*
X73173599Y-53521225D01*
X73172599Y-53514458D01*
X73086885Y-53171601D01*
X73073693Y-53134680D01*
X73064841Y-53122733D01*
X73059151Y-53108995D01*
X73034278Y-53078687D01*
X72862850Y-52907258D01*
X72847507Y-52894666D01*
X72844050Y-52890680D01*
X72838041Y-52886897D01*
X72832543Y-52882385D01*
X72827660Y-52880362D01*
X72810870Y-52869793D01*
X72639441Y-52784079D01*
X72602824Y-52770067D01*
X72595654Y-52769557D01*
X72589017Y-52766808D01*
X72549999Y-52762965D01*
X72207142Y-52762965D01*
X72168124Y-52766808D01*
X72161485Y-52769557D01*
X72154317Y-52770067D01*
X72117699Y-52784079D01*
X71946271Y-52869793D01*
X71929479Y-52880363D01*
X71924599Y-52882385D01*
X71919103Y-52886894D01*
X71913091Y-52890680D01*
X71909631Y-52894669D01*
X71894292Y-52907258D01*
X71722863Y-53078687D01*
X71697991Y-53108994D01*
X71692300Y-53122732D01*
X71683448Y-53134680D01*
X71670257Y-53171601D01*
X71584542Y-53514457D01*
X71583541Y-53521222D01*
X71582413Y-53523947D01*
X71580965Y-53538648D01*
X71578807Y-53553243D01*
X71579240Y-53556156D01*
X71578570Y-53562965D01*
X71273168Y-53562965D01*
X71285753Y-53530077D01*
X71286262Y-53522909D01*
X71289013Y-53516269D01*
X71292856Y-53477251D01*
X71292856Y-53305822D01*
X71289013Y-53266804D01*
X71286263Y-53260165D01*
X71285754Y-53252997D01*
X71271742Y-53216379D01*
X71186028Y-53044951D01*
X71175457Y-53028159D01*
X71173436Y-53023279D01*
X71168926Y-53017783D01*
X71165141Y-53011771D01*
X71161151Y-53008311D01*
X71148563Y-52992972D01*
X71062849Y-52907258D01*
X71047509Y-52894669D01*
X71044050Y-52890680D01*
X71038037Y-52886894D01*
X71032542Y-52882385D01*
X71027661Y-52880363D01*
X71010870Y-52869793D01*
X70839441Y-52784079D01*
X70802824Y-52770067D01*
X70795654Y-52769557D01*
X70789017Y-52766808D01*
X70749999Y-52762965D01*
X70321428Y-52762965D01*
X70301678Y-52764910D01*
X70296413Y-52764536D01*
X70289484Y-52766111D01*
X70282410Y-52766808D01*
X70277531Y-52768828D01*
X70258182Y-52773228D01*
X70001040Y-52858942D01*
X69965239Y-52874927D01*
X69906286Y-52926056D01*
X69871387Y-52995854D01*
X69865856Y-53073693D01*
X69890533Y-53147725D01*
X69941662Y-53206678D01*
X70011460Y-53241577D01*
X70089299Y-53247108D01*
X70127530Y-53238416D01*
X70353884Y-53162965D01*
X70702785Y-53162965D01*
X70802959Y-53213052D01*
X70842769Y-53252862D01*
X70892856Y-53353035D01*
X70892856Y-53430037D01*
X70842770Y-53530208D01*
X70802956Y-53570022D01*
X70680195Y-53631403D01*
X70358635Y-53711793D01*
X70355752Y-53712822D01*
X70354316Y-53712925D01*
X70338101Y-53719129D01*
X70321714Y-53724985D01*
X70320553Y-53725844D01*
X70317699Y-53726937D01*
X70146271Y-53812651D01*
X70129479Y-53823220D01*
X70124600Y-53825242D01*
X70119106Y-53829750D01*
X70113091Y-53833537D01*
X70109630Y-53837527D01*
X70094292Y-53850115D01*
X70008578Y-53935830D01*
X69995991Y-53951166D01*
X69992000Y-53954628D01*
X69988212Y-53960644D01*
X69983705Y-53966137D01*
X69981684Y-53971015D01*
X69971113Y-53987809D01*
X69885400Y-54159236D01*
X69871387Y-54195854D01*
X69870877Y-54203023D01*
X69868128Y-54209661D01*
X69864285Y-54248679D01*
X66535714Y-54248679D01*
X66535714Y-52562965D01*
X77878570Y-52562965D01*
X77878570Y-58060864D01*
G37*
D12*
%TO.P,C6,1*%
%TO.N,out*%
X72250000Y-82250000D03*
%TO.P,C6,2*%
%TO.N,GND*%
X75750000Y-82250000D03*
%TD*%
D13*
%TO.P,J2,3*%
%TO.N,N/C*%
X45800000Y-37250000D03*
D14*
%TO.P,J2,2*%
%TO.N,GND*%
X50500000Y-34250000D03*
D15*
%TO.P,J2,1*%
%TO.N,+24V*%
X50500000Y-40250000D03*
%TD*%
D16*
%TO.P,L1,4*%
%TO.N,GND*%
X58500000Y-91100000D03*
%TO.P,L1,3*%
%TO.N,Net-(L1-Pad3)*%
X48340000Y-91100000D03*
%TO.P,L1,2*%
%TO.N,Net-(L1-Pad2)*%
X48340000Y-70780000D03*
D17*
%TO.P,L1,1*%
%TO.N,Net-(C2-Pad1)*%
X58500000Y-70780000D03*
%TD*%
D18*
%TO.P,TP2,2,2*%
%TO.N,Net-(Q1-D)*%
X64000000Y-58100000D03*
D19*
%TO.P,TP2,1,1*%
%TO.N,Net-(C2-Pad1)*%
X64000000Y-70800000D03*
%TD*%
D16*
%TO.P,C2,2*%
%TO.N,Net-(D1-A)*%
X54750000Y-47750000D03*
%TO.P,C2,1*%
%TO.N,Net-(C2-Pad1)*%
X69750000Y-47750000D03*
%TD*%
D20*
%TO.P,J3,2,Pin_2*%
%TO.N,Net-(J3-Pin_2)*%
X80115000Y-51540000D03*
D21*
%TO.P,J3,1,Pin_1*%
%TO.N,Net-(J3-Pin_1)*%
X80115000Y-49000000D03*
%TD*%
D12*
%TO.P,C5,1*%
%TO.N,out*%
X72250000Y-73500000D03*
%TO.P,C5,2*%
%TO.N,GND*%
X75750000Y-73500000D03*
%TD*%
%TO.P,C1,1*%
%TO.N,+24V*%
X48000000Y-47500000D03*
%TO.P,C1,2*%
%TO.N,GND*%
X43000000Y-47500000D03*
%TD*%
%TO.P,C4,1*%
%TO.N,out*%
X72250000Y-64750000D03*
%TO.P,C4,2*%
%TO.N,GND*%
X75750000Y-64750000D03*
%TD*%
%TO.P,D1,2,A*%
%TO.N,Net-(D1-A)*%
X52940000Y-67000000D03*
D22*
%TO.P,D1,1,K*%
%TO.N,out*%
X60560000Y-67000000D03*
%TD*%
D18*
%TO.P,TP1,2,2*%
%TO.N,Net-(L1-Pad2)*%
X43000000Y-67100000D03*
D19*
%TO.P,TP1,1,1*%
%TO.N,+24V*%
X43000000Y-54400000D03*
%TD*%
D12*
%TO.P,R2,2*%
%TO.N,Net-(R2-Pad2)*%
X77330000Y-45250000D03*
%TO.P,R2,1*%
%TO.N,PWM*%
X79870000Y-45250000D03*
%TD*%
D23*
%TO.P,J1,2,Pin_2*%
%TO.N,Net-(J1-Pin_2)*%
X59385000Y-31400000D03*
D24*
%TO.P,J1,1,Pin_1*%
%TO.N,GND*%
X64465000Y-31400000D03*
%TD*%
D23*
%TO.P,J4,2,Pin_2*%
%TO.N,GND*%
X70580000Y-92500000D03*
D25*
%TO.P,J4,1,Pin_1*%
%TO.N,out*%
X65500000Y-92500000D03*
%TD*%
D12*
%TO.P,C3,1*%
%TO.N,VCC*%
X73000000Y-30500000D03*
%TO.P,C3,2*%
%TO.N,GND*%
X78000000Y-30500000D03*
%TD*%
D18*
%TO.P,TP3,2,2*%
%TO.N,Net-(L1-Pad3)*%
X42750000Y-89950000D03*
D19*
%TO.P,TP3,1,1*%
%TO.N,Net-(D1-A)*%
X42750000Y-77250000D03*
%TD*%
D12*
%TO.P,U1,8,VCC*%
%TO.N,VCC*%
X78810000Y-33940000D03*
D26*
%TO.P,U1,1,NC*%
%TO.N,unconnected-(U1-NC-Pad1)*%
X71190000Y-33940000D03*
D12*
%TO.P,U1,2,A*%
%TO.N,Net-(U1-A)*%
X71190000Y-36480000D03*
%TO.P,U1,7,VO*%
%TO.N,Net-(R2-Pad2)*%
X78810000Y-36480000D03*
%TO.P,U1,3,C*%
%TO.N,Net-(J3-Pin_1)*%
X71190000Y-39020000D03*
%TO.P,U1,6,VO*%
%TO.N,Net-(R2-Pad2)*%
X78810000Y-39020000D03*
%TO.P,U1,5,VEE*%
%TO.N,GND*%
X78810000Y-41560000D03*
%TO.P,U1,4,NC*%
%TO.N,unconnected-(U1-NC-Pad4)*%
X71190000Y-41560000D03*
%TD*%
D27*
%TO.P,Q1,3,S*%
%TO.N,GND*%
X80500000Y-61280000D03*
%TO.P,Q1,2,D*%
%TO.N,Net-(Q1-D)*%
X80500000Y-58740000D03*
D28*
%TO.P,Q1,1,G*%
%TO.N,PWM*%
X80500000Y-56200000D03*
%TD*%
D29*
%TO.P,JP1,3,B*%
%TO.N,+24V*%
X63500000Y-40000000D03*
D30*
%TO.P,JP1,2,C*%
%TO.N,VCC*%
X61950000Y-40000000D03*
D31*
%TO.P,JP1,1,A*%
%TO.N,Net-(J1-Pin_2)*%
X60400000Y-40000000D03*
%TD*%
D12*
%TO.P,R1,1*%
%TO.N,Net-(U1-A)*%
X67500000Y-39530000D03*
%TO.P,R1,2*%
%TO.N,Net-(J3-Pin_2)*%
X67500000Y-42070000D03*
%TD*%
D32*
%TO.N,Net-(J3-Pin_2)*%
X67500000Y-42070000D02*
X67500000Y-42500000D01*
X67500000Y-42500000D02*
X76540000Y-51540000D01*
X76540000Y-51540000D02*
X80115000Y-51540000D01*
%TO.N,Net-(J3-Pin_1)*%
X71190000Y-39020000D02*
X72604213Y-39020000D01*
X73000000Y-45871530D02*
X77467470Y-50339000D01*
X72604213Y-39020000D02*
X73000000Y-39415787D01*
X73000000Y-39415787D02*
X73000000Y-45871530D01*
X77467470Y-50339000D02*
X78776000Y-50339000D01*
X78776000Y-50339000D02*
X80115000Y-49000000D01*
%TO.N,Net-(R2-Pad2)*%
X78810000Y-39020000D02*
X78803001Y-39020000D01*
X78803001Y-39020000D02*
X76530001Y-41293000D01*
X76530001Y-41293000D02*
X76530001Y-44450001D01*
X76530001Y-44450001D02*
X77330000Y-45250000D01*
%TO.N,Net-(U1-A)*%
X71190000Y-36480000D02*
X70550000Y-36480000D01*
X70550000Y-36480000D02*
X67500000Y-39530000D01*
%TO.N,PWM*%
X81800000Y-54150000D02*
X80500000Y-55450000D01*
X79870000Y-45250000D02*
X81800000Y-47180000D01*
X80500000Y-55450000D02*
X80500000Y-56200000D01*
X81800000Y-47180000D02*
X81800000Y-54150000D01*
%TO.N,Net-(J1-Pin_2)*%
X60400000Y-40000000D02*
X60400000Y-32842500D01*
X60400000Y-32842500D02*
X59385000Y-31827500D01*
%TO.N,Net-(R2-Pad2)*%
X78810000Y-36480000D02*
X78810000Y-39020000D01*
%TD*%
%TA.AperFunction,Conductor*%
%TO.N,Net-(D1-A)*%
G36*
X55515677Y-46019685D02*
G01*
X55536319Y-46036319D01*
X56708252Y-47208252D01*
X56741737Y-47269575D01*
X56743701Y-47296933D01*
X56744500Y-47296933D01*
X56744500Y-64563513D01*
X56724815Y-64630552D01*
X56708181Y-64651194D01*
X56401194Y-64958181D01*
X56339871Y-64991666D01*
X56313513Y-64994500D01*
X55676360Y-64994500D01*
X55622315Y-64997397D01*
X55606533Y-64999094D01*
X55604724Y-64999289D01*
X55591468Y-65000000D01*
X55187499Y-65000000D01*
X54750000Y-65437499D01*
X54750000Y-65879239D01*
X54748738Y-65896885D01*
X54744500Y-65926360D01*
X54744500Y-71167390D01*
X54747396Y-71221411D01*
X54747399Y-71221452D01*
X54749289Y-71239021D01*
X54750000Y-71252281D01*
X54750000Y-77261138D01*
X54730315Y-77328177D01*
X54713681Y-77348819D01*
X52348819Y-79713681D01*
X52287496Y-79747166D01*
X52261138Y-79750000D01*
X41301362Y-79750000D01*
X41234323Y-79730315D01*
X41213681Y-79713681D01*
X40786319Y-79286319D01*
X40752834Y-79224996D01*
X40750000Y-79198638D01*
X40750000Y-76301362D01*
X40769685Y-76234323D01*
X40786319Y-76213681D01*
X41713681Y-75286319D01*
X41775004Y-75252834D01*
X41801362Y-75250000D01*
X50000000Y-75250000D01*
X51250000Y-74000000D01*
X51250000Y-72245760D01*
X51251262Y-72228113D01*
X51255500Y-72198638D01*
X51255500Y-65801362D01*
X51252603Y-65747322D01*
X51250711Y-65729725D01*
X51250000Y-65716467D01*
X51250000Y-63551362D01*
X51269685Y-63484323D01*
X51286319Y-63463681D01*
X51713681Y-63036319D01*
X51775004Y-63002834D01*
X51801362Y-63000000D01*
X52421875Y-63000000D01*
X52750000Y-62671875D01*
X52750000Y-47301362D01*
X52769685Y-47234323D01*
X52786319Y-47213681D01*
X53963681Y-46036319D01*
X54025004Y-46002834D01*
X54051362Y-46000000D01*
X55448638Y-46000000D01*
X55515677Y-46019685D01*
G37*
%TD.AperFunction*%
%TD*%
%TA.AperFunction,Conductor*%
%TO.N,Net-(Q1-D)*%
G36*
X72410703Y-48684648D02*
G01*
X72417181Y-48690680D01*
X75840536Y-52114035D01*
X75965965Y-52239464D01*
X76113453Y-52338013D01*
X76113454Y-52338013D01*
X76113455Y-52338014D01*
X76161452Y-52357895D01*
X76277334Y-52405895D01*
X76451304Y-52440499D01*
X76451308Y-52440500D01*
X76451309Y-52440500D01*
X79054242Y-52440500D01*
X79121281Y-52460185D01*
X79141923Y-52476819D01*
X79235213Y-52570109D01*
X79407179Y-52695048D01*
X79407181Y-52695049D01*
X79407184Y-52695051D01*
X79596588Y-52791557D01*
X79798757Y-52857246D01*
X80008713Y-52890500D01*
X80008714Y-52890500D01*
X80221286Y-52890500D01*
X80221287Y-52890500D01*
X80431243Y-52857246D01*
X80633412Y-52791557D01*
X80719206Y-52747842D01*
X80787874Y-52734947D01*
X80852614Y-52761223D01*
X80892872Y-52818329D01*
X80899500Y-52858328D01*
X80899500Y-53725637D01*
X80879815Y-53792676D01*
X80863181Y-53813318D01*
X79965817Y-54710681D01*
X79904494Y-54744166D01*
X79878136Y-54747000D01*
X79452129Y-54747000D01*
X79452123Y-54747001D01*
X79392516Y-54753408D01*
X79257671Y-54803702D01*
X79257664Y-54803706D01*
X79142455Y-54889952D01*
X79142452Y-54889955D01*
X79056206Y-55005164D01*
X79056202Y-55005171D01*
X79005908Y-55140017D01*
X78999501Y-55199616D01*
X78999500Y-55199635D01*
X78999500Y-57200370D01*
X78999501Y-57200376D01*
X79005908Y-57259983D01*
X79056202Y-57394828D01*
X79056206Y-57394835D01*
X79142452Y-57510044D01*
X79142455Y-57510047D01*
X79257664Y-57596293D01*
X79257671Y-57596297D01*
X79392517Y-57646591D01*
X79392516Y-57646591D01*
X79399444Y-57647335D01*
X79452127Y-57653000D01*
X81547872Y-57652999D01*
X81607483Y-57646591D01*
X81742331Y-57596296D01*
X81801688Y-57551860D01*
X81867153Y-57527443D01*
X81935426Y-57542294D01*
X81984832Y-57591699D01*
X82000000Y-57651127D01*
X82000000Y-59486138D01*
X81980315Y-59553177D01*
X81963681Y-59573819D01*
X81773819Y-59763681D01*
X81712496Y-59797166D01*
X81686138Y-59800000D01*
X61151362Y-59800000D01*
X61084323Y-59780315D01*
X61063681Y-59763681D01*
X60841819Y-59541819D01*
X60808334Y-59480496D01*
X60805500Y-59454138D01*
X60805500Y-57868168D01*
X66728410Y-57868168D01*
X77683570Y-57868168D01*
X77683570Y-52755661D01*
X66728410Y-52755661D01*
X66728410Y-57868168D01*
X60805500Y-57868168D01*
X60805500Y-50960745D01*
X60814144Y-50931304D01*
X60820668Y-50901318D01*
X60824422Y-50896302D01*
X60825185Y-50893706D01*
X60841819Y-50873064D01*
X60873064Y-50841819D01*
X60934387Y-50808334D01*
X60960745Y-50805500D01*
X70943723Y-50805500D01*
X70943732Y-50805500D01*
X71014456Y-50800528D01*
X71026737Y-50798792D01*
X71048811Y-50795674D01*
X71118159Y-50780852D01*
X71118159Y-50780851D01*
X71118163Y-50780851D01*
X71249328Y-50721714D01*
X71308288Y-50684224D01*
X71417480Y-50590529D01*
X72049748Y-49867936D01*
X72073282Y-49838945D01*
X72084277Y-49824329D01*
X72105567Y-49793743D01*
X72165338Y-49662866D01*
X72185023Y-49595827D01*
X72185024Y-49595823D01*
X72205500Y-49453407D01*
X72205500Y-48778361D01*
X72225185Y-48711322D01*
X72277989Y-48665567D01*
X72347147Y-48655623D01*
X72410703Y-48684648D01*
G37*
%TD.AperFunction*%
%TD*%
%TA.AperFunction,Conductor*%
%TO.N,+24V*%
G36*
X57187162Y-38019685D02*
G01*
X57207804Y-38036319D01*
X57360166Y-38188681D01*
X57393651Y-38250004D01*
X57396485Y-38276362D01*
X57396485Y-38900000D01*
X57696485Y-39200000D01*
X59353904Y-39200000D01*
X59420943Y-39219685D01*
X59466698Y-39272489D01*
X59476642Y-39341647D01*
X59468465Y-39371452D01*
X59445801Y-39426167D01*
X59411724Y-39553341D01*
X59394500Y-39684166D01*
X59394500Y-40315833D01*
X59411724Y-40446658D01*
X59445800Y-40573829D01*
X59496302Y-40695750D01*
X59496303Y-40695751D01*
X59562120Y-40809749D01*
X59562132Y-40809767D01*
X59642455Y-40914444D01*
X59642459Y-40914449D01*
X59735551Y-41007541D01*
X59735555Y-41007544D01*
X59840232Y-41087867D01*
X59840236Y-41087869D01*
X59840243Y-41087875D01*
X59840250Y-41087879D01*
X59954248Y-41153696D01*
X59954249Y-41153697D01*
X59954252Y-41153698D01*
X59954257Y-41153701D01*
X60076171Y-41204200D01*
X60203338Y-41238275D01*
X60334174Y-41255500D01*
X60334181Y-41255500D01*
X60950000Y-41255500D01*
X61021940Y-41250355D01*
X61159992Y-41209819D01*
X61159993Y-41209818D01*
X61168501Y-41207320D01*
X61169389Y-41210344D01*
X61223123Y-41202596D01*
X61248853Y-41209156D01*
X61342517Y-41244091D01*
X61402127Y-41250500D01*
X62497872Y-41250499D01*
X62557483Y-41244091D01*
X62692331Y-41193796D01*
X62807546Y-41107546D01*
X62893796Y-40992331D01*
X62944091Y-40857483D01*
X62950500Y-40797873D01*
X62950499Y-39323999D01*
X62970184Y-39256961D01*
X63022987Y-39211206D01*
X63074499Y-39200000D01*
X64172485Y-39200000D01*
X64239524Y-39219685D01*
X64285279Y-39272489D01*
X64296485Y-39324000D01*
X64296485Y-44945382D01*
X64276800Y-45012421D01*
X64256189Y-45036868D01*
X63791548Y-45461986D01*
X63728799Y-45492717D01*
X63707844Y-45494500D01*
X58551360Y-45494500D01*
X58497315Y-45497397D01*
X58481533Y-45499094D01*
X58479724Y-45499289D01*
X58466468Y-45500000D01*
X55495761Y-45500000D01*
X55478115Y-45498738D01*
X55448639Y-45494500D01*
X55448638Y-45494500D01*
X54051362Y-45494500D01*
X54051360Y-45494500D01*
X53997311Y-45497397D01*
X53997310Y-45497397D01*
X53970977Y-45500229D01*
X53970950Y-45500232D01*
X53917554Y-45508885D01*
X53917552Y-45508885D01*
X53782747Y-45559166D01*
X53721422Y-45592651D01*
X53606240Y-45678876D01*
X53606228Y-45678886D01*
X52428892Y-46856223D01*
X52428855Y-46856262D01*
X52392728Y-46896480D01*
X52392718Y-46896492D01*
X52376076Y-46917143D01*
X52344433Y-46961025D01*
X52284663Y-47091899D01*
X52264976Y-47158944D01*
X52244500Y-47301363D01*
X52244500Y-54381278D01*
X52224815Y-54448317D01*
X52208415Y-54468724D01*
X50622199Y-56063446D01*
X50560966Y-56097095D01*
X50534284Y-56100000D01*
X41051362Y-56100000D01*
X40984323Y-56080315D01*
X40963681Y-56063681D01*
X40536319Y-55636319D01*
X40502834Y-55574996D01*
X40500000Y-55548638D01*
X40500000Y-52551363D01*
X40519685Y-52484324D01*
X40536319Y-52463682D01*
X40963681Y-52036322D01*
X41025004Y-52002837D01*
X41051360Y-52000003D01*
X45128576Y-52000013D01*
X46508868Y-50623831D01*
X46509018Y-50573477D01*
X46541646Y-39624130D01*
X46561530Y-39557150D01*
X46614470Y-39511553D01*
X46665645Y-39500500D01*
X46768614Y-39500500D01*
X46768622Y-39500500D01*
X46821241Y-39497705D01*
X47051126Y-39453245D01*
X47270190Y-39370574D01*
X47472132Y-39252070D01*
X47651142Y-39101142D01*
X47802070Y-38922132D01*
X47920574Y-38720190D01*
X48003245Y-38501126D01*
X48047705Y-38271241D01*
X48050500Y-38218622D01*
X48050500Y-38124000D01*
X48070185Y-38056961D01*
X48122989Y-38011206D01*
X48174500Y-38000000D01*
X57120123Y-38000000D01*
X57187162Y-38019685D01*
G37*
%TD.AperFunction*%
%TD*%
%TA.AperFunction,Conductor*%
%TO.N,Net-(L1-Pad2)*%
G36*
X50015677Y-65019685D02*
G01*
X50036319Y-65036319D01*
X50713681Y-65713681D01*
X50747166Y-65775004D01*
X50750000Y-65801362D01*
X50750000Y-72198638D01*
X50730315Y-72265677D01*
X50713681Y-72286319D01*
X50036319Y-72963681D01*
X49974996Y-72997166D01*
X49948638Y-73000000D01*
X47551362Y-73000000D01*
X47484323Y-72980315D01*
X47463681Y-72963681D01*
X46536319Y-72036319D01*
X46502834Y-71974996D01*
X46500000Y-71948638D01*
X46500000Y-69656249D01*
X45718759Y-68878830D01*
X41451717Y-68899746D01*
X41384582Y-68880390D01*
X41363428Y-68863428D01*
X40736319Y-68236319D01*
X40702834Y-68174996D01*
X40700000Y-68148638D01*
X40700000Y-65751362D01*
X40719685Y-65684323D01*
X40736319Y-65663681D01*
X41363681Y-65036319D01*
X41425004Y-65002834D01*
X41451362Y-65000000D01*
X49948638Y-65000000D01*
X50015677Y-65019685D01*
G37*
%TD.AperFunction*%
%TD*%
%TA.AperFunction,Conductor*%
%TO.N,Net-(L1-Pad3)*%
G36*
X49265677Y-88269685D02*
G01*
X49286319Y-88286319D01*
X50213681Y-89213681D01*
X50247166Y-89275004D01*
X50250000Y-89301362D01*
X50250000Y-93386138D01*
X50230315Y-93453177D01*
X50213681Y-93473819D01*
X49723819Y-93963681D01*
X49662496Y-93997166D01*
X49636138Y-94000000D01*
X47176362Y-94000000D01*
X47109323Y-93980315D01*
X47088681Y-93963681D01*
X46786319Y-93661319D01*
X46752834Y-93599996D01*
X46750000Y-93573638D01*
X46750000Y-92781250D01*
X45718750Y-91750000D01*
X41801362Y-91750000D01*
X41734323Y-91730315D01*
X41713681Y-91713681D01*
X41286319Y-91286319D01*
X41252834Y-91224996D01*
X41250000Y-91198638D01*
X41250000Y-88801362D01*
X41269685Y-88734323D01*
X41286319Y-88713681D01*
X41713681Y-88286319D01*
X41775004Y-88252834D01*
X41801362Y-88250000D01*
X49198638Y-88250000D01*
X49265677Y-88269685D01*
G37*
%TD.AperFunction*%
%TD*%
%TA.AperFunction,Conductor*%
%TO.N,Net-(C2-Pad1)*%
G36*
X69742177Y-46019685D02*
G01*
X69762819Y-46036319D01*
X71350538Y-47624038D01*
X71663681Y-47937180D01*
X71697166Y-47998503D01*
X71700000Y-48024861D01*
X71700000Y-49453407D01*
X71680315Y-49520446D01*
X71669320Y-49535062D01*
X71037052Y-50257655D01*
X70978092Y-50295145D01*
X70943732Y-50300000D01*
X60699999Y-50300000D01*
X60300000Y-50699999D01*
X60300000Y-64631899D01*
X60280315Y-64698938D01*
X60227511Y-64744693D01*
X60195837Y-64754302D01*
X60167552Y-64758885D01*
X60032747Y-64809166D01*
X59971422Y-64842651D01*
X59856240Y-64928876D01*
X59856228Y-64928886D01*
X59178892Y-65606223D01*
X59178855Y-65606262D01*
X59142728Y-65646480D01*
X59142718Y-65646492D01*
X59126076Y-65667143D01*
X59094433Y-65711025D01*
X59034663Y-65841899D01*
X59014976Y-65908944D01*
X58994500Y-66051363D01*
X58994500Y-68198640D01*
X58997397Y-68252688D01*
X58997397Y-68252689D01*
X59000229Y-68279022D01*
X59000232Y-68279049D01*
X59008885Y-68332445D01*
X59008885Y-68332447D01*
X59059166Y-68467252D01*
X59059168Y-68467257D01*
X59092653Y-68528580D01*
X59178877Y-68643761D01*
X59178881Y-68643765D01*
X59178886Y-68643771D01*
X59856223Y-69321107D01*
X59856239Y-69321123D01*
X59856255Y-69321137D01*
X59856262Y-69321144D01*
X59896480Y-69357271D01*
X59896492Y-69357281D01*
X59896500Y-69357288D01*
X59917142Y-69373922D01*
X59961026Y-69405567D01*
X60091903Y-69465338D01*
X60158942Y-69485023D01*
X60158946Y-69485024D01*
X60301362Y-69505500D01*
X66239254Y-69505500D01*
X66306293Y-69525185D01*
X66326935Y-69541819D01*
X66708181Y-69923065D01*
X66741666Y-69984388D01*
X66744500Y-70010746D01*
X66744500Y-72204138D01*
X66724815Y-72271177D01*
X66708181Y-72291819D01*
X66041819Y-72958181D01*
X65980496Y-72991666D01*
X65954138Y-72994500D01*
X63801360Y-72994500D01*
X63747315Y-72997397D01*
X63731533Y-72999094D01*
X63729724Y-72999289D01*
X63716468Y-73000000D01*
X57082612Y-73000000D01*
X57015573Y-72980315D01*
X56994931Y-72963681D01*
X55286319Y-71255069D01*
X55252834Y-71193746D01*
X55250000Y-71167388D01*
X55250000Y-65926362D01*
X55269685Y-65859323D01*
X55286319Y-65838681D01*
X55588681Y-65536319D01*
X55650004Y-65502834D01*
X55676362Y-65500000D01*
X56750000Y-65500000D01*
X57250000Y-65000000D01*
X57250000Y-47301362D01*
X57269685Y-47234323D01*
X57286319Y-47213681D01*
X58463681Y-46036319D01*
X58525004Y-46002834D01*
X58551362Y-46000000D01*
X69675138Y-46000000D01*
X69742177Y-46019685D01*
G37*
%TD.AperFunction*%
%TD*%
%TA.AperFunction,NonConductor*%
G36*
X57547293Y-46025185D02*
G01*
X57593048Y-46077989D01*
X57602992Y-46147147D01*
X57573967Y-46210703D01*
X57567935Y-46217181D01*
X57087681Y-46697435D01*
X57026358Y-46730920D01*
X56956666Y-46725936D01*
X56912319Y-46697435D01*
X56432065Y-46217181D01*
X56398580Y-46155858D01*
X56403564Y-46086166D01*
X56445436Y-46030233D01*
X56510900Y-46005816D01*
X56519746Y-46005500D01*
X57480254Y-46005500D01*
X57547293Y-46025185D01*
G37*
%TD.AperFunction*%
%TA.AperFunction,Conductor*%
%TO.N,out*%
G36*
X73265677Y-63019685D02*
G01*
X73286319Y-63036319D01*
X73963681Y-63713681D01*
X73997166Y-63775004D01*
X74000000Y-63801362D01*
X74000000Y-82667388D01*
X73980315Y-82734427D01*
X73963681Y-82755069D01*
X73005069Y-83713681D01*
X72943746Y-83747166D01*
X72917388Y-83750000D01*
X69874999Y-83750000D01*
X68500000Y-85124999D01*
X68500000Y-93698638D01*
X68480315Y-93765677D01*
X68463681Y-93786319D01*
X68036319Y-94213681D01*
X67974996Y-94247166D01*
X67948638Y-94250000D01*
X63551362Y-94250000D01*
X63484323Y-94230315D01*
X63463681Y-94213681D01*
X63036319Y-93786319D01*
X63002834Y-93724996D01*
X63000000Y-93698638D01*
X63000000Y-74301362D01*
X63019685Y-74234323D01*
X63036319Y-74213681D01*
X63713681Y-73536319D01*
X63775004Y-73502834D01*
X63801362Y-73500000D01*
X66500000Y-73500000D01*
X67250000Y-72750000D01*
X67250000Y-69750000D01*
X66500000Y-69000000D01*
X60301362Y-69000000D01*
X60234323Y-68980315D01*
X60213681Y-68963681D01*
X59536319Y-68286319D01*
X59502834Y-68224996D01*
X59500000Y-68198638D01*
X59500000Y-66051362D01*
X59519685Y-65984323D01*
X59536319Y-65963681D01*
X60213681Y-65286319D01*
X60275004Y-65252834D01*
X60301362Y-65250000D01*
X69750000Y-65250000D01*
X70500000Y-64500000D01*
X70500000Y-63801362D01*
X70519685Y-63734323D01*
X70536319Y-63713681D01*
X71213681Y-63036319D01*
X71275004Y-63002834D01*
X71301362Y-63000000D01*
X73198638Y-63000000D01*
X73265677Y-63019685D01*
G37*
%TD.AperFunction*%
%TD*%
%TA.AperFunction,Conductor*%
%TO.N,GND*%
G36*
X84175000Y-27270462D02*
G01*
X84229538Y-27325000D01*
X84249500Y-27399500D01*
X84249500Y-96600500D01*
X84229538Y-96675000D01*
X84175000Y-96729538D01*
X84100500Y-96749500D01*
X37399500Y-96749500D01*
X37325000Y-96729538D01*
X37270462Y-96675000D01*
X37250500Y-96600500D01*
X37250500Y-94124038D01*
X38149500Y-94124038D01*
X38149500Y-94375962D01*
X38188910Y-94624785D01*
X38266759Y-94864379D01*
X38381130Y-95088845D01*
X38529207Y-95292656D01*
X38707344Y-95470793D01*
X38911155Y-95618870D01*
X39135621Y-95733241D01*
X39375215Y-95811090D01*
X39624038Y-95850500D01*
X39624043Y-95850500D01*
X39875957Y-95850500D01*
X39875962Y-95850500D01*
X40124785Y-95811090D01*
X40364379Y-95733241D01*
X40588845Y-95618870D01*
X40792656Y-95470793D01*
X40970793Y-95292656D01*
X41118870Y-95088845D01*
X41233241Y-94864379D01*
X41311090Y-94624785D01*
X41350500Y-94375962D01*
X41350500Y-94124038D01*
X41311090Y-93875215D01*
X41233241Y-93635621D01*
X41118870Y-93411155D01*
X40970793Y-93207344D01*
X40792656Y-93029207D01*
X40588845Y-92881130D01*
X40364379Y-92766759D01*
X40124785Y-92688910D01*
X39875962Y-92649500D01*
X39624038Y-92649500D01*
X39416685Y-92682341D01*
X39375214Y-92688910D01*
X39135627Y-92766757D01*
X39135621Y-92766759D01*
X39135615Y-92766761D01*
X39135615Y-92766762D01*
X38911153Y-92881131D01*
X38911152Y-92881131D01*
X38707345Y-93029206D01*
X38707342Y-93029208D01*
X38529208Y-93207342D01*
X38529206Y-93207345D01*
X38381131Y-93411152D01*
X38381131Y-93411153D01*
X38266762Y-93635615D01*
X38266757Y-93635627D01*
X38199619Y-93842257D01*
X38188910Y-93875215D01*
X38149500Y-94124038D01*
X37250500Y-94124038D01*
X37250500Y-88801365D01*
X40744500Y-88801365D01*
X40744500Y-91198643D01*
X40747394Y-91252649D01*
X40747396Y-91252678D01*
X40750228Y-91279020D01*
X40750235Y-91279066D01*
X40758883Y-91332440D01*
X40809166Y-91467252D01*
X40809167Y-91467255D01*
X40842650Y-91528575D01*
X40842655Y-91528583D01*
X40928874Y-91643758D01*
X40928877Y-91643761D01*
X41356239Y-92071123D01*
X41396500Y-92107288D01*
X41396518Y-92107303D01*
X41396521Y-92107305D01*
X41417141Y-92123921D01*
X41417140Y-92123921D01*
X41430596Y-92133624D01*
X41461026Y-92155567D01*
X41591903Y-92215338D01*
X41630019Y-92226530D01*
X41658938Y-92235022D01*
X41658940Y-92235022D01*
X41658942Y-92235023D01*
X41658946Y-92235024D01*
X41658947Y-92235024D01*
X41658951Y-92235025D01*
X41658955Y-92235026D01*
X41801347Y-92255498D01*
X41801351Y-92255498D01*
X41801362Y-92255500D01*
X45447648Y-92255500D01*
X45522148Y-92275462D01*
X45553007Y-92299141D01*
X46200859Y-92946993D01*
X46239423Y-93013788D01*
X46244500Y-93052352D01*
X46244500Y-93573643D01*
X46247394Y-93627649D01*
X46247396Y-93627678D01*
X46250228Y-93654020D01*
X46250235Y-93654066D01*
X46258883Y-93707440D01*
X46309166Y-93842252D01*
X46309167Y-93842255D01*
X46342650Y-93903575D01*
X46342655Y-93903583D01*
X46428874Y-94018758D01*
X46428877Y-94018761D01*
X46731239Y-94321123D01*
X46771500Y-94357288D01*
X46771518Y-94357303D01*
X46771521Y-94357305D01*
X46792141Y-94373921D01*
X46792140Y-94373921D01*
X46794964Y-94375957D01*
X46836026Y-94405567D01*
X46966903Y-94465338D01*
X47005019Y-94476530D01*
X47033938Y-94485022D01*
X47033940Y-94485022D01*
X47033942Y-94485023D01*
X47033946Y-94485024D01*
X47033947Y-94485024D01*
X47033951Y-94485025D01*
X47033955Y-94485026D01*
X47176347Y-94505498D01*
X47176351Y-94505498D01*
X47176362Y-94505500D01*
X47176366Y-94505500D01*
X49636143Y-94505500D01*
X49690149Y-94502605D01*
X49690178Y-94502603D01*
X49716520Y-94499771D01*
X49716526Y-94499770D01*
X49716536Y-94499769D01*
X49725356Y-94498339D01*
X49769940Y-94491116D01*
X49769943Y-94491114D01*
X49769948Y-94491114D01*
X49904757Y-94440832D01*
X49966080Y-94407347D01*
X50081261Y-94321123D01*
X50571123Y-93831261D01*
X50607288Y-93791000D01*
X50623922Y-93770358D01*
X50655567Y-93726474D01*
X50715338Y-93595597D01*
X50735023Y-93528558D01*
X50735024Y-93528554D01*
X50735025Y-93528548D01*
X50735026Y-93528544D01*
X50755498Y-93386152D01*
X50755500Y-93386134D01*
X50755500Y-89301356D01*
X50752605Y-89247350D01*
X50752603Y-89247321D01*
X50749771Y-89220979D01*
X50749764Y-89220933D01*
X50741116Y-89167559D01*
X50741114Y-89167554D01*
X50741114Y-89167552D01*
X50690832Y-89032743D01*
X50657347Y-88971420D01*
X50656391Y-88970143D01*
X50571125Y-88856241D01*
X49643760Y-87928876D01*
X49603510Y-87892721D01*
X49603500Y-87892712D01*
X49582858Y-87876078D01*
X49582859Y-87876078D01*
X49560916Y-87860255D01*
X49538974Y-87844433D01*
X49408097Y-87784662D01*
X49408094Y-87784661D01*
X49408085Y-87784658D01*
X49341061Y-87764977D01*
X49341048Y-87764974D01*
X49341044Y-87764973D01*
X49198652Y-87744501D01*
X49198640Y-87744500D01*
X49198638Y-87744500D01*
X41801362Y-87744500D01*
X41801357Y-87744500D01*
X41747350Y-87747394D01*
X41747321Y-87747396D01*
X41720979Y-87750228D01*
X41720933Y-87750235D01*
X41667559Y-87758883D01*
X41532747Y-87809166D01*
X41532744Y-87809167D01*
X41471424Y-87842650D01*
X41471416Y-87842655D01*
X41356241Y-87928874D01*
X40928876Y-88356239D01*
X40892721Y-88396489D01*
X40892694Y-88396521D01*
X40876078Y-88417140D01*
X40844433Y-88461026D01*
X40784661Y-88591905D01*
X40784658Y-88591914D01*
X40764977Y-88658938D01*
X40764974Y-88658951D01*
X40764973Y-88658955D01*
X40744501Y-88801347D01*
X40744500Y-88801365D01*
X37250500Y-88801365D01*
X37250500Y-52551366D01*
X39994500Y-52551366D01*
X39994500Y-55548643D01*
X39997394Y-55602649D01*
X39997396Y-55602678D01*
X40000228Y-55629020D01*
X40000235Y-55629066D01*
X40008883Y-55682440D01*
X40059166Y-55817252D01*
X40059167Y-55817255D01*
X40092650Y-55878575D01*
X40092655Y-55878583D01*
X40178874Y-55993758D01*
X40178877Y-55993761D01*
X40606239Y-56421123D01*
X40646500Y-56457288D01*
X40646518Y-56457303D01*
X40646521Y-56457305D01*
X40667141Y-56473921D01*
X40667140Y-56473921D01*
X40680596Y-56483624D01*
X40711026Y-56505567D01*
X40841903Y-56565338D01*
X40880019Y-56576530D01*
X40908938Y-56585022D01*
X40908940Y-56585022D01*
X40908942Y-56585023D01*
X40908946Y-56585024D01*
X40908947Y-56585024D01*
X40908951Y-56585025D01*
X40908955Y-56585026D01*
X41051347Y-56605498D01*
X41051351Y-56605498D01*
X41051362Y-56605500D01*
X41051366Y-56605500D01*
X50534268Y-56605500D01*
X50534284Y-56605500D01*
X50588997Y-56602530D01*
X50615679Y-56599625D01*
X50669741Y-56590753D01*
X50804414Y-56540111D01*
X50865647Y-56506462D01*
X50980596Y-56419931D01*
X51989861Y-55405253D01*
X52056551Y-55366512D01*
X52133679Y-55366305D01*
X52200577Y-55404691D01*
X52239319Y-55471382D01*
X52244500Y-55510331D01*
X52244500Y-62345500D01*
X52224538Y-62420000D01*
X52170000Y-62474538D01*
X52095500Y-62494500D01*
X51801357Y-62494500D01*
X51747350Y-62497394D01*
X51747321Y-62497396D01*
X51720979Y-62500228D01*
X51720933Y-62500235D01*
X51667559Y-62508883D01*
X51532747Y-62559166D01*
X51532744Y-62559167D01*
X51471424Y-62592650D01*
X51471416Y-62592655D01*
X51356241Y-62678874D01*
X50928876Y-63106239D01*
X50892721Y-63146489D01*
X50892694Y-63146521D01*
X50876078Y-63167140D01*
X50844433Y-63211026D01*
X50784661Y-63341905D01*
X50784658Y-63341914D01*
X50764977Y-63408938D01*
X50764974Y-63408951D01*
X50764973Y-63408955D01*
X50744501Y-63551347D01*
X50744500Y-63551365D01*
X50744500Y-64669898D01*
X50724538Y-64744398D01*
X50670000Y-64798936D01*
X50595500Y-64818898D01*
X50521000Y-64798936D01*
X50490141Y-64775257D01*
X50393760Y-64678876D01*
X50353510Y-64642721D01*
X50353500Y-64642712D01*
X50332858Y-64626078D01*
X50332859Y-64626078D01*
X50310916Y-64610255D01*
X50288974Y-64594433D01*
X50158097Y-64534662D01*
X50158094Y-64534661D01*
X50158085Y-64534658D01*
X50091061Y-64514977D01*
X50091048Y-64514974D01*
X50091044Y-64514973D01*
X49948652Y-64494501D01*
X49948640Y-64494500D01*
X49948638Y-64494500D01*
X41451362Y-64494500D01*
X41451357Y-64494500D01*
X41397350Y-64497394D01*
X41397321Y-64497396D01*
X41370979Y-64500228D01*
X41370933Y-64500235D01*
X41317559Y-64508883D01*
X41182747Y-64559166D01*
X41182744Y-64559167D01*
X41121424Y-64592650D01*
X41121416Y-64592655D01*
X41006241Y-64678874D01*
X40378876Y-65306239D01*
X40342721Y-65346489D01*
X40342694Y-65346521D01*
X40326078Y-65367140D01*
X40294433Y-65411026D01*
X40234661Y-65541905D01*
X40234658Y-65541914D01*
X40214977Y-65608938D01*
X40214974Y-65608951D01*
X40214973Y-65608955D01*
X40194501Y-65751347D01*
X40194500Y-65751365D01*
X40194500Y-68148643D01*
X40197394Y-68202649D01*
X40197396Y-68202678D01*
X40200228Y-68229020D01*
X40200235Y-68229066D01*
X40208883Y-68282440D01*
X40259166Y-68417252D01*
X40259167Y-68417255D01*
X40292650Y-68478575D01*
X40292655Y-68478583D01*
X40378874Y-68593758D01*
X40378877Y-68593761D01*
X41005986Y-69220870D01*
X41047204Y-69257804D01*
X41047218Y-69257815D01*
X41047220Y-69257817D01*
X41047238Y-69257833D01*
X41068337Y-69274751D01*
X41068360Y-69274768D01*
X41088297Y-69289033D01*
X41113374Y-69306977D01*
X41244543Y-69366105D01*
X41310313Y-69385067D01*
X41311584Y-69385448D01*
X41311678Y-69385461D01*
X41311680Y-69385462D01*
X41454195Y-69405240D01*
X45449199Y-69385656D01*
X45523794Y-69405253D01*
X45555026Y-69429036D01*
X45950601Y-69822675D01*
X45989328Y-69889374D01*
X45994500Y-69928291D01*
X45994500Y-71948643D01*
X45997394Y-72002649D01*
X45997396Y-72002678D01*
X46000228Y-72029020D01*
X46000235Y-72029066D01*
X46008883Y-72082440D01*
X46059166Y-72217252D01*
X46059167Y-72217255D01*
X46092650Y-72278575D01*
X46092655Y-72278583D01*
X46178874Y-72393758D01*
X46178877Y-72393761D01*
X47106239Y-73321123D01*
X47146500Y-73357288D01*
X47146518Y-73357303D01*
X47146521Y-73357305D01*
X47167141Y-73373921D01*
X47167140Y-73373921D01*
X47180596Y-73383624D01*
X47211026Y-73405567D01*
X47341903Y-73465338D01*
X47380019Y-73476530D01*
X47408938Y-73485022D01*
X47408940Y-73485022D01*
X47408942Y-73485023D01*
X47408946Y-73485024D01*
X47408947Y-73485024D01*
X47408951Y-73485025D01*
X47408955Y-73485026D01*
X47551347Y-73505498D01*
X47551351Y-73505498D01*
X47551362Y-73505500D01*
X47551366Y-73505500D01*
X49948643Y-73505500D01*
X50002649Y-73502605D01*
X50002678Y-73502603D01*
X50029020Y-73499771D01*
X50029026Y-73499770D01*
X50029036Y-73499769D01*
X50037856Y-73498339D01*
X50082440Y-73491116D01*
X50082443Y-73491114D01*
X50082448Y-73491114D01*
X50217257Y-73440832D01*
X50278580Y-73407347D01*
X50393761Y-73321123D01*
X50490141Y-73224743D01*
X50556936Y-73186179D01*
X50634064Y-73186179D01*
X50700859Y-73224743D01*
X50739423Y-73291538D01*
X50744500Y-73330102D01*
X50744500Y-73728898D01*
X50724538Y-73803398D01*
X50700859Y-73834257D01*
X49834257Y-74700859D01*
X49767462Y-74739423D01*
X49728898Y-74744500D01*
X41801357Y-74744500D01*
X41747350Y-74747394D01*
X41747321Y-74747396D01*
X41720979Y-74750228D01*
X41720933Y-74750235D01*
X41667559Y-74758883D01*
X41532747Y-74809166D01*
X41532744Y-74809167D01*
X41471424Y-74842650D01*
X41471416Y-74842655D01*
X41356241Y-74928874D01*
X40428876Y-75856239D01*
X40392721Y-75896489D01*
X40392694Y-75896521D01*
X40376078Y-75917140D01*
X40344433Y-75961026D01*
X40284661Y-76091905D01*
X40284658Y-76091914D01*
X40264977Y-76158938D01*
X40264974Y-76158951D01*
X40264973Y-76158955D01*
X40244501Y-76301347D01*
X40244500Y-76301365D01*
X40244500Y-79198643D01*
X40247394Y-79252649D01*
X40247396Y-79252678D01*
X40250228Y-79279020D01*
X40250235Y-79279066D01*
X40258883Y-79332440D01*
X40309166Y-79467252D01*
X40309167Y-79467255D01*
X40342650Y-79528575D01*
X40342655Y-79528583D01*
X40428874Y-79643758D01*
X40428877Y-79643761D01*
X40856239Y-80071123D01*
X40896500Y-80107288D01*
X40896518Y-80107303D01*
X40896521Y-80107305D01*
X40917141Y-80123921D01*
X40917140Y-80123921D01*
X40930596Y-80133624D01*
X40961026Y-80155567D01*
X41091903Y-80215338D01*
X41130019Y-80226530D01*
X41158938Y-80235022D01*
X41158940Y-80235022D01*
X41158942Y-80235023D01*
X41158946Y-80235024D01*
X41158947Y-80235024D01*
X41158951Y-80235025D01*
X41158955Y-80235026D01*
X41301347Y-80255498D01*
X41301351Y-80255498D01*
X41301362Y-80255500D01*
X41301366Y-80255500D01*
X52261143Y-80255500D01*
X52315149Y-80252605D01*
X52315178Y-80252603D01*
X52341520Y-80249771D01*
X52341526Y-80249770D01*
X52341536Y-80249769D01*
X52350356Y-80248339D01*
X52394940Y-80241116D01*
X52394943Y-80241114D01*
X52394948Y-80241114D01*
X52529757Y-80190832D01*
X52591080Y-80157347D01*
X52706261Y-80071123D01*
X55071123Y-77706261D01*
X55107288Y-77666000D01*
X55123922Y-77645358D01*
X55155567Y-77601474D01*
X55215338Y-77470597D01*
X55235023Y-77403558D01*
X55235024Y-77403554D01*
X55235025Y-77403548D01*
X55235026Y-77403544D01*
X55255498Y-77261152D01*
X55255500Y-77261134D01*
X55255500Y-72298852D01*
X55275462Y-72224352D01*
X55330000Y-72169814D01*
X55404500Y-72149852D01*
X55479000Y-72169814D01*
X55509859Y-72193493D01*
X56637489Y-73321123D01*
X56677750Y-73357288D01*
X56677768Y-73357303D01*
X56677771Y-73357305D01*
X56698391Y-73373921D01*
X56698390Y-73373921D01*
X56711846Y-73383624D01*
X56742276Y-73405567D01*
X56873153Y-73465338D01*
X56911269Y-73476530D01*
X56940188Y-73485022D01*
X56940190Y-73485022D01*
X56940192Y-73485023D01*
X56940196Y-73485024D01*
X56940197Y-73485024D01*
X56940201Y-73485025D01*
X56940205Y-73485026D01*
X57082597Y-73505498D01*
X57082601Y-73505498D01*
X57082612Y-73505500D01*
X62669898Y-73505500D01*
X62744398Y-73525462D01*
X62798936Y-73580000D01*
X62818898Y-73654500D01*
X62798936Y-73729000D01*
X62775257Y-73759859D01*
X62678876Y-73856239D01*
X62642721Y-73896489D01*
X62642694Y-73896521D01*
X62626078Y-73917140D01*
X62594433Y-73961026D01*
X62534661Y-74091905D01*
X62534658Y-74091914D01*
X62514977Y-74158938D01*
X62514974Y-74158951D01*
X62514973Y-74158955D01*
X62494501Y-74301347D01*
X62494500Y-74301365D01*
X62494500Y-93698643D01*
X62497394Y-93752649D01*
X62497396Y-93752678D01*
X62500228Y-93779020D01*
X62500235Y-93779066D01*
X62508883Y-93832440D01*
X62559166Y-93967252D01*
X62559167Y-93967255D01*
X62592650Y-94028575D01*
X62592655Y-94028583D01*
X62678874Y-94143758D01*
X62678876Y-94143760D01*
X62678877Y-94143761D01*
X63106239Y-94571123D01*
X63146500Y-94607288D01*
X63146518Y-94607303D01*
X63146521Y-94607305D01*
X63167141Y-94623921D01*
X63167140Y-94623921D01*
X63180596Y-94633624D01*
X63211026Y-94655567D01*
X63341903Y-94715338D01*
X63380019Y-94726530D01*
X63408938Y-94735022D01*
X63408940Y-94735022D01*
X63408942Y-94735023D01*
X63408946Y-94735024D01*
X63408947Y-94735024D01*
X63408951Y-94735025D01*
X63408955Y-94735026D01*
X63551347Y-94755498D01*
X63551351Y-94755498D01*
X63551362Y-94755500D01*
X63551366Y-94755500D01*
X67948643Y-94755500D01*
X68002649Y-94752605D01*
X68002678Y-94752603D01*
X68029020Y-94749771D01*
X68029026Y-94749770D01*
X68029036Y-94749769D01*
X68037856Y-94748339D01*
X68082440Y-94741116D01*
X68082443Y-94741114D01*
X68082448Y-94741114D01*
X68217257Y-94690832D01*
X68278580Y-94657347D01*
X68393761Y-94571123D01*
X68821123Y-94143761D01*
X68838839Y-94124038D01*
X80149500Y-94124038D01*
X80149500Y-94375962D01*
X80188910Y-94624785D01*
X80266759Y-94864379D01*
X80381130Y-95088845D01*
X80529207Y-95292656D01*
X80707344Y-95470793D01*
X80911155Y-95618870D01*
X81135621Y-95733241D01*
X81375215Y-95811090D01*
X81624038Y-95850500D01*
X81624043Y-95850500D01*
X81875957Y-95850500D01*
X81875962Y-95850500D01*
X82124785Y-95811090D01*
X82364379Y-95733241D01*
X82588845Y-95618870D01*
X82792656Y-95470793D01*
X82970793Y-95292656D01*
X83118870Y-95088845D01*
X83233241Y-94864379D01*
X83311090Y-94624785D01*
X83350500Y-94375962D01*
X83350500Y-94124038D01*
X83311090Y-93875215D01*
X83233241Y-93635621D01*
X83118870Y-93411155D01*
X82970793Y-93207344D01*
X82792656Y-93029207D01*
X82588845Y-92881130D01*
X82364379Y-92766759D01*
X82124785Y-92688910D01*
X81875962Y-92649500D01*
X81624038Y-92649500D01*
X81416685Y-92682341D01*
X81375214Y-92688910D01*
X81135627Y-92766757D01*
X81135621Y-92766759D01*
X81135615Y-92766761D01*
X81135615Y-92766762D01*
X80911153Y-92881131D01*
X80911152Y-92881131D01*
X80707345Y-93029206D01*
X80707342Y-93029208D01*
X80529208Y-93207342D01*
X80529206Y-93207345D01*
X80381131Y-93411152D01*
X80381131Y-93411153D01*
X80266762Y-93635615D01*
X80266757Y-93635627D01*
X80199619Y-93842257D01*
X80188910Y-93875215D01*
X80149500Y-94124038D01*
X68838839Y-94124038D01*
X68857288Y-94103500D01*
X68873922Y-94082858D01*
X68905567Y-94038974D01*
X68965338Y-93908097D01*
X68985023Y-93841058D01*
X68985024Y-93841054D01*
X68985025Y-93841048D01*
X68985026Y-93841044D01*
X69005498Y-93698652D01*
X69005500Y-93698634D01*
X69005500Y-90191742D01*
X77410491Y-90191742D01*
X83251366Y-90191742D01*
X83251366Y-81337358D01*
X77410491Y-81337358D01*
X77410491Y-90191742D01*
X69005500Y-90191742D01*
X69005500Y-85396101D01*
X69025462Y-85321601D01*
X69049141Y-85290742D01*
X70040742Y-84299141D01*
X70107537Y-84260577D01*
X70146101Y-84255500D01*
X72917393Y-84255500D01*
X72971399Y-84252605D01*
X72971428Y-84252603D01*
X72997770Y-84249771D01*
X72997776Y-84249770D01*
X72997786Y-84249769D01*
X73006606Y-84248339D01*
X73051190Y-84241116D01*
X73051193Y-84241114D01*
X73051198Y-84241114D01*
X73186007Y-84190832D01*
X73247330Y-84157347D01*
X73362511Y-84071123D01*
X74321123Y-83112511D01*
X74357288Y-83072250D01*
X74373922Y-83051608D01*
X74405567Y-83007724D01*
X74465338Y-82876847D01*
X74485023Y-82809808D01*
X74485024Y-82809804D01*
X74485025Y-82809798D01*
X74485026Y-82809794D01*
X74505498Y-82667402D01*
X74505500Y-82667384D01*
X74505500Y-63801356D01*
X74502605Y-63747350D01*
X74502603Y-63747321D01*
X74499771Y-63720979D01*
X74499764Y-63720933D01*
X74491116Y-63667559D01*
X74491114Y-63667554D01*
X74491114Y-63667552D01*
X74440832Y-63532743D01*
X74407347Y-63471420D01*
X74360583Y-63408951D01*
X74321125Y-63356241D01*
X73643760Y-62678876D01*
X73603510Y-62642721D01*
X73603500Y-62642712D01*
X73582858Y-62626078D01*
X73582859Y-62626078D01*
X73560916Y-62610255D01*
X73538974Y-62594433D01*
X73408097Y-62534662D01*
X73408094Y-62534661D01*
X73408085Y-62534658D01*
X73341061Y-62514977D01*
X73341048Y-62514974D01*
X73341044Y-62514973D01*
X73198652Y-62494501D01*
X73198640Y-62494500D01*
X73198638Y-62494500D01*
X71301362Y-62494500D01*
X71301357Y-62494500D01*
X71247350Y-62497394D01*
X71247321Y-62497396D01*
X71220979Y-62500228D01*
X71220933Y-62500235D01*
X71167559Y-62508883D01*
X71032747Y-62559166D01*
X71032744Y-62559167D01*
X70971424Y-62592650D01*
X70971416Y-62592655D01*
X70856241Y-62678874D01*
X70178876Y-63356239D01*
X70142721Y-63396489D01*
X70142694Y-63396521D01*
X70126078Y-63417140D01*
X70094433Y-63461026D01*
X70034661Y-63591905D01*
X70034658Y-63591914D01*
X70014977Y-63658938D01*
X70014974Y-63658951D01*
X70014973Y-63658955D01*
X69994501Y-63801347D01*
X69994500Y-63801365D01*
X69994500Y-64228898D01*
X69974538Y-64303398D01*
X69950859Y-64334257D01*
X69584257Y-64700859D01*
X69517462Y-64739423D01*
X69478898Y-64744500D01*
X60954500Y-64744500D01*
X60880000Y-64724538D01*
X60825462Y-64670000D01*
X60805500Y-64595500D01*
X60805500Y-60424327D01*
X60825462Y-60349827D01*
X60880000Y-60295289D01*
X60954500Y-60275327D01*
X60996483Y-60281364D01*
X61008942Y-60285023D01*
X61008946Y-60285024D01*
X61008948Y-60285024D01*
X61008955Y-60285026D01*
X61151347Y-60305498D01*
X61151351Y-60305498D01*
X61151362Y-60305500D01*
X61151366Y-60305500D01*
X81686143Y-60305500D01*
X81740149Y-60302605D01*
X81740178Y-60302603D01*
X81766520Y-60299771D01*
X81766526Y-60299770D01*
X81766536Y-60299769D01*
X81775356Y-60298339D01*
X81819940Y-60291116D01*
X81819943Y-60291114D01*
X81819948Y-60291114D01*
X81954757Y-60240832D01*
X82016080Y-60207347D01*
X82131261Y-60121123D01*
X82321123Y-59931261D01*
X82357288Y-59891000D01*
X82373922Y-59870358D01*
X82405567Y-59826474D01*
X82465338Y-59695597D01*
X82485023Y-59628558D01*
X82485024Y-59628554D01*
X82485025Y-59628548D01*
X82485026Y-59628544D01*
X82505498Y-59486152D01*
X82505500Y-59486134D01*
X82505500Y-57651129D01*
X82505498Y-57651113D01*
X82489799Y-57526121D01*
X82489798Y-57526120D01*
X82489798Y-57526114D01*
X82474630Y-57466686D01*
X82428496Y-57349434D01*
X82428494Y-57349431D01*
X82342276Y-57234258D01*
X82342272Y-57234254D01*
X82305650Y-57197633D01*
X82292865Y-57184848D01*
X82292864Y-57184847D01*
X82177681Y-57098624D01*
X82084349Y-57063814D01*
X82072400Y-57056589D01*
X82055030Y-57038501D01*
X82034603Y-57023955D01*
X82028744Y-57011127D01*
X82018978Y-57000957D01*
X82012980Y-56976608D01*
X82002562Y-56953797D01*
X82000499Y-56929087D01*
X82000499Y-55284718D01*
X82020461Y-55210218D01*
X82044140Y-55179359D01*
X82074250Y-55149249D01*
X82499464Y-54724035D01*
X82592962Y-54584106D01*
X82598013Y-54576547D01*
X82624974Y-54511457D01*
X82665895Y-54412666D01*
X82700500Y-54238691D01*
X82700500Y-54061308D01*
X82700500Y-47091309D01*
X82696948Y-47073453D01*
X82665895Y-46917334D01*
X82631953Y-46835393D01*
X82598013Y-46753453D01*
X82522585Y-46640568D01*
X82499464Y-46605964D01*
X81409291Y-45515791D01*
X81370727Y-45448996D01*
X81367485Y-45387125D01*
X81370500Y-45368092D01*
X81370500Y-45131908D01*
X81339400Y-44935549D01*
X81347463Y-44858845D01*
X81392798Y-44796447D01*
X81438505Y-44771206D01*
X81453792Y-44765997D01*
X81565020Y-44709323D01*
X81577786Y-44702587D01*
X81692968Y-44616362D01*
X81781240Y-44528090D01*
X81791301Y-44517739D01*
X81802254Y-44502201D01*
X81874194Y-44400153D01*
X81874202Y-44400140D01*
X81930875Y-44288914D01*
X81937246Y-44275955D01*
X81979749Y-44138496D01*
X81999277Y-44015198D01*
X82005500Y-43936122D01*
X82005500Y-43477772D01*
X82003942Y-43438114D01*
X81999030Y-43375697D01*
X81982366Y-43291921D01*
X81979750Y-43275403D01*
X81977285Y-43261165D01*
X81959253Y-43208254D01*
X81958978Y-43207232D01*
X81937258Y-43140383D01*
X81932614Y-43126755D01*
X81932612Y-43126751D01*
X81887903Y-43042021D01*
X81888460Y-43041738D01*
X81874205Y-43013760D01*
X81867465Y-43000986D01*
X81832263Y-42953962D01*
X81831722Y-42953057D01*
X81810554Y-42923920D01*
X81810555Y-42923920D01*
X81792096Y-42898513D01*
X81740578Y-42838194D01*
X81661806Y-42759422D01*
X81661799Y-42759415D01*
X81632660Y-42732480D01*
X81632656Y-42732476D01*
X81585046Y-42691814D01*
X81582440Y-42690073D01*
X81486250Y-42625800D01*
X81374989Y-42569109D01*
X81362068Y-42562757D01*
X81362057Y-42562752D01*
X81224605Y-42520252D01*
X81224602Y-42520251D01*
X81129886Y-42505249D01*
X81101305Y-42500723D01*
X81101293Y-42500722D01*
X81081168Y-42499138D01*
X81022228Y-42494500D01*
X77729501Y-42494500D01*
X77682348Y-42498210D01*
X77650435Y-42500722D01*
X77650429Y-42500722D01*
X77650425Y-42500723D01*
X77650419Y-42500723D01*
X77650410Y-42500725D01*
X77602806Y-42508264D01*
X77526101Y-42500200D01*
X77463704Y-42454864D01*
X77432335Y-42384403D01*
X77430501Y-42361098D01*
X77430501Y-41727717D01*
X77450463Y-41653217D01*
X77474142Y-41622358D01*
X78538167Y-40558332D01*
X78604960Y-40519770D01*
X78666831Y-40516528D01*
X78691908Y-40520500D01*
X78691910Y-40520500D01*
X78928087Y-40520500D01*
X78928092Y-40520500D01*
X79161368Y-40483553D01*
X79385992Y-40410568D01*
X79596433Y-40303343D01*
X79787510Y-40164517D01*
X79954517Y-39997510D01*
X80093343Y-39806433D01*
X80200568Y-39595992D01*
X80273553Y-39371368D01*
X80310500Y-39138092D01*
X80310500Y-38901908D01*
X80273553Y-38668632D01*
X80200568Y-38444008D01*
X80093343Y-38233567D01*
X79954517Y-38042490D01*
X79787510Y-37875483D01*
X79787506Y-37875480D01*
X79787501Y-37875476D01*
X79780714Y-37870545D01*
X79732174Y-37810607D01*
X79720107Y-37734429D01*
X79747746Y-37662423D01*
X79780716Y-37629453D01*
X79785361Y-37626078D01*
X79787510Y-37624517D01*
X79954517Y-37457510D01*
X80093343Y-37266433D01*
X80200568Y-37055992D01*
X80273553Y-36831368D01*
X80310500Y-36598092D01*
X80310500Y-36361908D01*
X80273553Y-36128632D01*
X80200568Y-35904008D01*
X80093343Y-35693567D01*
X80007997Y-35576099D01*
X79980358Y-35504097D01*
X79992423Y-35427919D01*
X80031774Y-35375222D01*
X80052488Y-35357530D01*
X80085827Y-35329056D01*
X80490577Y-34924307D01*
X80517519Y-34895161D01*
X80558182Y-34847551D01*
X80605633Y-34776533D01*
X80615459Y-34763011D01*
X80623788Y-34751196D01*
X80648421Y-34701092D01*
X80648944Y-34700184D01*
X80666614Y-34665505D01*
X80666615Y-34665506D01*
X80680873Y-34637524D01*
X80687249Y-34624556D01*
X80715546Y-34533034D01*
X80716140Y-34533227D01*
X80725844Y-34503363D01*
X80730112Y-34489562D01*
X80738477Y-34431377D01*
X80738735Y-34430353D01*
X80744362Y-34394818D01*
X80744364Y-34394819D01*
X80749276Y-34363806D01*
X80750586Y-34347157D01*
X80750588Y-34347146D01*
X80750588Y-34347136D01*
X80755500Y-34284728D01*
X80755500Y-33365272D01*
X80753942Y-33325614D01*
X80749030Y-33263197D01*
X80736559Y-33200499D01*
X80725848Y-33146648D01*
X80706912Y-33088372D01*
X80687271Y-33027922D01*
X80683987Y-33018284D01*
X80682616Y-33014260D01*
X80682612Y-33014252D01*
X80615468Y-32887000D01*
X80542107Y-32786028D01*
X80542104Y-32786025D01*
X80542095Y-32786012D01*
X80490578Y-32725694D01*
X79924306Y-32159422D01*
X79924299Y-32159415D01*
X79895160Y-32132480D01*
X79895156Y-32132476D01*
X79855045Y-32098219D01*
X79847552Y-32091819D01*
X79847550Y-32091818D01*
X79847546Y-32091814D01*
X79843267Y-32088955D01*
X79748750Y-32025800D01*
X79637489Y-31969109D01*
X79624568Y-31962757D01*
X79624557Y-31962752D01*
X79487105Y-31920252D01*
X79487102Y-31920251D01*
X79386124Y-31904258D01*
X79363805Y-31900723D01*
X79363793Y-31900722D01*
X79343668Y-31899138D01*
X79284728Y-31894500D01*
X79284723Y-31894500D01*
X75721102Y-31894500D01*
X75646602Y-31874538D01*
X75615743Y-31850859D01*
X75149141Y-31384257D01*
X75110577Y-31317462D01*
X75105500Y-31278898D01*
X75105500Y-29965269D01*
X75103942Y-29925624D01*
X75103942Y-29925614D01*
X75099030Y-29863197D01*
X75075847Y-29746647D01*
X75072057Y-29734984D01*
X75049071Y-29664238D01*
X75049068Y-29664230D01*
X75037271Y-29627922D01*
X75035948Y-29624038D01*
X80149500Y-29624038D01*
X80149500Y-29875962D01*
X80188910Y-30124785D01*
X80266759Y-30364379D01*
X80381130Y-30588845D01*
X80529207Y-30792656D01*
X80707344Y-30970793D01*
X80911155Y-31118870D01*
X81135621Y-31233241D01*
X81375215Y-31311090D01*
X81624038Y-31350500D01*
X81624043Y-31350500D01*
X81875957Y-31350500D01*
X81875962Y-31350500D01*
X82124785Y-31311090D01*
X82364379Y-31233241D01*
X82588845Y-31118870D01*
X82792656Y-30970793D01*
X82970793Y-30792656D01*
X83118870Y-30588845D01*
X83233241Y-30364379D01*
X83311090Y-30124785D01*
X83350500Y-29875962D01*
X83350500Y-29624038D01*
X83311090Y-29375215D01*
X83233241Y-29135621D01*
X83118870Y-28911155D01*
X82970793Y-28707344D01*
X82792656Y-28529207D01*
X82588845Y-28381130D01*
X82364379Y-28266759D01*
X82124785Y-28188910D01*
X81875962Y-28149500D01*
X81624038Y-28149500D01*
X81416685Y-28182341D01*
X81375214Y-28188910D01*
X81135627Y-28266757D01*
X81135621Y-28266759D01*
X81135615Y-28266761D01*
X81135615Y-28266762D01*
X80911153Y-28381131D01*
X80911152Y-28381131D01*
X80707345Y-28529206D01*
X80707342Y-28529208D01*
X80529208Y-28707342D01*
X80529206Y-28707345D01*
X80381131Y-28911152D01*
X80381131Y-28911153D01*
X80266762Y-29135615D01*
X80266757Y-29135627D01*
X80188910Y-29375214D01*
X80182406Y-29416277D01*
X80149500Y-29624038D01*
X75035948Y-29624038D01*
X75032615Y-29614258D01*
X75030142Y-29609570D01*
X74965468Y-29487000D01*
X74892107Y-29386028D01*
X74892104Y-29386025D01*
X74892095Y-29386012D01*
X74840578Y-29325694D01*
X74274306Y-28759422D01*
X74274299Y-28759415D01*
X74245160Y-28732480D01*
X74245156Y-28732476D01*
X74197546Y-28691814D01*
X74194940Y-28690073D01*
X74098750Y-28625800D01*
X73987489Y-28569109D01*
X73974568Y-28562757D01*
X73974557Y-28562752D01*
X73837105Y-28520252D01*
X73837102Y-28520251D01*
X73742386Y-28505249D01*
X73713805Y-28500723D01*
X73713793Y-28500722D01*
X73693668Y-28499138D01*
X73634728Y-28494500D01*
X68765272Y-28494500D01*
X68765269Y-28494500D01*
X68725624Y-28496057D01*
X68680037Y-28499644D01*
X68663197Y-28500970D01*
X68663191Y-28500971D01*
X68663186Y-28500972D01*
X68546648Y-28524151D01*
X68427918Y-28562730D01*
X68414260Y-28567383D01*
X68414252Y-28567387D01*
X68287000Y-28634531D01*
X68186028Y-28707892D01*
X68186017Y-28707901D01*
X68186012Y-28707905D01*
X68157239Y-28732480D01*
X68125689Y-28759426D01*
X67559415Y-29325700D01*
X67532480Y-29354839D01*
X67491819Y-29402447D01*
X67491810Y-29402459D01*
X67425800Y-29501249D01*
X67369109Y-29612510D01*
X67362757Y-29625431D01*
X67362752Y-29625442D01*
X67320252Y-29762893D01*
X67320252Y-29762894D01*
X67320251Y-29762898D01*
X67314098Y-29801748D01*
X67302345Y-29875957D01*
X67300723Y-29886196D01*
X67294501Y-29965269D01*
X67294500Y-29965276D01*
X67294500Y-33528898D01*
X67274538Y-33603398D01*
X67250859Y-33634257D01*
X66034257Y-34850859D01*
X65967462Y-34889423D01*
X65928898Y-34894500D01*
X62165269Y-34894500D01*
X62125624Y-34896057D01*
X62080037Y-34899644D01*
X62063197Y-34900970D01*
X62063191Y-34900971D01*
X62063186Y-34900972D01*
X61946648Y-34924151D01*
X61827918Y-34962730D01*
X61814260Y-34967383D01*
X61814252Y-34967387D01*
X61687000Y-35034531D01*
X61586027Y-35107892D01*
X61586016Y-35107901D01*
X61546266Y-35141851D01*
X61476651Y-35175054D01*
X61399761Y-35169002D01*
X61336198Y-35125315D01*
X61302995Y-35055700D01*
X61300500Y-35028549D01*
X61300500Y-32753808D01*
X61294908Y-32725695D01*
X61265896Y-32579838D01*
X61265895Y-32579837D01*
X61265895Y-32579834D01*
X61198013Y-32415954D01*
X61198013Y-32415953D01*
X61099464Y-32268465D01*
X61071565Y-32240566D01*
X61063822Y-32229308D01*
X61055346Y-32205400D01*
X61042664Y-32183434D01*
X61042664Y-32169627D01*
X61038050Y-32156613D01*
X61042664Y-32131669D01*
X61042664Y-32106306D01*
X61048926Y-32087858D01*
X61093606Y-31979993D01*
X61154693Y-31752014D01*
X61185500Y-31518011D01*
X61185500Y-31281989D01*
X61157940Y-31072651D01*
X61154694Y-31047993D01*
X61154693Y-31047992D01*
X61154693Y-31047986D01*
X61093606Y-30820007D01*
X61003284Y-30601951D01*
X61003281Y-30601946D01*
X61003280Y-30601943D01*
X60909687Y-30439837D01*
X60885273Y-30397550D01*
X60741592Y-30210301D01*
X60574699Y-30043408D01*
X60387450Y-29899727D01*
X60324180Y-29863198D01*
X60183056Y-29781719D01*
X59964996Y-29691395D01*
X59964994Y-29691394D01*
X59964993Y-29691394D01*
X59737014Y-29630307D01*
X59737012Y-29630306D01*
X59737006Y-29630305D01*
X59503016Y-29599500D01*
X59503011Y-29599500D01*
X59266989Y-29599500D01*
X59266983Y-29599500D01*
X59032993Y-29630305D01*
X58805003Y-29691395D01*
X58586943Y-29781719D01*
X58382551Y-29899726D01*
X58340543Y-29931960D01*
X58195301Y-30043408D01*
X58195299Y-30043409D01*
X58195295Y-30043413D01*
X58028413Y-30210295D01*
X58028409Y-30210299D01*
X58028408Y-30210301D01*
X57974652Y-30280357D01*
X57884726Y-30397551D01*
X57766719Y-30601943D01*
X57676395Y-30820003D01*
X57615305Y-31047993D01*
X57584500Y-31281983D01*
X57584500Y-31518016D01*
X57615305Y-31752006D01*
X57615306Y-31752012D01*
X57615307Y-31752014D01*
X57674615Y-31973355D01*
X57676395Y-31979996D01*
X57766719Y-32198056D01*
X57869463Y-32376013D01*
X57884727Y-32402450D01*
X58028408Y-32589699D01*
X58195301Y-32756592D01*
X58382550Y-32900273D01*
X58481205Y-32957231D01*
X58586943Y-33018280D01*
X58586946Y-33018281D01*
X58586951Y-33018284D01*
X58805007Y-33108606D01*
X59032986Y-33169693D01*
X59032992Y-33169693D01*
X59032993Y-33169694D01*
X59096603Y-33178068D01*
X59266989Y-33200500D01*
X59350500Y-33200500D01*
X59425000Y-33220462D01*
X59479538Y-33275000D01*
X59499500Y-33349500D01*
X59499500Y-38545500D01*
X59479538Y-38620000D01*
X59425000Y-38674538D01*
X59350500Y-38694500D01*
X58050985Y-38694500D01*
X57976485Y-38674538D01*
X57921947Y-38620000D01*
X57901985Y-38545500D01*
X57901985Y-38276356D01*
X57899090Y-38222350D01*
X57899088Y-38222321D01*
X57896256Y-38195979D01*
X57896249Y-38195933D01*
X57887601Y-38142559D01*
X57887599Y-38142554D01*
X57887599Y-38142552D01*
X57837317Y-38007743D01*
X57803832Y-37946420D01*
X57802876Y-37945143D01*
X57717610Y-37831241D01*
X57565245Y-37678876D01*
X57524995Y-37642721D01*
X57524985Y-37642712D01*
X57504343Y-37626078D01*
X57504344Y-37626078D01*
X57482401Y-37610255D01*
X57460459Y-37594433D01*
X57329582Y-37534662D01*
X57329579Y-37534661D01*
X57329570Y-37534658D01*
X57262546Y-37514977D01*
X57262533Y-37514974D01*
X57262529Y-37514973D01*
X57120137Y-37494501D01*
X57120125Y-37494500D01*
X57120123Y-37494500D01*
X48199500Y-37494500D01*
X48125000Y-37474538D01*
X48070462Y-37420000D01*
X48050500Y-37345500D01*
X48050500Y-36281373D01*
X48047705Y-36228760D01*
X48003245Y-35998875D01*
X47920575Y-35779813D01*
X47920569Y-35779800D01*
X47802075Y-35577875D01*
X47802071Y-35577870D01*
X47802070Y-35577868D01*
X47651142Y-35398858D01*
X47472132Y-35247930D01*
X47472129Y-35247928D01*
X47472124Y-35247924D01*
X47270199Y-35129430D01*
X47270186Y-35129424D01*
X47051124Y-35046754D01*
X46821239Y-35002294D01*
X46768626Y-34999500D01*
X46768622Y-34999500D01*
X44831378Y-34999500D01*
X44831374Y-34999500D01*
X44778760Y-35002294D01*
X44548875Y-35046754D01*
X44329813Y-35129424D01*
X44329800Y-35129430D01*
X44127875Y-35247924D01*
X44127870Y-35247928D01*
X43948858Y-35398858D01*
X43797928Y-35577870D01*
X43797924Y-35577875D01*
X43679430Y-35779800D01*
X43679424Y-35779813D01*
X43596754Y-35998875D01*
X43552294Y-36228760D01*
X43549500Y-36281373D01*
X43549500Y-38218626D01*
X43552294Y-38271239D01*
X43596754Y-38501124D01*
X43679424Y-38720186D01*
X43679430Y-38720199D01*
X43797924Y-38922124D01*
X43797928Y-38922129D01*
X43797930Y-38922132D01*
X43948858Y-39101142D01*
X44127868Y-39252070D01*
X44127870Y-39252071D01*
X44127875Y-39252075D01*
X44329800Y-39370569D01*
X44329806Y-39370572D01*
X44329810Y-39370574D01*
X44548874Y-39453245D01*
X44778759Y-39497705D01*
X44789282Y-39498264D01*
X44831374Y-39500500D01*
X44831378Y-39500500D01*
X45887068Y-39500500D01*
X45961568Y-39520462D01*
X46016106Y-39575000D01*
X46036067Y-39649499D01*
X46024964Y-43375694D01*
X46004175Y-50351792D01*
X45983991Y-50426232D01*
X45960378Y-50456864D01*
X44963246Y-51451027D01*
X44896393Y-51489491D01*
X44858044Y-51494511D01*
X41051417Y-51494503D01*
X41051361Y-51494503D01*
X41051360Y-51494503D01*
X41051355Y-51494503D01*
X40997336Y-51497398D01*
X40997327Y-51497398D01*
X40970988Y-51500230D01*
X40970953Y-51500235D01*
X40917554Y-51508888D01*
X40917545Y-51508890D01*
X40782759Y-51559163D01*
X40782744Y-51559170D01*
X40721420Y-51592655D01*
X40606239Y-51678878D01*
X40606237Y-51678880D01*
X40178866Y-52106250D01*
X40142716Y-52146494D01*
X40126078Y-52167141D01*
X40094433Y-52211027D01*
X40034661Y-52341906D01*
X40034658Y-52341915D01*
X40014977Y-52408939D01*
X40014974Y-52408952D01*
X40014973Y-52408956D01*
X39994501Y-52551348D01*
X39994500Y-52551366D01*
X37250500Y-52551366D01*
X37250500Y-29624038D01*
X38149500Y-29624038D01*
X38149500Y-29875962D01*
X38188910Y-30124785D01*
X38266759Y-30364379D01*
X38381130Y-30588845D01*
X38529207Y-30792656D01*
X38707344Y-30970793D01*
X38911155Y-31118870D01*
X39135621Y-31233241D01*
X39375215Y-31311090D01*
X39624038Y-31350500D01*
X39624043Y-31350500D01*
X39875957Y-31350500D01*
X39875962Y-31350500D01*
X40124785Y-31311090D01*
X40364379Y-31233241D01*
X40588845Y-31118870D01*
X40792656Y-30970793D01*
X40970793Y-30792656D01*
X41039636Y-30697902D01*
X46364644Y-30697902D01*
X46364644Y-30722097D01*
X46365776Y-30769493D01*
X46366944Y-30793836D01*
X46370316Y-30840553D01*
X46372667Y-30864898D01*
X46372669Y-30864912D01*
X46378221Y-30910772D01*
X46378226Y-30910809D01*
X46381775Y-30935149D01*
X46389469Y-30980199D01*
X46394224Y-31004453D01*
X46403995Y-31048559D01*
X46409959Y-31072666D01*
X46421764Y-31115808D01*
X46421775Y-31115847D01*
X46422683Y-31118870D01*
X46428927Y-31139671D01*
X46442726Y-31181844D01*
X46451039Y-31205281D01*
X46466794Y-31246448D01*
X46476287Y-31269532D01*
X46493905Y-31309538D01*
X46504523Y-31332124D01*
X46511384Y-31345827D01*
X46524006Y-31371037D01*
X46535734Y-31393085D01*
X46535746Y-31393106D01*
X46535748Y-31393110D01*
X46556997Y-31430781D01*
X46569792Y-31452209D01*
X46592821Y-31488698D01*
X46606655Y-31509462D01*
X46631370Y-31544642D01*
X46646219Y-31564707D01*
X46655753Y-31576945D01*
X46672563Y-31598522D01*
X46688403Y-31617848D01*
X46716339Y-31650266D01*
X46716354Y-31650282D01*
X46716363Y-31650293D01*
X46733103Y-31668776D01*
X46762572Y-31699738D01*
X46780261Y-31717427D01*
X46811223Y-31746896D01*
X46829706Y-31763636D01*
X46829734Y-31763661D01*
X46862152Y-31791597D01*
X46881478Y-31807437D01*
X46915291Y-31833779D01*
X46935369Y-31848638D01*
X46970528Y-31873338D01*
X46991321Y-31887191D01*
X47027771Y-31910195D01*
X47027790Y-31910207D01*
X47049216Y-31923001D01*
X47086915Y-31944266D01*
X47108963Y-31955994D01*
X47143639Y-31973355D01*
X47147875Y-31975476D01*
X47157483Y-31979993D01*
X47170443Y-31986086D01*
X47170448Y-31986088D01*
X47170461Y-31986094D01*
X47210467Y-32003712D01*
X47210486Y-32003720D01*
X47210491Y-32003722D01*
X47233549Y-32013205D01*
X47266249Y-32025719D01*
X47274718Y-32028960D01*
X47298155Y-32037273D01*
X47340328Y-32051072D01*
X47340346Y-32051077D01*
X47340357Y-32051081D01*
X47364153Y-32058225D01*
X47372289Y-32060451D01*
X47407333Y-32070040D01*
X47407347Y-32070043D01*
X47407349Y-32070044D01*
X47431418Y-32075999D01*
X47431435Y-32076002D01*
X47431440Y-32076004D01*
X47446891Y-32079427D01*
X47475563Y-32085779D01*
X47499806Y-32090532D01*
X47544853Y-32098225D01*
X47569190Y-32101774D01*
X47615088Y-32107331D01*
X47639463Y-32109685D01*
X47686163Y-32113055D01*
X47710470Y-32114222D01*
X47710500Y-32114222D01*
X47710506Y-32114223D01*
X47757902Y-32115356D01*
X47757923Y-32115356D01*
X47782098Y-32115356D01*
X47829493Y-32114223D01*
X47829497Y-32114222D01*
X47829530Y-32114222D01*
X47853837Y-32113055D01*
X47900537Y-32109685D01*
X47924912Y-32107331D01*
X47970810Y-32101774D01*
X47995147Y-32098225D01*
X48040194Y-32090532D01*
X48064437Y-32085779D01*
X48108582Y-32075999D01*
X48132651Y-32070044D01*
X48134362Y-32069576D01*
X48140467Y-32067905D01*
X48175847Y-32058225D01*
X48199643Y-32051081D01*
X48199671Y-32051072D01*
X48241844Y-32037273D01*
X48265281Y-32028960D01*
X48265305Y-32028951D01*
X48306451Y-32013205D01*
X48329509Y-32003722D01*
X48369557Y-31986086D01*
X48392137Y-31975470D01*
X48431037Y-31955994D01*
X48453085Y-31944266D01*
X48490787Y-31922999D01*
X48512223Y-31910199D01*
X48548679Y-31887191D01*
X48569472Y-31873338D01*
X48604631Y-31848638D01*
X48624709Y-31833779D01*
X48658522Y-31807437D01*
X48677848Y-31791597D01*
X48710266Y-31763661D01*
X48723134Y-31752006D01*
X48728776Y-31746896D01*
X48759738Y-31717427D01*
X48759752Y-31717414D01*
X48777414Y-31699752D01*
X48806893Y-31668779D01*
X48823661Y-31650266D01*
X48851597Y-31617848D01*
X48867437Y-31598522D01*
X48893779Y-31564709D01*
X48908638Y-31544631D01*
X48933338Y-31509472D01*
X48947191Y-31488679D01*
X48970199Y-31452223D01*
X48982999Y-31430787D01*
X48999853Y-31400907D01*
X49053841Y-31345827D01*
X49128137Y-31325119D01*
X49202833Y-31344334D01*
X49257915Y-31398323D01*
X49261100Y-31403993D01*
X49324967Y-31523741D01*
X49324969Y-31523743D01*
X49351362Y-31559734D01*
X49355238Y-31564716D01*
X49368982Y-31582383D01*
X49397181Y-31616583D01*
X49413160Y-31635036D01*
X49413168Y-31635045D01*
X49443141Y-31668016D01*
X49443158Y-31668034D01*
X49443160Y-31668036D01*
X49443868Y-31668779D01*
X49459794Y-31685480D01*
X49491552Y-31717237D01*
X49508963Y-31733839D01*
X49541942Y-31763821D01*
X49560419Y-31779821D01*
X49574695Y-31791592D01*
X49594610Y-31808013D01*
X49617266Y-31825638D01*
X49653266Y-31852038D01*
X49653286Y-31852052D01*
X49668691Y-31862913D01*
X49705883Y-31888108D01*
X49705891Y-31888113D01*
X49731323Y-31904257D01*
X49769723Y-31927057D01*
X49788143Y-31937478D01*
X49827143Y-31958478D01*
X49857113Y-31973358D01*
X49885037Y-31986088D01*
X49897915Y-31991959D01*
X49917539Y-32000409D01*
X49958905Y-32017196D01*
X49970788Y-32021811D01*
X49972989Y-32022667D01*
X50002996Y-32033812D01*
X50015001Y-32038272D01*
X50032374Y-32044184D01*
X50041384Y-32047251D01*
X50083984Y-32060451D01*
X50109712Y-32067466D01*
X50117450Y-32069576D01*
X50160627Y-32079770D01*
X50160640Y-32079773D01*
X50181590Y-32084253D01*
X50203490Y-32088453D01*
X50225399Y-32092655D01*
X50236563Y-32094553D01*
X50246275Y-32096206D01*
X50290675Y-32102806D01*
X50317395Y-32106053D01*
X50361795Y-32110253D01*
X50388924Y-32112085D01*
X50433324Y-32113885D01*
X50460630Y-32114254D01*
X50505030Y-32113654D01*
X50525122Y-32112983D01*
X50570122Y-32110583D01*
X50597532Y-32108372D01*
X50597539Y-32108371D01*
X50597542Y-32108371D01*
X50616642Y-32106306D01*
X50641932Y-32103572D01*
X50641941Y-32103570D01*
X50641948Y-32103570D01*
X50669574Y-32099809D01*
X50669578Y-32099808D01*
X50669595Y-32099806D01*
X50713395Y-32092606D01*
X50713397Y-32092605D01*
X50713419Y-32092602D01*
X50724614Y-32090532D01*
X50733144Y-32088955D01*
X50776944Y-32079955D01*
X50804180Y-32073568D01*
X50847380Y-32062168D01*
X50861774Y-32058141D01*
X50904374Y-32045541D01*
X50937008Y-32034668D01*
X50972628Y-32021437D01*
X50979022Y-32019063D01*
X51001283Y-32010188D01*
X51001301Y-32010181D01*
X51042101Y-31992781D01*
X51067155Y-31981279D01*
X51107355Y-31961479D01*
X51128915Y-31950207D01*
X51167915Y-31928607D01*
X51189072Y-31916209D01*
X51226872Y-31892809D01*
X51247470Y-31879354D01*
X51284070Y-31854154D01*
X51300700Y-31842200D01*
X51336700Y-31815200D01*
X51362375Y-31794604D01*
X51395975Y-31765804D01*
X51410709Y-31752667D01*
X51443709Y-31722067D01*
X51464249Y-31701904D01*
X51494849Y-31670104D01*
X51511028Y-31652474D01*
X51540428Y-31618874D01*
X51552740Y-31604254D01*
X51580940Y-31569454D01*
X51601365Y-31542447D01*
X51627165Y-31505847D01*
X51640750Y-31485552D01*
X51664750Y-31447752D01*
X51672657Y-31434877D01*
X51688232Y-31408644D01*
X51743430Y-31354778D01*
X51818168Y-31335726D01*
X51892419Y-31356596D01*
X51946126Y-31411508D01*
X51957009Y-31430801D01*
X51969792Y-31452209D01*
X51992821Y-31488698D01*
X52006660Y-31509470D01*
X52031350Y-31544615D01*
X52046226Y-31564715D01*
X52072577Y-31598539D01*
X52088397Y-31617842D01*
X52103214Y-31635036D01*
X52116333Y-31650260D01*
X52133104Y-31668776D01*
X52133120Y-31668793D01*
X52162571Y-31699737D01*
X52180266Y-31717432D01*
X52211229Y-31746900D01*
X52217609Y-31752679D01*
X52229729Y-31763656D01*
X52262146Y-31791592D01*
X52281484Y-31807441D01*
X52304829Y-31825627D01*
X52315312Y-31833794D01*
X52335349Y-31848624D01*
X52370545Y-31873349D01*
X52391318Y-31887189D01*
X52427745Y-31910179D01*
X52427757Y-31910186D01*
X52427771Y-31910195D01*
X52449213Y-31922999D01*
X52486915Y-31944266D01*
X52508963Y-31955994D01*
X52543639Y-31973355D01*
X52547875Y-31975476D01*
X52570446Y-31986088D01*
X52610491Y-32003722D01*
X52633542Y-32013202D01*
X52639619Y-32015527D01*
X52674700Y-32028952D01*
X52698159Y-32037273D01*
X52722686Y-32045298D01*
X52740338Y-32051075D01*
X52740346Y-32051077D01*
X52740354Y-32051080D01*
X52764153Y-32058225D01*
X52764168Y-32058229D01*
X52764171Y-32058230D01*
X52807352Y-32070045D01*
X52831392Y-32075993D01*
X52831398Y-32075994D01*
X52831421Y-32076000D01*
X52875567Y-32085780D01*
X52899805Y-32090532D01*
X52944851Y-32098225D01*
X52969190Y-32101774D01*
X53015088Y-32107331D01*
X53015105Y-32107333D01*
X53039443Y-32109683D01*
X53039464Y-32109685D01*
X53086165Y-32113055D01*
X53110471Y-32114222D01*
X53110507Y-32114222D01*
X53110510Y-32114223D01*
X53157902Y-32115356D01*
X53157923Y-32115356D01*
X53182098Y-32115356D01*
X53229493Y-32114223D01*
X53229497Y-32114222D01*
X53229530Y-32114222D01*
X53253837Y-32113055D01*
X53300537Y-32109685D01*
X53324912Y-32107331D01*
X53370810Y-32101774D01*
X53395147Y-32098225D01*
X53440194Y-32090532D01*
X53452160Y-32088186D01*
X53464433Y-32085781D01*
X53483820Y-32081485D01*
X53508580Y-32076000D01*
X53532655Y-32070043D01*
X53568034Y-32060362D01*
X53575847Y-32058225D01*
X53578805Y-32057336D01*
X53599643Y-32051081D01*
X53621336Y-32043982D01*
X53641844Y-32037273D01*
X53665281Y-32028960D01*
X53665305Y-32028951D01*
X53706451Y-32013205D01*
X53729509Y-32003722D01*
X53769557Y-31986086D01*
X53792137Y-31975470D01*
X53831037Y-31955994D01*
X53853080Y-31944268D01*
X53890783Y-31923001D01*
X53912230Y-31910195D01*
X53948685Y-31887187D01*
X53969472Y-31873338D01*
X54004631Y-31848638D01*
X54024709Y-31833779D01*
X54058522Y-31807437D01*
X54077848Y-31791597D01*
X54110266Y-31763661D01*
X54123134Y-31752006D01*
X54128776Y-31746896D01*
X54159738Y-31717427D01*
X54159752Y-31717414D01*
X54177414Y-31699752D01*
X54206893Y-31668779D01*
X54223661Y-31650266D01*
X54251597Y-31617848D01*
X54267437Y-31598522D01*
X54293779Y-31564709D01*
X54308638Y-31544631D01*
X54333338Y-31509472D01*
X54347191Y-31488679D01*
X54370199Y-31452223D01*
X54382999Y-31430787D01*
X54404266Y-31393085D01*
X54415994Y-31371037D01*
X54435470Y-31332137D01*
X54446086Y-31309557D01*
X54463722Y-31269509D01*
X54473205Y-31246451D01*
X54488951Y-31205305D01*
X54488960Y-31205281D01*
X54497273Y-31181844D01*
X54511072Y-31139671D01*
X54511073Y-31139665D01*
X54511081Y-31139643D01*
X54518225Y-31115847D01*
X54530044Y-31072651D01*
X54535999Y-31048582D01*
X54545779Y-31004437D01*
X54550530Y-30980205D01*
X54550532Y-30980187D01*
X54550538Y-30980162D01*
X54558218Y-30935194D01*
X54558218Y-30935188D01*
X54558224Y-30935158D01*
X54561777Y-30910799D01*
X54567333Y-30864901D01*
X54569685Y-30840537D01*
X54573055Y-30793837D01*
X54574222Y-30769533D01*
X54575342Y-30722680D01*
X54575341Y-30722668D01*
X54575360Y-30721879D01*
X54575359Y-30721877D01*
X54575362Y-30721792D01*
X54575356Y-30697923D01*
X54575356Y-30697898D01*
X54574223Y-30650506D01*
X54574222Y-30650500D01*
X54574222Y-30650470D01*
X54573055Y-30626163D01*
X54569685Y-30579463D01*
X54567333Y-30555099D01*
X54561777Y-30509201D01*
X54558224Y-30484842D01*
X54558218Y-30484805D01*
X54550538Y-30439837D01*
X54545774Y-30415540D01*
X54536002Y-30371431D01*
X54530040Y-30347333D01*
X54518230Y-30304172D01*
X54518225Y-30304153D01*
X54511081Y-30280357D01*
X54511072Y-30280328D01*
X54497273Y-30238155D01*
X54488960Y-30214718D01*
X54485719Y-30206249D01*
X54473205Y-30173549D01*
X54463722Y-30150491D01*
X54463720Y-30150486D01*
X54463712Y-30150467D01*
X54446094Y-30110461D01*
X54435476Y-30087875D01*
X54433455Y-30083839D01*
X54415994Y-30048963D01*
X54404266Y-30026915D01*
X54382999Y-29989213D01*
X54370199Y-29967777D01*
X54347191Y-29931321D01*
X54343395Y-29925624D01*
X54333344Y-29910537D01*
X54333343Y-29910536D01*
X54333338Y-29910528D01*
X54308638Y-29875369D01*
X54293779Y-29855291D01*
X54293774Y-29855285D01*
X54289012Y-29849172D01*
X54267437Y-29821478D01*
X54251597Y-29802152D01*
X54223661Y-29769734D01*
X54222205Y-29768126D01*
X54206896Y-29751223D01*
X54177427Y-29720261D01*
X54159738Y-29702572D01*
X54128776Y-29673103D01*
X54110293Y-29656363D01*
X54110282Y-29656354D01*
X54110266Y-29656339D01*
X54077848Y-29628403D01*
X54077261Y-29627922D01*
X54060592Y-29614260D01*
X54058522Y-29612563D01*
X54031303Y-29591358D01*
X54024707Y-29586219D01*
X54004642Y-29571370D01*
X53995533Y-29564971D01*
X53969472Y-29546662D01*
X53969471Y-29546661D01*
X53969462Y-29546655D01*
X53948710Y-29532829D01*
X53948680Y-29532810D01*
X53912230Y-29509805D01*
X53897901Y-29501249D01*
X53890787Y-29497001D01*
X53853073Y-29475728D01*
X53831053Y-29464014D01*
X53792124Y-29444523D01*
X53769538Y-29433905D01*
X53729532Y-29416287D01*
X53711292Y-29408786D01*
X53706451Y-29406795D01*
X53695121Y-29402459D01*
X53665281Y-29391039D01*
X53641844Y-29382726D01*
X53599644Y-29368919D01*
X53575847Y-29361774D01*
X53532663Y-29349959D01*
X53529705Y-29349227D01*
X53508580Y-29344000D01*
X53508557Y-29343995D01*
X53464433Y-29334218D01*
X53440190Y-29329467D01*
X53395182Y-29321780D01*
X53374883Y-29318820D01*
X53370810Y-29318226D01*
X53352375Y-29315994D01*
X53324898Y-29312667D01*
X53300553Y-29310316D01*
X53253836Y-29306944D01*
X53229493Y-29305776D01*
X53182098Y-29304644D01*
X53182077Y-29304644D01*
X53157923Y-29304644D01*
X53157902Y-29304644D01*
X53110510Y-29305776D01*
X53086163Y-29306945D01*
X53039443Y-29310316D01*
X53015105Y-29312666D01*
X52969179Y-29318227D01*
X52944865Y-29321772D01*
X52899792Y-29329470D01*
X52875580Y-29334217D01*
X52831392Y-29344006D01*
X52807352Y-29349954D01*
X52764171Y-29361769D01*
X52740338Y-29368924D01*
X52698160Y-29382726D01*
X52674725Y-29391039D01*
X52674700Y-29391048D01*
X52668633Y-29393369D01*
X52633542Y-29406797D01*
X52610491Y-29416277D01*
X52570446Y-29433911D01*
X52547875Y-29444523D01*
X52517230Y-29459867D01*
X52508963Y-29464006D01*
X52486927Y-29475728D01*
X52486889Y-29475748D01*
X52449237Y-29496987D01*
X52449223Y-29496995D01*
X52449213Y-29497001D01*
X52442099Y-29501249D01*
X52427745Y-29509820D01*
X52391318Y-29532810D01*
X52370545Y-29546650D01*
X52335349Y-29571375D01*
X52315312Y-29586205D01*
X52285321Y-29609570D01*
X52281586Y-29612480D01*
X52281470Y-29612570D01*
X52262175Y-29628383D01*
X52229701Y-29656368D01*
X52211229Y-29673099D01*
X52180266Y-29702567D01*
X52162571Y-29720262D01*
X52133120Y-29751206D01*
X52116326Y-29769747D01*
X52088397Y-29802157D01*
X52072577Y-29821460D01*
X52046226Y-29855284D01*
X52031350Y-29875384D01*
X52006660Y-29910529D01*
X51992821Y-29931301D01*
X51969792Y-29967790D01*
X51957002Y-29989209D01*
X51946371Y-30008056D01*
X51892380Y-30063135D01*
X51818082Y-30083839D01*
X51743387Y-30064620D01*
X51688308Y-30010629D01*
X51686279Y-30007082D01*
X51681407Y-29998285D01*
X51663970Y-29969155D01*
X51663089Y-29967790D01*
X51639973Y-29931960D01*
X51639528Y-29931301D01*
X51628365Y-29914753D01*
X51628353Y-29914735D01*
X51602584Y-29878178D01*
X51597806Y-29871792D01*
X51585458Y-29855285D01*
X51557858Y-29820485D01*
X51557834Y-29820456D01*
X51542247Y-29801748D01*
X51524927Y-29781954D01*
X51512828Y-29768126D01*
X51512825Y-29768123D01*
X51512813Y-29768109D01*
X51496511Y-29750352D01*
X51481424Y-29734685D01*
X51465322Y-29717964D01*
X51444641Y-29697684D01*
X51444631Y-29697674D01*
X51412260Y-29667701D01*
X51398311Y-29655255D01*
X51364141Y-29625881D01*
X51363599Y-29625442D01*
X51341160Y-29607266D01*
X51320303Y-29591358D01*
X51305758Y-29580264D01*
X51285860Y-29565839D01*
X51249270Y-29540645D01*
X51228666Y-29527186D01*
X51190874Y-29503791D01*
X51166861Y-29489824D01*
X51127282Y-29468236D01*
X51127260Y-29468224D01*
X51111266Y-29459867D01*
X51071666Y-29440067D01*
X51071653Y-29440061D01*
X51071643Y-29440056D01*
X51041476Y-29426192D01*
X51021252Y-29417692D01*
X51000061Y-29408786D01*
X50993327Y-29406103D01*
X50982408Y-29401753D01*
X50941052Y-29386170D01*
X50918575Y-29378300D01*
X50875988Y-29364504D01*
X50849186Y-29356633D01*
X50805983Y-29345232D01*
X50778754Y-29338847D01*
X50734935Y-29329843D01*
X50714113Y-29326017D01*
X50669731Y-29318820D01*
X50665356Y-29318226D01*
X50643868Y-29315308D01*
X50643860Y-29315307D01*
X50643837Y-29315304D01*
X50600087Y-29310509D01*
X50571926Y-29308217D01*
X50561922Y-29307683D01*
X50526922Y-29305817D01*
X50514084Y-29305388D01*
X50506808Y-29305145D01*
X50462430Y-29304545D01*
X50435150Y-29304914D01*
X50435125Y-29304914D01*
X50435124Y-29304915D01*
X50422448Y-29305428D01*
X50390696Y-29306716D01*
X50363613Y-29308545D01*
X50319203Y-29312746D01*
X50292472Y-29315994D01*
X50248048Y-29322598D01*
X50227199Y-29326144D01*
X50183381Y-29334548D01*
X50162472Y-29339019D01*
X50141352Y-29344006D01*
X50119240Y-29349227D01*
X50119231Y-29349229D01*
X50119224Y-29349231D01*
X50093859Y-29355920D01*
X50050642Y-29368525D01*
X50028267Y-29375619D01*
X49986264Y-29390020D01*
X49960131Y-29399794D01*
X49918717Y-29416599D01*
X49890948Y-29428852D01*
X49850704Y-29448073D01*
X49831787Y-29457601D01*
X49792157Y-29478617D01*
X49767916Y-29492343D01*
X49730140Y-29515128D01*
X49712360Y-29526362D01*
X49675173Y-29550954D01*
X49655052Y-29564971D01*
X49619072Y-29591356D01*
X49595720Y-29609557D01*
X49595709Y-29609566D01*
X49595704Y-29609570D01*
X49590037Y-29614260D01*
X49560879Y-29638391D01*
X49546930Y-29650370D01*
X49513955Y-29679747D01*
X49489360Y-29703187D01*
X49458168Y-29734980D01*
X49444954Y-29748970D01*
X49414968Y-29781954D01*
X49396262Y-29803744D01*
X49368059Y-29838546D01*
X49356400Y-29853498D01*
X49329406Y-29889490D01*
X49282350Y-29965372D01*
X49282349Y-29965375D01*
X49272193Y-29995629D01*
X49229559Y-30059903D01*
X49160501Y-30094248D01*
X49083521Y-30089463D01*
X49019247Y-30046829D01*
X49001166Y-30021420D01*
X48982999Y-29989213D01*
X48970199Y-29967777D01*
X48947191Y-29931321D01*
X48943395Y-29925624D01*
X48933344Y-29910537D01*
X48933343Y-29910536D01*
X48933338Y-29910528D01*
X48908638Y-29875369D01*
X48893779Y-29855291D01*
X48893774Y-29855285D01*
X48889012Y-29849172D01*
X48867437Y-29821478D01*
X48851597Y-29802152D01*
X48823661Y-29769734D01*
X48822205Y-29768126D01*
X48806896Y-29751223D01*
X48777427Y-29720261D01*
X48759738Y-29702572D01*
X48728776Y-29673103D01*
X48710293Y-29656363D01*
X48710282Y-29656354D01*
X48710266Y-29656339D01*
X48677848Y-29628403D01*
X48677261Y-29627922D01*
X48660592Y-29614260D01*
X48658522Y-29612563D01*
X48631303Y-29591358D01*
X48624707Y-29586219D01*
X48604642Y-29571370D01*
X48595533Y-29564971D01*
X48569472Y-29546662D01*
X48569471Y-29546661D01*
X48569462Y-29546655D01*
X48548698Y-29532821D01*
X48512209Y-29509792D01*
X48490781Y-29496997D01*
X48453110Y-29475748D01*
X48453106Y-29475746D01*
X48453085Y-29475734D01*
X48431037Y-29464006D01*
X48399180Y-29448056D01*
X48392124Y-29444523D01*
X48369538Y-29433905D01*
X48329532Y-29416287D01*
X48311292Y-29408786D01*
X48306451Y-29406795D01*
X48295121Y-29402459D01*
X48265281Y-29391039D01*
X48241844Y-29382726D01*
X48199671Y-29368927D01*
X48175827Y-29361769D01*
X48132666Y-29349959D01*
X48108559Y-29343995D01*
X48064453Y-29334224D01*
X48040199Y-29329469D01*
X48040194Y-29329468D01*
X48020730Y-29326144D01*
X47995149Y-29321775D01*
X47974883Y-29318820D01*
X47970810Y-29318226D01*
X47952375Y-29315994D01*
X47924898Y-29312667D01*
X47900553Y-29310316D01*
X47853836Y-29306944D01*
X47829493Y-29305776D01*
X47782098Y-29304644D01*
X47782077Y-29304644D01*
X47757923Y-29304644D01*
X47757902Y-29304644D01*
X47710506Y-29305776D01*
X47686163Y-29306944D01*
X47639446Y-29310316D01*
X47615101Y-29312667D01*
X47569190Y-29318226D01*
X47544850Y-29321775D01*
X47499800Y-29329469D01*
X47475546Y-29334224D01*
X47431440Y-29343995D01*
X47407333Y-29349959D01*
X47364172Y-29361769D01*
X47340328Y-29368927D01*
X47298155Y-29382726D01*
X47274718Y-29391039D01*
X47233551Y-29406794D01*
X47210467Y-29416287D01*
X47170461Y-29433905D01*
X47147875Y-29444523D01*
X47117230Y-29459867D01*
X47108963Y-29464006D01*
X47086927Y-29475728D01*
X47086889Y-29475748D01*
X47049218Y-29496997D01*
X47027790Y-29509792D01*
X46991301Y-29532821D01*
X46970537Y-29546655D01*
X46935357Y-29571370D01*
X46915292Y-29586219D01*
X46881478Y-29612563D01*
X46862175Y-29628383D01*
X46829706Y-29656363D01*
X46811223Y-29673103D01*
X46780261Y-29702572D01*
X46762572Y-29720261D01*
X46733103Y-29751223D01*
X46716363Y-29769706D01*
X46688383Y-29802175D01*
X46672563Y-29821478D01*
X46646219Y-29855292D01*
X46631370Y-29875357D01*
X46606655Y-29910537D01*
X46592821Y-29931301D01*
X46569792Y-29967790D01*
X46556997Y-29989218D01*
X46535748Y-30026889D01*
X46524006Y-30048963D01*
X46504523Y-30087875D01*
X46493905Y-30110461D01*
X46476287Y-30150467D01*
X46466794Y-30173551D01*
X46451039Y-30214718D01*
X46442726Y-30238155D01*
X46428927Y-30280328D01*
X46421769Y-30304172D01*
X46409959Y-30347333D01*
X46403995Y-30371440D01*
X46394224Y-30415546D01*
X46389469Y-30439800D01*
X46381775Y-30484850D01*
X46378226Y-30509190D01*
X46372667Y-30555101D01*
X46370316Y-30579446D01*
X46366944Y-30626163D01*
X46365776Y-30650506D01*
X46364644Y-30697902D01*
X41039636Y-30697902D01*
X41118870Y-30588845D01*
X41233241Y-30364379D01*
X41311090Y-30124785D01*
X41350500Y-29875962D01*
X41350500Y-29624038D01*
X41311090Y-29375215D01*
X41233241Y-29135621D01*
X41118870Y-28911155D01*
X40970793Y-28707344D01*
X40792656Y-28529207D01*
X40588845Y-28381130D01*
X40364379Y-28266759D01*
X40124785Y-28188910D01*
X39875962Y-28149500D01*
X39624038Y-28149500D01*
X39416685Y-28182341D01*
X39375214Y-28188910D01*
X39135627Y-28266757D01*
X39135621Y-28266759D01*
X39135615Y-28266761D01*
X39135615Y-28266762D01*
X38911153Y-28381131D01*
X38911152Y-28381131D01*
X38707345Y-28529206D01*
X38707342Y-28529208D01*
X38529208Y-28707342D01*
X38529206Y-28707345D01*
X38381131Y-28911152D01*
X38381131Y-28911153D01*
X38266762Y-29135615D01*
X38266757Y-29135627D01*
X38188910Y-29375214D01*
X38182406Y-29416277D01*
X38149500Y-29624038D01*
X37250500Y-29624038D01*
X37250500Y-27399500D01*
X37270462Y-27325000D01*
X37325000Y-27270462D01*
X37399500Y-27250500D01*
X84100500Y-27250500D01*
X84175000Y-27270462D01*
G37*
%TD.AperFunction*%
%TD*%
%TA.AperFunction,NonConductor*%
G36*
X81145526Y-43019528D02*
G01*
X81256754Y-43076202D01*
X81304364Y-43116864D01*
X81383136Y-43195636D01*
X81401595Y-43221043D01*
X81423798Y-43243246D01*
X81438053Y-43271224D01*
X81456512Y-43296630D01*
X81466215Y-43326494D01*
X81480472Y-43354474D01*
X81485384Y-43385490D01*
X81495088Y-43415355D01*
X81500000Y-43477772D01*
X81500000Y-43936122D01*
X81480472Y-44059420D01*
X81423798Y-44170648D01*
X81335526Y-44258920D01*
X81224298Y-44315594D01*
X81101000Y-44335122D01*
X80977702Y-44315594D01*
X80866474Y-44258920D01*
X80818870Y-44218263D01*
X80782365Y-44181758D01*
X80782361Y-44181755D01*
X80604025Y-44052186D01*
X80604020Y-44052184D01*
X80407606Y-43952105D01*
X80407602Y-43952103D01*
X80407596Y-43952101D01*
X80197959Y-43883987D01*
X80197955Y-43883986D01*
X80197951Y-43883985D01*
X79980222Y-43849500D01*
X79759778Y-43849500D01*
X79542049Y-43883985D01*
X79542046Y-43883986D01*
X79542040Y-43883987D01*
X79332403Y-43952101D01*
X79332394Y-43952105D01*
X79135979Y-44052184D01*
X79135974Y-44052186D01*
X78957638Y-44181755D01*
X78957635Y-44181757D01*
X78957635Y-44181758D01*
X78882132Y-44257260D01*
X78781142Y-44330634D01*
X78662417Y-44369210D01*
X78537583Y-44369210D01*
X78418858Y-44330634D01*
X78317867Y-44257260D01*
X78242365Y-44181758D01*
X78242361Y-44181755D01*
X78064025Y-44052186D01*
X78064020Y-44052184D01*
X77867606Y-43952105D01*
X77867602Y-43952103D01*
X77867596Y-43952101D01*
X77657959Y-43883987D01*
X77642708Y-43880326D01*
X77643334Y-43877715D01*
X77637216Y-43875727D01*
X77606203Y-43870816D01*
X77578220Y-43856557D01*
X77548353Y-43846853D01*
X77522951Y-43828396D01*
X77494975Y-43814142D01*
X77472768Y-43791935D01*
X77447361Y-43773475D01*
X77428905Y-43748072D01*
X77406703Y-43725870D01*
X77392444Y-43697886D01*
X77373987Y-43672481D01*
X77364285Y-43642621D01*
X77350029Y-43614642D01*
X77345116Y-43583622D01*
X77335412Y-43553755D01*
X77330501Y-43491344D01*
X77330501Y-43399000D01*
X77350029Y-43275702D01*
X77406703Y-43164474D01*
X77494975Y-43076202D01*
X77606203Y-43019528D01*
X77729501Y-43000000D01*
X80250000Y-43000000D01*
X81022228Y-43000000D01*
X81145526Y-43019528D01*
G37*
%TD.AperFunction*%
%TA.AperFunction,NonConductor*%
G36*
X66303920Y-37925028D02*
G01*
X66415148Y-37981702D01*
X66503420Y-38069974D01*
X66560094Y-38181202D01*
X66579622Y-38304500D01*
X66560094Y-38427798D01*
X66503420Y-38539026D01*
X66462763Y-38586629D01*
X66431758Y-38617635D01*
X66431755Y-38617638D01*
X66302186Y-38795974D01*
X66302184Y-38795979D01*
X66202105Y-38992394D01*
X66202101Y-38992403D01*
X66133987Y-39202040D01*
X66133986Y-39202045D01*
X66133985Y-39202049D01*
X66099500Y-39419778D01*
X66099500Y-39640222D01*
X66133985Y-39857951D01*
X66133986Y-39857953D01*
X66133987Y-39857959D01*
X66202101Y-40067596D01*
X66202103Y-40067602D01*
X66202105Y-40067606D01*
X66278641Y-40217815D01*
X66302184Y-40264020D01*
X66302186Y-40264025D01*
X66431755Y-40442361D01*
X66431758Y-40442365D01*
X66507260Y-40517867D01*
X66580634Y-40618858D01*
X66619210Y-40737583D01*
X66619210Y-40862417D01*
X66580634Y-40981142D01*
X66507260Y-41082132D01*
X66431758Y-41157635D01*
X66431755Y-41157638D01*
X66302186Y-41335974D01*
X66302184Y-41335979D01*
X66202105Y-41532394D01*
X66202101Y-41532403D01*
X66133987Y-41742040D01*
X66133986Y-41742045D01*
X66133985Y-41742049D01*
X66099500Y-41959778D01*
X66099500Y-42180222D01*
X66133985Y-42397951D01*
X66133986Y-42397953D01*
X66133987Y-42397959D01*
X66202101Y-42607596D01*
X66202103Y-42607602D01*
X66202105Y-42607606D01*
X66278640Y-42757813D01*
X66302184Y-42804020D01*
X66302186Y-42804025D01*
X66394400Y-42930946D01*
X66431758Y-42982365D01*
X66587635Y-43138242D01*
X66587638Y-43138244D01*
X66765974Y-43267813D01*
X66765976Y-43267814D01*
X66765978Y-43267815D01*
X66962394Y-43367895D01*
X66962402Y-43367897D01*
X66962403Y-43367898D01*
X67172045Y-43436014D01*
X67172046Y-43436014D01*
X67172049Y-43436015D01*
X67200708Y-43440554D01*
X67319430Y-43479128D01*
X67420424Y-43552503D01*
X67420427Y-43552505D01*
X68681286Y-44813364D01*
X68754662Y-44914358D01*
X68793238Y-45033083D01*
X68793238Y-45157917D01*
X68754662Y-45276642D01*
X68681286Y-45377636D01*
X68580292Y-45451012D01*
X68461567Y-45489588D01*
X68399150Y-45494500D01*
X65183505Y-45494500D01*
X65060207Y-45474972D01*
X64948979Y-45418298D01*
X64860707Y-45330026D01*
X64804033Y-45218798D01*
X64784505Y-45095500D01*
X64788566Y-45038718D01*
X64801984Y-44945389D01*
X64801985Y-44945378D01*
X64801985Y-39324004D01*
X64799786Y-39303551D01*
X64790432Y-39216544D01*
X64779226Y-39165033D01*
X64745098Y-39062496D01*
X64745097Y-39062494D01*
X64745096Y-39062491D01*
X64667317Y-38941467D01*
X64667313Y-38941463D01*
X64667310Y-38941457D01*
X64621555Y-38888653D01*
X64514604Y-38795978D01*
X64512820Y-38794432D01*
X64381945Y-38734662D01*
X64354077Y-38726479D01*
X64314905Y-38714977D01*
X64314901Y-38714976D01*
X64206836Y-38699438D01*
X64087573Y-38662562D01*
X63985542Y-38590636D01*
X63910731Y-38490701D01*
X63870464Y-38372539D01*
X63868681Y-38247717D01*
X63905558Y-38128453D01*
X63977484Y-38026422D01*
X64077419Y-37951611D01*
X64195581Y-37911344D01*
X64263620Y-37905500D01*
X66180622Y-37905500D01*
X66303920Y-37925028D01*
G37*
%TD.AperFunction*%
%TA.AperFunction,NonConductor*%
G36*
X69595462Y-38956515D02*
G01*
X69696455Y-39029890D01*
X69769832Y-39130883D01*
X69808408Y-39249607D01*
X69823983Y-39347944D01*
X69823987Y-39347959D01*
X69892101Y-39557596D01*
X69892103Y-39557602D01*
X69892105Y-39557606D01*
X69946590Y-39664538D01*
X69992184Y-39754020D01*
X69992186Y-39754025D01*
X70067699Y-39857959D01*
X70121758Y-39932365D01*
X70197260Y-40007867D01*
X70270634Y-40108858D01*
X70309210Y-40227583D01*
X70309210Y-40352417D01*
X70270634Y-40471142D01*
X70197260Y-40572132D01*
X70150535Y-40618858D01*
X70121755Y-40647638D01*
X69992186Y-40825974D01*
X69992184Y-40825979D01*
X69892105Y-41022394D01*
X69892101Y-41022403D01*
X69823987Y-41232040D01*
X69823986Y-41232045D01*
X69823985Y-41232049D01*
X69789500Y-41449778D01*
X69789500Y-41670222D01*
X69823985Y-41887951D01*
X69823986Y-41887953D01*
X69823987Y-41887959D01*
X69892101Y-42097596D01*
X69892103Y-42097602D01*
X69892105Y-42097606D01*
X69992184Y-42294020D01*
X69992186Y-42294025D01*
X70067699Y-42397959D01*
X70121758Y-42472365D01*
X70277635Y-42628242D01*
X70277638Y-42628244D01*
X70455974Y-42757813D01*
X70455976Y-42757814D01*
X70455978Y-42757815D01*
X70652394Y-42857895D01*
X70862049Y-42926015D01*
X71079778Y-42960500D01*
X71079781Y-42960500D01*
X71300219Y-42960500D01*
X71300222Y-42960500D01*
X71517951Y-42926015D01*
X71677206Y-42874270D01*
X71800501Y-42854743D01*
X71923799Y-42874272D01*
X72035027Y-42930946D01*
X72123299Y-43019218D01*
X72179972Y-43130447D01*
X72199500Y-43253743D01*
X72199500Y-45104150D01*
X72179972Y-45227448D01*
X72123298Y-45338676D01*
X72035026Y-45426948D01*
X71923798Y-45483622D01*
X71800500Y-45503150D01*
X71677202Y-45483622D01*
X71565974Y-45426948D01*
X71518364Y-45386286D01*
X68956511Y-42824433D01*
X68883135Y-42723439D01*
X68844559Y-42604714D01*
X68844559Y-42479880D01*
X68859173Y-42419006D01*
X68866015Y-42397951D01*
X68900500Y-42180222D01*
X68900500Y-41959778D01*
X68866015Y-41742049D01*
X68797895Y-41532394D01*
X68697815Y-41335978D01*
X68697814Y-41335976D01*
X68697813Y-41335974D01*
X68568244Y-41157638D01*
X68568242Y-41157635D01*
X68492739Y-41082132D01*
X68419366Y-40981142D01*
X68380790Y-40862417D01*
X68380790Y-40737583D01*
X68419366Y-40618858D01*
X68492739Y-40517867D01*
X68568242Y-40442365D01*
X68697815Y-40264022D01*
X68797895Y-40067606D01*
X68866015Y-39857951D01*
X68900500Y-39640222D01*
X68900500Y-39426849D01*
X68905412Y-39395833D01*
X68905412Y-39364433D01*
X68915115Y-39334569D01*
X68920028Y-39303551D01*
X68934285Y-39275569D01*
X68943988Y-39245708D01*
X68962444Y-39220304D01*
X68976702Y-39192323D01*
X69017363Y-39144715D01*
X69132184Y-39029893D01*
X69233177Y-38956516D01*
X69351902Y-38917940D01*
X69476737Y-38917939D01*
X69595462Y-38956515D01*
G37*
%TD.AperFunction*%
%TA.AperFunction,NonConductor*%
G36*
X72992894Y-35749274D02*
G01*
X72992910Y-35749277D01*
X73071986Y-35755500D01*
X77039623Y-35755500D01*
X77162921Y-35775028D01*
X77274149Y-35831702D01*
X77362421Y-35919974D01*
X77419095Y-36031202D01*
X77438623Y-36154500D01*
X77433711Y-36216915D01*
X77409500Y-36369778D01*
X77409500Y-36590222D01*
X77443985Y-36807951D01*
X77443986Y-36807953D01*
X77443987Y-36807959D01*
X77512101Y-37017596D01*
X77512103Y-37017602D01*
X77512105Y-37017606D01*
X77612184Y-37214020D01*
X77612186Y-37214025D01*
X77741755Y-37392361D01*
X77741758Y-37392365D01*
X77817259Y-37467866D01*
X77890633Y-37568857D01*
X77929209Y-37687582D01*
X77929209Y-37812416D01*
X77890633Y-37931141D01*
X77817260Y-38032131D01*
X77741761Y-38107630D01*
X77741756Y-38107637D01*
X77612186Y-38285974D01*
X77612184Y-38285979D01*
X77512105Y-38482394D01*
X77512101Y-38482403D01*
X77443987Y-38692040D01*
X77443986Y-38692045D01*
X77443985Y-38692049D01*
X77410178Y-38905498D01*
X77409500Y-38909780D01*
X77409500Y-39116150D01*
X77389972Y-39239448D01*
X77333298Y-39350676D01*
X77292636Y-39398285D01*
X76019712Y-40671208D01*
X76019713Y-40671209D01*
X75908212Y-40782710D01*
X75820608Y-40913818D01*
X75760263Y-41059505D01*
X75729501Y-41214158D01*
X75729501Y-44528842D01*
X75760263Y-44683495D01*
X75820608Y-44829182D01*
X75863024Y-44892662D01*
X75915288Y-45006030D01*
X75929262Y-45124102D01*
X75929500Y-45124102D01*
X75929500Y-45126113D01*
X75929960Y-45130000D01*
X75929500Y-45137806D01*
X75929500Y-45139778D01*
X75929500Y-45360222D01*
X75963985Y-45577951D01*
X75963986Y-45577953D01*
X75963987Y-45577959D01*
X76032101Y-45787596D01*
X76032103Y-45787602D01*
X76032105Y-45787606D01*
X76060000Y-45842352D01*
X76132184Y-45984020D01*
X76132186Y-45984025D01*
X76261755Y-46162361D01*
X76261758Y-46162365D01*
X76417635Y-46318242D01*
X76417638Y-46318244D01*
X76595974Y-46447813D01*
X76595976Y-46447814D01*
X76595978Y-46447815D01*
X76792394Y-46547895D01*
X77002049Y-46616015D01*
X77219778Y-46650500D01*
X77219781Y-46650500D01*
X77440219Y-46650500D01*
X77440222Y-46650500D01*
X77657951Y-46616015D01*
X77867606Y-46547895D01*
X78064022Y-46447815D01*
X78242365Y-46318242D01*
X78317867Y-46242739D01*
X78418858Y-46169366D01*
X78537583Y-46130790D01*
X78662417Y-46130790D01*
X78781142Y-46169366D01*
X78882132Y-46242739D01*
X78957635Y-46318242D01*
X78957638Y-46318244D01*
X79135974Y-46447813D01*
X79135976Y-46447814D01*
X79135978Y-46447815D01*
X79332394Y-46547895D01*
X79542049Y-46616015D01*
X79759778Y-46650500D01*
X79759781Y-46650500D01*
X79973150Y-46650500D01*
X80004164Y-46655412D01*
X80035567Y-46655412D01*
X80065431Y-46665115D01*
X80096448Y-46670028D01*
X80124427Y-46684284D01*
X80154292Y-46693988D01*
X80179697Y-46712446D01*
X80207676Y-46726702D01*
X80255286Y-46767364D01*
X80556286Y-47068364D01*
X80629662Y-47169358D01*
X80668238Y-47288083D01*
X80668238Y-47412917D01*
X80629662Y-47531642D01*
X80556286Y-47632636D01*
X80455292Y-47706012D01*
X80336567Y-47744588D01*
X80274150Y-47749500D01*
X79233487Y-47749500D01*
X79233475Y-47749501D01*
X79139696Y-47764353D01*
X79026660Y-47821948D01*
X78936948Y-47911660D01*
X78879354Y-48024693D01*
X78864500Y-48118483D01*
X78864500Y-48953150D01*
X78859587Y-48984165D01*
X78859588Y-49015566D01*
X78849884Y-49045429D01*
X78844972Y-49076448D01*
X78830714Y-49104429D01*
X78821012Y-49134291D01*
X78802555Y-49159694D01*
X78788298Y-49187676D01*
X78747636Y-49235285D01*
X78561287Y-49421635D01*
X78460294Y-49495011D01*
X78341569Y-49533587D01*
X78279151Y-49538500D01*
X77964320Y-49538500D01*
X77841022Y-49518972D01*
X77729794Y-49462298D01*
X77682184Y-49421636D01*
X73917364Y-45656816D01*
X73843988Y-45555822D01*
X73805412Y-45437097D01*
X73800500Y-45374680D01*
X73800500Y-39336942D01*
X73789952Y-39283917D01*
X73786654Y-39267334D01*
X73769737Y-39182289D01*
X73748170Y-39130222D01*
X73709394Y-39036608D01*
X73621789Y-38905498D01*
X73604938Y-38888647D01*
X73510290Y-38793998D01*
X73114502Y-38398210D01*
X72983394Y-38310607D01*
X72983392Y-38310606D01*
X72837710Y-38250263D01*
X72837708Y-38250262D01*
X72837707Y-38250262D01*
X72683055Y-38219500D01*
X72535378Y-38219500D01*
X72504364Y-38214588D01*
X72472961Y-38214588D01*
X72443096Y-38204884D01*
X72412080Y-38199972D01*
X72384100Y-38185715D01*
X72354236Y-38176012D01*
X72328830Y-38157553D01*
X72300852Y-38143298D01*
X72253248Y-38102641D01*
X72182738Y-38032131D01*
X72109366Y-37931142D01*
X72070790Y-37812417D01*
X72070790Y-37687583D01*
X72109366Y-37568858D01*
X72182739Y-37467867D01*
X72258242Y-37392365D01*
X72387815Y-37214022D01*
X72487895Y-37017606D01*
X72556015Y-36807951D01*
X72590500Y-36590222D01*
X72590500Y-36369778D01*
X72565077Y-36209270D01*
X72565077Y-36084439D01*
X72603652Y-35965714D01*
X72677028Y-35864720D01*
X72778021Y-35791343D01*
X72896746Y-35752767D01*
X72990473Y-35749084D01*
X72992894Y-35749274D01*
G37*
%TD.AperFunction*%
%TA.AperFunction,Conductor*%
%TO.N,VCC*%
G36*
X73758026Y-29019528D02*
G01*
X73869254Y-29076202D01*
X73916864Y-29116864D01*
X74483136Y-29683136D01*
X74556512Y-29784130D01*
X74595088Y-29902855D01*
X74600000Y-29965272D01*
X74600000Y-31550000D01*
X75450000Y-32400000D01*
X79284728Y-32400000D01*
X79408026Y-32419528D01*
X79519254Y-32476202D01*
X79566864Y-32516864D01*
X80133136Y-33083136D01*
X80206512Y-33184130D01*
X80245088Y-33302855D01*
X80250000Y-33365272D01*
X80250000Y-34284728D01*
X80245088Y-34315741D01*
X80245088Y-34347146D01*
X80235384Y-34377010D01*
X80230472Y-34408026D01*
X80216214Y-34436008D01*
X80206511Y-34465871D01*
X80188054Y-34491273D01*
X80173798Y-34519254D01*
X80133135Y-34566864D01*
X79728385Y-34971613D01*
X79627392Y-35044989D01*
X79508667Y-35083565D01*
X79383832Y-35083565D01*
X79322953Y-35068949D01*
X79161370Y-35016447D01*
X79068057Y-35001668D01*
X78928092Y-34979500D01*
X78691908Y-34979500D01*
X78502052Y-35009569D01*
X78458625Y-35016448D01*
X78234008Y-35089431D01*
X78080413Y-35167692D01*
X78023567Y-35196657D01*
X78023565Y-35196658D01*
X78009600Y-35203774D01*
X78008297Y-35201217D01*
X77917111Y-35238981D01*
X77823990Y-35250000D01*
X73071986Y-35250000D01*
X72948688Y-35230472D01*
X72837460Y-35173798D01*
X72749188Y-35085526D01*
X72692514Y-34974298D01*
X72672986Y-34851000D01*
X72675495Y-34806324D01*
X72690499Y-34673159D01*
X72690500Y-34673153D01*
X72690499Y-33206848D01*
X72688601Y-33189999D01*
X72675132Y-33070452D01*
X72675131Y-33070450D01*
X72675131Y-33070446D01*
X72614622Y-32897521D01*
X72614620Y-32897517D01*
X72517153Y-32742399D01*
X72517152Y-32742398D01*
X72517151Y-32742396D01*
X72387604Y-32612849D01*
X72387601Y-32612847D01*
X72387600Y-32612846D01*
X72232482Y-32515379D01*
X72059554Y-32454869D01*
X72059552Y-32454868D01*
X71923156Y-32439500D01*
X70456851Y-32439500D01*
X70456830Y-32439502D01*
X70320452Y-32454867D01*
X70147518Y-32515379D01*
X70147517Y-32515379D01*
X69992399Y-32612846D01*
X69862846Y-32742399D01*
X69765379Y-32897517D01*
X69765379Y-32897518D01*
X69704869Y-33070445D01*
X69704868Y-33070447D01*
X69689500Y-33206840D01*
X69689500Y-34673148D01*
X69689502Y-34673169D01*
X69704867Y-34809547D01*
X69704868Y-34809553D01*
X69709054Y-34821515D01*
X69731341Y-34944344D01*
X69714581Y-35068048D01*
X69660414Y-35180519D01*
X69614578Y-35235422D01*
X69600000Y-35250000D01*
X69600000Y-35991227D01*
X69580472Y-36114525D01*
X69523798Y-36225753D01*
X69483136Y-36273363D01*
X68473363Y-37283136D01*
X68372369Y-37356512D01*
X68253644Y-37395088D01*
X68191227Y-37400000D01*
X63450000Y-37400000D01*
X62600000Y-38250000D01*
X62600000Y-38250001D01*
X62600000Y-38351000D01*
X62580472Y-38474298D01*
X62523798Y-38585526D01*
X62435526Y-38673798D01*
X62416517Y-38683483D01*
X62350000Y-38750001D01*
X62350000Y-39601000D01*
X62330472Y-39724298D01*
X62273798Y-39835526D01*
X62185526Y-39923798D01*
X62074298Y-39980472D01*
X61951000Y-40000000D01*
X61949000Y-40000000D01*
X61825702Y-39980472D01*
X61714474Y-39923798D01*
X61626202Y-39835526D01*
X61569528Y-39724298D01*
X61550000Y-39601000D01*
X61550000Y-38750001D01*
X61482962Y-38682963D01*
X61464974Y-38673798D01*
X61376702Y-38585526D01*
X61320028Y-38474298D01*
X61300500Y-38351000D01*
X61300500Y-36264772D01*
X61320028Y-36141474D01*
X61376702Y-36030246D01*
X61417364Y-35982636D01*
X61883136Y-35516864D01*
X61984130Y-35443488D01*
X62102855Y-35404912D01*
X62165272Y-35400000D01*
X66199998Y-35400000D01*
X66200000Y-35400000D01*
X67800000Y-33800000D01*
X67800000Y-29965272D01*
X67819528Y-29841974D01*
X67876202Y-29730746D01*
X67916864Y-29683136D01*
X68483136Y-29116864D01*
X68584130Y-29043488D01*
X68702855Y-29004912D01*
X68765272Y-29000000D01*
X73634728Y-29000000D01*
X73758026Y-29019528D01*
G37*
%TD.AperFunction*%
%TD*%
M02*
