M48
; DRILL file {KiCad 9.0.1} date 2025-09-03T01:12:26-0400
; FORMAT={-:-/ absolute / metric / decimal}
; #@! TF.CreationDate,2025-09-03T01:12:26-04:00
; #@! TF.GenerationSoftware,Kicad,Pcbnew,9.0.1
; #@! TF.FileFunction,MixedPlating,1,2
FMAT,2
METRIC
; #@! TA.AperFunction,Plated,PTH,ComponentDrill
T1C0.800
; #@! TA.AperFunction,Plated,PTH,ComponentDrill
T2C0.900
; #@! TA.AperFunction,Plated,PTH,ComponentDrill
T3C1.000
; #@! TA.AperFunction,Plated,PTH,ComponentDrill
T4C1.100
; #@! TA.AperFunction,Plated,PTH,ComponentDrill
T5C1.300
%
G90
G05
T1
X45.2Y-48.0
X50.2Y-48.0
X67.5Y-39.53
X67.5Y-42.07
X71.19Y-33.94
X71.19Y-36.48
X71.19Y-39.02
X71.19Y-41.56
X73.0Y-30.5
X77.33Y-45.25
X78.0Y-30.5
X78.81Y-33.94
X78.81Y-36.48
X78.81Y-39.02
X78.81Y-41.56
X79.87Y-45.25
T2
X63.19Y-71.0
X70.81Y-71.0
T3
X66.7Y-61.0
X74.2Y-61.0
X80.115Y-49.0
X80.115Y-51.54
T4
X48.34Y-59.59
X48.34Y-79.91
X54.8Y-47.8
X58.5Y-59.59
X58.5Y-79.91
X69.8Y-47.8
X80.5Y-56.2
X80.5Y-58.74
X80.5Y-61.28
T5
X49.6Y-51.06
X49.6Y-56.14
X51.66Y-74.6
X56.74Y-74.6
X59.385Y-31.827
X64.465Y-31.827
X65.5Y-78.5
X70.58Y-78.5
T3
G00X45.8Y-36.25
M15
G01X45.8Y-38.25
M16
G05
G00X51.5Y-34.25
M15
G01X49.5Y-34.25
M16
G05
G00X51.5Y-40.25
M15
G01X49.5Y-40.25
M16
G05
M30
