M48
; DRILL file {KiCad 9.0.1} date 2025-10-22T15:58:38-0300
; FORMAT={-:-/ absolute / metric / decimal}
; #@! TF.CreationDate,2025-10-22T15:58:38-03:00
; #@! TF.GenerationSoftware,Kicad,Pcbnew,9.0.1
; #@! TF.FileFunction,MixedPlating,1,2
FMAT,2
METRIC
; #@! TA.AperFunction,Plated,PTH,ComponentDrill
T1C0.800
; #@! TA.AperFunction,Plated,PTH,ComponentDrill
T2C1.000
; #@! TA.AperFunction,Plated,PTH,ComponentDrill
T3C1.100
; #@! TA.AperFunction,Plated,PTH,ComponentDrill
T4C1.200
; #@! TA.AperFunction,Plated,PTH,ComponentDrill
T5C1.300
; #@! TA.AperFunction,Plated,PTH,ComponentDrill
T6C1.500
; #@! TA.AperFunction,NonPlated,NPTH,ComponentDrill
T7C3.200
%
G90
G05
T1
X43.0Y-47.5
X48.0Y-47.5
X59.5Y-33.7
X59.5Y-36.24
X63.28Y-33.78
X63.28Y-36.32
X63.28Y-38.86
X63.28Y-41.4
X65.75Y-30.5
X70.75Y-30.5
X70.9Y-33.78
X70.9Y-36.32
X70.9Y-38.86
X70.9Y-41.4
X72.25Y-64.75
X72.25Y-82.25
X73.0Y-73.5
X74.5Y-38.25
X74.5Y-50.95
X75.5Y-73.5
X75.75Y-64.75
X75.75Y-82.25
T2
X58.725Y-30.25
X61.265Y-30.25
T3
X54.75Y-53.25
X69.75Y-53.25
X81.805Y-51.21
X81.805Y-53.75
X81.805Y-56.29
T4
X42.75Y-63.1
X42.75Y-88.5
X81.75Y-61.15
X81.75Y-86.55
T5
X65.5Y-92.5
X70.58Y-92.5
X82.25Y-35.265
X82.25Y-40.345
T6
X48.34Y-70.78
X48.34Y-91.1
X52.94Y-67.0
X58.5Y-70.78
X58.5Y-91.1
X60.56Y-67.0
T7
X40.75Y-26.25
X40.75Y-95.5
X82.75Y-26.25
X82.75Y-95.5
T2
G00X45.8Y-31.75
M15
G01X45.8Y-33.75
M16
G05
G00X51.5Y-29.75
M15
G01X49.5Y-29.75
M16
G05
G00X51.5Y-35.75
M15
G01X49.5Y-35.75
M16
G05
M30
