M48
; DRILL file {KiCad 9.0.1} date 2025-09-11T13:58:08-0300
; FORMAT={-:-/ absolute / metric / decimal}
; #@! TF.CreationDate,2025-09-11T13:58:08-03:00
; #@! TF.GenerationSoftware,Kicad,Pcbnew,9.0.1
; #@! TF.FileFunction,MixedPlating,1,2
FMAT,2
METRIC
; #@! TA.AperFunction,Plated,PTH,ComponentDrill
T1C0.800
; #@! TA.AperFunction,Plated,PTH,ComponentDrill
T2C0.900
; #@! TA.AperFunction,Plated,PTH,ComponentDrill
T3C1.000
; #@! TA.AperFunction,Plated,PTH,ComponentDrill
T4C1.100
; #@! TA.AperFunction,Plated,PTH,ComponentDrill
T5C1.200
; #@! TA.AperFunction,Plated,PTH,ComponentDrill
T6C1.300
; #@! TA.AperFunction,NonPlated,NPTH,ComponentDrill
T7C2.200
%
G90
G05
T1
X43.0Y-47.5
X48.0Y-47.5
X67.5Y-39.53
X67.5Y-42.07
X71.19Y-33.94
X71.19Y-36.48
X71.19Y-39.02
X71.19Y-41.56
X72.25Y-64.75
X72.25Y-73.5
X72.25Y-82.25
X73.0Y-30.5
X75.75Y-64.75
X75.75Y-73.5
X75.75Y-82.25
X77.33Y-45.25
X78.0Y-30.5
X78.81Y-33.94
X78.81Y-36.48
X78.81Y-39.02
X78.81Y-41.56
X79.87Y-45.25
T2
X52.94Y-67.0
X60.56Y-67.0
T3
X80.115Y-49.0
X80.115Y-51.54
T4
X48.34Y-70.78
X48.34Y-91.1
X54.75Y-47.75
X58.5Y-70.78
X58.5Y-91.1
X69.75Y-47.75
X80.5Y-56.2
X80.5Y-58.74
X80.5Y-61.28
T5
X42.75Y-77.25
X42.75Y-89.95
X43.0Y-54.4
X43.0Y-67.1
X64.0Y-58.1
X64.0Y-70.8
T6
X59.385Y-31.4
X64.465Y-31.4
X65.5Y-92.5
X70.58Y-92.5
T7
X39.75Y-29.75
X39.75Y-94.25
X81.75Y-29.75
X81.75Y-94.25
T3
G00X45.8Y-36.25
M15
G01X45.8Y-38.25
M16
G05
G00X51.5Y-34.25
M15
G01X49.5Y-34.25
M16
G05
G00X51.5Y-40.25
M15
G01X49.5Y-40.25
M16
G05
M30
